<?xml version="1.0" encoding="UTF-8" standalone="no"?>
<!-- Created with Inkscape (http://www.inkscape.org/) -->

<svg
   xmlns:dc="http://purl.org/dc/elements/1.1/"
   xmlns:cc="http://creativecommons.org/ns#"
   xmlns:rdf="http://www.w3.org/1999/02/22-rdf-syntax-ns#"
   xmlns:svg="http://www.w3.org/2000/svg"
   xmlns="http://www.w3.org/2000/svg"
   xmlns:sodipodi="http://sodipodi.sourceforge.net/DTD/sodipodi-0.dtd"
   xmlns:inkscape="http://www.inkscape.org/namespaces/inkscape"
   width="210mm"
   height="297mm"
   viewBox="0 0 210 297"
   version="1.1"
   id="svg6553"
   inkscape:version="0.92.2 (5c3e80d, 2017-08-06)"
   sodipodi:docname="tarjetas_de_movimiento.svg">
  <defs
     id="defs6547">
    <clipPath
       clipPathUnits="userSpaceOnUse"
       id="clipPath480">
      <path
         d="m 411.126,743.26 c -4.97,0 -9,-4.03 -9,-9 v 0 -166.253 c 0,-4.971 4.03,-9 9,-9 v 0 h 120.897 c 4.971,0 9,4.029 9,9 v 0 166.253 c 0,4.97 -4.029,9 -9,9 v 0 z"
         id="path478"
         inkscape:connector-curvature="0" />
    </clipPath>
    <clipPath
       clipPathUnits="userSpaceOnUse"
       id="clipPath532">
      <path
         d="m 442.955,678.062 h 65.24 v -77.285 h -65.24 z"
         id="path530"
         inkscape:connector-curvature="0" />
    </clipPath>
    <clipPath
       clipPathUnits="userSpaceOnUse"
       id="clipPath388">
      <path
         d="m 237.19,743.26 c -4.971,0 -9,-4.03 -9,-9 v 0 -166.253 c 0,-4.971 4.029,-9 9,-9 v 0 h 120.896 c 4.97,0 9,4.029 9,9 v 0 166.253 c 0,4.97 -4.03,9 -9,9 v 0 z"
         id="path386"
         inkscape:connector-curvature="0" />
    </clipPath>
    <clipPath
       clipPathUnits="userSpaceOnUse"
       id="clipPath408">
      <path
         d="m 270.34,674.428 h 63.43 V 605.51 h -63.43 z"
         id="path406"
         inkscape:connector-curvature="0" />
    </clipPath>
    <clipPath
       clipPathUnits="userSpaceOnUse"
       id="clipPath300">
      <path
         d="m 63.253,743.26 c -4.971,0 -9,-4.03 -9,-9 v 0 -166.253 c 0,-4.971 4.029,-9 9,-9 v 0 h 120.896 c 4.971,0 9,4.029 9,9 v 0 166.253 c 0,4.97 -4.029,9 -9,9 v 0 z"
         id="path298"
         inkscape:connector-curvature="0" />
    </clipPath>
    <clipPath
       clipPathUnits="userSpaceOnUse"
       id="clipPath364">
      <path
         d="M 96.4035,670.593 H 159.833 V 601.675 H 96.4035 Z"
         id="path362"
         inkscape:connector-curvature="0" />
    </clipPath>
    <clipPath
       clipPathUnits="userSpaceOnUse"
       id="clipPath300-2">
      <path
         d="m 63.253,743.26 c -4.971,0 -9,-4.03 -9,-9 v 0 -166.253 c 0,-4.971 4.029,-9 9,-9 v 0 h 120.896 c 4.971,0 9,4.029 9,9 v 0 166.253 c 0,4.97 -4.029,9 -9,9 v 0 z"
         id="path298-5"
         inkscape:connector-curvature="0" />
    </clipPath>
    <clipPath
       clipPathUnits="userSpaceOnUse"
       id="clipPath364-9">
      <path
         d="M 96.4035,670.593 H 159.833 V 601.675 H 96.4035 Z"
         id="path362-0"
         inkscape:connector-curvature="0" />
    </clipPath>
    <clipPath
       clipPathUnits="userSpaceOnUse"
       id="clipPath388-9">
      <path
         d="m 237.19,743.26 c -4.971,0 -9,-4.03 -9,-9 v 0 -166.253 c 0,-4.971 4.029,-9 9,-9 v 0 h 120.896 c 4.97,0 9,4.029 9,9 v 0 166.253 c 0,4.97 -4.03,9 -9,9 v 0 z"
         id="path386-6"
         inkscape:connector-curvature="0" />
    </clipPath>
    <clipPath
       clipPathUnits="userSpaceOnUse"
       id="clipPath408-0">
      <path
         d="m 270.34,674.428 h 63.43 V 605.51 h -63.43 z"
         id="path406-8"
         inkscape:connector-curvature="0" />
    </clipPath>
    <clipPath
       clipPathUnits="userSpaceOnUse"
       id="clipPath480-3">
      <path
         d="m 411.126,743.26 c -4.97,0 -9,-4.03 -9,-9 v 0 -166.253 c 0,-4.971 4.03,-9 9,-9 v 0 h 120.897 c 4.971,0 9,4.029 9,9 v 0 166.253 c 0,4.97 -4.029,9 -9,9 v 0 z"
         id="path478-9"
         inkscape:connector-curvature="0" />
    </clipPath>
    <clipPath
       clipPathUnits="userSpaceOnUse"
       id="clipPath532-7">
      <path
         d="m 442.955,678.062 h 65.24 v -77.285 h -65.24 z"
         id="path530-7"
         inkscape:connector-curvature="0" />
    </clipPath>
    <clipPath
       clipPathUnits="userSpaceOnUse"
       id="clipPath300-9">
      <path
         d="m 63.253,743.26 c -4.971,0 -9,-4.03 -9,-9 v 0 -166.253 c 0,-4.971 4.029,-9 9,-9 v 0 h 120.896 c 4.971,0 9,4.029 9,9 v 0 166.253 c 0,4.97 -4.029,9 -9,9 v 0 z"
         id="path298-9"
         inkscape:connector-curvature="0" />
    </clipPath>
    <clipPath
       clipPathUnits="userSpaceOnUse"
       id="clipPath364-7">
      <path
         d="M 96.4035,670.593 H 159.833 V 601.675 H 96.4035 Z"
         id="path362-5"
         inkscape:connector-curvature="0" />
    </clipPath>
    <clipPath
       clipPathUnits="userSpaceOnUse"
       id="clipPath388-0">
      <path
         d="m 237.19,743.26 c -4.971,0 -9,-4.03 -9,-9 v 0 -166.253 c 0,-4.971 4.029,-9 9,-9 v 0 h 120.896 c 4.97,0 9,4.029 9,9 v 0 166.253 c 0,4.97 -4.03,9 -9,9 v 0 z"
         id="path386-7"
         inkscape:connector-curvature="0" />
    </clipPath>
    <clipPath
       clipPathUnits="userSpaceOnUse"
       id="clipPath408-4">
      <path
         d="m 270.34,674.428 h 63.43 V 605.51 h -63.43 z"
         id="path406-6"
         inkscape:connector-curvature="0" />
    </clipPath>
    <clipPath
       clipPathUnits="userSpaceOnUse"
       id="clipPath480-7">
      <path
         d="m 411.126,743.26 c -4.97,0 -9,-4.03 -9,-9 v 0 -166.253 c 0,-4.971 4.03,-9 9,-9 v 0 h 120.897 c 4.971,0 9,4.029 9,9 v 0 166.253 c 0,4.97 -4.029,9 -9,9 v 0 z"
         id="path478-1"
         inkscape:connector-curvature="0" />
    </clipPath>
    <clipPath
       clipPathUnits="userSpaceOnUse"
       id="clipPath532-0">
      <path
         d="m 442.955,678.062 h 65.24 v -77.285 h -65.24 z"
         id="path530-0"
         inkscape:connector-curvature="0" />
    </clipPath>
    <clipPath
       clipPathUnits="userSpaceOnUse"
       id="clipPath556">
      <path
         d="m 63.253,513.071 c -4.971,0 -9,-4.029 -9,-9 v 0 -166.252 c 0,-4.971 4.029,-9 9,-9 v 0 h 120.896 c 4.971,0 9,4.029 9,9 v 0 166.252 c 0,4.971 -4.029,9 -9,9 v 0 z"
         id="path554"
         inkscape:connector-curvature="0" />
    </clipPath>
    <clipPath
       clipPathUnits="userSpaceOnUse"
       id="clipPath610">
      <path
         d="M 95.1018,447.874 H 160.342 V 370.588 H 95.1018 Z"
         id="path608"
         inkscape:connector-curvature="0" />
    </clipPath>
    <clipPath
       clipPathUnits="userSpaceOnUse"
       id="clipPath556-8">
      <path
         d="m 63.253,513.071 c -4.971,0 -9,-4.029 -9,-9 v 0 -166.252 c 0,-4.971 4.029,-9 9,-9 v 0 h 120.896 c 4.971,0 9,4.029 9,9 v 0 166.252 c 0,4.971 -4.029,9 -9,9 v 0 z"
         id="path554-3"
         inkscape:connector-curvature="0" />
    </clipPath>
    <clipPath
       clipPathUnits="userSpaceOnUse"
       id="clipPath610-7">
      <path
         d="M 95.1018,447.874 H 160.342 V 370.588 H 95.1018 Z"
         id="path608-4"
         inkscape:connector-curvature="0" />
    </clipPath>
    <clipPath
       clipPathUnits="userSpaceOnUse"
       id="clipPath480-2">
      <path
         d="m 411.126,743.26 c -4.97,0 -9,-4.03 -9,-9 v 0 -166.253 c 0,-4.971 4.03,-9 9,-9 v 0 h 120.897 c 4.971,0 9,4.029 9,9 v 0 166.253 c 0,4.97 -4.029,9 -9,9 v 0 z"
         id="path478-5"
         inkscape:connector-curvature="0" />
    </clipPath>
    <clipPath
       clipPathUnits="userSpaceOnUse"
       id="clipPath532-5">
      <path
         d="m 442.955,678.062 h 65.24 v -77.285 h -65.24 z"
         id="path530-8"
         inkscape:connector-curvature="0" />
    </clipPath>
    <clipPath
       clipPathUnits="userSpaceOnUse"
       id="clipPath388-4">
      <path
         d="m 237.19,743.26 c -4.971,0 -9,-4.03 -9,-9 v 0 -166.253 c 0,-4.971 4.029,-9 9,-9 v 0 h 120.896 c 4.97,0 9,4.029 9,9 v 0 166.253 c 0,4.97 -4.03,9 -9,9 v 0 z"
         id="path386-5"
         inkscape:connector-curvature="0" />
    </clipPath>
    <clipPath
       clipPathUnits="userSpaceOnUse"
       id="clipPath408-2">
      <path
         d="m 270.34,674.428 h 63.43 V 605.51 h -63.43 z"
         id="path406-69"
         inkscape:connector-curvature="0" />
    </clipPath>
    <clipPath
       clipPathUnits="userSpaceOnUse"
       id="clipPath300-7">
      <path
         d="m 63.253,743.26 c -4.971,0 -9,-4.03 -9,-9 v 0 -166.253 c 0,-4.971 4.029,-9 9,-9 v 0 h 120.896 c 4.971,0 9,4.029 9,9 v 0 166.253 c 0,4.97 -4.029,9 -9,9 v 0 z"
         id="path298-95"
         inkscape:connector-curvature="0" />
    </clipPath>
    <clipPath
       clipPathUnits="userSpaceOnUse"
       id="clipPath364-1">
      <path
         d="M 96.4035,670.593 H 159.833 V 601.675 H 96.4035 Z"
         id="path362-6"
         inkscape:connector-curvature="0" />
    </clipPath>
    <clipPath
       clipPathUnits="userSpaceOnUse"
       id="clipPath556-2">
      <path
         d="m 63.253,513.071 c -4.971,0 -9,-4.029 -9,-9 v 0 -166.252 c 0,-4.971 4.029,-9 9,-9 v 0 h 120.896 c 4.971,0 9,4.029 9,9 v 0 166.252 c 0,4.971 -4.029,9 -9,9 v 0 z"
         id="path554-2"
         inkscape:connector-curvature="0" />
    </clipPath>
    <clipPath
       clipPathUnits="userSpaceOnUse"
       id="clipPath610-3">
      <path
         d="M 95.1018,447.874 H 160.342 V 370.588 H 95.1018 Z"
         id="path608-7"
         inkscape:connector-curvature="0" />
    </clipPath>
    <clipPath
       clipPathUnits="userSpaceOnUse"
       id="clipPath480-35">
      <path
         d="m 411.126,743.26 c -4.97,0 -9,-4.03 -9,-9 v 0 -166.253 c 0,-4.971 4.03,-9 9,-9 v 0 h 120.897 c 4.971,0 9,4.029 9,9 v 0 166.253 c 0,4.97 -4.029,9 -9,9 v 0 z"
         id="path478-2"
         inkscape:connector-curvature="0" />
    </clipPath>
    <clipPath
       clipPathUnits="userSpaceOnUse"
       id="clipPath532-75">
      <path
         d="m 442.955,678.062 h 65.24 v -77.285 h -65.24 z"
         id="path530-4"
         inkscape:connector-curvature="0" />
    </clipPath>
    <clipPath
       clipPathUnits="userSpaceOnUse"
       id="clipPath388-8">
      <path
         d="m 237.19,743.26 c -4.971,0 -9,-4.03 -9,-9 v 0 -166.253 c 0,-4.971 4.029,-9 9,-9 v 0 h 120.896 c 4.97,0 9,4.029 9,9 v 0 166.253 c 0,4.97 -4.03,9 -9,9 v 0 z"
         id="path386-66"
         inkscape:connector-curvature="0" />
    </clipPath>
    <clipPath
       clipPathUnits="userSpaceOnUse"
       id="clipPath408-45">
      <path
         d="m 270.34,674.428 h 63.43 V 605.51 h -63.43 z"
         id="path406-0"
         inkscape:connector-curvature="0" />
    </clipPath>
    <clipPath
       clipPathUnits="userSpaceOnUse"
       id="clipPath300-1">
      <path
         d="m 63.253,743.26 c -4.971,0 -9,-4.03 -9,-9 v 0 -166.253 c 0,-4.971 4.029,-9 9,-9 v 0 h 120.896 c 4.971,0 9,4.029 9,9 v 0 166.253 c 0,4.97 -4.029,9 -9,9 v 0 z"
         id="path298-2"
         inkscape:connector-curvature="0" />
    </clipPath>
    <clipPath
       clipPathUnits="userSpaceOnUse"
       id="clipPath364-96">
      <path
         d="M 96.4035,670.593 H 159.833 V 601.675 H 96.4035 Z"
         id="path362-8"
         inkscape:connector-curvature="0" />
    </clipPath>
    <clipPath
       clipPathUnits="userSpaceOnUse"
       id="clipPath556-4">
      <path
         d="m 63.253,513.071 c -4.971,0 -9,-4.029 -9,-9 v 0 -166.252 c 0,-4.971 4.029,-9 9,-9 v 0 h 120.896 c 4.971,0 9,4.029 9,9 v 0 166.252 c 0,4.971 -4.029,9 -9,9 v 0 z"
         id="path554-0"
         inkscape:connector-curvature="0" />
    </clipPath>
    <clipPath
       clipPathUnits="userSpaceOnUse"
       id="clipPath610-4">
      <path
         d="M 95.1018,447.874 H 160.342 V 370.588 H 95.1018 Z"
         id="path608-2"
         inkscape:connector-curvature="0" />
    </clipPath>
    <clipPath
       clipPathUnits="userSpaceOnUse"
       id="clipPath480-21">
      <path
         d="m 411.126,743.26 c -4.97,0 -9,-4.03 -9,-9 v 0 -166.253 c 0,-4.971 4.03,-9 9,-9 v 0 h 120.897 c 4.971,0 9,4.029 9,9 v 0 166.253 c 0,4.97 -4.029,9 -9,9 v 0 z"
         id="path478-4"
         inkscape:connector-curvature="0" />
    </clipPath>
    <clipPath
       clipPathUnits="userSpaceOnUse"
       id="clipPath532-78">
      <path
         d="m 442.955,678.062 h 65.24 v -77.285 h -65.24 z"
         id="path530-83"
         inkscape:connector-curvature="0" />
    </clipPath>
    <clipPath
       clipPathUnits="userSpaceOnUse"
       id="clipPath388-49">
      <path
         d="m 237.19,743.26 c -4.971,0 -9,-4.03 -9,-9 v 0 -166.253 c 0,-4.971 4.029,-9 9,-9 v 0 h 120.896 c 4.97,0 9,4.029 9,9 v 0 166.253 c 0,4.97 -4.03,9 -9,9 v 0 z"
         id="path386-0"
         inkscape:connector-curvature="0" />
    </clipPath>
    <clipPath
       clipPathUnits="userSpaceOnUse"
       id="clipPath408-04">
      <path
         d="m 270.34,674.428 h 63.43 V 605.51 h -63.43 z"
         id="path406-09"
         inkscape:connector-curvature="0" />
    </clipPath>
    <clipPath
       clipPathUnits="userSpaceOnUse"
       id="clipPath300-11">
      <path
         d="m 63.253,743.26 c -4.971,0 -9,-4.03 -9,-9 v 0 -166.253 c 0,-4.971 4.029,-9 9,-9 v 0 h 120.896 c 4.971,0 9,4.029 9,9 v 0 166.253 c 0,4.97 -4.029,9 -9,9 v 0 z"
         id="path298-0"
         inkscape:connector-curvature="0" />
    </clipPath>
    <clipPath
       clipPathUnits="userSpaceOnUse"
       id="clipPath364-8">
      <path
         d="M 96.4035,670.593 H 159.833 V 601.675 H 96.4035 Z"
         id="path362-4"
         inkscape:connector-curvature="0" />
    </clipPath>
  </defs>
  <sodipodi:namedview
     id="base"
     pagecolor="#ffffff"
     bordercolor="#666666"
     borderopacity="1.0"
     inkscape:pageopacity="0.0"
     inkscape:pageshadow="2"
     inkscape:zoom="0.49497475"
     inkscape:cx="-122.06442"
     inkscape:cy="417.79103"
     inkscape:document-units="mm"
     inkscape:current-layer="layer1"
     showgrid="false"
     inkscape:window-width="1920"
     inkscape:window-height="1001"
     inkscape:window-x="-9"
     inkscape:window-y="-9"
     inkscape:window-maximized="1" />
  <metadata
     id="metadata6550">
    <rdf:RDF>
      <cc:Work
         rdf:about="">
        <dc:format>image/svg+xml</dc:format>
        <dc:type
           rdf:resource="http://purl.org/dc/dcmitype/StillImage" />
        <dc:title />
      </cc:Work>
    </rdf:RDF>
  </metadata>
  <g
     inkscape:label="Capa 1"
     inkscape:groupmode="layer"
     id="layer1">
    <g
       transform="matrix(0.35277777,0,0,-0.35277777,-15.224635,266.06955)"
       id="g294">
      <g
         id="g296"
         clip-path="url(#clipPath300)">
        <g
           id="g302"
           transform="translate(192.4236,719.9704)">
          <path
             d="m 0,0 v -151.477 l -8.403,-6.939 h -120.039 l -10.007,9.384 V 0 h -6.226 v -164.749 -2.667 H 6.227 v 2.667 V 0 Z"
             style="fill:#6a378e;fill-opacity:1;fill-rule:nonzero;stroke:none"
             id="path304"
             inkscape:connector-curvature="0" />
        </g>
        <g
           id="g306"
           transform="translate(186.9626,574.0934)">
          <path
             d="m 0,0 c 0,-4.971 -4.029,-9 -9,-9 h -108.321 c -4.971,0 -9,4.029 -9,9 l -0.16,120 c 0,4.97 4.189,9 9.16,9 H -9 c 4.971,0 9,-4.03 9,-9 z m -2.538,148.5 h -121.449 c -4.97,0 -9,-4.03 -9,-9 V -6.086 c 0,-4.971 4.03,-9 9,-9 H -2.538 c 4.971,0 9,4.029 9,9 V 139.5 c 0,4.97 -4.029,9 -9,9"
             style="fill:#6a378e;fill-opacity:1;fill-rule:nonzero;stroke:none"
             id="path308"
             inkscape:connector-curvature="0" />
        </g>
        <g
           id="g310"
           transform="translate(123.1999,751.5539)">
          <path
             d="M 0,0 H -75.451 V -42.311 H 0 75.45 V 0 Z"
             style="fill:#008f3e;fill-opacity:1;fill-rule:nonzero;stroke:none"
             id="path312"
             inkscape:connector-curvature="0" />
        </g>
        <g
           id="g314"
           transform="translate(77.5495,586.0807)">
          <path
             d="M 0,0 H 2.087 V -10.192 H 0 v 7.531 l -2.212,-1.945 -2.184,1.932 v -7.518 H -6.747 V 0.014 h 2.351 l 2.212,-2.478 z"
             style="fill:#652574;fill-opacity:1;fill-rule:nonzero;stroke:none"
             id="path316"
             inkscape:connector-curvature="0" />
        </g>
        <g
           id="g318"
           transform="translate(85.0827,577.569)">
          <path
             d="m 0,0 c 0.448,0 0.807,0.118 1.078,0.356 0.271,0.239 0.405,0.581 0.405,1.029 v 3.963 c 0,0.176 -0.03,0.344 -0.091,0.503 C 1.332,6.01 1.241,6.15 1.12,6.271 0.997,6.393 0.846,6.488 0.665,6.559 0.483,6.629 0.266,6.663 0.013,6.663 H -0.771 C -1.022,6.663 -1.245,6.626 -1.437,6.552 -1.628,6.476 -1.787,6.379 -1.918,6.258 -2.05,6.135 -2.146,5.996 -2.212,5.838 -2.278,5.678 -2.312,5.51 -2.312,5.333 V 1.385 c 0,-0.382 0.108,-0.71 0.324,-0.98 C -1.774,0.135 -1.405,0 -0.883,0 Z m 0.755,-1.681 h -2.071 c -0.309,0 -0.642,0.047 -1.001,0.141 -0.36,0.093 -0.693,0.248 -1.001,0.468 -0.308,0.219 -0.563,0.507 -0.763,0.861 -0.202,0.356 -0.302,0.794 -0.302,1.316 v 4.382 c 0,0.457 0.088,0.873 0.267,1.246 0.178,0.373 0.417,0.694 0.72,0.959 0.304,0.266 0.657,0.472 1.058,0.617 0.401,0.144 0.826,0.216 1.273,0.216 H 0.363 C 0.821,8.525 1.246,8.453 1.638,8.309 2.029,8.164 2.367,7.958 2.653,7.692 2.938,7.427 3.158,7.109 3.317,6.74 3.476,6.372 3.555,5.958 3.555,5.502 V 1.063 C 3.555,0.652 3.47,0.277 3.296,-0.063 3.124,-0.404 2.9,-0.693 2.625,-0.932 2.35,-1.17 2.046,-1.354 1.715,-1.485 1.384,-1.615 1.062,-1.681 0.755,-1.681"
             style="fill:#652574;fill-opacity:1;fill-rule:nonzero;stroke:none"
             id="path320"
             inkscape:connector-curvature="0" />
        </g>
        <g
           id="g322"
           transform="translate(89.3786,586.0944)">
          <path
             d="m 0,0 h 2.508 c 0.335,-1.325 0.634,-2.52 0.895,-3.584 0.113,-0.448 0.222,-0.892 0.329,-1.331 0.108,-0.438 0.204,-0.832 0.288,-1.182 0.084,-0.351 0.152,-0.64 0.209,-0.868 0.055,-0.228 0.083,-0.358 0.083,-0.385 0.009,0.027 0.059,0.157 0.147,0.385 0.09,0.228 0.199,0.517 0.329,0.868 0.132,0.35 0.275,0.744 0.436,1.182 0.158,0.439 0.321,0.883 0.489,1.331 0.383,1.064 0.82,2.259 1.316,3.584 h 2.73 L 5.503,-10.206 H 3.15 Z"
             style="fill:#652574;fill-opacity:1;fill-rule:nonzero;stroke:none"
             id="path324"
             inkscape:connector-curvature="0" />
        </g>
        <g
           id="g326"
           transform="translate(106.9206,584.4704)">
          <path
             d="m 0,0 h -4.634 v -2.492 h 3.823 V -3.878 H -4.634 V -7.042 H 0 V -8.568 H -6.942 V 1.61 H 0 Z"
             style="fill:#652574;fill-opacity:1;fill-rule:nonzero;stroke:none"
             id="path328"
             inkscape:connector-curvature="0" />
        </g>
        <g
           id="g330"
           transform="translate(118.696,584.695)">
          <path
             d="m 0,0 h -4.467 v -2.801 h 3.936 V -4.158 H -4.467 V -8.807 H -6.831 V 1.386 H 0 Z"
             style="fill:#652574;fill-opacity:1;fill-rule:nonzero;stroke:none"
             id="path332"
             inkscape:connector-curvature="0" />
        </g>
        <g
           id="g334"
           transform="translate(123.6941,577.569)">
          <path
             d="M 0,0 C 0.447,0 0.806,0.118 1.077,0.356 1.348,0.595 1.484,0.937 1.484,1.385 V 5.348 C 1.484,5.524 1.452,5.692 1.393,5.851 1.331,6.01 1.241,6.15 1.119,6.271 0.997,6.393 0.847,6.488 0.664,6.559 0.483,6.629 0.265,6.663 0.014,6.663 H -0.771 C -1.023,6.663 -1.244,6.626 -1.436,6.552 -1.628,6.476 -1.787,6.379 -1.919,6.258 -2.049,6.135 -2.146,5.996 -2.212,5.838 -2.277,5.678 -2.311,5.51 -2.311,5.333 V 1.385 c 0,-0.382 0.108,-0.71 0.322,-0.98 C -1.773,0.135 -1.406,0 -0.882,0 Z m 0.756,-1.681 h -2.072 c -0.308,0 -0.642,0.047 -1.001,0.141 -0.361,0.093 -0.694,0.248 -1.002,0.468 -0.308,0.219 -0.563,0.507 -0.763,0.861 -0.2,0.356 -0.3,0.794 -0.3,1.316 v 4.382 c 0,0.457 0.088,0.873 0.266,1.246 0.178,0.373 0.418,0.694 0.72,0.959 0.304,0.266 0.656,0.472 1.058,0.617 0.401,0.144 0.826,0.216 1.273,0.216 H 0.364 C 0.821,8.525 1.246,8.453 1.638,8.309 2.03,8.164 2.368,7.958 2.652,7.692 2.938,7.427 3.159,7.109 3.318,6.74 3.477,6.372 3.556,5.958 3.556,5.502 V 1.063 C 3.556,0.652 3.469,0.277 3.297,-0.063 3.123,-0.404 2.9,-0.693 2.625,-0.932 2.35,-1.17 2.046,-1.354 1.714,-1.485 1.384,-1.615 1.063,-1.681 0.756,-1.681"
             style="fill:#652574;fill-opacity:1;fill-rule:nonzero;stroke:none"
             id="path336"
             inkscape:connector-curvature="0" />
        </g>
        <g
           id="g338"
           transform="translate(132.779,581.6003)">
          <path
             d="M 0,0 C 0.551,0 0.962,0.105 1.233,0.315 1.504,0.525 1.64,0.882 1.64,1.387 1.64,1.517 1.62,1.659 1.583,1.813 1.546,1.967 1.474,2.112 1.366,2.247 1.258,2.382 1.107,2.494 0.911,2.583 0.715,2.671 0.462,2.716 0.154,2.716 H -1.875 V 0 Z M 3.612,-5.712 H 1.22 c 0.063,0.122 0.117,0.243 0.159,0.364 0.042,0.121 0.071,0.254 0.084,0.399 0.016,0.145 0.024,0.31 0.028,0.496 0.005,0.188 0.008,0.412 0.008,0.674 0,0.344 -0.02,0.645 -0.062,0.902 -0.042,0.257 -0.126,0.472 -0.253,0.644 -0.125,0.172 -0.305,0.301 -0.538,0.385 -0.234,0.084 -0.546,0.126 -0.939,0.126 h -1.582 v -3.99 H -4.297 V 4.48 H 0.562 C 1.233,4.48 1.774,4.37 2.186,4.151 2.596,3.932 2.912,3.671 3.138,3.367 3.361,3.063 3.508,2.749 3.578,2.421 3.648,2.096 3.684,1.82 3.684,1.597 3.684,1.036 3.559,0.537 3.313,0.099 3.064,-0.341 2.689,-0.644 2.186,-0.812 2.391,-0.905 2.582,-1.003 2.758,-1.106 2.937,-1.209 3.087,-1.351 3.213,-1.533 3.34,-1.715 3.438,-1.954 3.508,-2.247 3.578,-2.541 3.612,-2.926 3.612,-3.401 Z"
             style="fill:#652574;fill-opacity:1;fill-rule:nonzero;stroke:none"
             id="path340"
             inkscape:connector-curvature="0" />
        </g>
        <g
           id="g342"
           transform="translate(148.2361,586.0944)">
          <path
             d="M 0,0 H 2.03 L -1.33,-10.206 H -3.038 L -4.495,-6.58 -5.95,-10.206 H -7.658 L -11.02,0 h 2.535 l 2.157,-6.804 1.512,4.452 h 0.643 l 2.016,-4.956 z"
             style="fill:#652574;fill-opacity:1;fill-rule:nonzero;stroke:none"
             id="path344"
             inkscape:connector-curvature="0" />
        </g>
        <g
           id="g346"
           transform="translate(152.8132,579.2067)">
          <path
             d="M 0,0 H 2.619 L 1.345,4.326 H 1.315 Z M -1.26,-3.318 H -3.514 L 0.127,6.888 H 2.1 L 5.712,-3.318 H 3.85 l -0.63,2.114 h -3.78 z"
             style="fill:#652574;fill-opacity:1;fill-rule:nonzero;stroke:none"
             id="path348"
             inkscape:connector-curvature="0" />
        </g>
        <g
           id="g350"
           transform="translate(163.8035,581.6003)">
          <path
             d="m 0,0 c 0.551,0 0.962,0.105 1.232,0.315 0.271,0.21 0.406,0.567 0.406,1.072 0,0.13 -0.019,0.272 -0.056,0.426 C 1.545,1.967 1.472,2.112 1.365,2.247 1.258,2.382 1.105,2.494 0.909,2.583 0.713,2.671 0.462,2.716 0.154,2.716 h -2.03 V 0 Z M 3.612,-5.712 H 1.218 c 0.065,0.122 0.119,0.243 0.161,0.364 0.042,0.121 0.07,0.254 0.084,0.399 0.015,0.145 0.023,0.31 0.028,0.496 0.005,0.188 0.006,0.412 0.006,0.674 0,0.344 -0.019,0.645 -0.062,0.902 -0.042,0.257 -0.126,0.472 -0.251,0.644 -0.126,0.172 -0.306,0.301 -0.539,0.385 -0.234,0.084 -0.546,0.126 -0.94,0.126 h -1.581 v -3.99 H -4.298 V 4.48 H 0.56 C 1.232,4.48 1.773,4.37 2.184,4.151 2.595,3.932 2.912,3.671 3.137,3.367 3.359,3.063 3.507,2.749 3.577,2.421 3.646,2.096 3.683,1.82 3.683,1.597 3.683,1.036 3.559,0.537 3.312,0.099 3.063,-0.341 2.688,-0.644 2.184,-0.812 2.389,-0.905 2.58,-1.003 2.758,-1.106 2.935,-1.209 3.087,-1.351 3.213,-1.533 3.338,-1.715 3.438,-1.954 3.507,-2.247 3.577,-2.541 3.612,-2.926 3.612,-3.401 Z"
             style="fill:#652574;fill-opacity:1;fill-rule:nonzero;stroke:none"
             id="path352"
             inkscape:connector-curvature="0" />
        </g>
        <g
           id="g354"
           transform="translate(174.737,582.2443)">
          <path
             d="M 0,0 C 0,0.635 -0.155,1.099 -0.468,1.393 -0.78,1.687 -1.325,1.834 -2.1,1.834 h -1.651 v -5.978 h 1.778 c 0.252,0 0.497,0.025 0.736,0.077 0.237,0.052 0.446,0.138 0.629,0.258 0.182,0.121 0.329,0.286 0.441,0.491 C -0.055,-3.113 0,-2.851 0,-2.534 Z m -6.005,3.836 h 4.229 c 0.391,0 0.797,-0.046 1.217,-0.14 C -0.139,3.603 0.246,3.432 0.596,3.185 0.946,2.938 1.233,2.599 1.457,2.17 1.682,1.741 1.788,1.19 1.779,0.518 L 1.766,-2.856 c 0,-0.617 -0.12,-1.146 -0.358,-1.589 C 1.17,-4.888 0.869,-5.25 0.504,-5.53 0.142,-5.81 -0.263,-6.017 -0.706,-6.153 -1.149,-6.288 -1.587,-6.356 -2.016,-6.356 h -3.989 z"
             style="fill:#652574;fill-opacity:1;fill-rule:nonzero;stroke:none"
             id="path356"
             inkscape:connector-curvature="0" />
        </g>
        <g
           id="g358">
          <g
             id="g360" />
          <g
             id="g372">
            <g
               clip-path="url(#clipPath364)"
               id="g370"
               style="opacity:0.5">
              <g
                 transform="translate(158.2751,642.5681)"
                 id="g368">
                <path
                   d="m 0,0 -26.529,26.527 c -0.997,0.998 -2.329,1.498 -3.658,1.498 -1.332,0 -2.661,-0.5 -3.66,-1.498 L -60.375,0 c -1.996,-1.996 -1.996,-5.322 0,-7.318 1.995,-1.996 5.323,-1.996 7.318,0 l 17.547,17.546 v -45.964 c 0,-2.828 2.329,-5.157 5.156,-5.157 2.828,0 5.156,2.329 5.156,5.157 V 10.645 L -7.32,-7.234 c 1.997,-1.996 5.324,-1.996 7.32,0 2.078,1.995 2.078,5.072 0,7.234"
                   style="fill:#cbccce;fill-opacity:1;fill-rule:nonzero;stroke:none"
                   id="path366"
                   inkscape:connector-curvature="0" />
              </g>
            </g>
          </g>
        </g>
        <g
           id="g374"
           transform="translate(121.9206,606.84)">
          <path
             d="M 0,0 C -4.405,0 -7.991,3.585 -7.991,7.992 V 51.113 L -20.697,38.404 c -1.5,-1.5 -3.512,-2.326 -5.663,-2.326 -2.153,0 -4.165,0.826 -5.665,2.328 -1.5,1.5 -2.327,3.511 -2.327,5.663 0,2.151 0.827,4.163 2.327,5.663 L -5.497,76.26 c 1.5,1.501 3.512,2.328 5.664,2.328 2.153,0 4.166,-0.828 5.666,-2.331 L 32.358,49.733 c 1.554,-1.617 2.39,-3.621 2.39,-5.685 0,-2.105 -0.864,-4.093 -2.431,-5.598 -1.459,-1.461 -3.471,-2.288 -5.622,-2.288 -2.153,0 -4.164,0.827 -5.666,2.327 L 7.991,51.528 V 7.992 C 7.991,3.585 4.406,0 0,0"
             style="fill:#ffffff;fill-opacity:1;fill-rule:nonzero;stroke:none"
             id="path376"
             inkscape:connector-curvature="0" />
        </g>
        <g
           id="g378"
           transform="translate(152.2751,654.5681)">
          <path
             d="m 0,0 -26.529,26.527 c -0.997,1 -2.329,1.498 -3.658,1.498 -1.332,0 -2.661,-0.498 -3.66,-1.498 L -60.375,0 c -1.996,-1.996 -1.996,-5.322 0,-7.318 1.995,-1.996 5.323,-1.996 7.318,0 l 17.547,17.546 v -49.964 c 0,-2.828 2.329,-5.157 5.156,-5.157 2.828,0 5.156,2.329 5.156,5.157 V 10.645 L -7.32,-7.234 c 1.997,-1.996 5.324,-1.996 7.32,0 2.078,1.995 2.078,5.072 0,7.234"
             style="fill:#6a378e;fill-opacity:1;fill-rule:nonzero;stroke:none"
             id="path380"
             inkscape:connector-curvature="0" />
        </g>
      </g>
    </g>
    <g
       transform="matrix(0.35277777,0,0,-0.35277777,-25.474395,266.06955)"
       id="g382">
      <g
         id="g384"
         clip-path="url(#clipPath388)">
        <g
           id="g390"
           transform="translate(366.3601,719.9704)">
          <path
             d="m 0,0 v -151.477 l -8.403,-6.939 h -120.039 l -10.006,9.384 V 0 h -6.227 v -164.749 -2.667 H 6.228 v 2.667 V 0 Z"
             style="fill:#6a378e;fill-opacity:1;fill-rule:nonzero;stroke:none"
             id="path392"
             inkscape:connector-curvature="0" />
        </g>
        <g
           id="g394"
           transform="translate(360.9001,574.0934)">
          <path
             d="m 0,0 c 0,-4.971 -4.029,-9 -9,-9 h -108.321 c -4.971,0 -9,4.029 -9,9 l -0.161,120 c 0,4.97 4.19,9 9.161,9 H -9 c 4.971,0 9,-4.03 9,-9 z m -2.538,148.5 h -121.449 c -4.971,0 -9,-4.03 -9,-9 V -6.086 c 0,-4.971 4.029,-9 9,-9 H -2.538 c 4.971,0 9,4.029 9,9 V 139.5 c 0,4.97 -4.029,9 -9,9"
             style="fill:#6a378e;fill-opacity:1;fill-rule:nonzero;stroke:none"
             id="path396"
             inkscape:connector-curvature="0" />
        </g>
        <g
           id="g398"
           transform="translate(297.1364,751.5539)">
          <path
             d="M 0,0 H -75.451 V -42.311 H 0 75.451 V 0 Z"
             style="fill:#fff000;fill-opacity:1;fill-rule:nonzero;stroke:none"
             id="path400"
             inkscape:connector-curvature="0" />
        </g>
        <g
           id="g402">
          <g
             id="g404" />
          <g
             id="g416">
            <g
               clip-path="url(#clipPath408)"
               id="g414"
               style="opacity:0.5">
              <g
                 transform="translate(271.8991,633.5358)"
                 id="g412">
                <path
                   d="m 0,0 26.528,-26.527 c 0.998,-0.998 2.329,-1.498 3.659,-1.498 1.332,0 2.661,0.5 3.66,1.498 L 60.374,0 c 1.996,1.996 1.996,5.322 0,7.318 -1.995,1.996 -5.322,1.996 -7.317,0 L 35.51,-10.229 v 45.965 c 0,2.828 -2.329,5.157 -5.156,5.157 -2.828,0 -5.156,-2.329 -5.156,-5.157 V -10.645 L 7.319,7.234 C 5.323,9.23 1.996,9.23 0,7.234 -2.078,5.238 -2.078,2.162 0,0"
                   style="fill:#cbccce;fill-opacity:1;fill-rule:nonzero;stroke:none"
                   id="path410"
                   inkscape:connector-curvature="0" />
              </g>
            </g>
          </g>
        </g>
        <g
           id="g418"
           transform="translate(296.2527,687.2634)">
          <path
             d="m 0,0 c 4.406,0 7.991,-3.585 7.991,-7.991 v -43.121 l 12.707,12.707 c 1.5,1.5 3.512,2.327 5.663,2.327 2.153,0 4.164,-0.827 5.664,-2.327 1.5,-1.5 2.328,-3.512 2.328,-5.663 0,-2.152 -0.828,-4.163 -2.328,-5.663 L 5.498,-76.26 c -1.5,-1.501 -3.512,-2.328 -5.664,-2.328 -2.153,0 -4.166,0.828 -5.666,2.331 l -26.525,26.525 c -1.555,1.616 -2.39,3.62 -2.39,5.684 0,2.106 0.863,4.094 2.43,5.599 1.46,1.461 3.471,2.288 5.623,2.288 2.152,0 4.164,-0.827 5.665,-2.327 L -7.99,-51.528 V -7.991 C -7.99,-3.585 -4.405,0 0,0"
             style="fill:#ffffff;fill-opacity:1;fill-rule:nonzero;stroke:none"
             id="path420"
             inkscape:connector-curvature="0" />
        </g>
        <g
           id="g422"
           transform="translate(265.8991,639.5358)">
          <path
             d="m 0,0 26.528,-26.527 c 0.998,-1 2.329,-1.498 3.659,-1.498 1.332,0 2.661,0.498 3.66,1.498 L 60.374,0 c 1.996,1.996 1.996,5.322 0,7.318 -1.995,1.996 -5.322,1.996 -7.317,0 L 35.51,-10.229 v 49.965 c 0,2.828 -2.329,5.157 -5.156,5.157 -2.828,0 -5.156,-2.329 -5.156,-5.157 V -10.645 L 7.319,7.234 C 5.323,9.23 1.996,9.23 0,7.234 -2.078,5.238 -2.078,2.162 0,0"
             style="fill:#6a378e;fill-opacity:1;fill-rule:nonzero;stroke:none"
             id="path424"
             inkscape:connector-curvature="0" />
        </g>
        <g
           id="g426"
           transform="translate(248.9294,585.6266)">
          <path
             d="M 0,0 H 1.937 V -9.465 H 0 v 6.995 l -2.054,-1.807 -2.028,1.794 v -6.982 h -2.184 v 9.478 h 2.184 l 2.055,-2.301 z"
             style="fill:#652574;fill-opacity:1;fill-rule:nonzero;stroke:none"
             id="path428"
             inkscape:connector-curvature="0" />
        </g>
        <g
           id="g430"
           transform="translate(256.2878,577.7224)">
          <path
             d="m 0,0 c 0.832,0 1.378,0.455 1.378,1.287 v 3.679 c 0,0.663 -0.442,1.222 -1.365,1.222 h -0.729 c -0.935,0 -1.429,-0.584 -1.429,-1.235 V 1.287 C -2.145,0.572 -1.795,0 -0.819,0 Z m -1.223,-1.561 c -1.157,0 -2.846,0.651 -2.846,2.588 v 4.069 c 0,1.703 1.417,2.821 3.081,2.821 h 1.326 c 1.716,0 2.964,-1.118 2.964,-2.808 V 0.988 c 0,-1.534 -1.444,-2.549 -2.601,-2.549 z"
             style="fill:#652574;fill-opacity:1;fill-rule:nonzero;stroke:none"
             id="path432"
             inkscape:connector-curvature="0" />
        </g>
        <g
           id="g434"
           transform="translate(260.031,585.6393)">
          <path
             d="m 0,0 h 2.327 l 0.832,-3.329 c 0.416,-1.664 0.846,-3.392 0.846,-3.496 l 1.3,3.496 C 5.655,-2.34 6.071,-1.234 6.526,0 H 9.062 L 5.109,-9.478 H 2.926 Z"
             style="fill:#652574;fill-opacity:1;fill-rule:nonzero;stroke:none"
             id="path436"
             inkscape:connector-curvature="0" />
        </g>
        <g
           id="g438"
           transform="translate(276.5671,584.1315)">
          <path
             d="m 0,0 h -4.303 v -2.314 h 3.549 V -3.602 H -4.303 V -6.539 H 0 V -7.956 H -6.448 V 1.495 H 0 Z"
             style="fill:#652574;fill-opacity:1;fill-rule:nonzero;stroke:none"
             id="path440"
             inkscape:connector-curvature="0" />
        </g>
        <g
           id="g442"
           transform="translate(284.3415,577.735)">
          <path
             d="m 0,0 h 1.885 c 1.182,0 1.729,0.729 1.729,1.456 0,0.976 -0.755,1.443 -1.626,1.443 H 0 Z m -0.053,4.03 h 1.782 c 1.014,0 1.793,0.443 1.793,1.392 0,0.845 -0.675,1.273 -1.858,1.273 H -0.053 Z M -2.197,7.892 H 1.664 C 4.107,7.892 4.745,6.708 4.745,5.46 4.745,4.096 3.952,3.692 3.536,3.484 4.692,3.029 5.044,2.288 5.005,1.248 4.939,-0.65 3.497,-1.573 1.195,-1.573 h -3.392 z"
             style="fill:#652574;fill-opacity:1;fill-rule:nonzero;stroke:none"
             id="path444"
             inkscape:connector-curvature="0" />
        </g>
        <g
           id="g446"
           transform="translate(293.1423,579.2424)">
          <path
             d="M 0,0 H 2.431 L 1.248,4.018 H 1.222 Z M -1.17,-3.081 H -3.264 L 0.117,6.397 H 1.95 L 5.304,-3.081 H 3.575 L 2.99,-1.117 h -3.511 z"
             style="fill:#652574;fill-opacity:1;fill-rule:nonzero;stroke:none"
             id="path448"
             inkscape:connector-curvature="0" />
        </g>
        <g
           id="g450"
           transform="translate(306.7009,579.0607)">
          <path
             d="m 0,0 c 0,-1.794 -1.248,-2.899 -2.912,-2.899 h -1.755 c -1.131,0 -2.756,0.624 -2.756,2.665 v 3.849 c 0,1.625 1.183,2.951 3.107,2.951 h 1.43 c 1.43,0 2.379,-0.91 2.795,-2.119 l -1.781,-0.56 c -0.221,0.482 -0.676,0.819 -1.183,0.819 h -0.988 c -0.897,0 -1.313,-0.714 -1.313,-1.39 V 0.208 c 0,-0.858 0.195,-1.468 1.169,-1.468 h 1.106 c 0.793,0 1.157,0.571 1.209,1.26 z"
             style="fill:#652574;fill-opacity:1;fill-rule:nonzero;stroke:none"
             id="path452"
             inkscape:connector-curvature="0" />
        </g>
        <g
           id="g454"
           transform="translate(314.5661,578.4108)">
          <path
             d="m 0,0 v -2.235 l -4.784,3.497 v -3.497 h -1.924 v 9.451 h 1.924 V 4.59 l 4.615,2.599 V 5.058 l -3.575,-2.12 z"
             style="fill:#652574;fill-opacity:1;fill-rule:nonzero;stroke:none"
             id="path456"
             inkscape:connector-curvature="0" />
        </g>
        <g
           id="g458"
           transform="translate(325.4987,585.6393)">
          <path
             d="m 0,0 h 1.886 l -3.12,-9.478 H -2.821 L -4.173,-6.11 -5.525,-9.478 H -7.111 L -10.231,0 h 2.353 l 2.002,-6.318 1.404,4.134 h 0.598 l 1.872,-4.602 z"
             style="fill:#652574;fill-opacity:1;fill-rule:nonzero;stroke:none"
             id="path460"
             inkscape:connector-curvature="0" />
        </g>
        <g
           id="g462"
           transform="translate(329.6589,579.2424)">
          <path
             d="M 0,0 H 2.431 L 1.248,4.018 H 1.222 Z M -1.17,-3.081 H -3.264 L 0.117,6.397 H 1.95 L 5.304,-3.081 H 3.575 L 2.99,-1.117 h -3.511 z"
             style="fill:#652574;fill-opacity:1;fill-rule:nonzero;stroke:none"
             id="path464"
             inkscape:connector-curvature="0" />
        </g>
        <g
           id="g466"
           transform="translate(339.9157,581.4665)">
          <path
             d="m 0,0 c 1.026,0 1.521,0.351 1.521,1.287 0,0.48 -0.221,1.235 -1.378,1.235 H -1.742 V 0 Z M 3.354,-5.305 H 1.131 c 0.247,0.469 0.26,0.82 0.26,1.794 0,1.287 -0.221,1.911 -1.664,1.911 H -1.742 V -5.305 H -3.991 V 4.16 H 0.52 c 2.509,0 2.899,-1.86 2.899,-2.679 0,-1.039 -0.455,-1.923 -1.391,-2.235 0.78,-0.351 1.326,-0.638 1.326,-2.406 z"
             style="fill:#652574;fill-opacity:1;fill-rule:nonzero;stroke:none"
             id="path468"
             inkscape:connector-curvature="0" />
        </g>
        <g
           id="g470"
           transform="translate(350.1208,582.0641)">
          <path
             d="m 0,0 c 0,1.183 -0.507,1.703 -1.95,1.703 h -1.534 v -5.551 h 1.651 c 0.936,0 1.833,0.326 1.833,1.495 z m -5.577,3.563 h 3.926 c 1.443,0 3.341,-0.585 3.302,-3.082 L 1.638,-2.651 c 0,-2.29 -1.937,-3.251 -3.51,-3.251 h -3.705 z"
             style="fill:#652574;fill-opacity:1;fill-rule:nonzero;stroke:none"
             id="path472"
             inkscape:connector-curvature="0" />
        </g>
      </g>
    </g>
    <g
       transform="matrix(0.35277777,0,0,-0.35277777,-35.723982,266.06955)"
       id="g474">
      <g
         id="g476"
         clip-path="url(#clipPath480)">
        <g
           id="g482"
           transform="translate(541.1609,719.9704)">
          <path
             d="m 0,0 v -151.477 l -8.447,-6.939 h -120.667 l -10.059,9.384 V 0 h -6.259 v -164.749 -2.667 H 6.26 v 2.667 V 0 Z"
             style="fill:#6a378e;fill-opacity:1;fill-rule:nonzero;stroke:none"
             id="path484"
             inkscape:connector-curvature="0" />
        </g>
        <g
           id="g486"
           transform="translate(534.8171,574.0934)">
          <path
             d="m 0,0 c 0,-4.971 -4.029,-9 -9,-9 h -108.49 c -4.971,0 -9,4.029 -9,9 v 120 c 0,4.97 4.029,9 9,9 H -9 c 4.971,0 9,-4.03 9,-9 z m -2.518,148.5 h -121.449 c -4.971,0 -9,-4.03 -9,-9 V -6.086 c 0,-4.971 4.029,-9 9,-9 H -2.518 c 4.971,0 9,4.029 9,9 V 139.5 c 0,4.97 -4.029,9 -9,9"
             style="fill:#6a378e;fill-opacity:1;fill-rule:nonzero;stroke:none"
             id="path488"
             inkscape:connector-curvature="0" />
        </g>
        <path
           d="m 395.729,709.243 h 75.846 v 42.311 h -75.846 z"
           style="fill:#008f3e;fill-opacity:1;fill-rule:nonzero;stroke:none"
           id="path490"
           inkscape:connector-curvature="0" />
        <path
           d="m 547.421,751.554 h -75.846 v -42.311 h 75.846 z"
           style="fill:#e62310;fill-opacity:1;fill-rule:nonzero;stroke:none"
           id="path492"
           inkscape:connector-curvature="0" />
        <g
           id="g494"
           transform="translate(432.1335,584.8063)">
          <path
             d="M 0,0 H 9.466 V -2.306 H 5.991 v -8.612 H 3.67 v 8.612 H 0 Z"
             style="fill:#652574;fill-opacity:1;fill-rule:nonzero;stroke:none"
             id="path496"
             inkscape:connector-curvature="0" />
        </g>
        <g
           id="g498"
           transform="translate(444.7898,584.7316)">
          <path
             d="M 0,0 V -7.174 C 0,-7.313 0.018,-7.459 0.052,-7.608 0.087,-7.758 0.152,-7.9 0.246,-8.035 0.342,-8.17 0.469,-8.28 0.629,-8.364 0.788,-8.45 0.998,-8.492 1.258,-8.492 h 1.498 c 0.249,0 0.459,0.042 0.629,0.128 0.17,0.084 0.306,0.194 0.412,0.329 0.103,0.135 0.18,0.285 0.224,0.45 0.045,0.164 0.067,0.331 0.067,0.501 V 0 H 6.5 V -7.608 C 6.5,-8.177 6.407,-8.667 6.223,-9.076 6.037,-9.485 5.791,-9.82 5.48,-10.08 5.172,-10.339 4.812,-10.531 4.402,-10.656 3.993,-10.781 3.559,-10.843 3.1,-10.843 H 1.107 c -0.539,0 -1.033,0.088 -1.482,0.262 -0.449,0.175 -0.831,0.419 -1.146,0.734 -0.314,0.314 -0.551,0.686 -0.711,1.116 -0.16,0.429 -0.225,0.903 -0.195,1.422 V 0 Z"
             style="fill:#652574;fill-opacity:1;fill-rule:nonzero;stroke:none"
             id="path500"
             inkscape:connector-curvature="0" />
        </g>
        <g
           id="g502"
           transform="translate(457.0847,579.9987)">
          <path
             d="m 0,0 c 0.59,0 1.029,0.113 1.318,0.337 0.289,0.225 0.434,0.607 0.434,1.146 0,0.14 -0.02,0.292 -0.059,0.457 C 1.652,2.104 1.575,2.259 1.461,2.404 1.346,2.549 1.184,2.668 0.974,2.763 0.764,2.858 0.494,2.906 0.165,2.906 H -2.006 V 0 Z M 3.864,-6.11 H 1.303 c 0.07,0.13 0.128,0.259 0.173,0.389 0.045,0.13 0.075,0.272 0.089,0.427 0.015,0.155 0.025,0.332 0.031,0.532 0.004,0.199 0.008,0.438 0.008,0.718 0,0.37 -0.024,0.691 -0.069,0.966 -0.045,0.275 -0.135,0.504 -0.269,0.689 -0.135,0.185 -0.328,0.322 -0.577,0.412 -0.25,0.09 -0.584,0.135 -1.003,0.135 H -2.006 V -6.11 H -4.598 V 4.793 H 0.6 C 1.318,4.793 1.897,4.675 2.337,4.441 2.775,4.206 3.115,3.926 3.355,3.602 3.595,3.277 3.752,2.941 3.826,2.591 3.902,2.242 3.939,1.947 3.939,1.708 3.939,1.108 3.807,0.574 3.543,0.105 3.277,-0.364 2.876,-0.689 2.337,-0.868 c 0.22,-0.1 0.424,-0.206 0.614,-0.315 0.19,-0.11 0.352,-0.262 0.487,-0.457 0.134,-0.194 0.24,-0.449 0.314,-0.763 0.074,-0.315 0.112,-0.727 0.112,-1.236 z"
             style="fill:#652574;fill-opacity:1;fill-rule:nonzero;stroke:none"
             id="path504"
             inkscape:connector-curvature="0" />
        </g>
        <g
           id="g506"
           transform="translate(465.0075,573.8884)">
          <path
             d="M 0,0 H -2.651 V 10.918 H 0 L 3.969,3.354 v 7.564 H 6.155 V 0 H 3.849 L 0,6.83 Z"
             style="fill:#652574;fill-opacity:1;fill-rule:nonzero;stroke:none"
             id="path508"
             inkscape:connector-curvature="0" />
        </g>
        <g
           id="g510"
           transform="translate(478.8308,575.4763)">
          <path
             d="M 0,0 H 4.973 V -1.603 H -2.426 V 9.315 H 0 Z"
             style="fill:#652574;fill-opacity:1;fill-rule:nonzero;stroke:none"
             id="path512"
             inkscape:connector-curvature="0" />
        </g>
        <g
           id="g514"
           transform="translate(492.4001,583.0695)">
          <path
             d="m 0,0 h -4.957 v -2.666 h 4.089 V -4.149 H -4.957 V -7.534 H 0 V -9.166 H -7.429 V 1.722 H 0 Z"
             style="fill:#652574;fill-opacity:1;fill-rule:nonzero;stroke:none"
             id="path516"
             inkscape:connector-curvature="0" />
        </g>
        <g
           id="g518"
           transform="translate(501.1911,583.3088)">
          <path
             d="m 0,0 h -4.777 v -2.995 h 4.208 V -4.448 H -4.777 V -9.42 H -7.309 V 1.483 H 0 Z"
             style="fill:#652574;fill-opacity:1;fill-rule:nonzero;stroke:none"
             id="path520"
             inkscape:connector-curvature="0" />
        </g>
        <g
           id="g522"
           transform="translate(501.5808,584.8063)">
          <path
             d="M 0,0 H 9.465 V -2.306 H 5.99 v -8.612 H 3.669 v 8.612 H 0 Z"
             style="fill:#652574;fill-opacity:1;fill-rule:nonzero;stroke:none"
             id="path524"
             inkscape:connector-curvature="0" />
        </g>
        <g
           id="g526">
          <g
             id="g528" />
          <g
             id="g540">
            <g
               clip-path="url(#clipPath532)"
               id="g538"
               style="opacity:0.5">
              <g
                 transform="translate(488.823,652.2595)"
                 id="g536">
                <path
                   d="m 0,0 h -29.615 v 0.174 l 16.676,16.675 c 1.764,1.764 2.79,5.192 0.415,7.567 -1.802,1.803 -5.129,1.88 -7.041,0.043 L -43.024,1 c -0.882,-0.883 -2.844,-2.229 -2.844,-4.572 0,-2.469 1.43,-3.555 2.312,-4.438 l 23.459,-23.461 c 1.766,-1.763 5.182,-1.68 6.948,0.086 1.764,1.764 2.047,5.023 0.283,6.787 l -16.078,16.076 0.099,0.1 H 0 c 6.038,0 10.949,-4.912 10.949,-10.949 V -47.27 c 0,-2.326 1.886,-4.213 4.212,-4.213 2.325,0 4.211,1.887 4.211,4.213 v 27.899 C 19.372,-8.689 10.682,0 0,0"
                   style="fill:#cbccce;fill-opacity:1;fill-rule:nonzero;stroke:none"
                   id="path534"
                   inkscape:connector-curvature="0" />
              </g>
            </g>
          </g>
        </g>
        <g
           id="g542"
           transform="translate(496.5905,603.715)">
          <path
             d="m 0,0 c -4.005,0 -7.653,3.468 -7.653,7.275 v 27.898 c 0,4.474 -3.64,8.115 -8.115,8.115 h -22.2 L -26.63,31.952 c 1.397,-1.396 2.129,-3.423 2.008,-5.558 -0.111,-1.987 -0.947,-3.895 -2.291,-5.24 -1.397,-1.396 -3.427,-2.196 -5.571,-2.196 -2.079,0 -4.04,0.769 -5.383,2.11 l -23.461,23.463 -0.255,0.248 c -1.01,0.971 -2.888,2.778 -2.888,6.193 0,3.23 2.14,5.173 3.288,6.218 0.144,0.13 0.276,0.248 0.385,0.357 l 23.46,23.462 c 1.473,1.416 3.412,2.174 5.501,2.174 2.117,0 4.14,-0.808 5.549,-2.216 3.494,-3.497 2.532,-8.633 -0.415,-11.578 l -11.01,-11.01 h 21.945 c 12.58,0 23.207,-10.169 23.207,-22.206 V 7.275 C 7.439,3.4 3.963,0 0,0"
             style="fill:#ffffff;fill-opacity:1;fill-rule:nonzero;stroke:none"
             id="path544"
             inkscape:connector-curvature="0" />
        </g>
        <g
           id="g546"
           transform="translate(480.823,659.2595)">
          <path
             d="m 0,0 h -28.615 v 0.174 l 15.676,15.675 c 1.764,1.764 2.79,5.192 0.415,7.569 -1.802,1.801 -5.129,1.881 -7.041,0.043 L -43.024,0 c -0.882,-0.883 -2.844,-2.229 -2.844,-4.572 0,-2.469 1.43,-3.555 2.312,-4.438 l 23.459,-23.461 c 1.766,-1.763 5.182,-1.68 6.948,0.086 1.764,1.764 2.047,5.023 0.283,6.787 l -16.078,16.076 0.099,0.1 H 0 c 6.038,0 10.949,-4.912 10.949,-10.949 V -48.27 c 0,-2.326 2.492,-4.439 4.819,-4.439 2.325,0 4.604,2.113 4.604,4.439 v 28.899 C 20.372,-8.689 10.682,0 0,0"
             style="fill:#6a378e;fill-opacity:1;fill-rule:nonzero;stroke:none"
             id="path548"
             inkscape:connector-curvature="0" />
        </g>
      </g>
    </g>
    <g
       transform="matrix(0.35277777,0,0,-0.35277777,138.10941,184.86416)"
       id="g550">
      <g
         id="g552"
         clip-path="url(#clipPath556)">
        <g
           id="g558"
           transform="translate(193.2859,489.7819)">
          <path
             d="m 0,0 v -151.477 l -8.448,-6.939 h -120.667 l -10.059,9.383 V 0 h -6.259 v -164.75 -2.666 H 6.259 V -164.75 0 Z"
             style="fill:#6a378e;fill-opacity:1;fill-rule:nonzero;stroke:none"
             id="path560"
             inkscape:connector-curvature="0" />
        </g>
        <g
           id="g562"
           transform="translate(186.948,343.8302)">
          <path
             d="m 0,0 c 0,-4.971 -4.029,-9 -9,-9 h -108.5 c -4.971,0 -9,4.029 -9,9 v 120 c 0,4.971 4.029,9 9,9 H -9 c 4.971,0 9,-4.029 9,-9 z m -2.5,148.5 h -121.45 c -4.971,0 -9,-4.029 -9,-9 V -6.086 c 0,-4.971 4.029,-9 9,-9 H -2.5 c 4.971,0 9,4.029 9,9 V 139.5 c 0,4.971 -4.029,9 -9,9"
             style="fill:#6a378e;fill-opacity:1;fill-rule:nonzero;stroke:none"
             id="path564"
             inkscape:connector-curvature="0" />
        </g>
        <path
           d="m 47.853,479.055 h 75.846 v 41.978 H 47.853 Z"
           style="fill:#e62310;fill-opacity:1;fill-rule:nonzero;stroke:none"
           id="path566"
           inkscape:connector-curvature="0" />
        <path
           d="m 199.545,521.033 h -75.846 v -41.978 h 75.846 z"
           style="fill:#008f3e;fill-opacity:1;fill-rule:nonzero;stroke:none"
           id="path568"
           inkscape:connector-curvature="0" />
        <g
           id="g570"
           transform="translate(80.3279,356.9064)">
          <path
             d="M 0,0 H 9.466 V -2.307 H 5.991 v -8.611 H 3.668 v 8.611 H 0 Z"
             style="fill:#652574;fill-opacity:1;fill-rule:nonzero;stroke:none"
             id="path572"
             inkscape:connector-curvature="0" />
        </g>
        <g
           id="g574"
           transform="translate(92.9822,356.8312)">
          <path
             d="M 0,0 V -7.174 C 0,-7.313 0.018,-7.458 0.054,-7.607 0.088,-7.758 0.153,-7.899 0.247,-8.035 0.342,-8.17 0.47,-8.279 0.63,-8.364 0.789,-8.449 0.999,-8.491 1.259,-8.491 h 1.497 c 0.25,0 0.46,0.042 0.629,0.127 0.17,0.085 0.307,0.194 0.412,0.329 0.104,0.136 0.18,0.285 0.224,0.45 0.046,0.164 0.068,0.331 0.068,0.501 V 0 H 6.5 V -7.607 C 6.5,-8.177 6.408,-8.666 6.223,-9.075 6.038,-9.485 5.792,-9.819 5.482,-10.079 5.172,-10.339 4.812,-10.53 4.404,-10.655 3.995,-10.78 3.56,-10.843 3.101,-10.843 H 1.108 c -0.538,0 -1.033,0.088 -1.483,0.262 -0.449,0.175 -0.829,0.42 -1.145,0.734 -0.313,0.315 -0.551,0.687 -0.711,1.116 -0.16,0.429 -0.224,0.904 -0.194,1.422 V 0 Z"
             style="fill:#652574;fill-opacity:1;fill-rule:nonzero;stroke:none"
             id="path576"
             inkscape:connector-curvature="0" />
        </g>
        <g
           id="g578"
           transform="translate(105.2781,352.0988)">
          <path
             d="m 0,0 c 0.589,0 1.029,0.112 1.317,0.337 0.291,0.225 0.436,0.606 0.436,1.145 0,0.14 -0.021,0.292 -0.061,0.457 C 1.653,2.104 1.575,2.259 1.46,2.404 1.346,2.549 1.184,2.668 0.975,2.764 0.764,2.858 0.495,2.905 0.166,2.905 H -2.007 V 0 Z m 3.864,-6.11 h -2.56 c 0.068,0.13 0.127,0.259 0.172,0.389 0.045,0.13 0.074,0.272 0.09,0.427 0.014,0.154 0.025,0.332 0.03,0.531 0.005,0.201 0.008,0.44 0.008,0.719 0,0.369 -0.024,0.691 -0.069,0.967 -0.044,0.274 -0.135,0.504 -0.269,0.688 -0.136,0.185 -0.328,0.323 -0.578,0.412 -0.25,0.09 -0.584,0.135 -1.001,0.135 H -2.007 V -6.11 H -4.599 V 4.793 H 0.6 C 1.317,4.793 1.897,4.675 2.338,4.44 2.775,4.206 3.116,3.927 3.354,3.602 3.596,3.277 3.751,2.94 3.826,2.591 3.901,2.241 3.938,1.947 3.938,1.707 3.938,1.108 3.806,0.574 3.542,0.104 3.278,-0.364 2.876,-0.688 2.338,-0.868 2.556,-0.969 2.762,-1.073 2.95,-1.183 3.141,-1.293 3.302,-1.445 3.438,-1.64 3.571,-1.835 3.677,-2.089 3.751,-2.403 3.826,-2.718 3.864,-3.13 3.864,-3.64 Z"
             style="fill:#652574;fill-opacity:1;fill-rule:nonzero;stroke:none"
             id="path580"
             inkscape:connector-curvature="0" />
        </g>
        <g
           id="g582"
           transform="translate(113.2019,345.9884)">
          <path
             d="M 0,0 H -2.652 V 10.918 H 0 L 3.968,3.354 v 7.564 H 6.155 V 0 H 3.848 L 0,6.829 Z"
             style="fill:#652574;fill-opacity:1;fill-rule:nonzero;stroke:none"
             id="path584"
             inkscape:connector-curvature="0" />
        </g>
        <g
           id="g586"
           transform="translate(129.1072,352.0988)">
          <path
             d="m 0,0 c 0.588,0 1.028,0.112 1.317,0.337 0.29,0.225 0.434,0.606 0.434,1.145 0,0.14 -0.021,0.292 -0.059,0.457 C 1.651,2.104 1.575,2.259 1.459,2.404 1.345,2.549 1.183,2.668 0.973,2.764 0.763,2.858 0.493,2.905 0.164,2.905 H -2.008 V 0 Z M 3.863,-6.11 H 1.302 c 0.069,0.13 0.128,0.259 0.174,0.389 0.045,0.13 0.074,0.272 0.089,0.427 0.014,0.154 0.024,0.332 0.03,0.531 0.005,0.201 0.007,0.44 0.007,0.719 0,0.369 -0.023,0.691 -0.068,0.967 -0.045,0.274 -0.134,0.504 -0.27,0.688 -0.134,0.185 -0.327,0.323 -0.577,0.412 -0.25,0.09 -0.583,0.135 -1.002,0.135 H -2.008 V -6.11 H -4.6 V 4.793 H 0.598 C 1.317,4.793 1.896,4.675 2.337,4.44 2.775,4.206 3.114,3.927 3.354,3.602 3.595,3.277 3.75,2.94 3.825,2.591 3.9,2.241 3.938,1.947 3.938,1.707 3.938,1.108 3.805,0.574 3.542,0.104 3.276,-0.364 2.875,-0.688 2.337,-0.868 2.555,-0.969 2.76,-1.073 2.95,-1.183 3.139,-1.293 3.301,-1.445 3.437,-1.64 3.571,-1.835 3.676,-2.089 3.75,-2.403 3.825,-2.718 3.863,-3.13 3.863,-3.64 Z"
             style="fill:#652574;fill-opacity:1;fill-rule:nonzero;stroke:none"
             id="path588"
             inkscape:connector-curvature="0" />
        </g>
        <path
           d="m 136.865,345.988 h -2.187 v 10.903 h 2.187 z"
           style="fill:#652574;fill-opacity:1;fill-rule:nonzero;stroke:none"
           id="path590"
           inkscape:connector-curvature="0" />
        <g
           id="g592"
           transform="translate(146.988,351.7843)">
          <path
             d="m 0,0 v -2.426 c 0,-1.079 -0.23,-1.894 -0.688,-2.449 -0.459,-0.554 -1.16,-0.871 -2.097,-0.951 -0.359,-0.039 -0.722,-0.055 -1.086,-0.045 -0.364,0.011 -0.776,0.025 -1.235,0.045 -0.411,0.011 -0.815,0.083 -1.213,0.218 -0.4,0.134 -0.757,0.337 -1.071,0.606 -0.315,0.27 -0.573,0.611 -0.771,1.025 -0.201,0.414 -0.3,0.916 -0.3,1.506 v 4.149 c 0,0.478 0.085,0.928 0.255,1.347 0.17,0.419 0.416,0.782 0.741,1.086 0.323,0.305 0.715,0.547 1.175,0.727 0.459,0.18 0.984,0.269 1.572,0.269 h 1.064 c 0.489,0 0.926,-0.06 1.311,-0.179 0.384,-0.12 0.721,-0.29 1.011,-0.51 0.289,-0.22 0.531,-0.477 0.727,-0.772 0.194,-0.293 0.35,-0.621 0.47,-0.98 L -2.261,2.021 c -0.06,0.13 -0.125,0.255 -0.195,0.375 -0.07,0.121 -0.157,0.222 -0.262,0.307 -0.104,0.085 -0.229,0.152 -0.375,0.202 -0.145,0.05 -0.326,0.075 -0.546,0.075 h -0.913 c -0.54,0 -0.946,-0.144 -1.22,-0.434 C -6.048,2.257 -6.185,1.912 -6.185,1.513 v -3.759 c 0,-0.569 0.129,-0.996 0.389,-1.281 0.26,-0.285 0.629,-0.427 1.109,-0.427 h 1.018 c 0.35,0 0.626,0.05 0.831,0.15 0.204,0.1 0.36,0.24 0.465,0.419 0.104,0.18 0.172,0.392 0.201,0.637 0.03,0.244 0.046,0.512 0.046,0.801 l -0.016,0.674 H -3.909 V 0 Z"
             style="fill:#652574;fill-opacity:1;fill-rule:nonzero;stroke:none"
             id="path594"
             inkscape:connector-curvature="0" />
        </g>
        <g
           id="g596"
           transform="translate(150.8367,350.9005)">
          <path
             d="M 0,0 V -4.912 H -2.635 V 6.006 H 0 V 1.663 H 3.834 V 6.006 H 5.871 V -4.912 H 3.834 V 0 Z"
             style="fill:#652574;fill-opacity:1;fill-rule:nonzero;stroke:none"
             id="path598"
             inkscape:connector-curvature="0" />
        </g>
        <g
           id="g600"
           transform="translate(157.6824,356.9064)">
          <path
             d="M 0,0 H 9.464 V -2.307 H 5.989 v -8.611 H 3.668 v 8.611 H 0 Z"
             style="fill:#652574;fill-opacity:1;fill-rule:nonzero;stroke:none"
             id="path602"
             inkscape:connector-curvature="0" />
        </g>
        <g
           id="g604">
          <g
             id="g606" />
          <g
             id="g618">
            <g
               clip-path="url(#clipPath610)"
               id="g616"
               style="opacity:0.5">
              <g
                 transform="translate(114.4743,422.071)"
                 id="g614">
                <path
                   d="M 0,0 H 29.616 V 0.174 L 12.94,16.85 c -1.765,1.763 -2.791,5.191 -0.416,7.566 1.802,1.803 5.129,1.881 7.041,0.043 L 43.024,1 c 0.883,-0.883 2.843,-2.229 2.843,-4.573 0,-2.469 -1.429,-3.554 -2.312,-4.437 L 20.096,-31.471 c -1.766,-1.764 -5.181,-1.68 -6.947,0.086 -1.763,1.763 -2.046,5.023 -0.283,6.787 l 16.078,16.076 -0.099,0.1 H 0 c -6.038,0 -10.949,-4.912 -10.949,-10.95 V -47.27 c 0,-2.326 -1.886,-4.213 -4.213,-4.213 -2.324,0 -4.21,1.887 -4.21,4.213 v 27.898 C -19.372,-8.69 -10.681,0 0,0"
                   style="fill:#cbccce;fill-opacity:1;fill-rule:nonzero;stroke:none"
                   id="path612"
                   inkscape:connector-curvature="0" />
              </g>
            </g>
          </g>
        </g>
        <g
           id="g620"
           transform="translate(91.7077,373.5265)">
          <path
             d="m 0,0 c -3.964,0 -7.441,3.399 -7.441,7.274 v 28.899 c 0,12.037 10.629,22.206 23.208,22.206 h 21.945 l -11.011,11.01 c -1.378,1.378 -2.314,3.271 -2.565,5.191 -0.317,2.414 0.447,4.681 2.15,6.386 1.41,1.409 3.434,2.217 5.55,2.217 2.089,0 4.027,-0.758 5.46,-2.134 l 23.5,-23.501 c 0.108,-0.109 0.241,-0.227 0.383,-0.356 1.15,-1.045 3.291,-2.988 3.291,-6.22 0,-3.417 -1.881,-5.224 -2.891,-6.196 L 61.326,44.529 37.867,21.069 c -1.343,-1.342 -3.305,-2.112 -5.384,-2.112 -2.145,0 -4.175,0.801 -5.572,2.197 -2.95,2.951 -3.083,7.996 -0.283,10.797 l 11.339,11.336 h -22.2 c -4.475,0 -8.114,-3.64 -8.114,-8.114 V 7.274 C 7.653,3.468 4.004,0 0,0"
             style="fill:#ffffff;fill-opacity:1;fill-rule:nonzero;stroke:none"
             id="path622"
             inkscape:connector-curvature="0" />
        </g>
        <g
           id="g624"
           transform="translate(107.4743,429.071)">
          <path
             d="M 0,0 H 28.616 V 0.174 L 12.94,15.85 c -1.765,1.763 -2.791,5.191 -0.416,7.568 1.802,1.801 5.129,1.881 7.041,0.043 L 43.024,0 c 0.883,-0.883 2.843,-2.229 2.843,-4.572 0,-2.469 -1.429,-3.555 -2.312,-4.438 L 20.096,-32.471 c -1.766,-1.764 -5.181,-1.68 -6.947,0.086 -1.763,1.763 -2.046,5.023 -0.283,6.787 l 16.078,16.076 -0.099,0.1 H 0 c -6.038,0 -10.949,-4.912 -10.949,-10.95 V -48.27 c 0,-2.326 -2.492,-4.439 -4.818,-4.439 -2.326,0 -4.605,2.113 -4.605,4.439 v 28.898 C -20.372,-8.689 -10.681,0 0,0"
             style="fill:#6a378e;fill-opacity:1;fill-rule:nonzero;stroke:none"
             id="path626"
             inkscape:connector-curvature="0" />
        </g>
      </g>
    </g>
    <rect
       style="fill:none;fill-opacity:1;stroke:#000000;stroke-width:0.86589253;stroke-miterlimit:4;stroke-dasharray:none;stroke-opacity:1"
       id="rect5194"
       width="159.13411"
       height="211.49675"
       x="9.484807"
       y="79.190964"
       ry="10.496203"
       inkscape:transform-center-x="0.53453901"
       inkscape:transform-center-y="-3.7417737" />
  </g>
</svg>
