  0
SECTION
  2
HEADER
  9
$ACADVER
  1
AC1014
  9
$HANDSEED
  5
FFFF
  9
$MEASUREMENT
 70
     1
  0
ENDSEC
  0
SECTION
  2
TABLES
  0
TABLE
  2
VPORT
  5
8
330
0
100
AcDbSymbolTable
 70
     4
  0
VPORT
  5
2E
330
8
100
AcDbSymbolTableRecord
100
AcDbViewportTableRecord
  2
*ACTIVE
 70
     0
 10
0.0
 20
0.0
 11
1.0
 21
1.0
 12
210.0
 22
148.5
 13
0.0
 23
0.0
 14
10.0
 24
10.0
 15
10.0
 25
10.0
 16
0.0
 26
0.0
 36
1.0
 17
0.0
 27
0.0
 37
0.0
 40
341.0
 41
1.24
 42
50.0
 43
0.0
 44
0.0
 50
0.0
 51
0.0
 71
     0
 72
   100
 73
     1
 74
     3
 75
     0
 76
     0
 77
     0
 78
     0
  0
ENDTAB
  0
TABLE
  2
LTYPE
  5
5
330
0
100
AcDbSymbolTable
 70
     1
  0
LTYPE
  5
14
330
5
100
AcDbSymbolTableRecord
100
AcDbLinetypeTableRecord
  2
BYBLOCK
 70
     0
  3

 72
    65
 73
     0
 40
0.0
  0
LTYPE
  5
15
330
5
100
AcDbSymbolTableRecord
100
AcDbLinetypeTableRecord
  2
BYLAYER
 70
     0
  3

 72
    65
 73
     0
 40
0.0
  0
LTYPE
  5
16
330
5
100
AcDbSymbolTableRecord
100
AcDbLinetypeTableRecord
  2
CONTINUOUS
 70
     0
  3
Solid line
 72
    65
 73
     0
 40
0.0
  0
ENDTAB
  0
TABLE
  2
LAYER
  5
2
100
AcDbSymbolTable
 70
2
  0
LAYER
  5
50
100
AcDbSymbolTableRecord
100
AcDbLayerTableRecord
  2
0
 70
0
  6
CONTINUOUS
  0
LAYER
  5
51
100
AcDbSymbolTableRecord
100
AcDbLayerTableRecord
  2
Capa_1
 70
0
  6
CONTINUOUS
  0
ENDTAB
  0
TABLE
  2
STYLE
  5
3
330
0
100
AcDbSymbolTable
 70
     1
  0
STYLE
  5
11
330
3
100
AcDbSymbolTableRecord
100
AcDbTextStyleTableRecord
  2
STANDARD
 70
     0
 40
0.0
 41
1.0
 50
0.0
 71
     0
 42
2.5
  3
txt
  4

  0
ENDTAB
  0
TABLE
  2
VIEW
  5
6
330
0
100
AcDbSymbolTable
 70
     0
  0
ENDTAB
  0
TABLE
  2
UCS
  5
7
330
0
100
AcDbSymbolTable
 70
     0
  0
ENDTAB
  0
TABLE
  2
APPID
  5
9
330
0
100
AcDbSymbolTable
 70
     2
  0
APPID
  5
12
330
9
100
AcDbSymbolTableRecord
100
AcDbRegAppTableRecord
  2
ACAD
 70
     0
  0
ENDTAB
  0
TABLE
  2
DIMSTYLE
  5
A
330
0
100
AcDbSymbolTable
 70
     1
  0
DIMSTYLE
105
27
330
A
100
AcDbSymbolTableRecord
100
AcDbDimStyleTableRecord
  2
ISO-25
 70
     0
  3

  4

  5

  6

  7

 40
1.0
 41
2.5
 42
0.625
 43
3.75
 44
1.25
 45
0.0
 46
0.0
 47
0.0
 48
0.0
140
2.5
141
2.5
142
0.0
143
0.03937007874016
144
1.0
145
0.0
146
1.0
147
0.625
 71
     0
 72
     0
 73
     0
 74
     0
 75
     0
 76
     0
 77
     1
 78
     8
170
     0
171
     3
172
     1
173
     0
174
     0
175
     0
176
     0
177
     0
178
     0
270
     2
271
     2
272
     2
273
     2
274
     3
340
11
275
     0
280
     0
281
     0
282
     0
283
     0
284
     8
285
     0
286
     0
287
     3
288
     0
  0
ENDTAB
  0
TABLE
  2
BLOCK_RECORD
  5
1
330
0
100
AcDbSymbolTable
 70
     1
  0
BLOCK_RECORD
  5
1F
330
1
100
AcDbSymbolTableRecord
100
AcDbBlockTableRecord
  2
*MODEL_SPACE
  0
BLOCK_RECORD
  5
1B
330
1
100
AcDbSymbolTableRecord
100
AcDbBlockTableRecord
  2
*PAPER_SPACE
  0
ENDTAB
  0
ENDSEC
  0
SECTION
  2
BLOCKS
  0
BLOCK
  5
20
330
1F
100
AcDbEntity
  8
0
100
AcDbBlockBegin
  2
*MODEL_SPACE
 70
     0
 10
0.0
 20
0.0
 30
0.0
  3
*MODEL_SPACE
  1

  0
ENDBLK
  5
21
330
1F
100
AcDbEntity
  8
0
100
AcDbBlockEnd
  0
BLOCK
  5
1C
330
1B
100
AcDbEntity
 67
     1
  8
0
100
AcDbBlockBegin
  2
*PAPER_SPACE
  1

  0
ENDBLK
  5
1D
330
1B
100
AcDbEntity
 67
     1
  8
0
100
AcDbBlockEnd
  0
ENDSEC
  0
SECTION
  2
ENTITIES
  0
SPLINE
  5
100
100
AcDbEntity
  8
Capa_1
 62
7
100
AcDbSpline
 70
8
 71
3
 72
8
 73
4
 74
0
 40
0
 40
0
 40
0
 40
0
 40
1
 40
1
 40
1
 40
1
 10
1198.251300
 20
673.868622
 30
0.0
 10
1244.975250
 20
673.868622
 30
0.0
 10
1282.590600
 20
711.483935
 30
0.0
 10
1282.590600
 20
758.207882
 30
0.0
  0
SPLINE
  5
101
100
AcDbEntity
  8
Capa_1
 62
7
100
AcDbSpline
 70
8
 71
3
 72
8
 73
4
 74
0
 40
0
 40
0
 40
0
 40
0
 40
1
 40
1
 40
1
 40
1
 10
1282.590600
 20
2288.951420
 30
0.0
 10
1282.590600
 20
2335.675370
 30
0.0
 10
1244.975250
 20
2373.290720
 30
0.0
 10
1198.251300
 20
2373.290720
 30
0.0
  0
LWPOLYLINE
  5
102
100
AcDbEntity
  8
Capa_1
 62
7
100
AcDbPolyline
 90
2
 70
0
 10
88.252740
 20
673.868637
 30
0.0
 10
1198.251300
 20
673.868637
 30
0.0
  0
SPLINE
  5
103
100
AcDbEntity
  8
Capa_1
 62
7
100
AcDbSpline
 70
8
 71
3
 72
8
 73
4
 74
0
 40
0
 40
0
 40
0
 40
0
 40
1
 40
1
 40
1
 40
1
 10
88.252740
 20
2373.290720
 30
0.0
 10
41.528786
 20
2373.290720
 30
0.0
 10
3.913475
 20
2335.675370
 30
0.0
 10
3.913475
 20
2288.951420
 30
0.0
  0
LWPOLYLINE
  5
104
100
AcDbEntity
  8
Capa_1
 62
7
100
AcDbPolyline
 90
2
 70
0
 10
1282.590600
 20
758.207882
 30
0.0
 10
1282.590600
 20
2288.951420
 30
0.0
  0
SPLINE
  5
105
100
AcDbEntity
  8
Capa_1
 62
7
100
AcDbSpline
 70
8
 71
3
 72
8
 73
4
 74
0
 40
0
 40
0
 40
0
 40
0
 40
1
 40
1
 40
1
 40
1
 10
3.913475
 20
758.207882
 30
0.0
 10
3.913475
 20
711.483935
 30
0.0
 10
41.528786
 20
673.868622
 30
0.0
 10
88.252740
 20
673.868622
 30
0.0
  0
LWPOLYLINE
  5
106
100
AcDbEntity
  8
Capa_1
 62
7
100
AcDbPolyline
 90
2
 70
0
 10
1198.251300
 20
2373.290720
 30
0.0
 10
88.252740
 20
2373.290720
 30
0.0
  0
SPLINE
  5
107
100
AcDbEntity
  8
Capa_1
 62
7
100
AcDbSpline
 70
8
 71
3
 72
8
 73
4
 74
0
 40
0
 40
0
 40
0
 40
0
 40
1
 40
1
 40
1
 40
1
 10
1198.251285
 20
-1116.874264
 30
0.0
 10
1244.975235
 20
-1116.874264
 30
0.0
 10
1282.590585
 20
-1079.258989
 30
0.0
 10
1282.590585
 20
-1032.535039
 30
0.0
  0
LWPOLYLINE
  5
108
100
AcDbEntity
  8
Capa_1
 62
7
100
AcDbPolyline
 90
2
 70
0
 10
3.913475
 20
2288.951420
 30
0.0
 10
3.913475
 20
758.207882
 30
0.0
  0
SPLINE
  5
109
100
AcDbEntity
  8
Capa_1
 62
7
100
AcDbSpline
 70
8
 71
3
 72
8
 73
4
 74
0
 40
0
 40
0
 40
0
 40
0
 40
1
 40
1
 40
1
 40
1
 10
1282.590585
 20
498.208534
 30
0.0
 10
1282.590585
 20
544.932484
 30
0.0
 10
1244.975235
 20
582.547834
 30
0.0
 10
1198.251285
 20
582.547834
 30
0.0
  0
LWPOLYLINE
  5
10a
100
AcDbEntity
  8
Capa_1
 62
7
100
AcDbPolyline
 90
2
 70
0
 10
88.252717
 20
-1116.874264
 30
0.0
 10
1198.251285
 20
-1116.874264
 30
0.0
  0
SPLINE
  5
10b
100
AcDbEntity
  8
Capa_1
 62
7
100
AcDbSpline
 70
8
 71
3
 72
8
 73
4
 74
0
 40
0
 40
0
 40
0
 40
0
 40
1
 40
1
 40
1
 40
1
 10
88.252717
 20
582.547834
 30
0.0
 10
41.528765
 20
582.547834
 30
0.0
 10
3.913490
 20
544.932484
 30
0.0
 10
3.913490
 20
498.208534
 30
0.0
  0
LWPOLYLINE
  5
10c
100
AcDbEntity
  8
Capa_1
 62
7
100
AcDbPolyline
 90
2
 70
0
 10
1282.590585
 20
-1032.535039
 30
0.0
 10
1282.590585
 20
498.208534
 30
0.0
  0
SPLINE
  5
10d
100
AcDbEntity
  8
Capa_1
 62
7
100
AcDbSpline
 70
8
 71
3
 72
8
 73
4
 74
0
 40
0
 40
0
 40
0
 40
0
 40
1
 40
1
 40
1
 40
1
 10
3.913490
 20
-1032.535039
 30
0.0
 10
3.913490
 20
-1079.258989
 30
0.0
 10
41.528765
 20
-1116.874264
 30
0.0
 10
88.252717
 20
-1116.874264
 30
0.0
  0
LWPOLYLINE
  5
10e
100
AcDbEntity
  8
Capa_1
 62
7
100
AcDbPolyline
 90
2
 70
0
 10
1198.251285
 20
582.547834
 30
0.0
 10
88.252717
 20
582.547834
 30
0.0
  0
LWPOLYLINE
  5
10f
100
AcDbEntity
  8
Capa_1
 62
7
100
AcDbPolyline
 90
2
 70
0
 10
3.913490
 20
498.208534
 30
0.0
 10
3.913490
 20
-1032.535039
 30
0.0
  0
LWPOLYLINE
  5
110
100
AcDbEntity
  8
Capa_1
 62
7
100
AcDbPolyline
 90
8
 70
1
 10
1779.506100
 20
904.488963
 30
0.0
 10
1779.506100
 20
892.184276
 30
0.0
 10
1744.701450
 20
892.184276
 30
0.0
 10
1744.701450
 20
801.199901
 30
0.0
 10
1730.498325
 20
801.199901
 30
0.0
 10
1730.498325
 20
892.184276
 30
0.0
 10
1695.693600
 20
892.184276
 30
0.0
 10
1695.693600
 20
904.488963
 30
0.0
  0
SPLINE
  5
111
100
AcDbEntity
  8
Capa_1
 62
7
100
AcDbSpline
 70
8
 71
3
 72
8
 73
4
 74
0
 40
0
 40
0
 40
0
 40
0
 40
1
 40
1
 40
1
 40
1
 10
1803.342075
 20
826.512401
 30
0.0
 10
1803.342075
 20
822.668651
 30
0.0
 10
1803.951450
 20
819.528026
 30
0.0
 10
1805.170200
 20
817.090526
 30
0.0
  0
SPLINE
  5
112
100
AcDbEntity
  8
Capa_1
 62
7
100
AcDbSpline
 70
8
 71
3
 72
8
 73
4
 74
0
 40
0
 40
0
 40
0
 40
0
 40
1
 40
1
 40
1
 40
1
 10
1805.170200
 20
817.090526
 30
0.0
 10
1807.420200
 20
812.590526
 30
0.0
 10
1811.615500
 20
810.340526
 30
0.0
 10
1817.756100
 20
810.340526
 30
0.0
  0
SPLINE
  5
113
100
AcDbEntity
  8
Capa_1
 62
7
100
AcDbSpline
 70
8
 71
3
 72
8
 73
4
 74
0
 40
0
 40
0
 40
0
 40
0
 40
1
 40
1
 40
1
 40
1
 10
1817.756100
 20
810.340526
 30
0.0
 10
1826.568600
 20
810.340526
 30
0.0
 10
1832.568600
 20
814.278026
 30
0.0
 10
1835.756100
 20
822.153026
 30
0.0
  0
SPLINE
  5
114
100
AcDbEntity
  8
Capa_1
 62
7
100
AcDbSpline
 70
8
 71
3
 72
8
 73
4
 74
0
 40
0
 40
0
 40
0
 40
0
 40
1
 40
1
 40
1
 40
1
 10
1835.756100
 20
822.153026
 30
0.0
 10
1837.490500
 20
826.371776
 30
0.0
 10
1838.357700
 20
832.160838
 30
0.0
 10
1838.357700
 20
839.520213
 30
0.0
  0
LWPOLYLINE
  5
115
100
AcDbEntity
  8
Capa_1
 62
7
100
AcDbPolyline
 90
2
 70
0
 10
1803.342075
 20
876.504588
 30
0.0
 10
1803.342075
 20
826.512401
 30
0.0
  0
SPLINE
  5
116
100
AcDbEntity
  8
Capa_1
 62
7
100
AcDbSpline
 70
8
 71
3
 72
8
 73
4
 74
0
 40
0
 40
0
 40
0
 40
0
 40
1
 40
1
 40
1
 40
1
 10
1839.201450
 20
812.309276
 30
0.0
 10
1837.560800
 20
809.449901
 30
0.0
 10
1835.521725
 20
807.035838
 30
0.0
 10
1833.084225
 20
805.067088
 30
0.0
  0
SPLINE
  5
117
100
AcDbEntity
  8
Capa_1
 62
7
100
AcDbSpline
 70
8
 71
3
 72
8
 73
4
 74
0
 40
0
 40
0
 40
0
 40
0
 40
1
 40
1
 40
1
 40
1
 10
1833.084225
 20
805.067088
 30
0.0
 10
1828.256125
 20
801.129588
 30
0.0
 10
1822.396750
 20
799.160838
 30
0.0
 10
1815.506100
 20
799.160838
 30
0.0
  0
SPLINE
  5
118
100
AcDbEntity
  8
Capa_1
 62
7
100
AcDbSpline
 70
8
 71
3
 72
8
 73
4
 74
0
 40
0
 40
0
 40
0
 40
0
 40
1
 40
1
 40
1
 40
1
 10
1815.506100
 20
799.160838
 30
0.0
 10
1804.771750
 20
799.160838
 30
0.0
 10
1797.459250
 20
802.746776
 30
0.0
 10
1793.568600
 20
809.918651
 30
0.0
  0
SPLINE
  5
119
100
AcDbEntity
  8
Capa_1
 62
7
100
AcDbSpline
 70
8
 71
3
 72
8
 73
4
 74
0
 40
0
 40
0
 40
0
 40
0
 40
1
 40
1
 40
1
 40
1
 10
1793.568600
 20
809.918651
 30
0.0
 10
1791.459250
 20
813.762401
 30
0.0
 10
1790.404575
 20
818.895213
 30
0.0
 10
1790.404575
 20
825.317088
 30
0.0
  0
LWPOLYLINE
  5
11a
100
AcDbEntity
  8
Capa_1
 62
7
100
AcDbPolyline
 90
6
 70
0
 10
1838.357700
 20
839.520213
 30
0.0
 10
1838.357700
 20
876.504588
 30
0.0
 10
1851.013950
 20
876.504588
 30
0.0
 10
1851.013950
 20
801.199901
 30
0.0
 10
1839.060825
 20
801.199901
 30
0.0
 10
1839.201450
 20
812.309276
 30
0.0
  0
LWPOLYLINE
  5
11b
100
AcDbEntity
  8
Capa_1
 62
7
100
AcDbPolyline
 90
3
 70
0
 10
1790.404575
 20
825.317088
 30
0.0
 10
1790.404575
 20
876.504588
 30
0.0
 10
1803.342075
 20
876.504588
 30
0.0
  0
LWPOLYLINE
  5
11c
100
AcDbEntity
  8
Capa_1
 62
7
100
AcDbPolyline
 90
1
 70
1
 10
1820.709225
 20
878.332713
 30
0.0
  0
SPLINE
  5
11d
100
AcDbEntity
  8
Capa_1
 62
7
100
AcDbSpline
 70
8
 71
3
 72
8
 73
4
 74
0
 40
0
 40
0
 40
0
 40
0
 40
1
 40
1
 40
1
 40
1
 10
1883.217075
 20
863.496776
 30
0.0
 10
1884.201425
 20
866.028026
 30
0.0
 10
1886.615475
 20
869.098338
 30
0.0
 10
1890.459225
 20
872.707713
 30
0.0
  0
SPLINE
  5
11e
100
AcDbEntity
  8
Capa_1
 62
7
100
AcDbSpline
 70
8
 71
3
 72
8
 73
4
 74
0
 40
0
 40
0
 40
0
 40
0
 40
1
 40
1
 40
1
 40
1
 10
1890.459225
 20
872.707713
 30
0.0
 10
1894.302975
 20
876.363963
 30
0.0
 10
1898.732675
 20
878.192088
 30
0.0
 10
1903.748325
 20
878.192088
 30
0.0
  0
SPLINE
  5
11f
100
AcDbEntity
  8
Capa_1
 62
7
100
AcDbSpline
 70
8
 71
3
 72
8
 73
4
 74
0
 40
0
 40
0
 40
0
 40
0
 40
1
 40
1
 40
1
 40
1
 10
1903.748325
 20
878.192088
 30
0.0
 10
1903.982675
 20
878.192088
 30
0.0
 10
1904.381100
 20
878.168651
 30
0.0
 10
1904.943600
 20
878.121776
 30
0.0
  0
SPLINE
  5
120
100
AcDbEntity
  8
Capa_1
 62
7
100
AcDbSpline
 70
8
 71
3
 72
8
 73
4
 74
0
 40
0
 40
0
 40
0
 40
0
 40
1
 40
1
 40
1
 40
1
 10
1904.943600
 20
878.121776
 30
0.0
 10
1905.506100
 20
878.074901
 30
0.0
 10
1906.467050
 20
877.981151
 30
0.0
 10
1907.826450
 20
877.840526
 30
0.0
  0
LWPOLYLINE
  5
121
100
AcDbEntity
  8
Capa_1
 62
7
100
AcDbPolyline
 90
3
 70
0
 10
1871.193600
 20
876.504588
 30
0.0
 10
1883.217075
 20
876.504588
 30
0.0
 10
1883.217075
 20
863.496776
 30
0.0
  0
SPLINE
  5
122
100
AcDbEntity
  8
Capa_1
 62
7
100
AcDbSpline
 70
8
 71
3
 72
8
 73
4
 74
0
 40
0
 40
0
 40
0
 40
0
 40
1
 40
1
 40
1
 40
1
 10
1907.826450
 20
864.481151
 30
0.0
 10
1907.076450
 20
864.621776
 30
0.0
 10
1906.373325
 20
864.715526
 30
0.0
 10
1905.717075
 20
864.762401
 30
0.0
  0
SPLINE
  5
123
100
AcDbEntity
  8
Capa_1
 62
7
100
AcDbSpline
 70
8
 71
3
 72
8
 73
4
 74
0
 40
0
 40
0
 40
0
 40
0
 40
1
 40
1
 40
1
 40
1
 10
1905.717075
 20
864.762401
 30
0.0
 10
1905.107675
 20
864.809276
 30
0.0
 10
1904.427975
 20
864.832713
 30
0.0
 10
1903.677975
 20
864.832713
 30
0.0
  0
SPLINE
  5
124
100
AcDbEntity
  8
Capa_1
 62
7
100
AcDbSpline
 70
8
 71
3
 72
8
 73
4
 74
0
 40
0
 40
0
 40
0
 40
0
 40
1
 40
1
 40
1
 40
1
 10
1903.677975
 20
864.832713
 30
0.0
 10
1897.302975
 20
864.832713
 30
0.0
 10
1892.404550
 20
862.770213
 30
0.0
 10
1888.982700
 20
858.645213
 30
0.0
  0
SPLINE
  5
125
100
AcDbEntity
  8
Capa_1
 62
7
100
AcDbSpline
 70
8
 71
3
 72
8
 73
4
 74
0
 40
0
 40
0
 40
0
 40
0
 40
1
 40
1
 40
1
 40
1
 10
1888.982700
 20
858.645213
 30
0.0
 10
1885.560800
 20
854.567088
 30
0.0
 10
1883.849850
 20
849.856151
 30
0.0
 10
1883.849850
 20
844.512401
 30
0.0
  0
LWPOLYLINE
  5
126
100
AcDbEntity
  8
Capa_1
 62
7
100
AcDbPolyline
 90
2
 70
0
 10
1907.826450
 20
877.840526
 30
0.0
 10
1907.826450
 20
864.481151
 30
0.0
  0
LWPOLYLINE
  5
127
100
AcDbEntity
  8
Capa_1
 62
7
100
AcDbPolyline
 90
4
 70
0
 10
1883.849850
 20
844.512401
 30
0.0
 10
1883.849850
 20
801.199901
 30
0.0
 10
1871.193600
 20
801.199901
 30
0.0
 10
1871.193600
 20
876.504588
 30
0.0
  0
SPLINE
  5
128
100
AcDbEntity
  8
Capa_1
 62
7
100
AcDbSpline
 70
8
 71
3
 72
8
 73
4
 74
0
 40
0
 40
0
 40
0
 40
0
 40
1
 40
1
 40
1
 40
1
 10
1930.959225
 20
865.817088
 30
0.0
 10
1934.521725
 20
870.223338
 30
0.0
 10
1938.295175
 20
873.387401
 30
0.0
 10
1942.279575
 20
875.309276
 30
0.0
  0
SPLINE
  5
129
100
AcDbEntity
  8
Capa_1
 62
7
100
AcDbSpline
 70
8
 71
3
 72
8
 73
4
 74
0
 40
0
 40
0
 40
0
 40
0
 40
1
 40
1
 40
1
 40
1
 10
1942.279575
 20
875.309276
 30
0.0
 10
1946.263925
 20
877.231151
 30
0.0
 10
1950.693600
 20
878.192088
 30
0.0
 10
1955.568600
 20
878.192088
 30
0.0
  0
SPLINE
  5
12a
100
AcDbEntity
  8
Capa_1
 62
7
100
AcDbSpline
 70
8
 71
3
 72
8
 73
4
 74
0
 40
0
 40
0
 40
0
 40
0
 40
1
 40
1
 40
1
 40
1
 10
1955.568600
 20
878.192088
 30
0.0
 10
1966.256100
 20
878.192088
 30
0.0
 10
1973.474850
 20
874.465526
 30
0.0
 10
1977.224850
 20
867.012401
 30
0.0
  0
SPLINE
  5
12b
100
AcDbEntity
  8
Capa_1
 62
7
100
AcDbSpline
 70
8
 71
3
 72
8
 73
4
 74
0
 40
0
 40
0
 40
0
 40
0
 40
1
 40
1
 40
1
 40
1
 10
1977.224850
 20
867.012401
 30
0.0
 10
1979.287350
 20
862.934276
 30
0.0
 10
1980.318600
 20
857.098338
 30
0.0
 10
1980.318600
 20
849.504588
 30
0.0
  0
LWPOLYLINE
  5
12c
100
AcDbEntity
  8
Capa_1
 62
7
100
AcDbPolyline
 90
3
 70
0
 10
1918.935825
 20
876.504588
 30
0.0
 10
1930.959225
 20
876.504588
 30
0.0
 10
1930.959225
 20
865.817088
 30
0.0
  0
SPLINE
  5
12d
100
AcDbEntity
  8
Capa_1
 62
7
100
AcDbSpline
 70
8
 71
3
 72
8
 73
4
 74
0
 40
0
 40
0
 40
0
 40
0
 40
1
 40
1
 40
1
 40
1
 10
1967.451450
 20
848.660838
 30
0.0
 10
1967.451450
 20
853.254588
 30
0.0
 10
1966.771750
 20
856.957713
 30
0.0
 10
1965.412350
 20
859.770213
 30
0.0
  0
SPLINE
  5
12e
100
AcDbEntity
  8
Capa_1
 62
7
100
AcDbSpline
 70
8
 71
3
 72
8
 73
4
 74
0
 40
0
 40
0
 40
0
 40
0
 40
1
 40
1
 40
1
 40
1
 10
1965.412350
 20
859.770213
 30
0.0
 10
1963.162350
 20
864.457713
 30
0.0
 10
1959.084225
 20
866.801463
 30
0.0
 10
1953.177975
 20
866.801463
 30
0.0
  0
SPLINE
  5
12f
100
AcDbEntity
  8
Capa_1
 62
7
100
AcDbSpline
 70
8
 71
3
 72
8
 73
4
 74
0
 40
0
 40
0
 40
0
 40
0
 40
1
 40
1
 40
1
 40
1
 10
1953.177975
 20
866.801463
 30
0.0
 10
1950.177975
 20
866.801463
 30
0.0
 10
1947.717050
 20
866.496776
 30
0.0
 10
1945.795200
 20
865.887401
 30
0.0
  0
SPLINE
  5
130
100
AcDbEntity
  8
Capa_1
 62
7
100
AcDbSpline
 70
8
 71
3
 72
8
 73
4
 74
0
 40
0
 40
0
 40
0
 40
0
 40
1
 40
1
 40
1
 40
1
 10
1945.795200
 20
865.887401
 30
0.0
 10
1942.326450
 20
864.856151
 30
0.0
 10
1939.279575
 20
862.793651
 30
0.0
 10
1936.654575
 20
859.699901
 30
0.0
  0
SPLINE
  5
131
100
AcDbEntity
  8
Capa_1
 62
7
100
AcDbSpline
 70
8
 71
3
 72
8
 73
4
 74
0
 40
0
 40
0
 40
0
 40
0
 40
1
 40
1
 40
1
 40
1
 10
1936.654575
 20
859.699901
 30
0.0
 10
1934.545175
 20
857.215526
 30
0.0
 10
1933.162350
 20
854.637401
 30
0.0
 10
1932.506100
 20
851.965526
 30
0.0
  0
SPLINE
  5
132
100
AcDbEntity
  8
Capa_1
 62
7
100
AcDbSpline
 70
8
 71
3
 72
8
 73
4
 74
0
 40
0
 40
0
 40
0
 40
0
 40
1
 40
1
 40
1
 40
1
 10
1932.506100
 20
851.965526
 30
0.0
 10
1931.896750
 20
849.340526
 30
0.0
 10
1931.592075
 20
845.567088
 30
0.0
 10
1931.592075
 20
840.645213
 30
0.0
  0
LWPOLYLINE
  5
133
100
AcDbEntity
  8
Capa_1
 62
7
100
AcDbPolyline
 90
4
 70
0
 10
1980.318600
 20
849.504588
 30
0.0
 10
1980.318600
 20
801.199901
 30
0.0
 10
1967.451450
 20
801.199901
 30
0.0
 10
1967.451450
 20
848.660838
 30
0.0
  0
LWPOLYLINE
  5
134
100
AcDbEntity
  8
Capa_1
 62
7
100
AcDbPolyline
 90
4
 70
0
 10
1931.592075
 20
840.645213
 30
0.0
 10
1931.592075
 20
801.199901
 30
0.0
 10
1918.935825
 20
801.199901
 30
0.0
 10
1918.935825
 20
876.504588
 30
0.0
  0
LWPOLYLINE
  5
135
100
AcDbEntity
  8
Capa_1
 62
7
100
AcDbPolyline
 90
1
 70
1
 10
1948.677975
 20
878.332713
 30
0.0
  0
SPLINE
  5
136
100
AcDbEntity
  8
Capa_1
 62
7
100
AcDbSpline
 70
8
 71
3
 72
8
 73
4
 74
0
 40
0
 40
0
 40
0
 40
0
 40
1
 40
1
 40
1
 40
1
 10
2051.404575
 20
863.496776
 30
0.0
 10
2052.388925
 20
866.028026
 30
0.0
 10
2054.802975
 20
869.098338
 30
0.0
 10
2058.646725
 20
872.707713
 30
0.0
  0
SPLINE
  5
137
100
AcDbEntity
  8
Capa_1
 62
7
100
AcDbSpline
 70
8
 71
3
 72
8
 73
4
 74
0
 40
0
 40
0
 40
0
 40
0
 40
1
 40
1
 40
1
 40
1
 10
2058.646725
 20
872.707713
 30
0.0
 10
2062.490475
 20
876.363963
 30
0.0
 10
2066.920175
 20
878.192088
 30
0.0
 10
2071.935825
 20
878.192088
 30
0.0
  0
SPLINE
  5
138
100
AcDbEntity
  8
Capa_1
 62
7
100
AcDbSpline
 70
8
 71
3
 72
8
 73
4
 74
0
 40
0
 40
0
 40
0
 40
0
 40
1
 40
1
 40
1
 40
1
 10
2071.935825
 20
878.192088
 30
0.0
 10
2072.170175
 20
878.192088
 30
0.0
 10
2072.568600
 20
878.168651
 30
0.0
 10
2073.131100
 20
878.121776
 30
0.0
  0
SPLINE
  5
139
100
AcDbEntity
  8
Capa_1
 62
7
100
AcDbSpline
 70
8
 71
3
 72
8
 73
4
 74
0
 40
0
 40
0
 40
0
 40
0
 40
1
 40
1
 40
1
 40
1
 10
2073.131100
 20
878.121776
 30
0.0
 10
2073.693600
 20
878.074901
 30
0.0
 10
2074.654550
 20
877.981151
 30
0.0
 10
2076.013950
 20
877.840526
 30
0.0
  0
LWPOLYLINE
  5
13a
100
AcDbEntity
  8
Capa_1
 62
7
100
AcDbPolyline
 90
3
 70
0
 10
2039.381100
 20
876.504588
 30
0.0
 10
2051.404575
 20
876.504588
 30
0.0
 10
2051.404575
 20
863.496776
 30
0.0
  0
SPLINE
  5
13b
100
AcDbEntity
  8
Capa_1
 62
7
100
AcDbSpline
 70
8
 71
3
 72
8
 73
4
 74
0
 40
0
 40
0
 40
0
 40
0
 40
1
 40
1
 40
1
 40
1
 10
2076.013950
 20
864.481151
 30
0.0
 10
2075.263950
 20
864.621776
 30
0.0
 10
2074.560825
 20
864.715526
 30
0.0
 10
2073.904575
 20
864.762401
 30
0.0
  0
SPLINE
  5
13c
100
AcDbEntity
  8
Capa_1
 62
7
100
AcDbSpline
 70
8
 71
3
 72
8
 73
4
 74
0
 40
0
 40
0
 40
0
 40
0
 40
1
 40
1
 40
1
 40
1
 10
2073.904575
 20
864.762401
 30
0.0
 10
2073.295175
 20
864.809276
 30
0.0
 10
2072.615475
 20
864.832713
 30
0.0
 10
2071.865475
 20
864.832713
 30
0.0
  0
SPLINE
  5
13d
100
AcDbEntity
  8
Capa_1
 62
7
100
AcDbSpline
 70
8
 71
3
 72
8
 73
4
 74
0
 40
0
 40
0
 40
0
 40
0
 40
1
 40
1
 40
1
 40
1
 10
2071.865475
 20
864.832713
 30
0.0
 10
2065.490475
 20
864.832713
 30
0.0
 10
2060.592050
 20
862.770213
 30
0.0
 10
2057.170200
 20
858.645213
 30
0.0
  0
SPLINE
  5
13e
100
AcDbEntity
  8
Capa_1
 62
7
100
AcDbSpline
 70
8
 71
3
 72
8
 73
4
 74
0
 40
0
 40
0
 40
0
 40
0
 40
1
 40
1
 40
1
 40
1
 10
2057.170200
 20
858.645213
 30
0.0
 10
2053.748300
 20
854.567088
 30
0.0
 10
2052.037350
 20
849.856151
 30
0.0
 10
2052.037350
 20
844.512401
 30
0.0
  0
LWPOLYLINE
  5
13f
100
AcDbEntity
  8
Capa_1
 62
7
100
AcDbPolyline
 90
2
 70
0
 10
2076.013950
 20
877.840526
 30
0.0
 10
2076.013950
 20
864.481151
 30
0.0
  0
LWPOLYLINE
  5
140
100
AcDbEntity
  8
Capa_1
 62
7
100
AcDbPolyline
 90
4
 70
0
 10
2052.037350
 20
844.512401
 30
0.0
 10
2052.037350
 20
801.199901
 30
0.0
 10
2039.381100
 20
801.199901
 30
0.0
 10
2039.381100
 20
876.504588
 30
0.0
  0
LWPOLYLINE
  5
141
100
AcDbEntity
  8
Capa_1
 62
7
100
AcDbPolyline
 90
4
 70
1
 10
2087.123325
 20
876.153026
 30
0.0
 10
2099.990475
 20
876.153026
 30
0.0
 10
2099.990475
 20
801.199901
 30
0.0
 10
2087.123325
 20
801.199901
 30
0.0
  0
SPLINE
  5
142
100
AcDbEntity
  8
Capa_1
 62
7
100
AcDbSpline
 70
8
 71
3
 72
8
 73
4
 74
0
 40
0
 40
0
 40
0
 40
0
 40
1
 40
1
 40
1
 40
1
 10
2145.763950
 20
877.840526
 30
0.0
 10
2151.670200
 20
877.840526
 30
0.0
 10
2156.826450
 20
876.387401
 30
0.0
 10
2161.232700
 20
873.481151
 30
0.0
  0
SPLINE
  5
143
100
AcDbEntity
  8
Capa_1
 62
7
100
AcDbSpline
 70
8
 71
3
 72
8
 73
4
 74
0
 40
0
 40
0
 40
0
 40
0
 40
1
 40
1
 40
1
 40
1
 10
2161.232700
 20
873.481151
 30
0.0
 10
2163.623300
 20
871.840526
 30
0.0
 10
2166.060800
 20
869.449901
 30
0.0
 10
2168.545200
 20
866.309276
 30
0.0
  0
LWPOLYLINE
  5
144
100
AcDbEntity
  8
Capa_1
 62
7
100
AcDbPolyline
 90
4
 70
1
 10
2087.123325
 20
904.488963
 30
0.0
 10
2099.990475
 20
904.488963
 30
0.0
 10
2099.990475
 20
890.145213
 30
0.0
 10
2087.123325
 20
890.145213
 30
0.0
  0
SPLINE
  5
145
100
AcDbEntity
  8
Capa_1
 62
7
100
AcDbSpline
 70
8
 71
3
 72
8
 73
4
 74
0
 40
0
 40
0
 40
0
 40
0
 40
1
 40
1
 40
1
 40
1
 10
2180.217075
 20
807.317088
 30
0.0
 10
2180.217075
 20
797.754588
 30
0.0
 10
2178.810825
 20
790.207713
 30
0.0
 10
2175.998325
 20
784.676463
 30
0.0
  0
SPLINE
  5
146
100
AcDbEntity
  8
Capa_1
 62
7
100
AcDbSpline
 70
8
 71
3
 72
8
 73
4
 74
0
 40
0
 40
0
 40
0
 40
0
 40
1
 40
1
 40
1
 40
1
 10
2175.998325
 20
784.676463
 30
0.0
 10
2170.748325
 20
774.457713
 30
0.0
 10
2160.834250
 20
769.348338
 30
0.0
 10
2146.256100
 20
769.348338
 30
0.0
  0
SPLINE
  5
147
100
AcDbEntity
  8
Capa_1
 62
7
100
AcDbSpline
 70
8
 71
3
 72
8
 73
4
 74
0
 40
0
 40
0
 40
0
 40
0
 40
1
 40
1
 40
1
 40
1
 10
2146.256100
 20
769.348338
 30
0.0
 10
2138.146750
 20
769.348338
 30
0.0
 10
2131.326450
 20
771.176463
 30
0.0
 10
2125.795200
 20
774.832713
 30
0.0
  0
SPLINE
  5
148
100
AcDbEntity
  8
Capa_1
 62
7
100
AcDbSpline
 70
8
 71
3
 72
8
 73
4
 74
0
 40
0
 40
0
 40
0
 40
0
 40
1
 40
1
 40
1
 40
1
 10
2125.795200
 20
774.832713
 30
0.0
 10
2120.263950
 20
778.442088
 30
0.0
 10
2117.170200
 20
784.113963
 30
0.0
 10
2116.513950
 20
791.848338
 30
0.0
  0
LWPOLYLINE
  5
149
100
AcDbEntity
  8
Capa_1
 62
7
100
AcDbPolyline
 90
4
 70
0
 10
2168.545200
 20
866.309276
 30
0.0
 10
2168.545200
 20
875.801463
 30
0.0
 10
2180.217075
 20
875.801463
 30
0.0
 10
2180.217075
 20
807.317088
 30
0.0
  0
SPLINE
  5
14a
100
AcDbEntity
  8
Capa_1
 62
7
100
AcDbSpline
 70
8
 71
3
 72
8
 73
4
 74
0
 40
0
 40
0
 40
0
 40
0
 40
1
 40
1
 40
1
 40
1
 10
2129.381100
 20
791.848338
 30
0.0
 10
2129.990500
 20
788.473338
 30
0.0
 10
2131.209250
 20
785.871776
 30
0.0
 10
2133.037350
 20
784.043651
 30
0.0
  0
SPLINE
  5
14b
100
AcDbEntity
  8
Capa_1
 62
7
100
AcDbSpline
 70
8
 71
3
 72
8
 73
4
 74
0
 40
0
 40
0
 40
0
 40
0
 40
1
 40
1
 40
1
 40
1
 10
2133.037350
 20
784.043651
 30
0.0
 10
2135.896750
 20
781.231151
 30
0.0
 10
2140.396750
 20
779.824901
 30
0.0
 10
2146.537350
 20
779.824901
 30
0.0
  0
SPLINE
  5
14c
100
AcDbEntity
  8
Capa_1
 62
7
100
AcDbSpline
 70
8
 71
3
 72
8
 73
4
 74
0
 40
0
 40
0
 40
0
 40
0
 40
1
 40
1
 40
1
 40
1
 10
2146.537350
 20
779.824901
 30
0.0
 10
2156.240500
 20
779.824901
 30
0.0
 10
2162.592075
 20
783.246776
 30
0.0
 10
2165.592075
 20
790.090526
 30
0.0
  0
SPLINE
  5
14d
100
AcDbEntity
  8
Capa_1
 62
7
100
AcDbSpline
 70
8
 71
3
 72
8
 73
4
 74
0
 40
0
 40
0
 40
0
 40
0
 40
1
 40
1
 40
1
 40
1
 10
2165.592075
 20
790.090526
 30
0.0
 10
2167.373325
 20
794.121776
 30
0.0
 10
2168.193625
 20
801.317088
 30
0.0
 10
2168.052975
 20
811.676463
 30
0.0
  0
SPLINE
  5
14e
100
AcDbEntity
  8
Capa_1
 62
7
100
AcDbSpline
 70
8
 71
3
 72
8
 73
4
 74
0
 40
0
 40
0
 40
0
 40
0
 40
1
 40
1
 40
1
 40
1
 10
2168.052975
 20
811.676463
 30
0.0
 10
2165.521725
 20
807.832713
 30
0.0
 10
2162.474850
 20
804.973338
 30
0.0
 10
2158.912350
 20
803.098338
 30
0.0
  0
SPLINE
  5
14f
100
AcDbEntity
  8
Capa_1
 62
7
100
AcDbSpline
 70
8
 71
3
 72
8
 73
4
 74
0
 40
0
 40
0
 40
0
 40
0
 40
1
 40
1
 40
1
 40
1
 10
2158.912350
 20
803.098338
 30
0.0
 10
2155.349850
 20
801.223338
 30
0.0
 10
2150.638925
 20
800.285838
 30
0.0
 10
2144.779575
 20
800.285838
 30
0.0
  0
SPLINE
  5
150
100
AcDbEntity
  8
Capa_1
 62
7
100
AcDbSpline
 70
8
 71
3
 72
8
 73
4
 74
0
 40
0
 40
0
 40
0
 40
0
 40
1
 40
1
 40
1
 40
1
 10
2144.779575
 20
800.285838
 30
0.0
 10
2136.623325
 20
800.285838
 30
0.0
 10
2129.474875
 20
803.168651
 30
0.0
 10
2123.334225
 20
808.934276
 30
0.0
  0
SPLINE
  5
151
100
AcDbEntity
  8
Capa_1
 62
7
100
AcDbSpline
 70
8
 71
3
 72
8
 73
4
 74
0
 40
0
 40
0
 40
0
 40
0
 40
1
 40
1
 40
1
 40
1
 10
2123.334225
 20
808.934276
 30
0.0
 10
2117.240475
 20
814.746776
 30
0.0
 10
2114.193600
 20
824.332713
 30
0.0
 10
2114.193600
 20
837.692088
 30
0.0
  0
SPLINE
  5
152
100
AcDbEntity
  8
Capa_1
 62
7
100
AcDbSpline
 70
8
 71
3
 72
8
 73
4
 74
0
 40
0
 40
0
 40
0
 40
0
 40
1
 40
1
 40
1
 40
1
 10
2114.193600
 20
837.692088
 30
0.0
 10
2114.193600
 20
850.301463
 30
0.0
 10
2117.263925
 20
860.145213
 30
0.0
 10
2123.404575
 20
867.223338
 30
0.0
  0
SPLINE
  5
153
100
AcDbEntity
  8
Capa_1
 62
7
100
AcDbSpline
 70
8
 71
3
 72
8
 73
4
 74
0
 40
0
 40
0
 40
0
 40
0
 40
1
 40
1
 40
1
 40
1
 10
2123.404575
 20
867.223338
 30
0.0
 10
2129.592075
 20
874.301463
 30
0.0
 10
2137.045200
 20
877.840526
 30
0.0
 10
2145.763950
 20
877.840526
 30
0.0
  0
LWPOLYLINE
  5
154
100
AcDbEntity
  8
Capa_1
 62
7
100
AcDbPolyline
 90
2
 70
0
 10
2116.513950
 20
791.848338
 30
0.0
 10
2129.381100
 20
791.848338
 30
0.0
  0
SPLINE
  5
155
100
AcDbEntity
  8
Capa_1
 62
7
100
AcDbSpline
 70
8
 71
3
 72
8
 73
4
 74
0
 40
0
 40
0
 40
0
 40
0
 40
1
 40
1
 40
1
 40
1
 10
2168.545200
 20
839.168651
 30
0.0
 10
2168.545200
 20
848.496776
 30
0.0
 10
2166.623325
 20
855.410838
 30
0.0
 10
2162.779575
 20
859.910838
 30
0.0
  0
SPLINE
  5
156
100
AcDbEntity
  8
Capa_1
 62
7
100
AcDbSpline
 70
8
 71
3
 72
8
 73
4
 74
0
 40
0
 40
0
 40
0
 40
0
 40
1
 40
1
 40
1
 40
1
 10
2162.779575
 20
859.910838
 30
0.0
 10
2158.935825
 20
864.410838
 30
0.0
 10
2154.037375
 20
866.660838
 30
0.0
 10
2148.084225
 20
866.660838
 30
0.0
  0
SPLINE
  5
157
100
AcDbEntity
  8
Capa_1
 62
7
100
AcDbSpline
 70
8
 71
3
 72
8
 73
4
 74
0
 40
0
 40
0
 40
0
 40
0
 40
1
 40
1
 40
1
 40
1
 10
2148.084225
 20
866.660838
 30
0.0
 10
2139.177975
 20
866.660838
 30
0.0
 10
2133.084225
 20
862.488963
 30
0.0
 10
2129.802975
 20
854.145213
 30
0.0
  0
SPLINE
  5
158
100
AcDbEntity
  8
Capa_1
 62
7
100
AcDbSpline
 70
8
 71
3
 72
8
 73
4
 74
0
 40
0
 40
0
 40
0
 40
0
 40
1
 40
1
 40
1
 40
1
 10
2129.802975
 20
854.145213
 30
0.0
 10
2128.068625
 20
849.692088
 30
0.0
 10
2127.201450
 20
843.856151
 30
0.0
 10
2127.201450
 20
836.637401
 30
0.0
  0
SPLINE
  5
159
100
AcDbEntity
  8
Capa_1
 62
7
100
AcDbSpline
 70
8
 71
3
 72
8
 73
4
 74
0
 40
0
 40
0
 40
0
 40
0
 40
1
 40
1
 40
1
 40
1
 10
2127.201450
 20
836.637401
 30
0.0
 10
2127.201450
 20
828.153026
 30
0.0
 10
2128.912375
 20
821.684276
 30
0.0
 10
2132.334225
 20
817.231151
 30
0.0
  0
SPLINE
  5
15a
100
AcDbEntity
  8
Capa_1
 62
7
100
AcDbSpline
 70
8
 71
3
 72
8
 73
4
 74
0
 40
0
 40
0
 40
0
 40
0
 40
1
 40
1
 40
1
 40
1
 10
2132.334225
 20
817.231151
 30
0.0
 10
2135.802975
 20
812.824901
 30
0.0
 10
2140.443600
 20
810.621776
 30
0.0
 10
2146.256100
 20
810.621776
 30
0.0
  0
SPLINE
  5
15b
100
AcDbEntity
  8
Capa_1
 62
7
100
AcDbSpline
 70
8
 71
3
 72
8
 73
4
 74
0
 40
0
 40
0
 40
0
 40
0
 40
1
 40
1
 40
1
 40
1
 10
2146.256100
 20
810.621776
 30
0.0
 10
2155.349850
 20
810.621776
 30
0.0
 10
2161.748300
 20
814.723338
 30
0.0
 10
2165.451450
 20
822.926463
 30
0.0
  0
SPLINE
  5
15c
100
AcDbEntity
  8
Capa_1
 62
7
100
AcDbSpline
 70
8
 71
3
 72
8
 73
4
 74
0
 40
0
 40
0
 40
0
 40
0
 40
1
 40
1
 40
1
 40
1
 10
2165.451450
 20
822.926463
 30
0.0
 10
2167.513950
 20
827.567088
 30
0.0
 10
2168.545200
 20
832.981151
 30
0.0
 10
2168.545200
 20
839.168651
 30
0.0
  0
LWPOLYLINE
  5
15d
100
AcDbEntity
  8
Capa_1
 62
7
100
AcDbPolyline
 90
1
 70
1
 10
2145.763950
 20
877.840526
 30
0.0
  0
LWPOLYLINE
  5
15e
100
AcDbEntity
  8
Capa_1
 62
7
100
AcDbPolyline
 90
1
 70
1
 10
2168.545200
 20
839.168651
 30
0.0
  0
LWPOLYLINE
  5
15f
100
AcDbEntity
  8
Capa_1
 62
7
100
AcDbPolyline
 90
1
 70
1
 10
2147.240475
 20
878.332713
 30
0.0
  0
SPLINE
  5
160
100
AcDbEntity
  8
Capa_1
 62
7
100
AcDbSpline
 70
8
 71
3
 72
8
 73
4
 74
0
 40
0
 40
0
 40
0
 40
0
 40
1
 40
1
 40
1
 40
1
 10
2211.998325
 20
866.309276
 30
0.0
 10
2214.998325
 20
870.106151
 30
0.0
 10
2217.693625
 20
872.778026
 30
0.0
 10
2220.084225
 20
874.324901
 30
0.0
  0
SPLINE
  5
161
100
AcDbEntity
  8
Capa_1
 62
7
100
AcDbSpline
 70
8
 71
3
 72
8
 73
4
 74
0
 40
0
 40
0
 40
0
 40
0
 40
1
 40
1
 40
1
 40
1
 10
2220.084225
 20
874.324901
 30
0.0
 10
2224.162375
 20
876.996776
 30
0.0
 10
2229.248325
 20
878.332713
 30
0.0
 10
2235.342075
 20
878.332713
 30
0.0
  0
SPLINE
  5
162
100
AcDbEntity
  8
Capa_1
 62
7
100
AcDbSpline
 70
8
 71
3
 72
8
 73
4
 74
0
 40
0
 40
0
 40
0
 40
0
 40
1
 40
1
 40
1
 40
1
 10
2235.342075
 20
878.332713
 30
0.0
 10
2246.263925
 20
878.332713
 30
0.0
 10
2253.670175
 20
874.512401
 30
0.0
 10
2257.560825
 20
866.871776
 30
0.0
  0
SPLINE
  5
163
100
AcDbEntity
  8
Capa_1
 62
7
100
AcDbSpline
 70
8
 71
3
 72
8
 73
4
 74
0
 40
0
 40
0
 40
0
 40
0
 40
1
 40
1
 40
1
 40
1
 10
2257.560825
 20
866.871776
 30
0.0
 10
2259.670175
 20
862.699901
 30
0.0
 10
2260.724850
 20
856.910838
 30
0.0
 10
2260.724850
 20
849.504588
 30
0.0
  0
LWPOLYLINE
  5
164
100
AcDbEntity
  8
Capa_1
 62
7
100
AcDbPolyline
 90
3
 70
0
 10
2199.342075
 20
904.840526
 30
0.0
 10
2211.998325
 20
904.840526
 30
0.0
 10
2211.998325
 20
866.309276
 30
0.0
  0
SPLINE
  5
165
100
AcDbEntity
  8
Capa_1
 62
7
100
AcDbSpline
 70
8
 71
3
 72
8
 73
4
 74
0
 40
0
 40
0
 40
0
 40
0
 40
1
 40
1
 40
1
 40
1
 10
2247.717075
 20
848.660838
 30
0.0
 10
2247.717075
 20
854.192088
 30
0.0
 10
2247.013950
 20
858.246776
 30
0.0
 10
2245.607700
 20
860.824901
 30
0.0
  0
SPLINE
  5
166
100
AcDbEntity
  8
Capa_1
 62
7
100
AcDbSpline
 70
8
 71
3
 72
8
 73
4
 74
0
 40
0
 40
0
 40
0
 40
0
 40
1
 40
1
 40
1
 40
1
 10
2245.607700
 20
860.824901
 30
0.0
 10
2243.310800
 20
864.949901
 30
0.0
 10
2238.998300
 20
867.012401
 30
0.0
 10
2232.670200
 20
867.012401
 30
0.0
  0
SPLINE
  5
167
100
AcDbEntity
  8
Capa_1
 62
7
100
AcDbSpline
 70
8
 71
3
 72
8
 73
4
 74
0
 40
0
 40
0
 40
0
 40
0
 40
1
 40
1
 40
1
 40
1
 10
2232.670200
 20
867.012401
 30
0.0
 10
2227.420200
 20
867.012401
 30
0.0
 10
2222.662375
 20
865.207713
 30
0.0
 10
2218.396725
 20
861.598338
 30
0.0
  0
SPLINE
  5
168
100
AcDbEntity
  8
Capa_1
 62
7
100
AcDbSpline
 70
8
 71
3
 72
8
 73
4
 74
0
 40
0
 40
0
 40
0
 40
0
 40
1
 40
1
 40
1
 40
1
 10
2218.396725
 20
861.598338
 30
0.0
 10
2214.131125
 20
857.988963
 30
0.0
 10
2211.998325
 20
851.168651
 30
0.0
 10
2211.998325
 20
841.137401
 30
0.0
  0
LWPOLYLINE
  5
169
100
AcDbEntity
  8
Capa_1
 62
7
100
AcDbPolyline
 90
4
 70
0
 10
2260.724850
 20
849.504588
 30
0.0
 10
2260.724850
 20
801.199901
 30
0.0
 10
2247.717075
 20
801.199901
 30
0.0
 10
2247.717075
 20
848.660838
 30
0.0
  0
LWPOLYLINE
  5
16a
100
AcDbEntity
  8
Capa_1
 62
7
100
AcDbPolyline
 90
4
 70
0
 10
2211.998325
 20
841.137401
 30
0.0
 10
2211.998325
 20
801.199901
 30
0.0
 10
2199.342075
 20
801.199901
 30
0.0
 10
2199.342075
 20
904.840526
 30
0.0
  0
SPLINE
  5
16b
100
AcDbEntity
  8
Capa_1
 62
7
100
AcDbSpline
 70
8
 71
3
 72
8
 73
4
 74
0
 40
0
 40
0
 40
0
 40
0
 40
1
 40
1
 40
1
 40
1
 10
2294.826450
 20
817.020213
 30
0.0
 10
2294.826450
 20
814.395213
 30
0.0
 10
2295.717075
 20
812.637401
 30
0.0
 10
2297.498325
 20
811.746776
 30
0.0
  0
SPLINE
  5
16c
100
AcDbEntity
  8
Capa_1
 62
7
100
AcDbSpline
 70
8
 71
3
 72
8
 73
4
 74
0
 40
0
 40
0
 40
0
 40
0
 40
1
 40
1
 40
1
 40
1
 10
2297.498325
 20
811.746776
 30
0.0
 10
2298.482675
 20
811.231151
 30
0.0
 10
2300.123300
 20
810.973338
 30
0.0
 10
2302.420200
 20
810.973338
 30
0.0
  0
SPLINE
  5
16d
100
AcDbEntity
  8
Capa_1
 62
7
100
AcDbSpline
 70
8
 71
3
 72
8
 73
4
 74
0
 40
0
 40
0
 40
0
 40
0
 40
1
 40
1
 40
1
 40
1
 10
2302.420200
 20
810.973338
 30
0.0
 10
2303.029550
 20
810.973338
 30
0.0
 10
2303.685800
 20
810.973338
 30
0.0
 10
2304.388950
 20
810.973338
 30
0.0
  0
SPLINE
  5
16e
100
AcDbEntity
  8
Capa_1
 62
7
100
AcDbSpline
 70
8
 71
3
 72
8
 73
4
 74
0
 40
0
 40
0
 40
0
 40
0
 40
1
 40
1
 40
1
 40
1
 10
2304.388950
 20
810.973338
 30
0.0
 10
2305.092050
 20
811.020213
 30
0.0
 10
2305.912350
 20
811.090526
 30
0.0
 10
2306.849850
 20
811.184276
 30
0.0
  0
LWPOLYLINE
  5
16f
100
AcDbEntity
  8
Capa_1
 62
7
100
AcDbPolyline
 90
7
 70
0
 10
2282.029575
 20
897.528026
 30
0.0
 10
2294.826450
 20
897.528026
 30
0.0
 10
2294.826450
 20
876.504588
 30
0.0
 10
2306.849850
 20
876.504588
 30
0.0
 10
2306.849850
 20
866.168651
 30
0.0
 10
2294.826450
 20
866.168651
 30
0.0
 10
2294.826450
 20
817.020213
 30
0.0
  0
SPLINE
  5
170
100
AcDbEntity
  8
Capa_1
 62
7
100
AcDbSpline
 70
8
 71
3
 72
8
 73
4
 74
0
 40
0
 40
0
 40
0
 40
0
 40
1
 40
1
 40
1
 40
1
 10
2306.849850
 20
801.199901
 30
0.0
 10
2305.396750
 20
800.778026
 30
0.0
 10
2303.873325
 20
800.473338
 30
0.0
 10
2302.279575
 20
800.285838
 30
0.0
  0
SPLINE
  5
171
100
AcDbEntity
  8
Capa_1
 62
7
100
AcDbSpline
 70
8
 71
3
 72
8
 73
4
 74
0
 40
0
 40
0
 40
0
 40
0
 40
1
 40
1
 40
1
 40
1
 10
2302.279575
 20
800.285838
 30
0.0
 10
2300.732675
 20
800.098338
 30
0.0
 10
2299.045175
 20
800.004588
 30
0.0
 10
2297.217075
 20
800.004588
 30
0.0
  0
SPLINE
  5
172
100
AcDbEntity
  8
Capa_1
 62
7
100
AcDbSpline
 70
8
 71
3
 72
8
 73
4
 74
0
 40
0
 40
0
 40
0
 40
0
 40
1
 40
1
 40
1
 40
1
 10
2297.217075
 20
800.004588
 30
0.0
 10
2291.310825
 20
800.004588
 30
0.0
 10
2287.303000
 20
801.504588
 30
0.0
 10
2285.193600
 20
804.504588
 30
0.0
  0
SPLINE
  5
173
100
AcDbEntity
  8
Capa_1
 62
7
100
AcDbSpline
 70
8
 71
3
 72
8
 73
4
 74
0
 40
0
 40
0
 40
0
 40
0
 40
1
 40
1
 40
1
 40
1
 10
2285.193600
 20
804.504588
 30
0.0
 10
2283.084250
 20
807.551463
 30
0.0
 10
2282.029575
 20
811.488963
 30
0.0
 10
2282.029575
 20
816.317088
 30
0.0
  0
LWPOLYLINE
  5
174
100
AcDbEntity
  8
Capa_1
 62
7
100
AcDbPolyline
 90
2
 70
0
 10
2306.849850
 20
811.184276
 30
0.0
 10
2306.849850
 20
801.199901
 30
0.0
  0
LWPOLYLINE
  5
175
100
AcDbEntity
  8
Capa_1
 62
7
100
AcDbPolyline
 90
6
 70
0
 10
2282.029575
 20
816.317088
 30
0.0
 10
2282.029575
 20
866.168651
 30
0.0
 10
2271.834225
 20
866.168651
 30
0.0
 10
2271.834225
 20
876.504588
 30
0.0
 10
2282.029575
 20
876.504588
 30
0.0
 10
2282.029575
 20
897.528026
 30
0.0
  0
LWPOLYLINE
  5
176
100
AcDbEntity
  8
Capa_1
 62
7
100
AcDbPolyline
 90
8
 70
1
 10
465.642652
 20
889.336619
 30
0.0
 10
465.642652
 20
877.031932
 30
0.0
 10
430.837965
 20
877.031932
 30
0.0
 10
430.837965
 20
786.047557
 30
0.0
 10
416.634840
 20
786.047557
 30
0.0
 10
416.634840
 20
877.031932
 30
0.0
 10
381.830152
 20
877.031932
 30
0.0
 10
381.830152
 20
889.336619
 30
0.0
  0
SPLINE
  5
177
100
AcDbEntity
  8
Capa_1
 62
7
100
AcDbSpline
 70
8
 71
3
 72
8
 73
4
 74
0
 40
0
 40
0
 40
0
 40
0
 40
1
 40
1
 40
1
 40
1
 10
489.478590
 20
811.360057
 30
0.0
 10
489.478590
 20
807.516307
 30
0.0
 10
490.087965
 20
804.375682
 30
0.0
 10
491.306715
 20
801.938182
 30
0.0
  0
SPLINE
  5
178
100
AcDbEntity
  8
Capa_1
 62
7
100
AcDbSpline
 70
8
 71
3
 72
8
 73
4
 74
0
 40
0
 40
0
 40
0
 40
0
 40
1
 40
1
 40
1
 40
1
 10
491.306715
 20
801.938182
 30
0.0
 10
493.556715
 20
797.438182
 30
0.0
 10
497.752027
 20
795.188182
 30
0.0
 10
503.892652
 20
795.188182
 30
0.0
  0
SPLINE
  5
179
100
AcDbEntity
  8
Capa_1
 62
7
100
AcDbSpline
 70
8
 71
3
 72
8
 73
4
 74
0
 40
0
 40
0
 40
0
 40
0
 40
1
 40
1
 40
1
 40
1
 10
503.892652
 20
795.188182
 30
0.0
 10
512.705152
 20
795.188182
 30
0.0
 10
518.705152
 20
799.125682
 30
0.0
 10
521.892652
 20
807.000682
 30
0.0
  0
SPLINE
  5
17a
100
AcDbEntity
  8
Capa_1
 62
7
100
AcDbSpline
 70
8
 71
3
 72
8
 73
4
 74
0
 40
0
 40
0
 40
0
 40
0
 40
1
 40
1
 40
1
 40
1
 10
521.892652
 20
807.000682
 30
0.0
 10
523.627027
 20
811.219432
 30
0.0
 10
524.494215
 20
817.008494
 30
0.0
 10
524.494215
 20
824.367869
 30
0.0
  0
LWPOLYLINE
  5
17b
100
AcDbEntity
  8
Capa_1
 62
7
100
AcDbPolyline
 90
2
 70
0
 10
489.478590
 20
861.352244
 30
0.0
 10
489.478590
 20
811.360057
 30
0.0
  0
SPLINE
  5
17c
100
AcDbEntity
  8
Capa_1
 62
7
100
AcDbSpline
 70
8
 71
3
 72
8
 73
4
 74
0
 40
0
 40
0
 40
0
 40
0
 40
1
 40
1
 40
1
 40
1
 10
525.337965
 20
797.156932
 30
0.0
 10
523.697340
 20
794.297557
 30
0.0
 10
521.658277
 20
791.883494
 30
0.0
 10
519.220777
 20
789.914744
 30
0.0
  0
SPLINE
  5
17d
100
AcDbEntity
  8
Capa_1
 62
7
100
AcDbSpline
 70
8
 71
3
 72
8
 73
4
 74
0
 40
0
 40
0
 40
0
 40
0
 40
1
 40
1
 40
1
 40
1
 10
519.220777
 20
789.914744
 30
0.0
 10
514.392652
 20
785.977244
 30
0.0
 10
508.533277
 20
784.008494
 30
0.0
 10
501.642652
 20
784.008494
 30
0.0
  0
SPLINE
  5
17e
100
AcDbEntity
  8
Capa_1
 62
7
100
AcDbSpline
 70
8
 71
3
 72
8
 73
4
 74
0
 40
0
 40
0
 40
0
 40
0
 40
1
 40
1
 40
1
 40
1
 10
501.642652
 20
784.008494
 30
0.0
 10
490.908277
 20
784.008494
 30
0.0
 10
483.595777
 20
787.594432
 30
0.0
 10
479.705152
 20
794.766307
 30
0.0
  0
SPLINE
  5
17f
100
AcDbEntity
  8
Capa_1
 62
7
100
AcDbSpline
 70
8
 71
3
 72
8
 73
4
 74
0
 40
0
 40
0
 40
0
 40
0
 40
1
 40
1
 40
1
 40
1
 10
479.705152
 20
794.766307
 30
0.0
 10
477.595777
 20
798.610057
 30
0.0
 10
476.541090
 20
803.742869
 30
0.0
 10
476.541090
 20
810.164744
 30
0.0
  0
LWPOLYLINE
  5
180
100
AcDbEntity
  8
Capa_1
 62
7
100
AcDbPolyline
 90
6
 70
0
 10
524.494215
 20
824.367869
 30
0.0
 10
524.494215
 20
861.352244
 30
0.0
 10
537.150465
 20
861.352244
 30
0.0
 10
537.150465
 20
786.047557
 30
0.0
 10
525.197340
 20
786.047557
 30
0.0
 10
525.337965
 20
797.156932
 30
0.0
  0
LWPOLYLINE
  5
181
100
AcDbEntity
  8
Capa_1
 62
7
100
AcDbPolyline
 90
3
 70
0
 10
476.541090
 20
810.164744
 30
0.0
 10
476.541090
 20
861.352244
 30
0.0
 10
489.478590
 20
861.352244
 30
0.0
  0
LWPOLYLINE
  5
182
100
AcDbEntity
  8
Capa_1
 62
7
100
AcDbPolyline
 90
1
 70
1
 10
506.845777
 20
863.180369
 30
0.0
  0
SPLINE
  5
183
100
AcDbEntity
  8
Capa_1
 62
7
100
AcDbSpline
 70
8
 71
3
 72
8
 73
4
 74
0
 40
0
 40
0
 40
0
 40
0
 40
1
 40
1
 40
1
 40
1
 10
569.353590
 20
848.344432
 30
0.0
 10
570.337965
 20
850.875682
 30
0.0
 10
572.752027
 20
853.945994
 30
0.0
 10
576.595777
 20
857.555369
 30
0.0
  0
SPLINE
  5
184
100
AcDbEntity
  8
Capa_1
 62
7
100
AcDbSpline
 70
8
 71
3
 72
8
 73
4
 74
0
 40
0
 40
0
 40
0
 40
0
 40
1
 40
1
 40
1
 40
1
 10
576.595777
 20
857.555369
 30
0.0
 10
580.439527
 20
861.211619
 30
0.0
 10
584.869215
 20
863.039744
 30
0.0
 10
589.884840
 20
863.039744
 30
0.0
  0
SPLINE
  5
185
100
AcDbEntity
  8
Capa_1
 62
7
100
AcDbSpline
 70
8
 71
3
 72
8
 73
4
 74
0
 40
0
 40
0
 40
0
 40
0
 40
1
 40
1
 40
1
 40
1
 10
589.884840
 20
863.039744
 30
0.0
 10
590.119215
 20
863.039744
 30
0.0
 10
590.517652
 20
863.016307
 30
0.0
 10
591.080152
 20
862.969432
 30
0.0
  0
SPLINE
  5
186
100
AcDbEntity
  8
Capa_1
 62
7
100
AcDbSpline
 70
8
 71
3
 72
8
 73
4
 74
0
 40
0
 40
0
 40
0
 40
0
 40
1
 40
1
 40
1
 40
1
 10
591.080152
 20
862.969432
 30
0.0
 10
591.642652
 20
862.922557
 30
0.0
 10
592.603590
 20
862.828807
 30
0.0
 10
593.962965
 20
862.688182
 30
0.0
  0
LWPOLYLINE
  5
187
100
AcDbEntity
  8
Capa_1
 62
7
100
AcDbPolyline
 90
3
 70
0
 10
557.330152
 20
861.352244
 30
0.0
 10
569.353590
 20
861.352244
 30
0.0
 10
569.353590
 20
848.344432
 30
0.0
  0
SPLINE
  5
188
100
AcDbEntity
  8
Capa_1
 62
7
100
AcDbSpline
 70
8
 71
3
 72
8
 73
4
 74
0
 40
0
 40
0
 40
0
 40
0
 40
1
 40
1
 40
1
 40
1
 10
593.962965
 20
849.328807
 30
0.0
 10
593.212965
 20
849.469432
 30
0.0
 10
592.509840
 20
849.563182
 30
0.0
 10
591.853590
 20
849.610057
 30
0.0
  0
SPLINE
  5
189
100
AcDbEntity
  8
Capa_1
 62
7
100
AcDbSpline
 70
8
 71
3
 72
8
 73
4
 74
0
 40
0
 40
0
 40
0
 40
0
 40
1
 40
1
 40
1
 40
1
 10
591.853590
 20
849.610057
 30
0.0
 10
591.244215
 20
849.656932
 30
0.0
 10
590.564527
 20
849.680369
 30
0.0
 10
589.814527
 20
849.680369
 30
0.0
  0
SPLINE
  5
18a
100
AcDbEntity
  8
Capa_1
 62
7
100
AcDbSpline
 70
8
 71
3
 72
8
 73
4
 74
0
 40
0
 40
0
 40
0
 40
0
 40
1
 40
1
 40
1
 40
1
 10
589.814527
 20
849.680369
 30
0.0
 10
583.439527
 20
849.680369
 30
0.0
 10
578.541090
 20
847.617869
 30
0.0
 10
575.119215
 20
843.492869
 30
0.0
  0
SPLINE
  5
18b
100
AcDbEntity
  8
Capa_1
 62
7
100
AcDbSpline
 70
8
 71
3
 72
8
 73
4
 74
0
 40
0
 40
0
 40
0
 40
0
 40
1
 40
1
 40
1
 40
1
 10
575.119215
 20
843.492869
 30
0.0
 10
571.697340
 20
839.414744
 30
0.0
 10
569.986402
 20
834.703807
 30
0.0
 10
569.986402
 20
829.360057
 30
0.0
  0
LWPOLYLINE
  5
18c
100
AcDbEntity
  8
Capa_1
 62
7
100
AcDbPolyline
 90
2
 70
0
 10
593.962965
 20
862.688182
 30
0.0
 10
593.962965
 20
849.328807
 30
0.0
  0
LWPOLYLINE
  5
18d
100
AcDbEntity
  8
Capa_1
 62
7
100
AcDbPolyline
 90
4
 70
0
 10
569.986402
 20
829.360057
 30
0.0
 10
569.986402
 20
786.047557
 30
0.0
 10
557.330152
 20
786.047557
 30
0.0
 10
557.330152
 20
861.352244
 30
0.0
  0
SPLINE
  5
18e
100
AcDbEntity
  8
Capa_1
 62
7
100
AcDbSpline
 70
8
 71
3
 72
8
 73
4
 74
0
 40
0
 40
0
 40
0
 40
0
 40
1
 40
1
 40
1
 40
1
 10
617.095777
 20
850.664744
 30
0.0
 10
620.658277
 20
855.070994
 30
0.0
 10
624.431715
 20
858.235057
 30
0.0
 10
628.416090
 20
860.156932
 30
0.0
  0
SPLINE
  5
18f
100
AcDbEntity
  8
Capa_1
 62
7
100
AcDbSpline
 70
8
 71
3
 72
8
 73
4
 74
0
 40
0
 40
0
 40
0
 40
0
 40
1
 40
1
 40
1
 40
1
 10
628.416090
 20
860.156932
 30
0.0
 10
632.400465
 20
862.078807
 30
0.0
 10
636.830152
 20
863.039744
 30
0.0
 10
641.705152
 20
863.039744
 30
0.0
  0
SPLINE
  5
190
100
AcDbEntity
  8
Capa_1
 62
7
100
AcDbSpline
 70
8
 71
3
 72
8
 73
4
 74
0
 40
0
 40
0
 40
0
 40
0
 40
1
 40
1
 40
1
 40
1
 10
641.705152
 20
863.039744
 30
0.0
 10
652.392652
 20
863.039744
 30
0.0
 10
659.611402
 20
859.313182
 30
0.0
 10
663.361402
 20
851.860057
 30
0.0
  0
SPLINE
  5
191
100
AcDbEntity
  8
Capa_1
 62
7
100
AcDbSpline
 70
8
 71
3
 72
8
 73
4
 74
0
 40
0
 40
0
 40
0
 40
0
 40
1
 40
1
 40
1
 40
1
 10
663.361402
 20
851.860057
 30
0.0
 10
665.423902
 20
847.781932
 30
0.0
 10
666.455152
 20
841.945994
 30
0.0
 10
666.455152
 20
834.352244
 30
0.0
  0
LWPOLYLINE
  5
192
100
AcDbEntity
  8
Capa_1
 62
7
100
AcDbPolyline
 90
3
 70
0
 10
605.072340
 20
861.352244
 30
0.0
 10
617.095777
 20
861.352244
 30
0.0
 10
617.095777
 20
850.664744
 30
0.0
  0
SPLINE
  5
193
100
AcDbEntity
  8
Capa_1
 62
7
100
AcDbSpline
 70
8
 71
3
 72
8
 73
4
 74
0
 40
0
 40
0
 40
0
 40
0
 40
1
 40
1
 40
1
 40
1
 10
653.587965
 20
833.508494
 30
0.0
 10
653.587965
 20
838.102244
 30
0.0
 10
652.908277
 20
841.805369
 30
0.0
 10
651.548902
 20
844.617869
 30
0.0
  0
SPLINE
  5
194
100
AcDbEntity
  8
Capa_1
 62
7
100
AcDbSpline
 70
8
 71
3
 72
8
 73
4
 74
0
 40
0
 40
0
 40
0
 40
0
 40
1
 40
1
 40
1
 40
1
 10
651.548902
 20
844.617869
 30
0.0
 10
649.298902
 20
849.305369
 30
0.0
 10
645.220777
 20
851.649119
 30
0.0
 10
639.314527
 20
851.649119
 30
0.0
  0
SPLINE
  5
195
100
AcDbEntity
  8
Capa_1
 62
7
100
AcDbSpline
 70
8
 71
3
 72
8
 73
4
 74
0
 40
0
 40
0
 40
0
 40
0
 40
1
 40
1
 40
1
 40
1
 10
639.314527
 20
851.649119
 30
0.0
 10
636.314527
 20
851.649119
 30
0.0
 10
633.853590
 20
851.344432
 30
0.0
 10
631.931715
 20
850.735057
 30
0.0
  0
SPLINE
  5
196
100
AcDbEntity
  8
Capa_1
 62
7
100
AcDbSpline
 70
8
 71
3
 72
8
 73
4
 74
0
 40
0
 40
0
 40
0
 40
0
 40
1
 40
1
 40
1
 40
1
 10
631.931715
 20
850.735057
 30
0.0
 10
628.462965
 20
849.703807
 30
0.0
 10
625.416090
 20
847.641307
 30
0.0
 10
622.791090
 20
844.547557
 30
0.0
  0
SPLINE
  5
197
100
AcDbEntity
  8
Capa_1
 62
7
100
AcDbSpline
 70
8
 71
3
 72
8
 73
4
 74
0
 40
0
 40
0
 40
0
 40
0
 40
1
 40
1
 40
1
 40
1
 10
622.791090
 20
844.547557
 30
0.0
 10
620.681715
 20
842.063182
 30
0.0
 10
619.298902
 20
839.485057
 30
0.0
 10
618.642652
 20
836.813182
 30
0.0
  0
SPLINE
  5
198
100
AcDbEntity
  8
Capa_1
 62
7
100
AcDbSpline
 70
8
 71
3
 72
8
 73
4
 74
0
 40
0
 40
0
 40
0
 40
0
 40
1
 40
1
 40
1
 40
1
 10
618.642652
 20
836.813182
 30
0.0
 10
618.033277
 20
834.188182
 30
0.0
 10
617.728590
 20
830.414744
 30
0.0
 10
617.728590
 20
825.492869
 30
0.0
  0
LWPOLYLINE
  5
199
100
AcDbEntity
  8
Capa_1
 62
7
100
AcDbPolyline
 90
4
 70
0
 10
666.455152
 20
834.352244
 30
0.0
 10
666.455152
 20
786.047557
 30
0.0
 10
653.587965
 20
786.047557
 30
0.0
 10
653.587965
 20
833.508494
 30
0.0
  0
LWPOLYLINE
  5
19a
100
AcDbEntity
  8
Capa_1
 62
7
100
AcDbPolyline
 90
4
 70
0
 10
617.728590
 20
825.492869
 30
0.0
 10
617.728590
 20
786.047557
 30
0.0
 10
605.072340
 20
786.047557
 30
0.0
 10
605.072340
 20
861.352244
 30
0.0
  0
LWPOLYLINE
  5
19b
100
AcDbEntity
  8
Capa_1
 62
7
100
AcDbPolyline
 90
1
 70
1
 10
634.814527
 20
863.180369
 30
0.0
  0
SPLINE
  5
19c
100
AcDbEntity
  8
Capa_1
 62
7
100
AcDbSpline
 70
8
 71
3
 72
8
 73
4
 74
0
 40
0
 40
0
 40
0
 40
0
 40
1
 40
1
 40
1
 40
1
 10
788.587950
 20
863.039744
 30
0.0
 10
793.931700
 20
863.039744
 30
0.0
 10
799.111400
 20
861.774119
 30
0.0
 10
804.127050
 20
859.242869
 30
0.0
  0
SPLINE
  5
19d
100
AcDbEntity
  8
Capa_1
 62
7
100
AcDbSpline
 70
8
 71
3
 72
8
 73
4
 74
0
 40
0
 40
0
 40
0
 40
0
 40
1
 40
1
 40
1
 40
1
 10
804.127050
 20
859.242869
 30
0.0
 10
809.142650
 20
856.758494
 30
0.0
 10
812.962950
 20
853.524119
 30
0.0
 10
815.587950
 20
849.539744
 30
0.0
  0
SPLINE
  5
19e
100
AcDbEntity
  8
Capa_1
 62
7
100
AcDbSpline
 70
8
 71
3
 72
8
 73
4
 74
0
 40
0
 40
0
 40
0
 40
0
 40
1
 40
1
 40
1
 40
1
 10
815.587950
 20
849.539744
 30
0.0
 10
818.119200
 20
845.742869
 30
0.0
 10
819.806700
 20
841.313182
 30
0.0
 10
820.650450
 20
836.250682
 30
0.0
  0
SPLINE
  5
19f
100
AcDbEntity
  8
Capa_1
 62
7
100
AcDbSpline
 70
8
 71
3
 72
8
 73
4
 74
0
 40
0
 40
0
 40
0
 40
0
 40
1
 40
1
 40
1
 40
1
 10
820.650450
 20
836.250682
 30
0.0
 10
821.400450
 20
832.781932
 30
0.0
 10
821.775450
 20
827.250682
 30
0.0
 10
821.775450
 20
819.656932
 30
0.0
  0
LWPOLYLINE
  5
1a0
100
AcDbEntity
  8
Capa_1
 62
7
100
AcDbPolyline
 90
4
 70
1
 10
725.517652
 20
889.336619
 30
0.0
 10
738.173902
 20
889.336619
 30
0.0
 10
738.173902
 20
786.047557
 30
0.0
 10
725.517652
 20
786.047557
 30
0.0
  0
SPLINE
  5
1a1
100
AcDbEntity
  8
Capa_1
 62
7
100
AcDbSpline
 70
8
 71
3
 72
8
 73
4
 74
0
 40
0
 40
0
 40
0
 40
0
 40
1
 40
1
 40
1
 40
1
 10
766.580175
 20
819.656932
 30
0.0
 10
766.814525
 20
812.016307
 30
0.0
 10
768.619200
 20
805.875682
 30
0.0
 10
771.994200
 20
801.235057
 30
0.0
  0
SPLINE
  5
1a2
100
AcDbEntity
  8
Capa_1
 62
7
100
AcDbSpline
 70
8
 71
3
 72
8
 73
4
 74
0
 40
0
 40
0
 40
0
 40
0
 40
1
 40
1
 40
1
 40
1
 10
771.994200
 20
801.235057
 30
0.0
 10
775.369200
 20
796.641307
 30
0.0
 10
780.595775
 20
794.344432
 30
0.0
 10
787.673925
 20
794.344432
 30
0.0
  0
SPLINE
  5
1a3
100
AcDbEntity
  8
Capa_1
 62
7
100
AcDbSpline
 70
8
 71
3
 72
8
 73
4
 74
0
 40
0
 40
0
 40
0
 40
0
 40
1
 40
1
 40
1
 40
1
 10
787.673925
 20
794.344432
 30
0.0
 10
794.283275
 20
794.344432
 30
0.0
 10
799.556700
 20
796.524119
 30
0.0
 10
803.494200
 20
800.883494
 30
0.0
  0
SPLINE
  5
1a4
100
AcDbEntity
  8
Capa_1
 62
7
100
AcDbSpline
 70
8
 71
3
 72
8
 73
4
 74
0
 40
0
 40
0
 40
0
 40
0
 40
1
 40
1
 40
1
 40
1
 10
803.494200
 20
800.883494
 30
0.0
 10
805.744200
 20
803.414744
 30
0.0
 10
807.337950
 20
806.344432
 30
0.0
 10
808.275450
 20
809.672557
 30
0.0
  0
LWPOLYLINE
  5
1a5
100
AcDbEntity
  8
Capa_1
 62
7
100
AcDbPolyline
 90
2
 70
0
 10
821.775450
 20
819.656932
 30
0.0
 10
766.580175
 20
819.656932
 30
0.0
  0
SPLINE
  5
1a6
100
AcDbEntity
  8
Capa_1
 62
7
100
AcDbSpline
 70
8
 71
3
 72
8
 73
4
 74
0
 40
0
 40
0
 40
0
 40
0
 40
1
 40
1
 40
1
 40
1
 10
820.720800
 20
809.672557
 30
0.0
 10
820.392650
 20
806.906932
 30
0.0
 10
819.291075
 20
803.813182
 30
0.0
 10
817.416075
 20
800.391307
 30
0.0
  0
SPLINE
  5
1a7
100
AcDbEntity
  8
Capa_1
 62
7
100
AcDbSpline
 70
8
 71
3
 72
8
 73
4
 74
0
 40
0
 40
0
 40
0
 40
0
 40
1
 40
1
 40
1
 40
1
 10
817.416075
 20
800.391307
 30
0.0
 10
815.587975
 20
797.016307
 30
0.0
 10
813.525475
 20
794.250682
 30
0.0
 10
811.228575
 20
792.094432
 30
0.0
  0
SPLINE
  5
1a8
100
AcDbEntity
  8
Capa_1
 62
7
100
AcDbSpline
 70
8
 71
3
 72
8
 73
4
 74
0
 40
0
 40
0
 40
0
 40
0
 40
1
 40
1
 40
1
 40
1
 10
811.228575
 20
792.094432
 30
0.0
 10
807.384825
 20
788.344432
 30
0.0
 10
802.627025
 20
785.813182
 30
0.0
 10
796.955175
 20
784.500682
 30
0.0
  0
SPLINE
  5
1a9
100
AcDbEntity
  8
Capa_1
 62
7
100
AcDbSpline
 70
8
 71
3
 72
8
 73
4
 74
0
 40
0
 40
0
 40
0
 40
0
 40
1
 40
1
 40
1
 40
1
 10
796.955175
 20
784.500682
 30
0.0
 10
793.908275
 20
783.750682
 30
0.0
 10
790.462950
 20
783.375682
 30
0.0
 10
786.619200
 20
783.375682
 30
0.0
  0
SPLINE
  5
1aa
100
AcDbEntity
  8
Capa_1
 62
7
100
AcDbSpline
 70
8
 71
3
 72
8
 73
4
 74
0
 40
0
 40
0
 40
0
 40
0
 40
1
 40
1
 40
1
 40
1
 10
786.619200
 20
783.375682
 30
0.0
 10
777.244200
 20
783.375682
 30
0.0
 10
769.298900
 20
786.774119
 30
0.0
 10
762.783300
 20
793.570994
 30
0.0
  0
SPLINE
  5
1ab
100
AcDbEntity
  8
Capa_1
 62
7
100
AcDbSpline
 70
8
 71
3
 72
8
 73
4
 74
0
 40
0
 40
0
 40
0
 40
0
 40
1
 40
1
 40
1
 40
1
 10
762.783300
 20
793.570994
 30
0.0
 10
756.267650
 20
800.414744
 30
0.0
 10
753.009825
 20
809.977244
 30
0.0
 10
753.009825
 20
822.258494
 30
0.0
  0
SPLINE
  5
1ac
100
AcDbEntity
  8
Capa_1
 62
7
100
AcDbSpline
 70
8
 71
3
 72
8
 73
4
 74
0
 40
0
 40
0
 40
0
 40
0
 40
1
 40
1
 40
1
 40
1
 10
753.009825
 20
822.258494
 30
0.0
 10
753.009825
 20
834.352244
 30
0.0
 10
756.291075
 20
844.172557
 30
0.0
 10
762.853575
 20
851.719432
 30
0.0
  0
SPLINE
  5
1ad
100
AcDbEntity
  8
Capa_1
 62
7
100
AcDbSpline
 70
8
 71
3
 72
8
 73
4
 74
0
 40
0
 40
0
 40
0
 40
0
 40
1
 40
1
 40
1
 40
1
 10
762.853575
 20
851.719432
 30
0.0
 10
769.416075
 20
859.266307
 30
0.0
 10
777.994200
 20
863.039744
 30
0.0
 10
788.587950
 20
863.039744
 30
0.0
  0
LWPOLYLINE
  5
1ae
100
AcDbEntity
  8
Capa_1
 62
7
100
AcDbPolyline
 90
2
 70
0
 10
808.275450
 20
809.672557
 30
0.0
 10
820.720800
 20
809.672557
 30
0.0
  0
SPLINE
  5
1af
100
AcDbEntity
  8
Capa_1
 62
7
100
AcDbSpline
 70
8
 71
3
 72
8
 73
4
 74
0
 40
0
 40
0
 40
0
 40
0
 40
1
 40
1
 40
1
 40
1
 10
808.767675
 20
829.711619
 30
0.0
 10
808.252025
 20
835.195994
 30
0.0
 10
807.056700
 20
839.578807
 30
0.0
 10
805.181700
 20
842.860057
 30
0.0
  0
SPLINE
  5
1b0
100
AcDbEntity
  8
Capa_1
 62
7
100
AcDbSpline
 70
8
 71
3
 72
8
 73
4
 74
0
 40
0
 40
0
 40
0
 40
0
 40
1
 40
1
 40
1
 40
1
 10
805.181700
 20
842.860057
 30
0.0
 10
801.712950
 20
848.953807
 30
0.0
 10
795.923900
 20
852.000682
 30
0.0
 10
787.814550
 20
852.000682
 30
0.0
  0
SPLINE
  5
1b1
100
AcDbEntity
  8
Capa_1
 62
7
100
AcDbSpline
 70
8
 71
3
 72
8
 73
4
 74
0
 40
0
 40
0
 40
0
 40
0
 40
1
 40
1
 40
1
 40
1
 10
787.814550
 20
852.000682
 30
0.0
 10
782.002050
 20
852.000682
 30
0.0
 10
777.127050
 20
849.891307
 30
0.0
 10
773.189550
 20
845.672557
 30
0.0
  0
SPLINE
  5
1b2
100
AcDbEntity
  8
Capa_1
 62
7
100
AcDbSpline
 70
8
 71
3
 72
8
 73
4
 74
0
 40
0
 40
0
 40
0
 40
0
 40
1
 40
1
 40
1
 40
1
 10
773.189550
 20
845.672557
 30
0.0
 10
769.252050
 20
841.500682
 30
0.0
 10
767.166100
 20
836.180369
 30
0.0
 10
766.931700
 20
829.711619
 30
0.0
  0
LWPOLYLINE
  5
1b3
100
AcDbEntity
  8
Capa_1
 62
7
100
AcDbPolyline
 90
1
 70
1
 10
788.587950
 20
863.039744
 30
0.0
  0
LWPOLYLINE
  5
1b4
100
AcDbEntity
  8
Capa_1
 62
7
100
AcDbPolyline
 90
2
 70
0
 10
766.931700
 20
829.711619
 30
0.0
 10
808.767675
 20
829.711619
 30
0.0
  0
SPLINE
  5
1b5
100
AcDbEntity
  8
Capa_1
 62
7
100
AcDbSpline
 70
8
 71
3
 72
8
 73
4
 74
0
 40
0
 40
0
 40
0
 40
0
 40
1
 40
1
 40
1
 40
1
 10
840.548925
 20
872.813182
 30
0.0
 10
840.736425
 20
878.063182
 30
0.0
 10
841.650475
 20
881.906932
 30
0.0
 10
843.291075
 20
884.344432
 30
0.0
  0
SPLINE
  5
1b6
100
AcDbEntity
  8
Capa_1
 62
7
100
AcDbSpline
 70
8
 71
3
 72
8
 73
4
 74
0
 40
0
 40
0
 40
0
 40
0
 40
1
 40
1
 40
1
 40
1
 10
843.291075
 20
884.344432
 30
0.0
 10
846.244225
 20
888.656932
 30
0.0
 10
851.939550
 20
890.813182
 30
0.0
 10
860.377050
 20
890.813182
 30
0.0
  0
SPLINE
  5
1b7
100
AcDbEntity
  8
Capa_1
 62
7
100
AcDbSpline
 70
8
 71
3
 72
8
 73
4
 74
0
 40
0
 40
0
 40
0
 40
0
 40
1
 40
1
 40
1
 40
1
 10
860.377050
 20
890.813182
 30
0.0
 10
861.173900
 20
890.813182
 30
0.0
 10
861.994200
 20
890.789744
 30
0.0
 10
862.837950
 20
890.742869
 30
0.0
  0
SPLINE
  5
1b8
100
AcDbEntity
  8
Capa_1
 62
7
100
AcDbSpline
 70
8
 71
3
 72
8
 73
4
 74
0
 40
0
 40
0
 40
0
 40
0
 40
1
 40
1
 40
1
 40
1
 10
862.837950
 20
890.742869
 30
0.0
 10
863.681700
 20
890.695994
 30
0.0
 10
864.642650
 20
890.625682
 30
0.0
 10
865.720800
 20
890.531932
 30
0.0
  0
LWPOLYLINE
  5
1b9
100
AcDbEntity
  8
Capa_1
 62
7
100
AcDbPolyline
 90
1
 70
1
 10
787.392675
 20
863.180369
 30
0.0
  0
SPLINE
  5
1ba
100
AcDbEntity
  8
Capa_1
 62
7
100
AcDbSpline
 70
8
 71
3
 72
8
 73
4
 74
0
 40
0
 40
0
 40
0
 40
0
 40
1
 40
1
 40
1
 40
1
 10
865.720800
 20
879.000682
 30
0.0
 10
864.408300
 20
879.094432
 30
0.0
 10
863.447350
 20
879.141307
 30
0.0
 10
862.837950
 20
879.141307
 30
0.0
  0
SPLINE
  5
1bb
100
AcDbEntity
  8
Capa_1
 62
7
100
AcDbSpline
 70
8
 71
3
 72
8
 73
4
 74
0
 40
0
 40
0
 40
0
 40
0
 40
1
 40
1
 40
1
 40
1
 10
862.837950
 20
879.141307
 30
0.0
 10
862.275450
 20
879.188182
 30
0.0
 10
861.736400
 20
879.211619
 30
0.0
 10
861.220800
 20
879.211619
 30
0.0
  0
SPLINE
  5
1bc
100
AcDbEntity
  8
Capa_1
 62
7
100
AcDbSpline
 70
8
 71
3
 72
8
 73
4
 74
0
 40
0
 40
0
 40
0
 40
0
 40
1
 40
1
 40
1
 40
1
 10
861.220800
 20
879.211619
 30
0.0
 10
857.377050
 20
879.211619
 30
0.0
 10
855.080175
 20
878.203807
 30
0.0
 10
854.330175
 20
876.188182
 30
0.0
  0
SPLINE
  5
1bd
100
AcDbEntity
  8
Capa_1
 62
7
100
AcDbSpline
 70
8
 71
3
 72
8
 73
4
 74
0
 40
0
 40
0
 40
0
 40
0
 40
1
 40
1
 40
1
 40
1
 10
854.330175
 20
876.188182
 30
0.0
 10
853.580175
 20
874.219432
 30
0.0
 10
853.205175
 20
869.156932
 30
0.0
 10
853.205175
 20
861.000682
 30
0.0
  0
LWPOLYLINE
  5
1be
100
AcDbEntity
  8
Capa_1
 62
7
100
AcDbPolyline
 90
2
 70
0
 10
865.720800
 20
890.531932
 30
0.0
 10
865.720800
 20
879.000682
 30
0.0
  0
LWPOLYLINE
  5
1bf
100
AcDbEntity
  8
Capa_1
 62
7
100
AcDbPolyline
 90
11
 70
0
 10
853.205175
 20
861.000682
 30
0.0
 10
865.720800
 20
861.000682
 30
0.0
 10
865.720800
 20
851.016307
 30
0.0
 10
853.064550
 20
851.016307
 30
0.0
 10
853.064550
 20
786.047557
 30
0.0
 10
840.548925
 20
786.047557
 30
0.0
 10
840.548925
 20
851.016307
 30
0.0
 10
830.072325
 20
851.016307
 30
0.0
 10
830.072325
 20
861.000682
 30
0.0
 10
840.548925
 20
861.000682
 30
0.0
 10
840.548925
 20
872.813182
 30
0.0
  0
SPLINE
  5
1c0
100
AcDbEntity
  8
Capa_1
 62
7
100
AcDbSpline
 70
8
 71
3
 72
8
 73
4
 74
0
 40
0
 40
0
 40
0
 40
0
 40
1
 40
1
 40
1
 40
1
 10
892.650450
 20
801.867869
 30
0.0
 10
892.650450
 20
799.242869
 30
0.0
 10
893.541075
 20
797.485057
 30
0.0
 10
895.322325
 20
796.594432
 30
0.0
  0
SPLINE
  5
1c1
100
AcDbEntity
  8
Capa_1
 62
7
100
AcDbSpline
 70
8
 71
3
 72
8
 73
4
 74
0
 40
0
 40
0
 40
0
 40
0
 40
1
 40
1
 40
1
 40
1
 10
895.322325
 20
796.594432
 30
0.0
 10
896.306725
 20
796.078807
 30
0.0
 10
897.947350
 20
795.820994
 30
0.0
 10
900.244200
 20
795.820994
 30
0.0
  0
SPLINE
  5
1c2
100
AcDbEntity
  8
Capa_1
 62
7
100
AcDbSpline
 70
8
 71
3
 72
8
 73
4
 74
0
 40
0
 40
0
 40
0
 40
0
 40
1
 40
1
 40
1
 40
1
 10
900.244200
 20
795.820994
 30
0.0
 10
900.853600
 20
795.820994
 30
0.0
 10
901.509850
 20
795.820994
 30
0.0
 10
902.212950
 20
795.820994
 30
0.0
  0
SPLINE
  5
1c3
100
AcDbEntity
  8
Capa_1
 62
7
100
AcDbSpline
 70
8
 71
3
 72
8
 73
4
 74
0
 40
0
 40
0
 40
0
 40
0
 40
1
 40
1
 40
1
 40
1
 10
902.212950
 20
795.820994
 30
0.0
 10
902.916100
 20
795.867869
 30
0.0
 10
903.736425
 20
795.938182
 30
0.0
 10
904.673925
 20
796.031932
 30
0.0
  0
LWPOLYLINE
  5
1c4
100
AcDbEntity
  8
Capa_1
 62
7
100
AcDbPolyline
 90
7
 70
0
 10
879.853575
 20
882.375682
 30
0.0
 10
892.650450
 20
882.375682
 30
0.0
 10
892.650450
 20
861.352244
 30
0.0
 10
904.673925
 20
861.352244
 30
0.0
 10
904.673925
 20
851.016307
 30
0.0
 10
892.650450
 20
851.016307
 30
0.0
 10
892.650450
 20
801.867869
 30
0.0
  0
SPLINE
  5
1c5
100
AcDbEntity
  8
Capa_1
 62
7
100
AcDbSpline
 70
8
 71
3
 72
8
 73
4
 74
0
 40
0
 40
0
 40
0
 40
0
 40
1
 40
1
 40
1
 40
1
 10
904.673925
 20
786.047557
 30
0.0
 10
903.220775
 20
785.625682
 30
0.0
 10
901.697325
 20
785.320994
 30
0.0
 10
900.103575
 20
785.133494
 30
0.0
  0
SPLINE
  5
1c6
100
AcDbEntity
  8
Capa_1
 62
7
100
AcDbSpline
 70
8
 71
3
 72
8
 73
4
 74
0
 40
0
 40
0
 40
0
 40
0
 40
1
 40
1
 40
1
 40
1
 10
900.103575
 20
785.133494
 30
0.0
 10
898.556725
 20
784.945994
 30
0.0
 10
896.869225
 20
784.852244
 30
0.0
 10
895.041075
 20
784.852244
 30
0.0
  0
SPLINE
  5
1c7
100
AcDbEntity
  8
Capa_1
 62
7
100
AcDbSpline
 70
8
 71
3
 72
8
 73
4
 74
0
 40
0
 40
0
 40
0
 40
0
 40
1
 40
1
 40
1
 40
1
 10
895.041075
 20
784.852244
 30
0.0
 10
889.134825
 20
784.852244
 30
0.0
 10
885.127025
 20
786.352244
 30
0.0
 10
883.017675
 20
789.352244
 30
0.0
  0
SPLINE
  5
1c8
100
AcDbEntity
  8
Capa_1
 62
7
100
AcDbSpline
 70
8
 71
3
 72
8
 73
4
 74
0
 40
0
 40
0
 40
0
 40
0
 40
1
 40
1
 40
1
 40
1
 10
883.017675
 20
789.352244
 30
0.0
 10
880.908275
 20
792.399119
 30
0.0
 10
879.853575
 20
796.336619
 30
0.0
 10
879.853575
 20
801.164744
 30
0.0
  0
LWPOLYLINE
  5
1c9
100
AcDbEntity
  8
Capa_1
 62
7
100
AcDbPolyline
 90
2
 70
0
 10
904.673925
 20
796.031932
 30
0.0
 10
904.673925
 20
786.047557
 30
0.0
  0
LWPOLYLINE
  5
1ca
100
AcDbEntity
  8
Capa_1
 62
7
100
AcDbPolyline
 90
6
 70
0
 10
879.853575
 20
801.164744
 30
0.0
 10
879.853575
 20
851.016307
 30
0.0
 10
869.658300
 20
851.016307
 30
0.0
 10
869.658300
 20
861.352244
 30
0.0
 10
879.853575
 20
861.352244
 30
0.0
 10
879.853575
 20
882.375682
 30
0.0
  0
SPLINE
  5
1cb
100
AcDbEntity
  8
Capa_1
 62
7
100
AcDbSpline
 70
8
 71
3
 72
8
 73
4
 74
0
 40
0
 40
0
 40
0
 40
0
 40
1
 40
1
 40
1
 40
1
 10
3049.482600
 20
847.043651
 30
0.0
 10
3049.482600
 20
849.153026
 30
0.0
 10
3049.529475
 20
852.645213
 30
0.0
 10
3049.623225
 20
857.520213
 30
0.0
  0
SPLINE
  5
1cc
100
AcDbEntity
  8
Capa_1
 62
7
100
AcDbSpline
 70
8
 71
3
 72
8
 73
4
 74
0
 40
0
 40
0
 40
0
 40
0
 40
1
 40
1
 40
1
 40
1
 10
3049.623225
 20
857.520213
 30
0.0
 10
3049.716975
 20
862.395213
 30
0.0
 10
3049.763850
 20
867.621776
 30
0.0
 10
3049.763850
 20
873.199901
 30
0.0
  0
LWPOLYLINE
  5
1cd
100
AcDbEntity
  8
Capa_1
 62
7
100
AcDbPolyline
 90
8
 70
0
 10
2963.771700
 20
889.371776
 30
0.0
 10
2983.810725
 20
889.371776
 30
0.0
 10
3013.482600
 20
802.043651
 30
0.0
 10
3042.943575
 20
889.371776
 30
0.0
 10
3062.771700
 20
889.371776
 30
0.0
 10
3062.771700
 20
786.082713
 30
0.0
 10
3049.482600
 20
786.082713
 30
0.0
 10
3049.482600
 20
847.043651
 30
0.0
  0
SPLINE
  5
1ce
100
AcDbEntity
  8
Capa_1
 62
7
100
AcDbSpline
 70
8
 71
3
 72
8
 73
4
 74
0
 40
0
 40
0
 40
0
 40
0
 40
1
 40
1
 40
1
 40
1
 10
2976.779475
 20
870.035838
 30
0.0
 10
2976.779475
 20
867.504588
 30
0.0
 10
2976.826350
 20
863.637401
 30
0.0
 10
2976.920100
 20
858.434276
 30
0.0
  0
SPLINE
  5
1cf
100
AcDbEntity
  8
Capa_1
 62
7
100
AcDbSpline
 70
8
 71
3
 72
8
 73
4
 74
0
 40
0
 40
0
 40
0
 40
0
 40
1
 40
1
 40
1
 40
1
 10
2976.920100
 20
858.434276
 30
0.0
 10
2977.060750
 20
853.278026
 30
0.0
 10
2977.131075
 20
849.481151
 30
0.0
 10
2977.131075
 20
847.043651
 30
0.0
  0
LWPOLYLINE
  5
1d0
100
AcDbEntity
  8
Capa_1
 62
7
100
AcDbPolyline
 90
5
 70
0
 10
3049.763850
 20
873.199901
 30
0.0
 10
3020.302950
 20
786.082713
 30
0.0
 10
3006.451350
 20
786.082713
 30
0.0
 10
2976.779475
 20
873.199901
 30
0.0
 10
2976.779475
 20
870.035838
 30
0.0
  0
SPLINE
  5
1d1
100
AcDbEntity
  8
Capa_1
 62
7
100
AcDbSpline
 70
8
 71
3
 72
8
 73
4
 74
0
 40
0
 40
0
 40
0
 40
0
 40
1
 40
1
 40
1
 40
1
 10
3112.412325
 20
794.238963
 30
0.0
 10
3120.802925
 20
794.238963
 30
0.0
 10
3126.545100
 20
797.403026
 30
0.0
 10
3129.638850
 20
803.731151
 30
0.0
  0
SPLINE
  5
1d2
100
AcDbEntity
  8
Capa_1
 62
7
100
AcDbSpline
 70
8
 71
3
 72
8
 73
4
 74
0
 40
0
 40
0
 40
0
 40
0
 40
1
 40
1
 40
1
 40
1
 10
3129.638850
 20
803.731151
 30
0.0
 10
3132.779500
 20
810.106151
 30
0.0
 10
3134.349825
 20
817.184276
 30
0.0
 10
3134.349825
 20
824.965526
 30
0.0
  0
SPLINE
  5
1d3
100
AcDbEntity
  8
Capa_1
 62
7
100
AcDbSpline
 70
8
 71
3
 72
8
 73
4
 74
0
 40
0
 40
0
 40
0
 40
0
 40
1
 40
1
 40
1
 40
1
 10
3134.349825
 20
824.965526
 30
0.0
 10
3134.349825
 20
831.996776
 30
0.0
 10
3133.224825
 20
837.715526
 30
0.0
 10
3130.974825
 20
842.121776
 30
0.0
  0
SPLINE
  5
1d4
100
AcDbEntity
  8
Capa_1
 62
7
100
AcDbSpline
 70
8
 71
3
 72
8
 73
4
 74
0
 40
0
 40
0
 40
0
 40
0
 40
1
 40
1
 40
1
 40
1
 10
3130.974825
 20
842.121776
 30
0.0
 10
3127.412325
 20
849.059276
 30
0.0
 10
3121.271700
 20
852.528026
 30
0.0
 10
3112.552950
 20
852.528026
 30
0.0
  0
SPLINE
  5
1d5
100
AcDbEntity
  8
Capa_1
 62
7
100
AcDbSpline
 70
8
 71
3
 72
8
 73
4
 74
0
 40
0
 40
0
 40
0
 40
0
 40
1
 40
1
 40
1
 40
1
 10
3112.552950
 20
852.528026
 30
0.0
 10
3104.818550
 20
852.528026
 30
0.0
 10
3099.193550
 20
849.574901
 30
0.0
 10
3095.677950
 20
843.668651
 30
0.0
  0
SPLINE
  5
1d6
100
AcDbEntity
  8
Capa_1
 62
7
100
AcDbSpline
 70
8
 71
3
 72
8
 73
4
 74
0
 40
0
 40
0
 40
0
 40
0
 40
1
 40
1
 40
1
 40
1
 10
3095.677950
 20
843.668651
 30
0.0
 10
3092.162300
 20
837.762401
 30
0.0
 10
3090.404475
 20
830.637401
 30
0.0
 10
3090.404475
 20
822.293651
 30
0.0
  0
SPLINE
  5
1d7
100
AcDbEntity
  8
Capa_1
 62
7
100
AcDbSpline
 70
8
 71
3
 72
8
 73
4
 74
0
 40
0
 40
0
 40
0
 40
0
 40
1
 40
1
 40
1
 40
1
 10
3090.404475
 20
822.293651
 30
0.0
 10
3090.404475
 20
814.278026
 30
0.0
 10
3092.162300
 20
807.598338
 30
0.0
 10
3095.677950
 20
802.254588
 30
0.0
  0
SPLINE
  5
1d8
100
AcDbEntity
  8
Capa_1
 62
7
100
AcDbSpline
 70
8
 71
3
 72
8
 73
4
 74
0
 40
0
 40
0
 40
0
 40
0
 40
1
 40
1
 40
1
 40
1
 10
3095.677950
 20
802.254588
 30
0.0
 10
3099.193550
 20
796.910838
 30
0.0
 10
3104.771675
 20
794.238963
 30
0.0
 10
3112.412325
 20
794.238963
 30
0.0
  0
LWPOLYLINE
  5
1d9
100
AcDbEntity
  8
Capa_1
 62
7
100
AcDbPolyline
 90
4
 70
0
 10
2977.131075
 20
847.043651
 30
0.0
 10
2977.131075
 20
786.082713
 30
0.0
 10
2963.771700
 20
786.082713
 30
0.0
 10
2963.771700
 20
889.371776
 30
0.0
  0
SPLINE
  5
1da
100
AcDbEntity
  8
Capa_1
 62
7
100
AcDbSpline
 70
8
 71
3
 72
8
 73
4
 74
0
 40
0
 40
0
 40
0
 40
0
 40
1
 40
1
 40
1
 40
1
 10
3112.904475
 20
863.567088
 30
0.0
 10
3122.607625
 20
863.567088
 30
0.0
 10
3130.810750
 20
860.332713
 30
0.0
 10
3137.513850
 20
853.863963
 30
0.0
  0
SPLINE
  5
1db
100
AcDbEntity
  8
Capa_1
 62
7
100
AcDbSpline
 70
8
 71
3
 72
8
 73
4
 74
0
 40
0
 40
0
 40
0
 40
0
 40
1
 40
1
 40
1
 40
1
 10
3137.513850
 20
853.863963
 30
0.0
 10
3144.217000
 20
847.395213
 30
0.0
 10
3147.568575
 20
837.879588
 30
0.0
 10
3147.568575
 20
825.317088
 30
0.0
  0
SPLINE
  5
1dc
100
AcDbEntity
  8
Capa_1
 62
7
100
AcDbSpline
 70
8
 71
3
 72
8
 73
4
 74
0
 40
0
 40
0
 40
0
 40
0
 40
1
 40
1
 40
1
 40
1
 10
3147.568575
 20
825.317088
 30
0.0
 10
3147.568575
 20
813.176463
 30
0.0
 10
3144.615450
 20
803.145213
 30
0.0
 10
3138.709200
 20
795.223338
 30
0.0
  0
SPLINE
  5
1dd
100
AcDbEntity
  8
Capa_1
 62
7
100
AcDbSpline
 70
8
 71
3
 72
8
 73
4
 74
0
 40
0
 40
0
 40
0
 40
0
 40
1
 40
1
 40
1
 40
1
 10
3138.709200
 20
795.223338
 30
0.0
 10
3132.802950
 20
787.301463
 30
0.0
 10
3123.638875
 20
783.340526
 30
0.0
 10
3111.216975
 20
783.340526
 30
0.0
  0
SPLINE
  5
1de
100
AcDbEntity
  8
Capa_1
 62
7
100
AcDbSpline
 70
8
 71
3
 72
8
 73
4
 74
0
 40
0
 40
0
 40
0
 40
0
 40
1
 40
1
 40
1
 40
1
 10
3111.216975
 20
783.340526
 30
0.0
 10
3100.857625
 20
783.340526
 30
0.0
 10
3092.631075
 20
786.832713
 30
0.0
 10
3086.537325
 20
793.817088
 30
0.0
  0
SPLINE
  5
1df
100
AcDbEntity
  8
Capa_1
 62
7
100
AcDbSpline
 70
8
 71
3
 72
8
 73
4
 74
0
 40
0
 40
0
 40
0
 40
0
 40
1
 40
1
 40
1
 40
1
 10
3086.537325
 20
793.817088
 30
0.0
 10
3080.443575
 20
800.848338
 30
0.0
 10
3077.396700
 20
810.270213
 30
0.0
 10
3077.396700
 20
822.082713
 30
0.0
  0
SPLINE
  5
1e0
100
AcDbEntity
  8
Capa_1
 62
7
100
AcDbSpline
 70
8
 71
3
 72
8
 73
4
 74
0
 40
0
 40
0
 40
0
 40
0
 40
1
 40
1
 40
1
 40
1
 10
3077.396700
 20
822.082713
 30
0.0
 10
3077.396700
 20
834.738963
 30
0.0
 10
3080.607625
 20
844.817088
 30
0.0
 10
3087.029475
 20
852.317088
 30
0.0
  0
SPLINE
  5
1e1
100
AcDbEntity
  8
Capa_1
 62
7
100
AcDbSpline
 70
8
 71
3
 72
8
 73
4
 74
0
 40
0
 40
0
 40
0
 40
0
 40
1
 40
1
 40
1
 40
1
 10
3087.029475
 20
852.317088
 30
0.0
 10
3093.451375
 20
859.817088
 30
0.0
 10
3102.076375
 20
863.567088
 30
0.0
 10
3112.904475
 20
863.567088
 30
0.0
  0
LWPOLYLINE
  5
1e2
100
AcDbEntity
  8
Capa_1
 62
7
100
AcDbPolyline
 90
1
 70
1
 10
3112.412325
 20
794.238963
 30
0.0
  0
LWPOLYLINE
  5
1e3
100
AcDbEntity
  8
Capa_1
 62
7
100
AcDbPolyline
 90
1
 70
1
 10
3112.904475
 20
863.567088
 30
0.0
  0
LWPOLYLINE
  5
1e4
100
AcDbEntity
  8
Capa_1
 62
7
100
AcDbPolyline
 90
1
 70
1
 10
3112.482600
 20
863.215526
 30
0.0
  0
SPLINE
  5
1e5
100
AcDbEntity
  8
Capa_1
 62
7
100
AcDbSpline
 70
8
 71
3
 72
8
 73
4
 74
0
 40
0
 40
0
 40
0
 40
0
 40
1
 40
1
 40
1
 40
1
 10
3266.045100
 20
863.074901
 30
0.0
 10
3271.388850
 20
863.074901
 30
0.0
 10
3276.568550
 20
861.809276
 30
0.0
 10
3281.584200
 20
859.278026
 30
0.0
  0
SPLINE
  5
1e6
100
AcDbEntity
  8
Capa_1
 62
7
100
AcDbSpline
 70
8
 71
3
 72
8
 73
4
 74
0
 40
0
 40
0
 40
0
 40
0
 40
1
 40
1
 40
1
 40
1
 10
3281.584200
 20
859.278026
 30
0.0
 10
3286.599800
 20
856.793651
 30
0.0
 10
3290.420100
 20
853.559276
 30
0.0
 10
3293.045100
 20
849.574901
 30
0.0
  0
SPLINE
  5
1e7
100
AcDbEntity
  8
Capa_1
 62
7
100
AcDbSpline
 70
8
 71
3
 72
8
 73
4
 74
0
 40
0
 40
0
 40
0
 40
0
 40
1
 40
1
 40
1
 40
1
 10
3293.045100
 20
849.574901
 30
0.0
 10
3295.576350
 20
845.778026
 30
0.0
 10
3297.263850
 20
841.348338
 30
0.0
 10
3298.107600
 20
836.285838
 30
0.0
  0
SPLINE
  5
1e8
100
AcDbEntity
  8
Capa_1
 62
7
100
AcDbSpline
 70
8
 71
3
 72
8
 73
4
 74
0
 40
0
 40
0
 40
0
 40
0
 40
1
 40
1
 40
1
 40
1
 10
3298.107600
 20
836.285838
 30
0.0
 10
3298.857600
 20
832.817088
 30
0.0
 10
3299.232600
 20
827.285838
 30
0.0
 10
3299.232600
 20
819.692088
 30
0.0
  0
LWPOLYLINE
  5
1e9
100
AcDbEntity
  8
Capa_1
 62
7
100
AcDbPolyline
 90
7
 70
1
 10
3168.873225
 20
861.387401
 30
0.0
 10
3188.982600
 20
800.074901
 30
0.0
 10
3210.006075
 20
861.387401
 30
0.0
 10
3223.857600
 20
861.387401
 30
0.0
 10
3195.451350
 20
786.082713
 30
0.0
 10
3181.951350
 20
786.082713
 30
0.0
 10
3154.177950
 20
861.387401
 30
0.0
  0
SPLINE
  5
1ea
100
AcDbEntity
  8
Capa_1
 62
7
100
AcDbSpline
 70
8
 71
3
 72
8
 73
4
 74
0
 40
0
 40
0
 40
0
 40
0
 40
1
 40
1
 40
1
 40
1
 10
3244.037325
 20
819.692088
 30
0.0
 10
3244.271675
 20
812.051463
 30
0.0
 10
3246.076350
 20
805.910838
 30
0.0
 10
3249.451350
 20
801.270213
 30
0.0
  0
SPLINE
  5
1eb
100
AcDbEntity
  8
Capa_1
 62
7
100
AcDbSpline
 70
8
 71
3
 72
8
 73
4
 74
0
 40
0
 40
0
 40
0
 40
0
 40
1
 40
1
 40
1
 40
1
 10
3249.451350
 20
801.270213
 30
0.0
 10
3252.826350
 20
796.676463
 30
0.0
 10
3258.052925
 20
794.379588
 30
0.0
 10
3265.131075
 20
794.379588
 30
0.0
  0
SPLINE
  5
1ec
100
AcDbEntity
  8
Capa_1
 62
7
100
AcDbSpline
 70
8
 71
3
 72
8
 73
4
 74
0
 40
0
 40
0
 40
0
 40
0
 40
1
 40
1
 40
1
 40
1
 10
3265.131075
 20
794.379588
 30
0.0
 10
3271.740425
 20
794.379588
 30
0.0
 10
3277.013850
 20
796.559276
 30
0.0
 10
3280.951350
 20
800.918651
 30
0.0
  0
SPLINE
  5
1ed
100
AcDbEntity
  8
Capa_1
 62
7
100
AcDbSpline
 70
8
 71
3
 72
8
 73
4
 74
0
 40
0
 40
0
 40
0
 40
0
 40
1
 40
1
 40
1
 40
1
 10
3280.951350
 20
800.918651
 30
0.0
 10
3283.201350
 20
803.449901
 30
0.0
 10
3284.795100
 20
806.379588
 30
0.0
 10
3285.732600
 20
809.707713
 30
0.0
  0
LWPOLYLINE
  5
1ee
100
AcDbEntity
  8
Capa_1
 62
7
100
AcDbPolyline
 90
2
 70
0
 10
3299.232600
 20
819.692088
 30
0.0
 10
3244.037325
 20
819.692088
 30
0.0
  0
SPLINE
  5
1ef
100
AcDbEntity
  8
Capa_1
 62
7
100
AcDbSpline
 70
8
 71
3
 72
8
 73
4
 74
0
 40
0
 40
0
 40
0
 40
0
 40
1
 40
1
 40
1
 40
1
 10
3298.177950
 20
809.707713
 30
0.0
 10
3297.849800
 20
806.942088
 30
0.0
 10
3296.748225
 20
803.848338
 30
0.0
 10
3294.873225
 20
800.426463
 30
0.0
  0
SPLINE
  5
1f0
100
AcDbEntity
  8
Capa_1
 62
7
100
AcDbSpline
 70
8
 71
3
 72
8
 73
4
 74
0
 40
0
 40
0
 40
0
 40
0
 40
1
 40
1
 40
1
 40
1
 10
3294.873225
 20
800.426463
 30
0.0
 10
3293.045125
 20
797.051463
 30
0.0
 10
3290.982625
 20
794.285838
 30
0.0
 10
3288.685725
 20
792.129588
 30
0.0
  0
SPLINE
  5
1f1
100
AcDbEntity
  8
Capa_1
 62
7
100
AcDbSpline
 70
8
 71
3
 72
8
 73
4
 74
0
 40
0
 40
0
 40
0
 40
0
 40
1
 40
1
 40
1
 40
1
 10
3288.685725
 20
792.129588
 30
0.0
 10
3284.841975
 20
788.379588
 30
0.0
 10
3280.084175
 20
785.848338
 30
0.0
 10
3274.412325
 20
784.535838
 30
0.0
  0
SPLINE
  5
1f2
100
AcDbEntity
  8
Capa_1
 62
7
100
AcDbSpline
 70
8
 71
3
 72
8
 73
4
 74
0
 40
0
 40
0
 40
0
 40
0
 40
1
 40
1
 40
1
 40
1
 10
3274.412325
 20
784.535838
 30
0.0
 10
3271.365425
 20
783.785838
 30
0.0
 10
3267.920100
 20
783.410838
 30
0.0
 10
3264.076350
 20
783.410838
 30
0.0
  0
SPLINE
  5
1f3
100
AcDbEntity
  8
Capa_1
 62
7
100
AcDbSpline
 70
8
 71
3
 72
8
 73
4
 74
0
 40
0
 40
0
 40
0
 40
0
 40
1
 40
1
 40
1
 40
1
 10
3264.076350
 20
783.410838
 30
0.0
 10
3254.701350
 20
783.410838
 30
0.0
 10
3246.756050
 20
786.809276
 30
0.0
 10
3240.240450
 20
793.606151
 30
0.0
  0
SPLINE
  5
1f4
100
AcDbEntity
  8
Capa_1
 62
7
100
AcDbSpline
 70
8
 71
3
 72
8
 73
4
 74
0
 40
0
 40
0
 40
0
 40
0
 40
1
 40
1
 40
1
 40
1
 10
3240.240450
 20
793.606151
 30
0.0
 10
3233.724800
 20
800.449901
 30
0.0
 10
3230.466975
 20
810.012401
 30
0.0
 10
3230.466975
 20
822.293651
 30
0.0
  0
SPLINE
  5
1f5
100
AcDbEntity
  8
Capa_1
 62
7
100
AcDbSpline
 70
8
 71
3
 72
8
 73
4
 74
0
 40
0
 40
0
 40
0
 40
0
 40
1
 40
1
 40
1
 40
1
 10
3230.466975
 20
822.293651
 30
0.0
 10
3230.466975
 20
834.387401
 30
0.0
 10
3233.748225
 20
844.207713
 30
0.0
 10
3240.310725
 20
851.754588
 30
0.0
  0
SPLINE
  5
1f6
100
AcDbEntity
  8
Capa_1
 62
7
100
AcDbSpline
 70
8
 71
3
 72
8
 73
4
 74
0
 40
0
 40
0
 40
0
 40
0
 40
1
 40
1
 40
1
 40
1
 10
3240.310725
 20
851.754588
 30
0.0
 10
3246.873225
 20
859.301463
 30
0.0
 10
3255.451350
 20
863.074901
 30
0.0
 10
3266.045100
 20
863.074901
 30
0.0
  0
LWPOLYLINE
  5
1f7
100
AcDbEntity
  8
Capa_1
 62
7
100
AcDbPolyline
 90
2
 70
0
 10
3285.732600
 20
809.707713
 30
0.0
 10
3298.177950
 20
809.707713
 30
0.0
  0
SPLINE
  5
1f8
100
AcDbEntity
  8
Capa_1
 62
7
100
AcDbSpline
 70
8
 71
3
 72
8
 73
4
 74
0
 40
0
 40
0
 40
0
 40
0
 40
1
 40
1
 40
1
 40
1
 10
3286.224825
 20
829.746776
 30
0.0
 10
3285.709175
 20
835.231151
 30
0.0
 10
3284.513850
 20
839.613963
 30
0.0
 10
3282.638850
 20
842.895213
 30
0.0
  0
SPLINE
  5
1f9
100
AcDbEntity
  8
Capa_1
 62
7
100
AcDbSpline
 70
8
 71
3
 72
8
 73
4
 74
0
 40
0
 40
0
 40
0
 40
0
 40
1
 40
1
 40
1
 40
1
 10
3282.638850
 20
842.895213
 30
0.0
 10
3279.170100
 20
848.988963
 30
0.0
 10
3273.381050
 20
852.035838
 30
0.0
 10
3265.271700
 20
852.035838
 30
0.0
  0
SPLINE
  5
1fa
100
AcDbEntity
  8
Capa_1
 62
7
100
AcDbSpline
 70
8
 71
3
 72
8
 73
4
 74
0
 40
0
 40
0
 40
0
 40
0
 40
1
 40
1
 40
1
 40
1
 10
3265.271700
 20
852.035838
 30
0.0
 10
3259.459200
 20
852.035838
 30
0.0
 10
3254.584200
 20
849.926463
 30
0.0
 10
3250.646700
 20
845.707713
 30
0.0
  0
SPLINE
  5
1fb
100
AcDbEntity
  8
Capa_1
 62
7
100
AcDbSpline
 70
8
 71
3
 72
8
 73
4
 74
0
 40
0
 40
0
 40
0
 40
0
 40
1
 40
1
 40
1
 40
1
 10
3250.646700
 20
845.707713
 30
0.0
 10
3246.709200
 20
841.535838
 30
0.0
 10
3244.623250
 20
836.215526
 30
0.0
 10
3244.388850
 20
829.746776
 30
0.0
  0
LWPOLYLINE
  5
1fc
100
AcDbEntity
  8
Capa_1
 62
7
100
AcDbPolyline
 90
1
 70
1
 10
3266.045100
 20
863.074901
 30
0.0
  0
LWPOLYLINE
  5
1fd
100
AcDbEntity
  8
Capa_1
 62
7
100
AcDbPolyline
 90
2
 70
0
 10
3244.388850
 20
829.746776
 30
0.0
 10
3286.224825
 20
829.746776
 30
0.0
  0
SPLINE
  5
1fe
100
AcDbEntity
  8
Capa_1
 62
7
100
AcDbSpline
 70
8
 71
3
 72
8
 73
4
 74
0
 40
0
 40
0
 40
0
 40
0
 40
1
 40
1
 40
1
 40
1
 10
3357.943575
 20
872.848338
 30
0.0
 10
3358.131075
 20
878.098338
 30
0.0
 10
3359.045125
 20
881.942088
 30
0.0
 10
3360.685725
 20
884.379588
 30
0.0
  0
SPLINE
  5
1ff
100
AcDbEntity
  8
Capa_1
 62
7
100
AcDbSpline
 70
8
 71
3
 72
8
 73
4
 74
0
 40
0
 40
0
 40
0
 40
0
 40
1
 40
1
 40
1
 40
1
 10
3360.685725
 20
884.379588
 30
0.0
 10
3363.638875
 20
888.692088
 30
0.0
 10
3369.334200
 20
890.848338
 30
0.0
 10
3377.771700
 20
890.848338
 30
0.0
  0
SPLINE
  5
200
100
AcDbEntity
  8
Capa_1
 62
7
100
AcDbSpline
 70
8
 71
3
 72
8
 73
4
 74
0
 40
0
 40
0
 40
0
 40
0
 40
1
 40
1
 40
1
 40
1
 10
3377.771700
 20
890.848338
 30
0.0
 10
3378.568550
 20
890.848338
 30
0.0
 10
3379.388850
 20
890.824901
 30
0.0
 10
3380.232600
 20
890.778026
 30
0.0
  0
SPLINE
  5
201
100
AcDbEntity
  8
Capa_1
 62
7
100
AcDbSpline
 70
8
 71
3
 72
8
 73
4
 74
0
 40
0
 40
0
 40
0
 40
0
 40
1
 40
1
 40
1
 40
1
 10
3380.232600
 20
890.778026
 30
0.0
 10
3381.076350
 20
890.731151
 30
0.0
 10
3382.037300
 20
890.660838
 30
0.0
 10
3383.115450
 20
890.567088
 30
0.0
  0
LWPOLYLINE
  5
202
100
AcDbEntity
  8
Capa_1
 62
7
100
AcDbPolyline
 90
1
 70
1
 10
3264.849825
 20
863.215526
 30
0.0
  0
SPLINE
  5
203
100
AcDbEntity
  8
Capa_1
 62
7
100
AcDbSpline
 70
8
 71
3
 72
8
 73
4
 74
0
 40
0
 40
0
 40
0
 40
0
 40
1
 40
1
 40
1
 40
1
 10
3383.115450
 20
879.035838
 30
0.0
 10
3381.802950
 20
879.129588
 30
0.0
 10
3380.842000
 20
879.176463
 30
0.0
 10
3380.232600
 20
879.176463
 30
0.0
  0
SPLINE
  5
204
100
AcDbEntity
  8
Capa_1
 62
7
100
AcDbSpline
 70
8
 71
3
 72
8
 73
4
 74
0
 40
0
 40
0
 40
0
 40
0
 40
1
 40
1
 40
1
 40
1
 10
3380.232600
 20
879.176463
 30
0.0
 10
3379.670100
 20
879.223338
 30
0.0
 10
3379.131050
 20
879.246776
 30
0.0
 10
3378.615450
 20
879.246776
 30
0.0
  0
SPLINE
  5
205
100
AcDbEntity
  8
Capa_1
 62
7
100
AcDbSpline
 70
8
 71
3
 72
8
 73
4
 74
0
 40
0
 40
0
 40
0
 40
0
 40
1
 40
1
 40
1
 40
1
 10
3378.615450
 20
879.246776
 30
0.0
 10
3374.771700
 20
879.246776
 30
0.0
 10
3372.474825
 20
878.238963
 30
0.0
 10
3371.724825
 20
876.223338
 30
0.0
  0
SPLINE
  5
206
100
AcDbEntity
  8
Capa_1
 62
7
100
AcDbSpline
 70
8
 71
3
 72
8
 73
4
 74
0
 40
0
 40
0
 40
0
 40
0
 40
1
 40
1
 40
1
 40
1
 10
3371.724825
 20
876.223338
 30
0.0
 10
3370.974825
 20
874.254588
 30
0.0
 10
3370.599825
 20
869.192088
 30
0.0
 10
3370.599825
 20
861.035838
 30
0.0
  0
LWPOLYLINE
  5
207
100
AcDbEntity
  8
Capa_1
 62
7
100
AcDbPolyline
 90
2
 70
0
 10
3383.115450
 20
890.567088
 30
0.0
 10
3383.115450
 20
879.035838
 30
0.0
  0
SPLINE
  5
208
100
AcDbEntity
  8
Capa_1
 62
7
100
AcDbSpline
 70
8
 71
3
 72
8
 73
4
 74
0
 40
0
 40
0
 40
0
 40
0
 40
1
 40
1
 40
1
 40
1
 10
3424.599825
 20
794.238963
 30
0.0
 10
3432.990425
 20
794.238963
 30
0.0
 10
3438.732600
 20
797.403026
 30
0.0
 10
3441.826350
 20
803.731151
 30
0.0
  0
SPLINE
  5
209
100
AcDbEntity
  8
Capa_1
 62
7
100
AcDbSpline
 70
8
 71
3
 72
8
 73
4
 74
0
 40
0
 40
0
 40
0
 40
0
 40
1
 40
1
 40
1
 40
1
 10
3441.826350
 20
803.731151
 30
0.0
 10
3444.967000
 20
810.106151
 30
0.0
 10
3446.537325
 20
817.184276
 30
0.0
 10
3446.537325
 20
824.965526
 30
0.0
  0
SPLINE
  5
20a
100
AcDbEntity
  8
Capa_1
 62
7
100
AcDbSpline
 70
8
 71
3
 72
8
 73
4
 74
0
 40
0
 40
0
 40
0
 40
0
 40
1
 40
1
 40
1
 40
1
 10
3446.537325
 20
824.965526
 30
0.0
 10
3446.537325
 20
831.996776
 30
0.0
 10
3445.412325
 20
837.715526
 30
0.0
 10
3443.162325
 20
842.121776
 30
0.0
  0
SPLINE
  5
20b
100
AcDbEntity
  8
Capa_1
 62
7
100
AcDbSpline
 70
8
 71
3
 72
8
 73
4
 74
0
 40
0
 40
0
 40
0
 40
0
 40
1
 40
1
 40
1
 40
1
 10
3443.162325
 20
842.121776
 30
0.0
 10
3439.599825
 20
849.059276
 30
0.0
 10
3433.459200
 20
852.528026
 30
0.0
 10
3424.740450
 20
852.528026
 30
0.0
  0
SPLINE
  5
20c
100
AcDbEntity
  8
Capa_1
 62
7
100
AcDbSpline
 70
8
 71
3
 72
8
 73
4
 74
0
 40
0
 40
0
 40
0
 40
0
 40
1
 40
1
 40
1
 40
1
 10
3424.740450
 20
852.528026
 30
0.0
 10
3417.006050
 20
852.528026
 30
0.0
 10
3411.381050
 20
849.574901
 30
0.0
 10
3407.865450
 20
843.668651
 30
0.0
  0
SPLINE
  5
20d
100
AcDbEntity
  8
Capa_1
 62
7
100
AcDbSpline
 70
8
 71
3
 72
8
 73
4
 74
0
 40
0
 40
0
 40
0
 40
0
 40
1
 40
1
 40
1
 40
1
 10
3407.865450
 20
843.668651
 30
0.0
 10
3404.349800
 20
837.762401
 30
0.0
 10
3402.591975
 20
830.637401
 30
0.0
 10
3402.591975
 20
822.293651
 30
0.0
  0
SPLINE
  5
20e
100
AcDbEntity
  8
Capa_1
 62
7
100
AcDbSpline
 70
8
 71
3
 72
8
 73
4
 74
0
 40
0
 40
0
 40
0
 40
0
 40
1
 40
1
 40
1
 40
1
 10
3402.591975
 20
822.293651
 30
0.0
 10
3402.591975
 20
814.278026
 30
0.0
 10
3404.349800
 20
807.598338
 30
0.0
 10
3407.865450
 20
802.254588
 30
0.0
  0
SPLINE
  5
20f
100
AcDbEntity
  8
Capa_1
 62
7
100
AcDbSpline
 70
8
 71
3
 72
8
 73
4
 74
0
 40
0
 40
0
 40
0
 40
0
 40
1
 40
1
 40
1
 40
1
 10
3407.865450
 20
802.254588
 30
0.0
 10
3411.381050
 20
796.910838
 30
0.0
 10
3416.959175
 20
794.238963
 30
0.0
 10
3424.599825
 20
794.238963
 30
0.0
  0
LWPOLYLINE
  5
210
100
AcDbEntity
  8
Capa_1
 62
7
100
AcDbPolyline
 90
11
 70
0
 10
3370.599825
 20
861.035838
 30
0.0
 10
3383.115450
 20
861.035838
 30
0.0
 10
3383.115450
 20
851.051463
 30
0.0
 10
3370.459200
 20
851.051463
 30
0.0
 10
3370.459200
 20
786.082713
 30
0.0
 10
3357.943575
 20
786.082713
 30
0.0
 10
3357.943575
 20
851.051463
 30
0.0
 10
3347.466975
 20
851.051463
 30
0.0
 10
3347.466975
 20
861.035838
 30
0.0
 10
3357.943575
 20
861.035838
 30
0.0
 10
3357.943575
 20
872.848338
 30
0.0
  0
SPLINE
  5
211
100
AcDbEntity
  8
Capa_1
 62
7
100
AcDbSpline
 70
8
 71
3
 72
8
 73
4
 74
0
 40
0
 40
0
 40
0
 40
0
 40
1
 40
1
 40
1
 40
1
 10
3425.091975
 20
863.567088
 30
0.0
 10
3434.795125
 20
863.567088
 30
0.0
 10
3442.998250
 20
860.332713
 30
0.0
 10
3449.701350
 20
853.863963
 30
0.0
  0
SPLINE
  5
212
100
AcDbEntity
  8
Capa_1
 62
7
100
AcDbSpline
 70
8
 71
3
 72
8
 73
4
 74
0
 40
0
 40
0
 40
0
 40
0
 40
1
 40
1
 40
1
 40
1
 10
3449.701350
 20
853.863963
 30
0.0
 10
3456.404500
 20
847.395213
 30
0.0
 10
3459.756075
 20
837.879588
 30
0.0
 10
3459.756075
 20
825.317088
 30
0.0
  0
SPLINE
  5
213
100
AcDbEntity
  8
Capa_1
 62
7
100
AcDbSpline
 70
8
 71
3
 72
8
 73
4
 74
0
 40
0
 40
0
 40
0
 40
0
 40
1
 40
1
 40
1
 40
1
 10
3459.756075
 20
825.317088
 30
0.0
 10
3459.756075
 20
813.176463
 30
0.0
 10
3456.802950
 20
803.145213
 30
0.0
 10
3450.896700
 20
795.223338
 30
0.0
  0
SPLINE
  5
214
100
AcDbEntity
  8
Capa_1
 62
7
100
AcDbSpline
 70
8
 71
3
 72
8
 73
4
 74
0
 40
0
 40
0
 40
0
 40
0
 40
1
 40
1
 40
1
 40
1
 10
3450.896700
 20
795.223338
 30
0.0
 10
3444.990450
 20
787.301463
 30
0.0
 10
3435.826375
 20
783.340526
 30
0.0
 10
3423.404475
 20
783.340526
 30
0.0
  0
SPLINE
  5
215
100
AcDbEntity
  8
Capa_1
 62
7
100
AcDbSpline
 70
8
 71
3
 72
8
 73
4
 74
0
 40
0
 40
0
 40
0
 40
0
 40
1
 40
1
 40
1
 40
1
 10
3423.404475
 20
783.340526
 30
0.0
 10
3413.045125
 20
783.340526
 30
0.0
 10
3404.818575
 20
786.832713
 30
0.0
 10
3398.724825
 20
793.817088
 30
0.0
  0
SPLINE
  5
216
100
AcDbEntity
  8
Capa_1
 62
7
100
AcDbSpline
 70
8
 71
3
 72
8
 73
4
 74
0
 40
0
 40
0
 40
0
 40
0
 40
1
 40
1
 40
1
 40
1
 10
3398.724825
 20
793.817088
 30
0.0
 10
3392.631075
 20
800.848338
 30
0.0
 10
3389.584200
 20
810.270213
 30
0.0
 10
3389.584200
 20
822.082713
 30
0.0
  0
SPLINE
  5
217
100
AcDbEntity
  8
Capa_1
 62
7
100
AcDbSpline
 70
8
 71
3
 72
8
 73
4
 74
0
 40
0
 40
0
 40
0
 40
0
 40
1
 40
1
 40
1
 40
1
 10
3389.584200
 20
822.082713
 30
0.0
 10
3389.584200
 20
834.738963
 30
0.0
 10
3392.795125
 20
844.817088
 30
0.0
 10
3399.216975
 20
852.317088
 30
0.0
  0
SPLINE
  5
218
100
AcDbEntity
  8
Capa_1
 62
7
100
AcDbSpline
 70
8
 71
3
 72
8
 73
4
 74
0
 40
0
 40
0
 40
0
 40
0
 40
1
 40
1
 40
1
 40
1
 10
3399.216975
 20
852.317088
 30
0.0
 10
3405.638875
 20
859.817088
 30
0.0
 10
3414.263875
 20
863.567088
 30
0.0
 10
3425.091975
 20
863.567088
 30
0.0
  0
LWPOLYLINE
  5
219
100
AcDbEntity
  8
Capa_1
 62
7
100
AcDbPolyline
 90
1
 70
1
 10
3424.599825
 20
794.238963
 30
0.0
  0
LWPOLYLINE
  5
21a
100
AcDbEntity
  8
Capa_1
 62
7
100
AcDbPolyline
 90
1
 70
1
 10
3425.091975
 20
863.567088
 30
0.0
  0
LWPOLYLINE
  5
21b
100
AcDbEntity
  8
Capa_1
 62
7
100
AcDbPolyline
 90
1
 70
1
 10
3424.670100
 20
863.215526
 30
0.0
  0
SPLINE
  5
21c
100
AcDbEntity
  8
Capa_1
 62
7
100
AcDbSpline
 70
8
 71
3
 72
8
 73
4
 74
0
 40
0
 40
0
 40
0
 40
0
 40
1
 40
1
 40
1
 40
1
 10
3487.248225
 20
848.379588
 30
0.0
 10
3488.232625
 20
850.910838
 30
0.0
 10
3490.646700
 20
853.981151
 30
0.0
 10
3494.490450
 20
857.590526
 30
0.0
  0
SPLINE
  5
21d
100
AcDbEntity
  8
Capa_1
 62
7
100
AcDbSpline
 70
8
 71
3
 72
8
 73
4
 74
0
 40
0
 40
0
 40
0
 40
0
 40
1
 40
1
 40
1
 40
1
 10
3494.490450
 20
857.590526
 30
0.0
 10
3498.334200
 20
861.246776
 30
0.0
 10
3502.763875
 20
863.074901
 30
0.0
 10
3507.779475
 20
863.074901
 30
0.0
  0
SPLINE
  5
21e
100
AcDbEntity
  8
Capa_1
 62
7
100
AcDbSpline
 70
8
 71
3
 72
8
 73
4
 74
0
 40
0
 40
0
 40
0
 40
0
 40
1
 40
1
 40
1
 40
1
 10
3507.779475
 20
863.074901
 30
0.0
 10
3508.013875
 20
863.074901
 30
0.0
 10
3508.412325
 20
863.051463
 30
0.0
 10
3508.974825
 20
863.004588
 30
0.0
  0
SPLINE
  5
21f
100
AcDbEntity
  8
Capa_1
 62
7
100
AcDbSpline
 70
8
 71
3
 72
8
 73
4
 74
0
 40
0
 40
0
 40
0
 40
0
 40
1
 40
1
 40
1
 40
1
 10
3508.974825
 20
863.004588
 30
0.0
 10
3509.537325
 20
862.957713
 30
0.0
 10
3510.498250
 20
862.863963
 30
0.0
 10
3511.857600
 20
862.723338
 30
0.0
  0
LWPOLYLINE
  5
220
100
AcDbEntity
  8
Capa_1
 62
7
100
AcDbPolyline
 90
3
 70
0
 10
3475.224825
 20
861.387401
 30
0.0
 10
3487.248225
 20
861.387401
 30
0.0
 10
3487.248225
 20
848.379588
 30
0.0
  0
SPLINE
  5
221
100
AcDbEntity
  8
Capa_1
 62
7
100
AcDbSpline
 70
8
 71
3
 72
8
 73
4
 74
0
 40
0
 40
0
 40
0
 40
0
 40
1
 40
1
 40
1
 40
1
 10
3511.857600
 20
849.363963
 30
0.0
 10
3511.107600
 20
849.504588
 30
0.0
 10
3510.404475
 20
849.598338
 30
0.0
 10
3509.748225
 20
849.645213
 30
0.0
  0
SPLINE
  5
222
100
AcDbEntity
  8
Capa_1
 62
7
100
AcDbSpline
 70
8
 71
3
 72
8
 73
4
 74
0
 40
0
 40
0
 40
0
 40
0
 40
1
 40
1
 40
1
 40
1
 10
3509.748225
 20
849.645213
 30
0.0
 10
3509.138875
 20
849.692088
 30
0.0
 10
3508.459200
 20
849.715526
 30
0.0
 10
3507.709200
 20
849.715526
 30
0.0
  0
SPLINE
  5
223
100
AcDbEntity
  8
Capa_1
 62
7
100
AcDbSpline
 70
8
 71
3
 72
8
 73
4
 74
0
 40
0
 40
0
 40
0
 40
0
 40
1
 40
1
 40
1
 40
1
 10
3507.709200
 20
849.715526
 30
0.0
 10
3501.334200
 20
849.715526
 30
0.0
 10
3496.435750
 20
847.653026
 30
0.0
 10
3493.013850
 20
843.528026
 30
0.0
  0
SPLINE
  5
224
100
AcDbEntity
  8
Capa_1
 62
7
100
AcDbSpline
 70
8
 71
3
 72
8
 73
4
 74
0
 40
0
 40
0
 40
0
 40
0
 40
1
 40
1
 40
1
 40
1
 10
3493.013850
 20
843.528026
 30
0.0
 10
3489.592000
 20
839.449901
 30
0.0
 10
3487.881075
 20
834.738963
 30
0.0
 10
3487.881075
 20
829.395213
 30
0.0
  0
LWPOLYLINE
  5
225
100
AcDbEntity
  8
Capa_1
 62
7
100
AcDbPolyline
 90
2
 70
0
 10
3511.857600
 20
862.723338
 30
0.0
 10
3511.857600
 20
849.363963
 30
0.0
  0
LWPOLYLINE
  5
226
100
AcDbEntity
  8
Capa_1
 62
7
100
AcDbPolyline
 90
4
 70
0
 10
3487.881075
 20
829.395213
 30
0.0
 10
3487.881075
 20
786.082713
 30
0.0
 10
3475.224825
 20
786.082713
 30
0.0
 10
3475.224825
 20
861.387401
 30
0.0
  0
SPLINE
  5
227
100
AcDbEntity
  8
Capa_1
 62
7
100
AcDbSpline
 70
8
 71
3
 72
8
 73
4
 74
0
 40
0
 40
0
 40
0
 40
0
 40
1
 40
1
 40
1
 40
1
 10
3636.732600
 20
806.121776
 30
0.0
 10
3636.732600
 20
802.465526
 30
0.0
 10
3638.068550
 20
799.582713
 30
0.0
 10
3640.740450
 20
797.473338
 30
0.0
  0
SPLINE
  5
228
100
AcDbEntity
  8
Capa_1
 62
7
100
AcDbSpline
 70
8
 71
3
 72
8
 73
4
 74
0
 40
0
 40
0
 40
0
 40
0
 40
1
 40
1
 40
1
 40
1
 10
3640.740450
 20
797.473338
 30
0.0
 10
3643.412300
 20
795.363963
 30
0.0
 10
3646.576350
 20
794.309276
 30
0.0
 10
3650.232600
 20
794.309276
 30
0.0
  0
SPLINE
  5
229
100
AcDbEntity
  8
Capa_1
 62
7
100
AcDbSpline
 70
8
 71
3
 72
8
 73
4
 74
0
 40
0
 40
0
 40
0
 40
0
 40
1
 40
1
 40
1
 40
1
 10
3650.232600
 20
794.309276
 30
0.0
 10
3654.685750
 20
794.309276
 30
0.0
 10
3658.998250
 20
795.340526
 30
0.0
 10
3663.170100
 20
797.403026
 30
0.0
  0
SPLINE
  5
22a
100
AcDbEntity
  8
Capa_1
 62
7
100
AcDbSpline
 70
8
 71
3
 72
8
 73
4
 74
0
 40
0
 40
0
 40
0
 40
0
 40
1
 40
1
 40
1
 40
1
 10
3663.170100
 20
797.403026
 30
0.0
 10
3670.201350
 20
800.824901
 30
0.0
 10
3673.716975
 20
806.426463
 30
0.0
 10
3673.716975
 20
814.207713
 30
0.0
  0
LWPOLYLINE
  5
22b
100
AcDbEntity
  8
Capa_1
 62
7
100
AcDbPolyline
 90
13
 70
1
 10
3528.802950
 20
861.387401
 30
0.0
 10
3543.287325
 20
802.043651
 30
0.0
 10
3557.982600
 20
861.387401
 30
0.0
 10
3572.185725
 20
861.387401
 30
0.0
 10
3586.951350
 20
802.395213
 30
0.0
 10
3602.349825
 20
861.387401
 30
0.0
 10
3615.006075
 20
861.387401
 30
0.0
 10
3593.138850
 20
786.082713
 30
0.0
 10
3579.990450
 20
786.082713
 30
0.0
 10
3564.662325
 20
844.371776
 30
0.0
 10
3549.826350
 20
786.082713
 30
0.0
 10
3536.677950
 20
786.082713
 30
0.0
 10
3514.951350
 20
861.387401
 30
0.0
  0
SPLINE
  5
22c
100
AcDbEntity
  8
Capa_1
 62
7
100
AcDbSpline
 70
8
 71
3
 72
8
 73
4
 74
0
 40
0
 40
0
 40
0
 40
0
 40
1
 40
1
 40
1
 40
1
 10
3673.716975
 20
824.403026
 30
0.0
 10
3672.170125
 20
823.418651
 30
0.0
 10
3670.177950
 20
822.598338
 30
0.0
 10
3667.740450
 20
821.942088
 30
0.0
  0
SPLINE
  5
22d
100
AcDbEntity
  8
Capa_1
 62
7
100
AcDbSpline
 70
8
 71
3
 72
8
 73
4
 74
0
 40
0
 40
0
 40
0
 40
0
 40
1
 40
1
 40
1
 40
1
 10
3667.740450
 20
821.942088
 30
0.0
 10
3665.302950
 20
821.285838
 30
0.0
 10
3662.912325
 20
820.817088
 30
0.0
 10
3660.568575
 20
820.535838
 30
0.0
  0
LWPOLYLINE
  5
22e
100
AcDbEntity
  8
Capa_1
 62
7
100
AcDbPolyline
 90
2
 70
0
 10
3673.716975
 20
814.207713
 30
0.0
 10
3673.716975
 20
824.403026
 30
0.0
  0
SPLINE
  5
22f
100
AcDbEntity
  8
Capa_1
 62
7
100
AcDbSpline
 70
8
 71
3
 72
8
 73
4
 74
0
 40
0
 40
0
 40
0
 40
0
 40
1
 40
1
 40
1
 40
1
 10
3652.904475
 20
819.551463
 30
0.0
 10
3648.310725
 20
818.942088
 30
0.0
 10
3644.865425
 20
817.981151
 30
0.0
 10
3642.568575
 20
816.668651
 30
0.0
  0
SPLINE
  5
230
100
AcDbEntity
  8
Capa_1
 62
7
100
AcDbSpline
 70
8
 71
3
 72
8
 73
4
 74
0
 40
0
 40
0
 40
0
 40
0
 40
1
 40
1
 40
1
 40
1
 10
3642.568575
 20
816.668651
 30
0.0
 10
3638.677925
 20
814.465526
 30
0.0
 10
3636.732600
 20
810.949901
 30
0.0
 10
3636.732600
 20
806.121776
 30
0.0
  0
LWPOLYLINE
  5
231
100
AcDbEntity
  8
Capa_1
 62
7
100
AcDbPolyline
 90
2
 70
0
 10
3660.568575
 20
820.535838
 30
0.0
 10
3652.904475
 20
819.551463
 30
0.0
  0
SPLINE
  5
232
100
AcDbEntity
  8
Capa_1
 62
7
100
AcDbSpline
 70
8
 71
3
 72
8
 73
4
 74
0
 40
0
 40
0
 40
0
 40
0
 40
1
 40
1
 40
1
 40
1
 10
3667.388850
 20
831.715526
 30
0.0
 10
3670.295100
 20
832.090526
 30
0.0
 10
3672.240425
 20
833.309276
 30
0.0
 10
3673.224825
 20
835.371776
 30
0.0
  0
SPLINE
  5
233
100
AcDbEntity
  8
Capa_1
 62
7
100
AcDbSpline
 70
8
 71
3
 72
8
 73
4
 74
0
 40
0
 40
0
 40
0
 40
0
 40
1
 40
1
 40
1
 40
1
 10
3673.224825
 20
835.371776
 30
0.0
 10
3673.787325
 20
836.496776
 30
0.0
 10
3674.068575
 20
838.113963
 30
0.0
 10
3674.068575
 20
840.223338
 30
0.0
  0
SPLINE
  5
234
100
AcDbEntity
  8
Capa_1
 62
7
100
AcDbSpline
 70
8
 71
3
 72
8
 73
4
 74
0
 40
0
 40
0
 40
0
 40
0
 40
1
 40
1
 40
1
 40
1
 10
3674.068575
 20
840.223338
 30
0.0
 10
3674.068575
 20
844.535838
 30
0.0
 10
3672.521700
 20
847.653026
 30
0.0
 10
3669.427950
 20
849.574901
 30
0.0
  0
SPLINE
  5
235
100
AcDbEntity
  8
Capa_1
 62
7
100
AcDbSpline
 70
8
 71
3
 72
8
 73
4
 74
0
 40
0
 40
0
 40
0
 40
0
 40
1
 40
1
 40
1
 40
1
 10
3669.427950
 20
849.574901
 30
0.0
 10
3666.381050
 20
851.543651
 30
0.0
 10
3661.998225
 20
852.528026
 30
0.0
 10
3656.279475
 20
852.528026
 30
0.0
  0
SPLINE
  5
236
100
AcDbEntity
  8
Capa_1
 62
7
100
AcDbSpline
 70
8
 71
3
 72
8
 73
4
 74
0
 40
0
 40
0
 40
0
 40
0
 40
1
 40
1
 40
1
 40
1
 10
3656.279475
 20
852.528026
 30
0.0
 10
3649.670125
 20
852.528026
 30
0.0
 10
3644.982625
 20
850.746776
 30
0.0
 10
3642.216975
 20
847.184276
 30
0.0
  0
SPLINE
  5
237
100
AcDbEntity
  8
Capa_1
 62
7
100
AcDbSpline
 70
8
 71
3
 72
8
 73
4
 74
0
 40
0
 40
0
 40
0
 40
0
 40
1
 40
1
 40
1
 40
1
 10
3642.216975
 20
847.184276
 30
0.0
 10
3640.670125
 20
845.215526
 30
0.0
 10
3639.662325
 20
842.285838
 30
0.0
 10
3639.193575
 20
838.395213
 30
0.0
  0
LWPOLYLINE
  5
238
100
AcDbEntity
  8
Capa_1
 62
7
100
AcDbPolyline
 90
1
 70
1
 10
3636.732600
 20
806.121776
 30
0.0
  0
SPLINE
  5
239
100
AcDbEntity
  8
Capa_1
 62
7
100
AcDbSpline
 70
8
 71
3
 72
8
 73
4
 74
0
 40
0
 40
0
 40
0
 40
0
 40
1
 40
1
 40
1
 40
1
 10
3627.381075
 20
838.395213
 30
0.0
 10
3627.615425
 20
847.676463
 30
0.0
 10
3630.615425
 20
854.121776
 30
0.0
 10
3636.381075
 20
857.731151
 30
0.0
  0
SPLINE
  5
23a
100
AcDbEntity
  8
Capa_1
 62
7
100
AcDbSpline
 70
8
 71
3
 72
8
 73
4
 74
0
 40
0
 40
0
 40
0
 40
0
 40
1
 40
1
 40
1
 40
1
 10
3636.381075
 20
857.731151
 30
0.0
 10
3642.193575
 20
861.387401
 30
0.0
 10
3648.920125
 20
863.215526
 30
0.0
 10
3656.560725
 20
863.215526
 30
0.0
  0
SPLINE
  5
23b
100
AcDbEntity
  8
Capa_1
 62
7
100
AcDbSpline
 70
8
 71
3
 72
8
 73
4
 74
0
 40
0
 40
0
 40
0
 40
0
 40
1
 40
1
 40
1
 40
1
 10
3656.560725
 20
863.215526
 30
0.0
 10
3665.420125
 20
863.215526
 30
0.0
 10
3672.615450
 20
861.528026
 30
0.0
 10
3678.146700
 20
858.153026
 30
0.0
  0
SPLINE
  5
23c
100
AcDbEntity
  8
Capa_1
 62
7
100
AcDbSpline
 70
8
 71
3
 72
8
 73
4
 74
0
 40
0
 40
0
 40
0
 40
0
 40
1
 40
1
 40
1
 40
1
 10
3678.146700
 20
858.153026
 30
0.0
 10
3683.631050
 20
854.778026
 30
0.0
 10
3686.373225
 20
849.528026
 30
0.0
 10
3686.373225
 20
842.403026
 30
0.0
  0
LWPOLYLINE
  5
23d
100
AcDbEntity
  8
Capa_1
 62
7
100
AcDbPolyline
 90
2
 70
0
 10
3639.193575
 20
838.395213
 30
0.0
 10
3627.381075
 20
838.395213
 30
0.0
  0
SPLINE
  5
23e
100
AcDbEntity
  8
Capa_1
 62
7
100
AcDbSpline
 70
8
 71
3
 72
8
 73
4
 74
0
 40
0
 40
0
 40
0
 40
0
 40
1
 40
1
 40
1
 40
1
 10
3686.373225
 20
799.020213
 30
0.0
 10
3686.373225
 20
797.707713
 30
0.0
 10
3686.631050
 20
796.653026
 30
0.0
 10
3687.146700
 20
795.856151
 30
0.0
  0
SPLINE
  5
23f
100
AcDbEntity
  8
Capa_1
 62
7
100
AcDbSpline
 70
8
 71
3
 72
8
 73
4
 74
0
 40
0
 40
0
 40
0
 40
0
 40
1
 40
1
 40
1
 40
1
 10
3687.146700
 20
795.856151
 30
0.0
 10
3687.709200
 20
795.059276
 30
0.0
 10
3688.857625
 20
794.660838
 30
0.0
 10
3690.591975
 20
794.660838
 30
0.0
  0
SPLINE
  5
240
100
AcDbEntity
  8
Capa_1
 62
7
100
AcDbSpline
 70
8
 71
3
 72
8
 73
4
 74
0
 40
0
 40
0
 40
0
 40
0
 40
1
 40
1
 40
1
 40
1
 10
3690.591975
 20
794.660838
 30
0.0
 10
3691.154475
 20
794.660838
 30
0.0
 10
3691.787300
 20
794.684276
 30
0.0
 10
3692.490450
 20
794.731151
 30
0.0
  0
SPLINE
  5
241
100
AcDbEntity
  8
Capa_1
 62
7
100
AcDbSpline
 70
8
 71
3
 72
8
 73
4
 74
0
 40
0
 40
0
 40
0
 40
0
 40
1
 40
1
 40
1
 40
1
 10
3692.490450
 20
794.731151
 30
0.0
 10
3693.193550
 20
794.824901
 30
0.0
 10
3693.943550
 20
794.942088
 30
0.0
 10
3694.740450
 20
795.082713
 30
0.0
  0
LWPOLYLINE
  5
242
100
AcDbEntity
  8
Capa_1
 62
7
100
AcDbPolyline
 90
2
 70
0
 10
3686.373225
 20
842.403026
 30
0.0
 10
3686.373225
 20
799.020213
 30
0.0
  0
SPLINE
  5
243
100
AcDbEntity
  8
Capa_1
 62
7
100
AcDbSpline
 70
8
 71
3
 72
8
 73
4
 74
0
 40
0
 40
0
 40
0
 40
0
 40
1
 40
1
 40
1
 40
1
 10
3694.740450
 20
785.731151
 30
0.0
 10
3692.771700
 20
785.168651
 30
0.0
 10
3691.271700
 20
784.817088
 30
0.0
 10
3690.240450
 20
784.676463
 30
0.0
  0
SPLINE
  5
244
100
AcDbEntity
  8
Capa_1
 62
7
100
AcDbSpline
 70
8
 71
3
 72
8
 73
4
 74
0
 40
0
 40
0
 40
0
 40
0
 40
1
 40
1
 40
1
 40
1
 10
3690.240450
 20
784.676463
 30
0.0
 10
3689.209200
 20
784.535838
 30
0.0
 10
3687.802950
 20
784.465526
 30
0.0
 10
3686.021700
 20
784.465526
 30
0.0
  0
SPLINE
  5
245
100
AcDbEntity
  8
Capa_1
 62
7
100
AcDbSpline
 70
8
 71
3
 72
8
 73
4
 74
0
 40
0
 40
0
 40
0
 40
0
 40
1
 40
1
 40
1
 40
1
 10
3686.021700
 20
784.465526
 30
0.0
 10
3681.662300
 20
784.465526
 30
0.0
 10
3678.498225
 20
786.012401
 30
0.0
 10
3676.529475
 20
789.106151
 30
0.0
  0
SPLINE
  5
246
100
AcDbEntity
  8
Capa_1
 62
7
100
AcDbSpline
 70
8
 71
3
 72
8
 73
4
 74
0
 40
0
 40
0
 40
0
 40
0
 40
1
 40
1
 40
1
 40
1
 10
3676.529475
 20
789.106151
 30
0.0
 10
3675.498225
 20
790.746776
 30
0.0
 10
3674.771675
 20
793.067088
 30
0.0
 10
3674.349825
 20
796.067088
 30
0.0
  0
SPLINE
  5
247
100
AcDbEntity
  8
Capa_1
 62
7
100
AcDbSpline
 70
8
 71
3
 72
8
 73
4
 74
0
 40
0
 40
0
 40
0
 40
0
 40
1
 40
1
 40
1
 40
1
 10
3674.349825
 20
796.067088
 30
0.0
 10
3671.771675
 20
792.692088
 30
0.0
 10
3668.068550
 20
789.762401
 30
0.0
 10
3663.240450
 20
787.278026
 30
0.0
  0
SPLINE
  5
248
100
AcDbEntity
  8
Capa_1
 62
7
100
AcDbSpline
 70
8
 71
3
 72
8
 73
4
 74
0
 40
0
 40
0
 40
0
 40
0
 40
1
 40
1
 40
1
 40
1
 10
3663.240450
 20
787.278026
 30
0.0
 10
3658.412300
 20
784.793651
 30
0.0
 10
3653.091975
 20
783.551463
 30
0.0
 10
3647.279475
 20
783.551463
 30
0.0
  0
SPLINE
  5
249
100
AcDbEntity
  8
Capa_1
 62
7
100
AcDbSpline
 70
8
 71
3
 72
8
 73
4
 74
0
 40
0
 40
0
 40
0
 40
0
 40
1
 40
1
 40
1
 40
1
 10
3647.279475
 20
783.551463
 30
0.0
 10
3640.295125
 20
783.551463
 30
0.0
 10
3634.576375
 20
785.660838
 30
0.0
 10
3630.123225
 20
789.879588
 30
0.0
  0
SPLINE
  5
24a
100
AcDbEntity
  8
Capa_1
 62
7
100
AcDbSpline
 70
8
 71
3
 72
8
 73
4
 74
0
 40
0
 40
0
 40
0
 40
0
 40
1
 40
1
 40
1
 40
1
 10
3630.123225
 20
789.879588
 30
0.0
 10
3625.716975
 20
794.145213
 30
0.0
 10
3623.513850
 20
799.465526
 30
0.0
 10
3623.513850
 20
805.840526
 30
0.0
  0
SPLINE
  5
24b
100
AcDbEntity
  8
Capa_1
 62
7
100
AcDbSpline
 70
8
 71
3
 72
8
 73
4
 74
0
 40
0
 40
0
 40
0
 40
0
 40
1
 40
1
 40
1
 40
1
 10
3623.513850
 20
805.840526
 30
0.0
 10
3623.513850
 20
812.824901
 30
0.0
 10
3625.693550
 20
818.238963
 30
0.0
 10
3630.052950
 20
822.082713
 30
0.0
  0
SPLINE
  5
24c
100
AcDbEntity
  8
Capa_1
 62
7
100
AcDbSpline
 70
8
 71
3
 72
8
 73
4
 74
0
 40
0
 40
0
 40
0
 40
0
 40
1
 40
1
 40
1
 40
1
 10
3630.052950
 20
822.082713
 30
0.0
 10
3634.412300
 20
825.926463
 30
0.0
 10
3640.131050
 20
828.293651
 30
0.0
 10
3647.209200
 20
829.184276
 30
0.0
  0
LWPOLYLINE
  5
24d
100
AcDbEntity
  8
Capa_1
 62
7
100
AcDbPolyline
 90
2
 70
0
 10
3694.740450
 20
795.082713
 30
0.0
 10
3694.740450
 20
785.731151
 30
0.0
  0
LWPOLYLINE
  5
24e
100
AcDbEntity
  8
Capa_1
 62
7
100
AcDbPolyline
 90
2
 70
0
 10
3647.209200
 20
829.184276
 30
0.0
 10
3667.388850
 20
831.715526
 30
0.0
  0
LWPOLYLINE
  5
24f
100
AcDbEntity
  8
Capa_1
 62
7
100
AcDbPolyline
 90
1
 70
1
 10
3656.912325
 20
863.215526
 30
0.0
  0
SPLINE
  5
250
100
AcDbEntity
  8
Capa_1
 62
7
100
AcDbSpline
 70
8
 71
3
 72
8
 73
4
 74
0
 40
0
 40
0
 40
0
 40
0
 40
1
 40
1
 40
1
 40
1
 10
3719.560725
 20
848.379588
 30
0.0
 10
3720.545125
 20
850.910838
 30
0.0
 10
3722.959200
 20
853.981151
 30
0.0
 10
3726.802950
 20
857.590526
 30
0.0
  0
SPLINE
  5
251
100
AcDbEntity
  8
Capa_1
 62
7
100
AcDbSpline
 70
8
 71
3
 72
8
 73
4
 74
0
 40
0
 40
0
 40
0
 40
0
 40
1
 40
1
 40
1
 40
1
 10
3726.802950
 20
857.590526
 30
0.0
 10
3730.646700
 20
861.246776
 30
0.0
 10
3735.076375
 20
863.074901
 30
0.0
 10
3740.091975
 20
863.074901
 30
0.0
  0
SPLINE
  5
252
100
AcDbEntity
  8
Capa_1
 62
7
100
AcDbSpline
 70
8
 71
3
 72
8
 73
4
 74
0
 40
0
 40
0
 40
0
 40
0
 40
1
 40
1
 40
1
 40
1
 10
3740.091975
 20
863.074901
 30
0.0
 10
3740.326375
 20
863.074901
 30
0.0
 10
3740.724825
 20
863.051463
 30
0.0
 10
3741.287325
 20
863.004588
 30
0.0
  0
SPLINE
  5
253
100
AcDbEntity
  8
Capa_1
 62
7
100
AcDbSpline
 70
8
 71
3
 72
8
 73
4
 74
0
 40
0
 40
0
 40
0
 40
0
 40
1
 40
1
 40
1
 40
1
 10
3741.287325
 20
863.004588
 30
0.0
 10
3741.849825
 20
862.957713
 30
0.0
 10
3742.810750
 20
862.863963
 30
0.0
 10
3744.170100
 20
862.723338
 30
0.0
  0
LWPOLYLINE
  5
254
100
AcDbEntity
  8
Capa_1
 62
7
100
AcDbPolyline
 90
3
 70
0
 10
3707.537325
 20
861.387401
 30
0.0
 10
3719.560725
 20
861.387401
 30
0.0
 10
3719.560725
 20
848.379588
 30
0.0
  0
SPLINE
  5
255
100
AcDbEntity
  8
Capa_1
 62
7
100
AcDbSpline
 70
8
 71
3
 72
8
 73
4
 74
0
 40
0
 40
0
 40
0
 40
0
 40
1
 40
1
 40
1
 40
1
 10
3744.170100
 20
849.363963
 30
0.0
 10
3743.420100
 20
849.504588
 30
0.0
 10
3742.716975
 20
849.598338
 30
0.0
 10
3742.060725
 20
849.645213
 30
0.0
  0
SPLINE
  5
256
100
AcDbEntity
  8
Capa_1
 62
7
100
AcDbSpline
 70
8
 71
3
 72
8
 73
4
 74
0
 40
0
 40
0
 40
0
 40
0
 40
1
 40
1
 40
1
 40
1
 10
3742.060725
 20
849.645213
 30
0.0
 10
3741.451375
 20
849.692088
 30
0.0
 10
3740.771700
 20
849.715526
 30
0.0
 10
3740.021700
 20
849.715526
 30
0.0
  0
SPLINE
  5
257
100
AcDbEntity
  8
Capa_1
 62
7
100
AcDbSpline
 70
8
 71
3
 72
8
 73
4
 74
0
 40
0
 40
0
 40
0
 40
0
 40
1
 40
1
 40
1
 40
1
 10
3740.021700
 20
849.715526
 30
0.0
 10
3733.646700
 20
849.715526
 30
0.0
 10
3728.748250
 20
847.653026
 30
0.0
 10
3725.326350
 20
843.528026
 30
0.0
  0
SPLINE
  5
258
100
AcDbEntity
  8
Capa_1
 62
7
100
AcDbSpline
 70
8
 71
3
 72
8
 73
4
 74
0
 40
0
 40
0
 40
0
 40
0
 40
1
 40
1
 40
1
 40
1
 10
3725.326350
 20
843.528026
 30
0.0
 10
3721.904500
 20
839.449901
 30
0.0
 10
3720.193575
 20
834.738963
 30
0.0
 10
3720.193575
 20
829.395213
 30
0.0
  0
LWPOLYLINE
  5
259
100
AcDbEntity
  8
Capa_1
 62
7
100
AcDbPolyline
 90
2
 70
0
 10
3744.170100
 20
862.723338
 30
0.0
 10
3744.170100
 20
849.363963
 30
0.0
  0
SPLINE
  5
25a
100
AcDbEntity
  8
Capa_1
 62
7
100
AcDbSpline
 70
8
 71
3
 72
8
 73
4
 74
0
 40
0
 40
0
 40
0
 40
0
 40
1
 40
1
 40
1
 40
1
 10
3763.295100
 20
822.856151
 30
0.0
 10
3763.295100
 20
814.793651
 30
0.0
 10
3765.006050
 20
808.043651
 30
0.0
 10
3768.427950
 20
802.606151
 30
0.0
  0
SPLINE
  5
25b
100
AcDbEntity
  8
Capa_1
 62
7
100
AcDbSpline
 70
8
 71
3
 72
8
 73
4
 74
0
 40
0
 40
0
 40
0
 40
0
 40
1
 40
1
 40
1
 40
1
 10
3768.427950
 20
802.606151
 30
0.0
 10
3771.849800
 20
797.168651
 30
0.0
 10
3777.334175
 20
794.449901
 30
0.0
 10
3784.881075
 20
794.449901
 30
0.0
  0
SPLINE
  5
25c
100
AcDbEntity
  8
Capa_1
 62
7
100
AcDbSpline
 70
8
 71
3
 72
8
 73
4
 74
0
 40
0
 40
0
 40
0
 40
0
 40
1
 40
1
 40
1
 40
1
 10
3784.881075
 20
794.449901
 30
0.0
 10
3790.740425
 20
794.449901
 30
0.0
 10
3795.545100
 20
796.957713
 30
0.0
 10
3799.295100
 20
801.973338
 30
0.0
  0
SPLINE
  5
25d
100
AcDbEntity
  8
Capa_1
 62
7
100
AcDbSpline
 70
8
 71
3
 72
8
 73
4
 74
0
 40
0
 40
0
 40
0
 40
0
 40
1
 40
1
 40
1
 40
1
 10
3799.295100
 20
801.973338
 30
0.0
 10
3803.092000
 20
807.035838
 30
0.0
 10
3804.990450
 20
814.278026
 30
0.0
 10
3804.990450
 20
823.699901
 30
0.0
  0
SPLINE
  5
25e
100
AcDbEntity
  8
Capa_1
 62
7
100
AcDbSpline
 70
8
 71
3
 72
8
 73
4
 74
0
 40
0
 40
0
 40
0
 40
0
 40
1
 40
1
 40
1
 40
1
 10
3804.990450
 20
823.699901
 30
0.0
 10
3804.990450
 20
833.215526
 30
0.0
 10
3803.045125
 20
840.246776
 30
0.0
 10
3799.154475
 20
844.793651
 30
0.0
  0
SPLINE
  5
25f
100
AcDbEntity
  8
Capa_1
 62
7
100
AcDbSpline
 70
8
 71
3
 72
8
 73
4
 74
0
 40
0
 40
0
 40
0
 40
0
 40
1
 40
1
 40
1
 40
1
 10
3799.154475
 20
844.793651
 30
0.0
 10
3795.263875
 20
849.387401
 30
0.0
 10
3790.459200
 20
851.684276
 30
0.0
 10
3784.740450
 20
851.684276
 30
0.0
  0
SPLINE
  5
260
100
AcDbEntity
  8
Capa_1
 62
7
100
AcDbSpline
 70
8
 71
3
 72
8
 73
4
 74
0
 40
0
 40
0
 40
0
 40
0
 40
1
 40
1
 40
1
 40
1
 10
3784.740450
 20
851.684276
 30
0.0
 10
3778.365450
 20
851.684276
 30
0.0
 10
3773.185750
 20
849.246776
 30
0.0
 10
3769.201350
 20
844.371776
 30
0.0
  0
SPLINE
  5
261
100
AcDbEntity
  8
Capa_1
 62
7
100
AcDbSpline
 70
8
 71
3
 72
8
 73
4
 74
0
 40
0
 40
0
 40
0
 40
0
 40
1
 40
1
 40
1
 40
1
 10
3769.201350
 20
844.371776
 30
0.0
 10
3765.263850
 20
839.496776
 30
0.0
 10
3763.295100
 20
832.324901
 30
0.0
 10
3763.295100
 20
822.856151
 30
0.0
  0
LWPOLYLINE
  5
262
100
AcDbEntity
  8
Capa_1
 62
7
100
AcDbPolyline
 90
4
 70
0
 10
3720.193575
 20
829.395213
 30
0.0
 10
3720.193575
 20
786.082713
 30
0.0
 10
3707.537325
 20
786.082713
 30
0.0
 10
3707.537325
 20
861.387401
 30
0.0
  0
SPLINE
  5
263
100
AcDbEntity
  8
Capa_1
 62
7
100
AcDbSpline
 70
8
 71
3
 72
8
 73
4
 74
0
 40
0
 40
0
 40
0
 40
0
 40
1
 40
1
 40
1
 40
1
 10
3782.349825
 20
862.723338
 30
0.0
 10
3788.115425
 20
862.723338
 30
0.0
 10
3792.943550
 20
861.504588
 30
0.0
 10
3796.834200
 20
859.067088
 30
0.0
  0
SPLINE
  5
264
100
AcDbEntity
  8
Capa_1
 62
7
100
AcDbSpline
 70
8
 71
3
 72
8
 73
4
 74
0
 40
0
 40
0
 40
0
 40
0
 40
1
 40
1
 40
1
 40
1
 10
3796.834200
 20
859.067088
 30
0.0
 10
3799.084200
 20
857.660838
 30
0.0
 10
3801.638875
 20
855.199901
 30
0.0
 10
3804.498225
 20
851.684276
 30
0.0
  0
LWPOLYLINE
  5
265
100
AcDbEntity
  8
Capa_1
 62
7
100
AcDbPolyline
 90
1
 70
1
 10
3763.295100
 20
822.856151
 30
0.0
  0
SPLINE
  5
266
100
AcDbEntity
  8
Capa_1
 62
7
100
AcDbSpline
 70
8
 71
3
 72
8
 73
4
 74
0
 40
0
 40
0
 40
0
 40
0
 40
1
 40
1
 40
1
 40
1
 10
3805.271700
 20
796.559276
 30
0.0
 10
3802.318550
 20
791.918651
 30
0.0
 10
3798.826350
 20
788.567088
 30
0.0
 10
3794.795100
 20
786.504588
 30
0.0
  0
SPLINE
  5
267
100
AcDbEntity
  8
Capa_1
 62
7
100
AcDbSpline
 70
8
 71
3
 72
8
 73
4
 74
0
 40
0
 40
0
 40
0
 40
0
 40
1
 40
1
 40
1
 40
1
 10
3794.795100
 20
786.504588
 30
0.0
 10
3790.763850
 20
784.442088
 30
0.0
 10
3786.146675
 20
783.410838
 30
0.0
 10
3780.943575
 20
783.410838
 30
0.0
  0
SPLINE
  5
268
100
AcDbEntity
  8
Capa_1
 62
7
100
AcDbSpline
 70
8
 71
3
 72
8
 73
4
 74
0
 40
0
 40
0
 40
0
 40
0
 40
1
 40
1
 40
1
 40
1
 10
3780.943575
 20
783.410838
 30
0.0
 10
3772.552925
 20
783.410838
 30
0.0
 10
3765.287300
 20
786.926463
 30
0.0
 10
3759.146700
 20
793.957713
 30
0.0
  0
SPLINE
  5
269
100
AcDbEntity
  8
Capa_1
 62
7
100
AcDbSpline
 70
8
 71
3
 72
8
 73
4
 74
0
 40
0
 40
0
 40
0
 40
0
 40
1
 40
1
 40
1
 40
1
 10
3759.146700
 20
793.957713
 30
0.0
 10
3753.006050
 20
801.035838
 30
0.0
 10
3749.935725
 20
810.434276
 30
0.0
 10
3749.935725
 20
822.153026
 30
0.0
  0
SPLINE
  5
26a
100
AcDbEntity
  8
Capa_1
 62
7
100
AcDbSpline
 70
8
 71
3
 72
8
 73
4
 74
0
 40
0
 40
0
 40
0
 40
0
 40
1
 40
1
 40
1
 40
1
 10
3749.935725
 20
822.153026
 30
0.0
 10
3749.935725
 20
833.121776
 30
0.0
 10
3752.724800
 20
842.613963
 30
0.0
 10
3758.302950
 20
850.629588
 30
0.0
  0
SPLINE
  5
26b
100
AcDbEntity
  8
Capa_1
 62
7
100
AcDbSpline
 70
8
 71
3
 72
8
 73
4
 74
0
 40
0
 40
0
 40
0
 40
0
 40
1
 40
1
 40
1
 40
1
 10
3758.302950
 20
850.629588
 30
0.0
 10
3763.927950
 20
858.692088
 30
0.0
 10
3771.943575
 20
862.723338
 30
0.0
 10
3782.349825
 20
862.723338
 30
0.0
  0
LWPOLYLINE
  5
26c
100
AcDbEntity
  8
Capa_1
 62
7
100
AcDbPolyline
 90
6
 70
0
 10
3804.498225
 20
851.684276
 30
0.0
 10
3804.498225
 20
889.723338
 30
0.0
 10
3816.662325
 20
889.723338
 30
0.0
 10
3816.662325
 20
786.082713
 30
0.0
 10
3805.271700
 20
786.082713
 30
0.0
 10
3805.271700
 20
796.559276
 30
0.0
  0
LWPOLYLINE
  5
26d
100
AcDbEntity
  8
Capa_1
 62
7
100
AcDbPolyline
 90
1
 70
1
 10
3782.349825
 20
862.723338
 30
0.0
  0
LWPOLYLINE
  5
26e
100
AcDbEntity
  8
Capa_1
 62
7
100
AcDbPolyline
 90
12
 70
1
 10
3272.865225
 20
-900.843836
 30
0.0
 10
3348.169950
 20
-900.843836
 30
0.0
 10
3348.169950
 20
-913.500086
 30
0.0
 10
3286.505850
 20
-913.500086
 30
0.0
 10
3286.505850
 20
-944.859461
 30
0.0
 10
3343.529325
 20
-944.859461
 30
0.0
 10
3343.529325
 20
-956.812586
 30
0.0
 10
3286.505850
 20
-956.812586
 30
0.0
 10
3286.505850
 20
-991.828211
 30
0.0
 10
3349.224600
 20
-991.828211
 30
0.0
 10
3349.224600
 20
-1004.132861
 30
0.0
 10
3272.865225
 20
-1004.132861
 30
0.0
  0
LWPOLYLINE
  5
26f
100
AcDbEntity
  8
Capa_1
 62
7
100
AcDbPolyline
 90
1
 70
1
 10
3311.044950
 20
-900.843836
 30
0.0
  0
SPLINE
  5
270
100
AcDbEntity
  8
Capa_1
 62
7
100
AcDbSpline
 70
8
 71
3
 72
8
 73
4
 74
0
 40
0
 40
0
 40
0
 40
0
 40
1
 40
1
 40
1
 40
1
 10
3378.052725
 20
-939.515711
 30
0.0
 10
3381.615225
 20
-935.109461
 30
0.0
 10
3385.388675
 20
-931.945386
 30
0.0
 10
3389.373075
 20
-930.023486
 30
0.0
  0
SPLINE
  5
271
100
AcDbEntity
  8
Capa_1
 62
7
100
AcDbSpline
 70
8
 71
3
 72
8
 73
4
 74
0
 40
0
 40
0
 40
0
 40
0
 40
1
 40
1
 40
1
 40
1
 10
3389.373075
 20
-930.023486
 30
0.0
 10
3393.357425
 20
-928.101636
 30
0.0
 10
3397.787100
 20
-927.140711
 30
0.0
 10
3402.662100
 20
-927.140711
 30
0.0
  0
SPLINE
  5
272
100
AcDbEntity
  8
Capa_1
 62
7
100
AcDbSpline
 70
8
 71
3
 72
8
 73
4
 74
0
 40
0
 40
0
 40
0
 40
0
 40
1
 40
1
 40
1
 40
1
 10
3402.662100
 20
-927.140711
 30
0.0
 10
3413.349600
 20
-927.140711
 30
0.0
 10
3420.568350
 20
-930.867261
 30
0.0
 10
3424.318350
 20
-938.320361
 30
0.0
  0
SPLINE
  5
273
100
AcDbEntity
  8
Capa_1
 62
7
100
AcDbSpline
 70
8
 71
3
 72
8
 73
4
 74
0
 40
0
 40
0
 40
0
 40
0
 40
1
 40
1
 40
1
 40
1
 10
3424.318350
 20
-938.320361
 30
0.0
 10
3426.380850
 20
-942.398511
 30
0.0
 10
3427.412100
 20
-948.234461
 30
0.0
 10
3427.412100
 20
-955.828211
 30
0.0
  0
LWPOLYLINE
  5
274
100
AcDbEntity
  8
Capa_1
 62
7
100
AcDbPolyline
 90
3
 70
0
 10
3366.029325
 20
-928.828211
 30
0.0
 10
3378.052725
 20
-928.828211
 30
0.0
 10
3378.052725
 20
-939.515711
 30
0.0
  0
SPLINE
  5
275
100
AcDbEntity
  8
Capa_1
 62
7
100
AcDbSpline
 70
8
 71
3
 72
8
 73
4
 74
0
 40
0
 40
0
 40
0
 40
0
 40
1
 40
1
 40
1
 40
1
 10
3414.544950
 20
-956.671961
 30
0.0
 10
3414.544950
 20
-952.078211
 30
0.0
 10
3413.865250
 20
-948.375086
 30
0.0
 10
3412.505850
 20
-945.562586
 30
0.0
  0
SPLINE
  5
276
100
AcDbEntity
  8
Capa_1
 62
7
100
AcDbSpline
 70
8
 71
3
 72
8
 73
4
 74
0
 40
0
 40
0
 40
0
 40
0
 40
1
 40
1
 40
1
 40
1
 10
3412.505850
 20
-945.562586
 30
0.0
 10
3410.255850
 20
-940.875086
 30
0.0
 10
3406.177725
 20
-938.531336
 30
0.0
 10
3400.271475
 20
-938.531336
 30
0.0
  0
SPLINE
  5
277
100
AcDbEntity
  8
Capa_1
 62
7
100
AcDbSpline
 70
8
 71
3
 72
8
 73
4
 74
0
 40
0
 40
0
 40
0
 40
0
 40
1
 40
1
 40
1
 40
1
 10
3400.271475
 20
-938.531336
 30
0.0
 10
3397.271475
 20
-938.531336
 30
0.0
 10
3394.810550
 20
-938.836011
 30
0.0
 10
3392.888700
 20
-939.445361
 30
0.0
  0
SPLINE
  5
278
100
AcDbEntity
  8
Capa_1
 62
7
100
AcDbSpline
 70
8
 71
3
 72
8
 73
4
 74
0
 40
0
 40
0
 40
0
 40
0
 40
1
 40
1
 40
1
 40
1
 10
3392.888700
 20
-939.445361
 30
0.0
 10
3389.419950
 20
-940.476611
 30
0.0
 10
3386.373075
 20
-942.539111
 30
0.0
 10
3383.748075
 20
-945.632861
 30
0.0
  0
SPLINE
  5
279
100
AcDbEntity
  8
Capa_1
 62
7
100
AcDbSpline
 70
8
 71
3
 72
8
 73
4
 74
0
 40
0
 40
0
 40
0
 40
0
 40
1
 40
1
 40
1
 40
1
 10
3383.748075
 20
-945.632861
 30
0.0
 10
3381.638675
 20
-948.117261
 30
0.0
 10
3380.255850
 20
-950.695386
 30
0.0
 10
3379.599600
 20
-953.367236
 30
0.0
  0
SPLINE
  5
27a
100
AcDbEntity
  8
Capa_1
 62
7
100
AcDbSpline
 70
8
 71
3
 72
8
 73
4
 74
0
 40
0
 40
0
 40
0
 40
0
 40
1
 40
1
 40
1
 40
1
 10
3379.599600
 20
-953.367236
 30
0.0
 10
3378.990250
 20
-955.992236
 30
0.0
 10
3378.685575
 20
-959.765686
 30
0.0
 10
3378.685575
 20
-964.687586
 30
0.0
  0
LWPOLYLINE
  5
27b
100
AcDbEntity
  8
Capa_1
 62
7
100
AcDbPolyline
 90
4
 70
0
 10
3427.412100
 20
-955.828211
 30
0.0
 10
3427.412100
 20
-1004.132861
 30
0.0
 10
3414.544950
 20
-1004.132861
 30
0.0
 10
3414.544950
 20
-956.671961
 30
0.0
  0
LWPOLYLINE
  5
27c
100
AcDbEntity
  8
Capa_1
 62
7
100
AcDbPolyline
 90
4
 70
0
 10
3378.685575
 20
-964.687586
 30
0.0
 10
3378.685575
 20
-1004.132861
 30
0.0
 10
3366.029325
 20
-1004.132861
 30
0.0
 10
3366.029325
 20
-928.828211
 30
0.0
  0
SPLINE
  5
27d
100
AcDbEntity
  8
Capa_1
 62
7
100
AcDbSpline
 70
8
 71
3
 72
8
 73
4
 74
0
 40
0
 40
0
 40
0
 40
0
 40
1
 40
1
 40
1
 40
1
 10
3454.201200
 20
-967.359461
 30
0.0
 10
3454.201200
 20
-975.421961
 30
0.0
 10
3455.912125
 20
-982.171961
 30
0.0
 10
3459.333975
 20
-987.609461
 30
0.0
  0
SPLINE
  5
27e
100
AcDbEntity
  8
Capa_1
 62
7
100
AcDbSpline
 70
8
 71
3
 72
8
 73
4
 74
0
 40
0
 40
0
 40
0
 40
0
 40
1
 40
1
 40
1
 40
1
 10
3459.333975
 20
-987.609461
 30
0.0
 10
3462.755875
 20
-993.046961
 30
0.0
 10
3468.240250
 20
-995.765711
 30
0.0
 10
3475.787100
 20
-995.765711
 30
0.0
  0
SPLINE
  5
27f
100
AcDbEntity
  8
Capa_1
 62
7
100
AcDbSpline
 70
8
 71
3
 72
8
 73
4
 74
0
 40
0
 40
0
 40
0
 40
0
 40
1
 40
1
 40
1
 40
1
 10
3475.787100
 20
-995.765711
 30
0.0
 10
3481.646500
 20
-995.765711
 30
0.0
 10
3486.451200
 20
-993.257886
 30
0.0
 10
3490.201200
 20
-988.242236
 30
0.0
  0
SPLINE
  5
280
100
AcDbEntity
  8
Capa_1
 62
7
100
AcDbSpline
 70
8
 71
3
 72
8
 73
4
 74
0
 40
0
 40
0
 40
0
 40
0
 40
1
 40
1
 40
1
 40
1
 10
3490.201200
 20
-988.242236
 30
0.0
 10
3493.998050
 20
-983.179736
 30
0.0
 10
3495.896475
 20
-975.937561
 30
0.0
 10
3495.896475
 20
-966.515711
 30
0.0
  0
SPLINE
  5
281
100
AcDbEntity
  8
Capa_1
 62
7
100
AcDbSpline
 70
8
 71
3
 72
8
 73
4
 74
0
 40
0
 40
0
 40
0
 40
0
 40
1
 40
1
 40
1
 40
1
 10
3495.896475
 20
-966.515711
 30
0.0
 10
3495.896475
 20
-957.000061
 30
0.0
 10
3493.951175
 20
-949.968811
 30
0.0
 10
3490.060575
 20
-945.421961
 30
0.0
  0
SPLINE
  5
282
100
AcDbEntity
  8
Capa_1
 62
7
100
AcDbSpline
 70
8
 71
3
 72
8
 73
4
 74
0
 40
0
 40
0
 40
0
 40
0
 40
1
 40
1
 40
1
 40
1
 10
3490.060575
 20
-945.421961
 30
0.0
 10
3486.169925
 20
-940.828211
 30
0.0
 10
3481.365225
 20
-938.531336
 30
0.0
 10
3475.646475
 20
-938.531336
 30
0.0
  0
SPLINE
  5
283
100
AcDbEntity
  8
Capa_1
 62
7
100
AcDbSpline
 70
8
 71
3
 72
8
 73
4
 74
0
 40
0
 40
0
 40
0
 40
0
 40
1
 40
1
 40
1
 40
1
 10
3475.646475
 20
-938.531336
 30
0.0
 10
3469.271475
 20
-938.531336
 30
0.0
 10
3464.091800
 20
-940.968836
 30
0.0
 10
3460.107450
 20
-945.843836
 30
0.0
  0
SPLINE
  5
284
100
AcDbEntity
  8
Capa_1
 62
7
100
AcDbSpline
 70
8
 71
3
 72
8
 73
4
 74
0
 40
0
 40
0
 40
0
 40
0
 40
1
 40
1
 40
1
 40
1
 10
3460.107450
 20
-945.843836
 30
0.0
 10
3456.169950
 20
-950.718836
 30
0.0
 10
3454.201200
 20
-957.890711
 30
0.0
 10
3454.201200
 20
-967.359461
 30
0.0
  0
LWPOLYLINE
  5
285
100
AcDbEntity
  8
Capa_1
 62
7
100
AcDbPolyline
 90
1
 70
1
 10
3395.771475
 20
-927.000086
 30
0.0
  0
SPLINE
  5
286
100
AcDbEntity
  8
Capa_1
 62
7
100
AcDbSpline
 70
8
 71
3
 72
8
 73
4
 74
0
 40
0
 40
0
 40
0
 40
0
 40
1
 40
1
 40
1
 40
1
 10
3473.255850
 20
-927.492236
 30
0.0
 10
3479.021500
 20
-927.492236
 30
0.0
 10
3483.849625
 20
-928.710986
 30
0.0
 10
3487.740225
 20
-931.148486
 30
0.0
  0
SPLINE
  5
287
100
AcDbEntity
  8
Capa_1
 62
7
100
AcDbSpline
 70
8
 71
3
 72
8
 73
4
 74
0
 40
0
 40
0
 40
0
 40
0
 40
1
 40
1
 40
1
 40
1
 10
3487.740225
 20
-931.148486
 30
0.0
 10
3489.990225
 20
-932.554736
 30
0.0
 10
3492.544925
 20
-935.015686
 30
0.0
 10
3495.404325
 20
-938.531336
 30
0.0
  0
LWPOLYLINE
  5
288
100
AcDbEntity
  8
Capa_1
 62
7
100
AcDbPolyline
 90
1
 70
1
 10
3454.201200
 20
-967.359461
 30
0.0
  0
SPLINE
  5
289
100
AcDbEntity
  8
Capa_1
 62
7
100
AcDbSpline
 70
8
 71
3
 72
8
 73
4
 74
0
 40
0
 40
0
 40
0
 40
0
 40
1
 40
1
 40
1
 40
1
 10
3496.177725
 20
-993.656336
 30
0.0
 10
3493.224625
 20
-998.296936
 30
0.0
 10
3489.732450
 20
-1001.648486
 30
0.0
 10
3485.701200
 20
-1003.710986
 30
0.0
  0
SPLINE
  5
28a
100
AcDbEntity
  8
Capa_1
 62
7
100
AcDbSpline
 70
8
 71
3
 72
8
 73
4
 74
0
 40
0
 40
0
 40
0
 40
0
 40
1
 40
1
 40
1
 40
1
 10
3485.701200
 20
-1003.710986
 30
0.0
 10
3481.669950
 20
-1005.773486
 30
0.0
 10
3477.052750
 20
-1006.804736
 30
0.0
 10
3471.849600
 20
-1006.804736
 30
0.0
  0
SPLINE
  5
28b
100
AcDbEntity
  8
Capa_1
 62
7
100
AcDbSpline
 70
8
 71
3
 72
8
 73
4
 74
0
 40
0
 40
0
 40
0
 40
0
 40
1
 40
1
 40
1
 40
1
 10
3471.849600
 20
-1006.804736
 30
0.0
 10
3463.459000
 20
-1006.804736
 30
0.0
 10
3456.193375
 20
-1003.289111
 30
0.0
 10
3450.052725
 20
-996.257861
 30
0.0
  0
SPLINE
  5
28c
100
AcDbEntity
  8
Capa_1
 62
7
100
AcDbSpline
 70
8
 71
3
 72
8
 73
4
 74
0
 40
0
 40
0
 40
0
 40
0
 40
1
 40
1
 40
1
 40
1
 10
3450.052725
 20
-996.257861
 30
0.0
 10
3443.912125
 20
-989.179761
 30
0.0
 10
3440.841825
 20
-979.781336
 30
0.0
 10
3440.841825
 20
-968.062586
 30
0.0
  0
SPLINE
  5
28d
100
AcDbEntity
  8
Capa_1
 62
7
100
AcDbSpline
 70
8
 71
3
 72
8
 73
4
 74
0
 40
0
 40
0
 40
0
 40
0
 40
1
 40
1
 40
1
 40
1
 10
3440.841825
 20
-968.062586
 30
0.0
 10
3440.841825
 20
-957.093836
 30
0.0
 10
3443.630875
 20
-947.601636
 30
0.0
 10
3449.208975
 20
-939.585986
 30
0.0
  0
SPLINE
  5
28e
100
AcDbEntity
  8
Capa_1
 62
7
100
AcDbSpline
 70
8
 71
3
 72
8
 73
4
 74
0
 40
0
 40
0
 40
0
 40
0
 40
1
 40
1
 40
1
 40
1
 10
3449.208975
 20
-939.585986
 30
0.0
 10
3454.833975
 20
-931.523486
 30
0.0
 10
3462.849600
 20
-927.492236
 30
0.0
 10
3473.255850
 20
-927.492236
 30
0.0
  0
LWPOLYLINE
  5
28f
100
AcDbEntity
  8
Capa_1
 62
7
100
AcDbPolyline
 90
6
 70
0
 10
3495.404325
 20
-938.531336
 30
0.0
 10
3495.404325
 20
-900.492236
 30
0.0
 10
3507.568350
 20
-900.492236
 30
0.0
 10
3507.568350
 20
-1004.132861
 30
0.0
 10
3496.177725
 20
-1004.132861
 30
0.0
 10
3496.177725
 20
-993.656336
 30
0.0
  0
SPLINE
  5
290
100
AcDbEntity
  8
Capa_1
 62
7
100
AcDbSpline
 70
8
 71
3
 72
8
 73
4
 74
0
 40
0
 40
0
 40
0
 40
0
 40
1
 40
1
 40
1
 40
1
 10
1867.398750
 20
-971.754011
 30
0.0
 10
1867.726850
 20
-977.613361
 30
0.0
 10
1869.109650
 20
-982.371161
 30
0.0
 10
1871.547150
 20
-986.027411
 30
0.0
  0
SPLINE
  5
291
100
AcDbEntity
  8
Capa_1
 62
7
100
AcDbSpline
 70
8
 71
3
 72
8
 73
4
 74
0
 40
0
 40
0
 40
0
 40
0
 40
1
 40
1
 40
1
 40
1
 10
1871.547150
 20
-986.027411
 30
0.0
 10
1876.187800
 20
-992.871161
 30
0.0
 10
1884.367500
 20
-996.293036
 30
0.0
 10
1896.086250
 20
-996.293036
 30
0.0
  0
SPLINE
  5
292
100
AcDbEntity
  8
Capa_1
 62
7
100
AcDbSpline
 70
8
 71
3
 72
8
 73
4
 74
0
 40
0
 40
0
 40
0
 40
0
 40
1
 40
1
 40
1
 40
1
 10
1896.086250
 20
-996.293036
 30
0.0
 10
1901.336250
 20
-996.293036
 30
0.0
 10
1906.117500
 20
-995.543036
 30
0.0
 10
1910.430000
 20
-994.043036
 30
0.0
  0
SPLINE
  5
293
100
AcDbEntity
  8
Capa_1
 62
7
100
AcDbSpline
 70
8
 71
3
 72
8
 73
4
 74
0
 40
0
 40
0
 40
0
 40
0
 40
1
 40
1
 40
1
 40
1
 10
1910.430000
 20
-994.043036
 30
0.0
 10
1918.773750
 20
-991.136786
 30
0.0
 10
1922.945625
 20
-985.933661
 30
0.0
 10
1922.945625
 20
-978.433661
 30
0.0
  0
SPLINE
  5
294
100
AcDbEntity
  8
Capa_1
 62
7
100
AcDbSpline
 70
8
 71
3
 72
8
 73
4
 74
0
 40
0
 40
0
 40
0
 40
0
 40
1
 40
1
 40
1
 40
1
 10
1922.945625
 20
-978.433661
 30
0.0
 10
1922.945625
 20
-972.808661
 30
0.0
 10
1921.187800
 20
-968.800861
 30
0.0
 10
1917.672150
 20
-966.410261
 30
0.0
  0
SPLINE
  5
295
100
AcDbEntity
  8
Capa_1
 62
7
100
AcDbSpline
 70
8
 71
3
 72
8
 73
4
 74
0
 40
0
 40
0
 40
0
 40
0
 40
1
 40
1
 40
1
 40
1
 10
1917.672150
 20
-966.410261
 30
0.0
 10
1914.109650
 20
-964.066511
 30
0.0
 10
1908.531525
 20
-962.027436
 30
0.0
 10
1900.937775
 20
-960.293036
 30
0.0
  0
LWPOLYLINE
  5
296
100
AcDbEntity
  8
Capa_1
 62
7
100
AcDbPolyline
 90
1
 70
1
 10
3473.255850
 20
-927.492236
 30
0.0
  0
SPLINE
  5
297
100
AcDbEntity
  8
Capa_1
 62
7
100
AcDbSpline
 70
8
 71
3
 72
8
 73
4
 74
0
 40
0
 40
0
 40
0
 40
0
 40
1
 40
1
 40
1
 40
1
 10
1886.945625
 20
-957.129011
 30
0.0
 10
1877.804975
 20
-955.066511
 30
0.0
 10
1871.336225
 20
-952.793061
 30
0.0
 10
1867.539375
 20
-950.308661
 30
0.0
  0
SPLINE
  5
298
100
AcDbEntity
  8
Capa_1
 62
7
100
AcDbSpline
 70
8
 71
3
 72
8
 73
4
 74
0
 40
0
 40
0
 40
0
 40
0
 40
1
 40
1
 40
1
 40
1
 10
1867.539375
 20
-950.308661
 30
0.0
 10
1860.976875
 20
-945.996161
 30
0.0
 10
1857.695625
 20
-939.550861
 30
0.0
 10
1857.695625
 20
-930.972761
 30
0.0
  0
SPLINE
  5
299
100
AcDbEntity
  8
Capa_1
 62
7
100
AcDbSpline
 70
8
 71
3
 72
8
 73
4
 74
0
 40
0
 40
0
 40
0
 40
0
 40
1
 40
1
 40
1
 40
1
 10
1857.695625
 20
-930.972761
 30
0.0
 10
1857.695625
 20
-921.691511
 30
0.0
 10
1860.906550
 20
-914.074311
 30
0.0
 10
1867.328400
 20
-908.121161
 30
0.0
  0
SPLINE
  5
29a
100
AcDbEntity
  8
Capa_1
 62
7
100
AcDbSpline
 70
8
 71
3
 72
8
 73
4
 74
0
 40
0
 40
0
 40
0
 40
0
 40
1
 40
1
 40
1
 40
1
 10
1867.328400
 20
-908.121161
 30
0.0
 10
1873.750300
 20
-902.168061
 30
0.0
 10
1882.844050
 20
-899.191511
 30
0.0
 10
1894.609650
 20
-899.191511
 30
0.0
  0
SPLINE
  5
29b
100
AcDbEntity
  8
Capa_1
 62
7
100
AcDbSpline
 70
8
 71
3
 72
8
 73
4
 74
0
 40
0
 40
0
 40
0
 40
0
 40
1
 40
1
 40
1
 40
1
 10
1894.609650
 20
-899.191511
 30
0.0
 10
1905.437800
 20
-899.191511
 30
0.0
 10
1914.625300
 20
-901.816511
 30
0.0
 10
1922.172150
 20
-907.066511
 30
0.0
  0
SPLINE
  5
29c
100
AcDbEntity
  8
Capa_1
 62
7
100
AcDbSpline
 70
8
 71
3
 72
8
 73
4
 74
0
 40
0
 40
0
 40
0
 40
0
 40
1
 40
1
 40
1
 40
1
 10
1922.172150
 20
-907.066511
 30
0.0
 10
1929.765900
 20
-912.269611
 30
0.0
 10
1933.562775
 20
-920.613361
 30
0.0
 10
1933.562775
 20
-932.097761
 30
0.0
  0
LWPOLYLINE
  5
29d
100
AcDbEntity
  8
Capa_1
 62
7
100
AcDbPolyline
 90
2
 70
0
 10
1900.937775
 20
-960.293036
 30
0.0
 10
1886.945625
 20
-957.129011
 30
0.0
  0
SPLINE
  5
29e
100
AcDbEntity
  8
Capa_1
 62
7
100
AcDbSpline
 70
8
 71
3
 72
8
 73
4
 74
0
 40
0
 40
0
 40
0
 40
0
 40
1
 40
1
 40
1
 40
1
 10
1920.414375
 20
-932.097761
 30
0.0
 10
1919.711225
 20
-926.566511
 30
0.0
 10
1918.211225
 20
-922.324311
 30
0.0
 10
1915.914375
 20
-919.371161
 30
0.0
  0
SPLINE
  5
29f
100
AcDbEntity
  8
Capa_1
 62
7
100
AcDbSpline
 70
8
 71
3
 72
8
 73
4
 74
0
 40
0
 40
0
 40
0
 40
0
 40
1
 40
1
 40
1
 40
1
 10
1915.914375
 20
-919.371161
 30
0.0
 10
1911.648725
 20
-913.980561
 30
0.0
 10
1904.406525
 20
-911.285261
 30
0.0
 10
1894.187775
 20
-911.285261
 30
0.0
  0
SPLINE
  5
2a0
100
AcDbEntity
  8
Capa_1
 62
7
100
AcDbSpline
 70
8
 71
3
 72
8
 73
4
 74
0
 40
0
 40
0
 40
0
 40
0
 40
1
 40
1
 40
1
 40
1
 10
1894.187775
 20
-911.285261
 30
0.0
 10
1885.937775
 20
-911.285261
 30
0.0
 10
1880.008100
 20
-913.019636
 30
0.0
 10
1876.398750
 20
-916.488386
 30
0.0
  0
SPLINE
  5
2a1
100
AcDbEntity
  8
Capa_1
 62
7
100
AcDbSpline
 70
8
 71
3
 72
8
 73
4
 74
0
 40
0
 40
0
 40
0
 40
0
 40
1
 40
1
 40
1
 40
1
 10
1876.398750
 20
-916.488386
 30
0.0
 10
1872.789350
 20
-919.957136
 30
0.0
 10
1870.984650
 20
-923.988386
 30
0.0
 10
1870.984650
 20
-928.582136
 30
0.0
  0
SPLINE
  5
2a2
100
AcDbEntity
  8
Capa_1
 62
7
100
AcDbSpline
 70
8
 71
3
 72
8
 73
4
 74
0
 40
0
 40
0
 40
0
 40
0
 40
1
 40
1
 40
1
 40
1
 10
1870.984650
 20
-928.582136
 30
0.0
 10
1870.984650
 20
-933.644636
 30
0.0
 10
1873.094025
 20
-937.347761
 30
0.0
 10
1877.312775
 20
-939.691511
 30
0.0
  0
SPLINE
  5
2a3
100
AcDbEntity
  8
Capa_1
 62
7
100
AcDbSpline
 70
8
 71
3
 72
8
 73
4
 74
0
 40
0
 40
0
 40
0
 40
0
 40
1
 40
1
 40
1
 40
1
 10
1877.312775
 20
-939.691511
 30
0.0
 10
1880.078425
 20
-941.191511
 30
0.0
 10
1886.336250
 20
-943.066511
 30
0.0
 10
1896.086250
 20
-945.316511
 30
0.0
  0
LWPOLYLINE
  5
2a4
100
AcDbEntity
  8
Capa_1
 62
7
100
AcDbPolyline
 90
2
 70
0
 10
1933.562775
 20
-932.097761
 30
0.0
 10
1920.414375
 20
-932.097761
 30
0.0
  0
SPLINE
  5
2a5
100
AcDbEntity
  8
Capa_1
 62
7
100
AcDbSpline
 70
8
 71
3
 72
8
 73
4
 74
0
 40
0
 40
0
 40
0
 40
0
 40
1
 40
1
 40
1
 40
1
 10
1910.570625
 20
-948.621161
 30
0.0
 10
1917.554975
 20
-950.214911
 30
0.0
 10
1922.945600
 20
-952.394611
 30
0.0
 10
1926.742500
 20
-955.160261
 30
0.0
  0
SPLINE
  5
2a6
100
AcDbEntity
  8
Capa_1
 62
7
100
AcDbSpline
 70
8
 71
3
 72
8
 73
4
 74
0
 40
0
 40
0
 40
0
 40
0
 40
1
 40
1
 40
1
 40
1
 10
1926.742500
 20
-955.160261
 30
0.0
 10
1933.305000
 20
-959.988361
 30
0.0
 10
1936.586250
 20
-966.996161
 30
0.0
 10
1936.586250
 20
-976.183661
 30
0.0
  0
SPLINE
  5
2a7
100
AcDbEntity
  8
Capa_1
 62
7
100
AcDbSpline
 70
8
 71
3
 72
8
 73
4
 74
0
 40
0
 40
0
 40
0
 40
0
 40
1
 40
1
 40
1
 40
1
 10
1936.586250
 20
-976.183661
 30
0.0
 10
1936.586250
 20
-987.621161
 30
0.0
 10
1932.414375
 20
-995.800861
 30
0.0
 10
1924.070625
 20
-1000.722761
 30
0.0
  0
SPLINE
  5
2a8
100
AcDbEntity
  8
Capa_1
 62
7
100
AcDbSpline
 70
8
 71
3
 72
8
 73
4
 74
0
 40
0
 40
0
 40
0
 40
0
 40
1
 40
1
 40
1
 40
1
 10
1924.070625
 20
-1000.722761
 30
0.0
 10
1915.773725
 20
-1005.644611
 30
0.0
 10
1906.117475
 20
-1008.105536
 30
0.0
 10
1895.101875
 20
-1008.105536
 30
0.0
  0
SPLINE
  5
2a9
100
AcDbEntity
  8
Capa_1
 62
7
100
AcDbSpline
 70
8
 71
3
 72
8
 73
4
 74
0
 40
0
 40
0
 40
0
 40
0
 40
1
 40
1
 40
1
 40
1
 10
1895.101875
 20
-1008.105536
 30
0.0
 10
1882.258125
 20
-1008.105536
 30
0.0
 10
1872.203425
 20
-1004.824286
 30
0.0
 10
1864.937775
 20
-998.261786
 30
0.0
  0
SPLINE
  5
2aa
100
AcDbEntity
  8
Capa_1
 62
7
100
AcDbSpline
 70
8
 71
3
 72
8
 73
4
 74
0
 40
0
 40
0
 40
0
 40
0
 40
1
 40
1
 40
1
 40
1
 10
1864.937775
 20
-998.261786
 30
0.0
 10
1857.672175
 20
-991.746186
 30
0.0
 10
1854.109675
 20
-982.910261
 30
0.0
 10
1854.250275
 20
-971.754011
 30
0.0
  0
LWPOLYLINE
  5
2ab
100
AcDbEntity
  8
Capa_1
 62
7
100
AcDbPolyline
 90
2
 70
0
 10
1896.086250
 20
-945.316511
 30
0.0
 10
1910.570625
 20
-948.621161
 30
0.0
  0
LWPOLYLINE
  5
2ac
100
AcDbEntity
  8
Capa_1
 62
7
100
AcDbPolyline
 90
2
 70
0
 10
1854.250275
 20
-971.754011
 30
0.0
 10
1867.398750
 20
-971.754011
 30
0.0
  0
LWPOLYLINE
  5
2ad
100
AcDbEntity
  8
Capa_1
 62
7
100
AcDbPolyline
 90
1
 70
1
 10
1895.664375
 20
-898.980536
 30
0.0
  0
SPLINE
  5
2ae
100
AcDbEntity
  8
Capa_1
 62
7
100
AcDbSpline
 70
8
 71
3
 72
8
 73
4
 74
0
 40
0
 40
0
 40
0
 40
0
 40
1
 40
1
 40
1
 40
1
 10
1968.086250
 20
-989.261786
 30
0.0
 10
1968.086250
 20
-991.886786
 30
0.0
 10
1968.976875
 20
-993.644611
 30
0.0
 10
1970.758125
 20
-994.535261
 30
0.0
  0
SPLINE
  5
2af
100
AcDbEntity
  8
Capa_1
 62
7
100
AcDbSpline
 70
8
 71
3
 72
8
 73
4
 74
0
 40
0
 40
0
 40
0
 40
0
 40
1
 40
1
 40
1
 40
1
 10
1970.758125
 20
-994.535261
 30
0.0
 10
1971.742475
 20
-995.050861
 30
0.0
 10
1973.383100
 20
-995.308661
 30
0.0
 10
1975.680000
 20
-995.308661
 30
0.0
  0
SPLINE
  5
2b0
100
AcDbEntity
  8
Capa_1
 62
7
100
AcDbSpline
 70
8
 71
3
 72
8
 73
4
 74
0
 40
0
 40
0
 40
0
 40
0
 40
1
 40
1
 40
1
 40
1
 10
1975.680000
 20
-995.308661
 30
0.0
 10
1976.289350
 20
-995.308661
 30
0.0
 10
1976.945600
 20
-995.308661
 30
0.0
 10
1977.648750
 20
-995.308661
 30
0.0
  0
SPLINE
  5
2b1
100
AcDbEntity
  8
Capa_1
 62
7
100
AcDbSpline
 70
8
 71
3
 72
8
 73
4
 74
0
 40
0
 40
0
 40
0
 40
0
 40
1
 40
1
 40
1
 40
1
 10
1977.648750
 20
-995.308661
 30
0.0
 10
1978.351850
 20
-995.261661
 30
0.0
 10
1979.172150
 20
-995.191361
 30
0.0
 10
1980.109650
 20
-995.097761
 30
0.0
  0
LWPOLYLINE
  5
2b2
100
AcDbEntity
  8
Capa_1
 62
7
100
AcDbPolyline
 90
7
 70
0
 10
1955.289375
 20
-908.754011
 30
0.0
 10
1968.086250
 20
-908.754011
 30
0.0
 10
1968.086250
 20
-929.777411
 30
0.0
 10
1980.109650
 20
-929.777411
 30
0.0
 10
1980.109650
 20
-940.113386
 30
0.0
 10
1968.086250
 20
-940.113386
 30
0.0
 10
1968.086250
 20
-989.261786
 30
0.0
  0
SPLINE
  5
2b3
100
AcDbEntity
  8
Capa_1
 62
7
100
AcDbSpline
 70
8
 71
3
 72
8
 73
4
 74
0
 40
0
 40
0
 40
0
 40
0
 40
1
 40
1
 40
1
 40
1
 10
1980.109650
 20
-1005.082136
 30
0.0
 10
1978.656550
 20
-1005.503986
 30
0.0
 10
1977.133125
 20
-1005.808661
 30
0.0
 10
1975.539375
 20
-1005.996161
 30
0.0
  0
SPLINE
  5
2b4
100
AcDbEntity
  8
Capa_1
 62
7
100
AcDbSpline
 70
8
 71
3
 72
8
 73
4
 74
0
 40
0
 40
0
 40
0
 40
0
 40
1
 40
1
 40
1
 40
1
 10
1975.539375
 20
-1005.996161
 30
0.0
 10
1973.992475
 20
-1006.183661
 30
0.0
 10
1972.304975
 20
-1006.277411
 30
0.0
 10
1970.476875
 20
-1006.277411
 30
0.0
  0
SPLINE
  5
2b5
100
AcDbEntity
  8
Capa_1
 62
7
100
AcDbSpline
 70
8
 71
3
 72
8
 73
4
 74
0
 40
0
 40
0
 40
0
 40
0
 40
1
 40
1
 40
1
 40
1
 10
1970.476875
 20
-1006.277411
 30
0.0
 10
1964.570625
 20
-1006.277411
 30
0.0
 10
1960.562800
 20
-1004.777411
 30
0.0
 10
1958.453400
 20
-1001.777411
 30
0.0
  0
SPLINE
  5
2b6
100
AcDbEntity
  8
Capa_1
 62
7
100
AcDbSpline
 70
8
 71
3
 72
8
 73
4
 74
0
 40
0
 40
0
 40
0
 40
0
 40
1
 40
1
 40
1
 40
1
 10
1958.453400
 20
-1001.777411
 30
0.0
 10
1956.344050
 20
-998.730561
 30
0.0
 10
1955.289375
 20
-994.793061
 30
0.0
 10
1955.289375
 20
-989.964911
 30
0.0
  0
LWPOLYLINE
  5
2b7
100
AcDbEntity
  8
Capa_1
 62
7
100
AcDbPolyline
 90
2
 70
0
 10
1980.109650
 20
-995.097761
 30
0.0
 10
1980.109650
 20
-1005.082136
 30
0.0
  0
SPLINE
  5
2b8
100
AcDbEntity
  8
Capa_1
 62
7
100
AcDbSpline
 70
8
 71
3
 72
8
 73
4
 74
0
 40
0
 40
0
 40
0
 40
0
 40
1
 40
1
 40
1
 40
1
 10
2002.398750
 20
-985.043036
 30
0.0
 10
2002.398750
 20
-988.699286
 30
0.0
 10
2003.734675
 20
-991.582111
 30
0.0
 10
2006.406525
 20
-993.691511
 30
0.0
  0
SPLINE
  5
2b9
100
AcDbEntity
  8
Capa_1
 62
7
100
AcDbSpline
 70
8
 71
3
 72
8
 73
4
 74
0
 40
0
 40
0
 40
0
 40
0
 40
1
 40
1
 40
1
 40
1
 10
2006.406525
 20
-993.691511
 30
0.0
 10
2009.078425
 20
-995.800861
 30
0.0
 10
2012.242500
 20
-996.855536
 30
0.0
 10
2015.898750
 20
-996.855536
 30
0.0
  0
SPLINE
  5
2ba
100
AcDbEntity
  8
Capa_1
 62
7
100
AcDbSpline
 70
8
 71
3
 72
8
 73
4
 74
0
 40
0
 40
0
 40
0
 40
0
 40
1
 40
1
 40
1
 40
1
 10
2015.898750
 20
-996.855536
 30
0.0
 10
2020.351850
 20
-996.855536
 30
0.0
 10
2024.664350
 20
-995.824286
 30
0.0
 10
2028.836250
 20
-993.761786
 30
0.0
  0
SPLINE
  5
2bb
100
AcDbEntity
  8
Capa_1
 62
7
100
AcDbSpline
 70
8
 71
3
 72
8
 73
4
 74
0
 40
0
 40
0
 40
0
 40
0
 40
1
 40
1
 40
1
 40
1
 10
2028.836250
 20
-993.761786
 30
0.0
 10
2035.867500
 20
-990.339936
 30
0.0
 10
2039.383125
 20
-984.738386
 30
0.0
 10
2039.383125
 20
-976.957136
 30
0.0
  0
LWPOLYLINE
  5
2bc
100
AcDbEntity
  8
Capa_1
 62
7
100
AcDbPolyline
 90
6
 70
0
 10
1955.289375
 20
-989.964911
 30
0.0
 10
1955.289375
 20
-940.113386
 30
0.0
 10
1945.094025
 20
-940.113386
 30
0.0
 10
1945.094025
 20
-929.777411
 30
0.0
 10
1955.289375
 20
-929.777411
 30
0.0
 10
1955.289375
 20
-908.754011
 30
0.0
  0
SPLINE
  5
2bd
100
AcDbEntity
  8
Capa_1
 62
7
100
AcDbSpline
 70
8
 71
3
 72
8
 73
4
 74
0
 40
0
 40
0
 40
0
 40
0
 40
1
 40
1
 40
1
 40
1
 10
2039.383125
 20
-966.761786
 30
0.0
 10
2037.836225
 20
-967.746186
 30
0.0
 10
2035.844025
 20
-968.566511
 30
0.0
 10
2033.406525
 20
-969.222761
 30
0.0
  0
SPLINE
  5
2be
100
AcDbEntity
  8
Capa_1
 62
7
100
AcDbSpline
 70
8
 71
3
 72
8
 73
4
 74
0
 40
0
 40
0
 40
0
 40
0
 40
1
 40
1
 40
1
 40
1
 10
2033.406525
 20
-969.222761
 30
0.0
 10
2030.969025
 20
-969.879011
 30
0.0
 10
2028.578400
 20
-970.347761
 30
0.0
 10
2026.234650
 20
-970.629011
 30
0.0
  0
LWPOLYLINE
  5
2bf
100
AcDbEntity
  8
Capa_1
 62
7
100
AcDbPolyline
 90
2
 70
0
 10
2039.383125
 20
-976.957136
 30
0.0
 10
2039.383125
 20
-966.761786
 30
0.0
  0
SPLINE
  5
2c0
100
AcDbEntity
  8
Capa_1
 62
7
100
AcDbSpline
 70
8
 71
3
 72
8
 73
4
 74
0
 40
0
 40
0
 40
0
 40
0
 40
1
 40
1
 40
1
 40
1
 10
2018.570625
 20
-971.613386
 30
0.0
 10
2013.976875
 20
-972.222736
 30
0.0
 10
2010.531550
 20
-973.183661
 30
0.0
 10
2008.234650
 20
-974.496161
 30
0.0
  0
SPLINE
  5
2c1
100
AcDbEntity
  8
Capa_1
 62
7
100
AcDbSpline
 70
8
 71
3
 72
8
 73
4
 74
0
 40
0
 40
0
 40
0
 40
0
 40
1
 40
1
 40
1
 40
1
 10
2008.234650
 20
-974.496161
 30
0.0
 10
2004.344050
 20
-976.699311
 30
0.0
 10
2002.398750
 20
-980.214936
 30
0.0
 10
2002.398750
 20
-985.043036
 30
0.0
  0
LWPOLYLINE
  5
2c2
100
AcDbEntity
  8
Capa_1
 62
7
100
AcDbPolyline
 90
2
 70
0
 10
2026.234650
 20
-970.629011
 30
0.0
 10
2018.570625
 20
-971.613386
 30
0.0
  0
SPLINE
  5
2c3
100
AcDbEntity
  8
Capa_1
 62
7
100
AcDbSpline
 70
8
 71
3
 72
8
 73
4
 74
0
 40
0
 40
0
 40
0
 40
0
 40
1
 40
1
 40
1
 40
1
 10
2033.055000
 20
-959.449286
 30
0.0
 10
2035.961250
 20
-959.074286
 30
0.0
 10
2037.906550
 20
-957.855536
 30
0.0
 10
2038.890900
 20
-955.793036
 30
0.0
  0
SPLINE
  5
2c4
100
AcDbEntity
  8
Capa_1
 62
7
100
AcDbSpline
 70
8
 71
3
 72
8
 73
4
 74
0
 40
0
 40
0
 40
0
 40
0
 40
1
 40
1
 40
1
 40
1
 10
2038.890900
 20
-955.793036
 30
0.0
 10
2039.453400
 20
-954.668036
 30
0.0
 10
2039.734650
 20
-953.050861
 30
0.0
 10
2039.734650
 20
-950.941511
 30
0.0
  0
SPLINE
  5
2c5
100
AcDbEntity
  8
Capa_1
 62
7
100
AcDbSpline
 70
8
 71
3
 72
8
 73
4
 74
0
 40
0
 40
0
 40
0
 40
0
 40
1
 40
1
 40
1
 40
1
 10
2039.734650
 20
-950.941511
 30
0.0
 10
2039.734650
 20
-946.629011
 30
0.0
 10
2038.187775
 20
-943.511811
 30
0.0
 10
2035.094025
 20
-941.589911
 30
0.0
  0
SPLINE
  5
2c6
100
AcDbEntity
  8
Capa_1
 62
7
100
AcDbSpline
 70
8
 71
3
 72
8
 73
4
 74
0
 40
0
 40
0
 40
0
 40
0
 40
1
 40
1
 40
1
 40
1
 10
2035.094025
 20
-941.589911
 30
0.0
 10
2032.047175
 20
-939.621161
 30
0.0
 10
2027.664375
 20
-938.636786
 30
0.0
 10
2021.945625
 20
-938.636786
 30
0.0
  0
SPLINE
  5
2c7
100
AcDbEntity
  8
Capa_1
 62
7
100
AcDbSpline
 70
8
 71
3
 72
8
 73
4
 74
0
 40
0
 40
0
 40
0
 40
0
 40
1
 40
1
 40
1
 40
1
 10
2021.945625
 20
-938.636786
 30
0.0
 10
2015.336225
 20
-938.636786
 30
0.0
 10
2010.648725
 20
-940.418036
 30
0.0
 10
2007.883125
 20
-943.980536
 30
0.0
  0
SPLINE
  5
2c8
100
AcDbEntity
  8
Capa_1
 62
7
100
AcDbSpline
 70
8
 71
3
 72
8
 73
4
 74
0
 40
0
 40
0
 40
0
 40
0
 40
1
 40
1
 40
1
 40
1
 10
2007.883125
 20
-943.980536
 30
0.0
 10
2006.336225
 20
-945.949286
 30
0.0
 10
2005.328400
 20
-948.878986
 30
0.0
 10
2004.859650
 20
-952.769636
 30
0.0
  0
LWPOLYLINE
  5
2c9
100
AcDbEntity
  8
Capa_1
 62
7
100
AcDbPolyline
 90
1
 70
1
 10
2002.398750
 20
-985.043036
 30
0.0
  0
SPLINE
  5
2ca
100
AcDbEntity
  8
Capa_1
 62
7
100
AcDbSpline
 70
8
 71
3
 72
8
 73
4
 74
0
 40
0
 40
0
 40
0
 40
0
 40
1
 40
1
 40
1
 40
1
 10
1993.047150
 20
-952.769636
 30
0.0
 10
1993.281550
 20
-943.488386
 30
0.0
 10
1996.281550
 20
-937.043061
 30
0.0
 10
2002.047150
 20
-933.433661
 30
0.0
  0
SPLINE
  5
2cb
100
AcDbEntity
  8
Capa_1
 62
7
100
AcDbSpline
 70
8
 71
3
 72
8
 73
4
 74
0
 40
0
 40
0
 40
0
 40
0
 40
1
 40
1
 40
1
 40
1
 10
2002.047150
 20
-933.433661
 30
0.0
 10
2007.859650
 20
-929.777411
 30
0.0
 10
2014.586225
 20
-927.949286
 30
0.0
 10
2022.226875
 20
-927.949286
 30
0.0
  0
SPLINE
  5
2cc
100
AcDbEntity
  8
Capa_1
 62
7
100
AcDbSpline
 70
8
 71
3
 72
8
 73
4
 74
0
 40
0
 40
0
 40
0
 40
0
 40
1
 40
1
 40
1
 40
1
 10
2022.226875
 20
-927.949286
 30
0.0
 10
2031.086225
 20
-927.949286
 30
0.0
 10
2038.281525
 20
-929.636786
 30
0.0
 10
2043.812775
 20
-933.011786
 30
0.0
  0
SPLINE
  5
2cd
100
AcDbEntity
  8
Capa_1
 62
7
100
AcDbSpline
 70
8
 71
3
 72
8
 73
4
 74
0
 40
0
 40
0
 40
0
 40
0
 40
1
 40
1
 40
1
 40
1
 10
2043.812775
 20
-933.011786
 30
0.0
 10
2049.297175
 20
-936.386786
 30
0.0
 10
2052.039375
 20
-941.636786
 30
0.0
 10
2052.039375
 20
-948.761786
 30
0.0
  0
LWPOLYLINE
  5
2ce
100
AcDbEntity
  8
Capa_1
 62
7
100
AcDbPolyline
 90
2
 70
0
 10
2004.859650
 20
-952.769636
 30
0.0
 10
1993.047150
 20
-952.769636
 30
0.0
  0
SPLINE
  5
2cf
100
AcDbEntity
  8
Capa_1
 62
7
100
AcDbSpline
 70
8
 71
3
 72
8
 73
4
 74
0
 40
0
 40
0
 40
0
 40
0
 40
1
 40
1
 40
1
 40
1
 10
2052.039375
 20
-992.144636
 30
0.0
 10
2052.039375
 20
-993.457136
 30
0.0
 10
2052.297175
 20
-994.511811
 30
0.0
 10
2052.812775
 20
-995.308661
 30
0.0
  0
SPLINE
  5
2d0
100
AcDbEntity
  8
Capa_1
 62
7
100
AcDbSpline
 70
8
 71
3
 72
8
 73
4
 74
0
 40
0
 40
0
 40
0
 40
0
 40
1
 40
1
 40
1
 40
1
 10
2052.812775
 20
-995.308661
 30
0.0
 10
2053.375275
 20
-996.105561
 30
0.0
 10
2054.523725
 20
-996.504011
 30
0.0
 10
2056.258125
 20
-996.504011
 30
0.0
  0
SPLINE
  5
2d1
100
AcDbEntity
  8
Capa_1
 62
7
100
AcDbSpline
 70
8
 71
3
 72
8
 73
4
 74
0
 40
0
 40
0
 40
0
 40
0
 40
1
 40
1
 40
1
 40
1
 10
2056.258125
 20
-996.504011
 30
0.0
 10
2056.820625
 20
-996.504011
 30
0.0
 10
2057.453425
 20
-996.480511
 30
0.0
 10
2058.156525
 20
-996.433511
 30
0.0
  0
SPLINE
  5
2d2
100
AcDbEntity
  8
Capa_1
 62
7
100
AcDbSpline
 70
8
 71
3
 72
8
 73
4
 74
0
 40
0
 40
0
 40
0
 40
0
 40
1
 40
1
 40
1
 40
1
 10
2058.156525
 20
-996.433511
 30
0.0
 10
2058.859675
 20
-996.339761
 30
0.0
 10
2059.609675
 20
-996.222586
 30
0.0
 10
2060.406525
 20
-996.081986
 30
0.0
  0
LWPOLYLINE
  5
2d3
100
AcDbEntity
  8
Capa_1
 62
7
100
AcDbPolyline
 90
2
 70
0
 10
2052.039375
 20
-948.761786
 30
0.0
 10
2052.039375
 20
-992.144636
 30
0.0
  0
SPLINE
  5
2d4
100
AcDbEntity
  8
Capa_1
 62
7
100
AcDbSpline
 70
8
 71
3
 72
8
 73
4
 74
0
 40
0
 40
0
 40
0
 40
0
 40
1
 40
1
 40
1
 40
1
 10
2060.406525
 20
-1005.433511
 30
0.0
 10
2058.437775
 20
-1005.996011
 30
0.0
 10
2056.937775
 20
-1006.347586
 30
0.0
 10
2055.906525
 20
-1006.488236
 30
0.0
  0
SPLINE
  5
2d5
100
AcDbEntity
  8
Capa_1
 62
7
100
AcDbSpline
 70
8
 71
3
 72
8
 73
4
 74
0
 40
0
 40
0
 40
0
 40
0
 40
1
 40
1
 40
1
 40
1
 10
2055.906525
 20
-1006.488236
 30
0.0
 10
2054.875275
 20
-1006.628836
 30
0.0
 10
2053.469025
 20
-1006.699136
 30
0.0
 10
2051.687775
 20
-1006.699136
 30
0.0
  0
SPLINE
  5
2d6
100
AcDbEntity
  8
Capa_1
 62
7
100
AcDbSpline
 70
8
 71
3
 72
8
 73
4
 74
0
 40
0
 40
0
 40
0
 40
0
 40
1
 40
1
 40
1
 40
1
 10
2051.687775
 20
-1006.699136
 30
0.0
 10
2047.328425
 20
-1006.699136
 30
0.0
 10
2044.164375
 20
-1005.152261
 30
0.0
 10
2042.195625
 20
-1002.058511
 30
0.0
  0
SPLINE
  5
2d7
100
AcDbEntity
  8
Capa_1
 62
7
100
AcDbSpline
 70
8
 71
3
 72
8
 73
4
 74
0
 40
0
 40
0
 40
0
 40
0
 40
1
 40
1
 40
1
 40
1
 10
2042.195625
 20
-1002.058511
 30
0.0
 10
2041.164375
 20
-1000.417911
 30
0.0
 10
2040.437800
 20
-998.097611
 30
0.0
 10
2040.015900
 20
-995.097611
 30
0.0
  0
SPLINE
  5
2d8
100
AcDbEntity
  8
Capa_1
 62
7
100
AcDbSpline
 70
8
 71
3
 72
8
 73
4
 74
0
 40
0
 40
0
 40
0
 40
0
 40
1
 40
1
 40
1
 40
1
 10
2040.015900
 20
-995.097611
 30
0.0
 10
2037.437800
 20
-998.472611
 30
0.0
 10
2033.734675
 20
-1001.402286
 30
0.0
 10
2028.906525
 20
-1003.886636
 30
0.0
  0
SPLINE
  5
2d9
100
AcDbEntity
  8
Capa_1
 62
7
100
AcDbSpline
 70
8
 71
3
 72
8
 73
4
 74
0
 40
0
 40
0
 40
0
 40
0
 40
1
 40
1
 40
1
 40
1
 10
2028.906525
 20
-1003.886636
 30
0.0
 10
2024.078425
 20
-1006.371036
 30
0.0
 10
2018.758125
 20
-1007.613236
 30
0.0
 10
2012.945625
 20
-1007.613236
 30
0.0
  0
SPLINE
  5
2da
100
AcDbEntity
  8
Capa_1
 62
7
100
AcDbSpline
 70
8
 71
3
 72
8
 73
4
 74
0
 40
0
 40
0
 40
0
 40
0
 40
1
 40
1
 40
1
 40
1
 10
2012.945625
 20
-1007.613236
 30
0.0
 10
2005.961225
 20
-1007.613236
 30
0.0
 10
2000.242475
 20
-1005.503861
 30
0.0
 10
1995.789375
 20
-1001.285111
 30
0.0
  0
SPLINE
  5
2db
100
AcDbEntity
  8
Capa_1
 62
7
100
AcDbSpline
 70
8
 71
3
 72
8
 73
4
 74
0
 40
0
 40
0
 40
0
 40
0
 40
1
 40
1
 40
1
 40
1
 10
1995.789375
 20
-1001.285111
 30
0.0
 10
1991.383125
 20
-997.019461
 30
0.0
 10
1989.180000
 20
-991.699136
 30
0.0
 10
1989.180000
 20
-985.324136
 30
0.0
  0
SPLINE
  5
2dc
100
AcDbEntity
  8
Capa_1
 62
7
100
AcDbSpline
 70
8
 71
3
 72
8
 73
4
 74
0
 40
0
 40
0
 40
0
 40
0
 40
1
 40
1
 40
1
 40
1
 10
1989.180000
 20
-985.324136
 30
0.0
 10
1989.180000
 20
-978.339786
 30
0.0
 10
1991.359675
 20
-972.925736
 30
0.0
 10
1995.719025
 20
-969.081986
 30
0.0
  0
SPLINE
  5
2dd
100
AcDbEntity
  8
Capa_1
 62
7
100
AcDbSpline
 70
8
 71
3
 72
8
 73
4
 74
0
 40
0
 40
0
 40
0
 40
0
 40
1
 40
1
 40
1
 40
1
 10
1995.719025
 20
-969.081986
 30
0.0
 10
2000.078425
 20
-965.238236
 30
0.0
 10
2005.797175
 20
-962.871036
 30
0.0
 10
2012.875275
 20
-961.980386
 30
0.0
  0
LWPOLYLINE
  5
2de
100
AcDbEntity
  8
Capa_1
 62
7
100
AcDbPolyline
 90
2
 70
0
 10
2060.406525
 20
-996.081986
 30
0.0
 10
2060.406525
 20
-1005.433511
 30
0.0
  0
LWPOLYLINE
  5
2df
100
AcDbEntity
  8
Capa_1
 62
7
100
AcDbPolyline
 90
2
 70
0
 10
2012.875275
 20
-961.980386
 30
0.0
 10
2033.055000
 20
-959.449286
 30
0.0
  0
LWPOLYLINE
  5
2e0
100
AcDbEntity
  8
Capa_1
 62
7
100
AcDbPolyline
 90
1
 70
1
 10
2022.578400
 20
-927.949286
 30
0.0
  0
SPLINE
  5
2e1
100
AcDbEntity
  8
Capa_1
 62
7
100
AcDbSpline
 70
8
 71
3
 72
8
 73
4
 74
0
 40
0
 40
0
 40
0
 40
0
 40
1
 40
1
 40
1
 40
1
 10
2085.226875
 20
-942.785261
 30
0.0
 10
2086.211225
 20
-940.254011
 30
0.0
 10
2088.625275
 20
-937.183686
 30
0.0
 10
2092.469025
 20
-933.574286
 30
0.0
  0
SPLINE
  5
2e2
100
AcDbEntity
  8
Capa_1
 62
7
100
AcDbSpline
 70
8
 71
3
 72
8
 73
4
 74
0
 40
0
 40
0
 40
0
 40
0
 40
1
 40
1
 40
1
 40
1
 10
2092.469025
 20
-933.574286
 30
0.0
 10
2096.312775
 20
-929.918036
 30
0.0
 10
2100.742475
 20
-928.089911
 30
0.0
 10
2105.758125
 20
-928.089911
 30
0.0
  0
SPLINE
  5
2e3
100
AcDbEntity
  8
Capa_1
 62
7
100
AcDbSpline
 70
8
 71
3
 72
8
 73
4
 74
0
 40
0
 40
0
 40
0
 40
0
 40
1
 40
1
 40
1
 40
1
 10
2105.758125
 20
-928.089911
 30
0.0
 10
2105.992475
 20
-928.089911
 30
0.0
 10
2106.390900
 20
-928.113411
 30
0.0
 10
2106.953400
 20
-928.160411
 30
0.0
  0
SPLINE
  5
2e4
100
AcDbEntity
  8
Capa_1
 62
7
100
AcDbSpline
 70
8
 71
3
 72
8
 73
4
 74
0
 40
0
 40
0
 40
0
 40
0
 40
1
 40
1
 40
1
 40
1
 10
2106.953400
 20
-928.160411
 30
0.0
 10
2107.515900
 20
-928.207411
 30
0.0
 10
2108.476850
 20
-928.301161
 30
0.0
 10
2109.836250
 20
-928.441661
 30
0.0
  0
LWPOLYLINE
  5
2e5
100
AcDbEntity
  8
Capa_1
 62
7
100
AcDbPolyline
 90
3
 70
0
 10
2073.203400
 20
-929.777411
 30
0.0
 10
2085.226875
 20
-929.777411
 30
0.0
 10
2085.226875
 20
-942.785261
 30
0.0
  0
SPLINE
  5
2e6
100
AcDbEntity
  8
Capa_1
 62
7
100
AcDbSpline
 70
8
 71
3
 72
8
 73
4
 74
0
 40
0
 40
0
 40
0
 40
0
 40
1
 40
1
 40
1
 40
1
 10
2109.836250
 20
-941.801036
 30
0.0
 10
2109.086250
 20
-941.660386
 30
0.0
 10
2108.383125
 20
-941.566636
 30
0.0
 10
2107.726875
 20
-941.519786
 30
0.0
  0
SPLINE
  5
2e7
100
AcDbEntity
  8
Capa_1
 62
7
100
AcDbSpline
 70
8
 71
3
 72
8
 73
4
 74
0
 40
0
 40
0
 40
0
 40
0
 40
1
 40
1
 40
1
 40
1
 10
2107.726875
 20
-941.519786
 30
0.0
 10
2107.117475
 20
-941.472786
 30
0.0
 10
2106.437775
 20
-941.449286
 30
0.0
 10
2105.687775
 20
-941.449286
 30
0.0
  0
SPLINE
  5
2e8
100
AcDbEntity
  8
Capa_1
 62
7
100
AcDbSpline
 70
8
 71
3
 72
8
 73
4
 74
0
 40
0
 40
0
 40
0
 40
0
 40
1
 40
1
 40
1
 40
1
 10
2105.687775
 20
-941.449286
 30
0.0
 10
2099.312775
 20
-941.449286
 30
0.0
 10
2094.414350
 20
-943.511786
 30
0.0
 10
2090.992500
 20
-947.636786
 30
0.0
  0
SPLINE
  5
2e9
100
AcDbEntity
  8
Capa_1
 62
7
100
AcDbSpline
 70
8
 71
3
 72
8
 73
4
 74
0
 40
0
 40
0
 40
0
 40
0
 40
1
 40
1
 40
1
 40
1
 10
2090.992500
 20
-947.636786
 30
0.0
 10
2087.570600
 20
-951.714936
 30
0.0
 10
2085.859650
 20
-956.425886
 30
0.0
 10
2085.859650
 20
-961.769636
 30
0.0
  0
LWPOLYLINE
  5
2ea
100
AcDbEntity
  8
Capa_1
 62
7
100
AcDbPolyline
 90
2
 70
0
 10
2109.836250
 20
-928.441661
 30
0.0
 10
2109.836250
 20
-941.801036
 30
0.0
  0
LWPOLYLINE
  5
2eb
100
AcDbEntity
  8
Capa_1
 62
7
100
AcDbPolyline
 90
4
 70
0
 10
2085.859650
 20
-961.769636
 30
0.0
 10
2085.859650
 20
-1005.082136
 30
0.0
 10
2073.203400
 20
-1005.082136
 30
0.0
 10
2073.203400
 20
-929.777411
 30
0.0
  0
SPLINE
  5
2ec
100
AcDbEntity
  8
Capa_1
 62
7
100
AcDbSpline
 70
8
 71
3
 72
8
 73
4
 74
0
 40
0
 40
0
 40
0
 40
0
 40
1
 40
1
 40
1
 40
1
 10
2136.273750
 20
-989.261786
 30
0.0
 10
2136.273750
 20
-991.886786
 30
0.0
 10
2137.164375
 20
-993.644611
 30
0.0
 10
2138.945625
 20
-994.535261
 30
0.0
  0
SPLINE
  5
2ed
100
AcDbEntity
  8
Capa_1
 62
7
100
AcDbSpline
 70
8
 71
3
 72
8
 73
4
 74
0
 40
0
 40
0
 40
0
 40
0
 40
1
 40
1
 40
1
 40
1
 10
2138.945625
 20
-994.535261
 30
0.0
 10
2139.929975
 20
-995.050861
 30
0.0
 10
2141.570600
 20
-995.308661
 30
0.0
 10
2143.867500
 20
-995.308661
 30
0.0
  0
SPLINE
  5
2ee
100
AcDbEntity
  8
Capa_1
 62
7
100
AcDbSpline
 70
8
 71
3
 72
8
 73
4
 74
0
 40
0
 40
0
 40
0
 40
0
 40
1
 40
1
 40
1
 40
1
 10
2143.867500
 20
-995.308661
 30
0.0
 10
2144.476850
 20
-995.308661
 30
0.0
 10
2145.133100
 20
-995.308661
 30
0.0
 10
2145.836250
 20
-995.308661
 30
0.0
  0
SPLINE
  5
2ef
100
AcDbEntity
  8
Capa_1
 62
7
100
AcDbSpline
 70
8
 71
3
 72
8
 73
4
 74
0
 40
0
 40
0
 40
0
 40
0
 40
1
 40
1
 40
1
 40
1
 10
2145.836250
 20
-995.308661
 30
0.0
 10
2146.539350
 20
-995.261661
 30
0.0
 10
2147.359650
 20
-995.191361
 30
0.0
 10
2148.297150
 20
-995.097761
 30
0.0
  0
LWPOLYLINE
  5
2f0
100
AcDbEntity
  8
Capa_1
 62
7
100
AcDbPolyline
 90
7
 70
0
 10
2123.476875
 20
-908.754011
 30
0.0
 10
2136.273750
 20
-908.754011
 30
0.0
 10
2136.273750
 20
-929.777411
 30
0.0
 10
2148.297150
 20
-929.777411
 30
0.0
 10
2148.297150
 20
-940.113386
 30
0.0
 10
2136.273750
 20
-940.113386
 30
0.0
 10
2136.273750
 20
-989.261786
 30
0.0
  0
SPLINE
  5
2f1
100
AcDbEntity
  8
Capa_1
 62
7
100
AcDbSpline
 70
8
 71
3
 72
8
 73
4
 74
0
 40
0
 40
0
 40
0
 40
0
 40
1
 40
1
 40
1
 40
1
 10
2148.297150
 20
-1005.082136
 30
0.0
 10
2146.844050
 20
-1005.503986
 30
0.0
 10
2145.320625
 20
-1005.808661
 30
0.0
 10
2143.726875
 20
-1005.996161
 30
0.0
  0
SPLINE
  5
2f2
100
AcDbEntity
  8
Capa_1
 62
7
100
AcDbSpline
 70
8
 71
3
 72
8
 73
4
 74
0
 40
0
 40
0
 40
0
 40
0
 40
1
 40
1
 40
1
 40
1
 10
2143.726875
 20
-1005.996161
 30
0.0
 10
2142.179975
 20
-1006.183661
 30
0.0
 10
2140.492475
 20
-1006.277411
 30
0.0
 10
2138.664375
 20
-1006.277411
 30
0.0
  0
SPLINE
  5
2f3
100
AcDbEntity
  8
Capa_1
 62
7
100
AcDbSpline
 70
8
 71
3
 72
8
 73
4
 74
0
 40
0
 40
0
 40
0
 40
0
 40
1
 40
1
 40
1
 40
1
 10
2138.664375
 20
-1006.277411
 30
0.0
 10
2132.758125
 20
-1006.277411
 30
0.0
 10
2128.750300
 20
-1004.777411
 30
0.0
 10
2126.640900
 20
-1001.777411
 30
0.0
  0
SPLINE
  5
2f4
100
AcDbEntity
  8
Capa_1
 62
7
100
AcDbSpline
 70
8
 71
3
 72
8
 73
4
 74
0
 40
0
 40
0
 40
0
 40
0
 40
1
 40
1
 40
1
 40
1
 10
2126.640900
 20
-1001.777411
 30
0.0
 10
2124.531550
 20
-998.730561
 30
0.0
 10
2123.476875
 20
-994.793061
 30
0.0
 10
2123.476875
 20
-989.964911
 30
0.0
  0
LWPOLYLINE
  5
2f5
100
AcDbEntity
  8
Capa_1
 62
7
100
AcDbPolyline
 90
2
 70
0
 10
2148.297150
 20
-995.097761
 30
0.0
 10
2148.297150
 20
-1005.082136
 30
0.0
  0
LWPOLYLINE
  5
2f6
100
AcDbEntity
  8
Capa_1
 62
7
100
AcDbPolyline
 90
6
 70
0
 10
2123.476875
 20
-989.964911
 30
0.0
 10
2123.476875
 20
-940.113386
 30
0.0
 10
2113.281525
 20
-940.113386
 30
0.0
 10
2113.281525
 20
-929.777411
 30
0.0
 10
2123.476875
 20
-929.777411
 30
0.0
 10
2123.476875
 20
-908.754011
 30
0.0
  0
SPLINE
  5
2f7
100
AcDbEntity
  8
Capa_1
 62
7
100
AcDbSpline
 70
8
 71
3
 72
8
 73
4
 74
0
 40
0
 40
0
 40
0
 40
0
 40
1
 40
1
 40
1
 40
1
 10
234.455168
 20
-943.136786
 30
0.0
 10
234.455168
 20
-941.027436
 30
0.0
 10
234.502043
 20
-937.535261
 30
0.0
 10
234.595793
 20
-932.660261
 30
0.0
  0
SPLINE
  5
2f8
100
AcDbEntity
  8
Capa_1
 62
7
100
AcDbSpline
 70
8
 71
3
 72
8
 73
4
 74
0
 40
0
 40
0
 40
0
 40
0
 40
1
 40
1
 40
1
 40
1
 10
234.595793
 20
-932.660261
 30
0.0
 10
234.689543
 20
-927.785261
 30
0.0
 10
234.736418
 20
-922.558686
 30
0.0
 10
234.736418
 20
-916.980536
 30
0.0
  0
LWPOLYLINE
  5
2f9
100
AcDbEntity
  8
Capa_1
 62
7
100
AcDbPolyline
 90
8
 70
0
 10
148.744230
 20
-900.808661
 30
0.0
 10
168.783292
 20
-900.808661
 30
0.0
 10
198.455168
 20
-988.136786
 30
0.0
 10
227.916105
 20
-900.808661
 30
0.0
 10
247.744230
 20
-900.808661
 30
0.0
 10
247.744230
 20
-1004.097761
 30
0.0
 10
234.455168
 20
-1004.097761
 30
0.0
 10
234.455168
 20
-943.136786
 30
0.0
  0
SPLINE
  5
2fa
100
AcDbEntity
  8
Capa_1
 62
7
100
AcDbSpline
 70
8
 71
3
 72
8
 73
4
 74
0
 40
0
 40
0
 40
0
 40
0
 40
1
 40
1
 40
1
 40
1
 10
161.752043
 20
-920.144636
 30
0.0
 10
161.752043
 20
-922.675886
 30
0.0
 10
161.798918
 20
-926.543061
 30
0.0
 10
161.892668
 20
-931.746161
 30
0.0
  0
SPLINE
  5
2fb
100
AcDbEntity
  8
Capa_1
 62
7
100
AcDbSpline
 70
8
 71
3
 72
8
 73
4
 74
0
 40
0
 40
0
 40
0
 40
0
 40
1
 40
1
 40
1
 40
1
 10
161.892668
 20
-931.746161
 30
0.0
 10
162.033293
 20
-936.902411
 30
0.0
 10
162.103605
 20
-940.699286
 30
0.0
 10
162.103605
 20
-943.136786
 30
0.0
  0
LWPOLYLINE
  5
2fc
100
AcDbEntity
  8
Capa_1
 62
7
100
AcDbPolyline
 90
5
 70
0
 10
234.736418
 20
-916.980536
 30
0.0
 10
205.275480
 20
-1004.097761
 30
0.0
 10
191.423918
 20
-1004.097761
 30
0.0
 10
161.752043
 20
-916.980536
 30
0.0
 10
161.752043
 20
-920.144636
 30
0.0
  0
SPLINE
  5
2fd
100
AcDbEntity
  8
Capa_1
 62
7
100
AcDbSpline
 70
8
 71
3
 72
8
 73
4
 74
0
 40
0
 40
0
 40
0
 40
0
 40
1
 40
1
 40
1
 40
1
 10
297.384855
 20
-995.941511
 30
0.0
 10
305.775480
 20
-995.941511
 30
0.0
 10
311.517667
 20
-992.777436
 30
0.0
 10
314.611418
 20
-986.449286
 30
0.0
  0
SPLINE
  5
2fe
100
AcDbEntity
  8
Capa_1
 62
7
100
AcDbSpline
 70
8
 71
3
 72
8
 73
4
 74
0
 40
0
 40
0
 40
0
 40
0
 40
1
 40
1
 40
1
 40
1
 10
314.611418
 20
-986.449286
 30
0.0
 10
317.752042
 20
-980.074286
 30
0.0
 10
319.322355
 20
-972.996161
 30
0.0
 10
319.322355
 20
-965.214911
 30
0.0
  0
SPLINE
  5
2ff
100
AcDbEntity
  8
Capa_1
 62
7
100
AcDbSpline
 70
8
 71
3
 72
8
 73
4
 74
0
 40
0
 40
0
 40
0
 40
0
 40
1
 40
1
 40
1
 40
1
 10
319.322355
 20
-965.214911
 30
0.0
 10
319.322355
 20
-958.183661
 30
0.0
 10
318.197355
 20
-952.464911
 30
0.0
 10
315.947355
 20
-948.058661
 30
0.0
  0
SPLINE
  5
300
100
AcDbEntity
  8
Capa_1
 62
7
100
AcDbSpline
 70
8
 71
3
 72
8
 73
4
 74
0
 40
0
 40
0
 40
0
 40
0
 40
1
 40
1
 40
1
 40
1
 10
315.947355
 20
-948.058661
 30
0.0
 10
312.384855
 20
-941.121161
 30
0.0
 10
306.244230
 20
-937.652411
 30
0.0
 10
297.525480
 20
-937.652411
 30
0.0
  0
SPLINE
  5
301
100
AcDbEntity
  8
Capa_1
 62
7
100
AcDbSpline
 70
8
 71
3
 72
8
 73
4
 74
0
 40
0
 40
0
 40
0
 40
0
 40
1
 40
1
 40
1
 40
1
 10
297.525480
 20
-937.652411
 30
0.0
 10
289.791105
 20
-937.652411
 30
0.0
 10
284.166105
 20
-940.605536
 30
0.0
 10
280.650480
 20
-946.511786
 30
0.0
  0
SPLINE
  5
302
100
AcDbEntity
  8
Capa_1
 62
7
100
AcDbSpline
 70
8
 71
3
 72
8
 73
4
 74
0
 40
0
 40
0
 40
0
 40
0
 40
1
 40
1
 40
1
 40
1
 10
280.650480
 20
-946.511786
 30
0.0
 10
277.134855
 20
-952.418036
 30
0.0
 10
275.377043
 20
-959.543036
 30
0.0
 10
275.377043
 20
-967.886786
 30
0.0
  0
SPLINE
  5
303
100
AcDbEntity
  8
Capa_1
 62
7
100
AcDbSpline
 70
8
 71
3
 72
8
 73
4
 74
0
 40
0
 40
0
 40
0
 40
0
 40
1
 40
1
 40
1
 40
1
 10
275.377043
 20
-967.886786
 30
0.0
 10
275.377043
 20
-975.902436
 30
0.0
 10
277.134855
 20
-982.582136
 30
0.0
 10
280.650480
 20
-987.925886
 30
0.0
  0
SPLINE
  5
304
100
AcDbEntity
  8
Capa_1
 62
7
100
AcDbSpline
 70
8
 71
3
 72
8
 73
4
 74
0
 40
0
 40
0
 40
0
 40
0
 40
1
 40
1
 40
1
 40
1
 10
280.650480
 20
-987.925886
 30
0.0
 10
284.166105
 20
-993.269636
 30
0.0
 10
289.744230
 20
-995.941511
 30
0.0
 10
297.384855
 20
-995.941511
 30
0.0
  0
LWPOLYLINE
  5
305
100
AcDbEntity
  8
Capa_1
 62
7
100
AcDbPolyline
 90
4
 70
0
 10
162.103605
 20
-943.136786
 30
0.0
 10
162.103605
 20
-1004.097761
 30
0.0
 10
148.744230
 20
-1004.097761
 30
0.0
 10
148.744230
 20
-900.808661
 30
0.0
  0
SPLINE
  5
306
100
AcDbEntity
  8
Capa_1
 62
7
100
AcDbSpline
 70
8
 71
3
 72
8
 73
4
 74
0
 40
0
 40
0
 40
0
 40
0
 40
1
 40
1
 40
1
 40
1
 10
297.877043
 20
-926.613386
 30
0.0
 10
307.580167
 20
-926.613386
 30
0.0
 10
315.783292
 20
-929.847761
 30
0.0
 10
322.486418
 20
-936.316511
 30
0.0
  0
SPLINE
  5
307
100
AcDbEntity
  8
Capa_1
 62
7
100
AcDbSpline
 70
8
 71
3
 72
8
 73
4
 74
0
 40
0
 40
0
 40
0
 40
0
 40
1
 40
1
 40
1
 40
1
 10
322.486418
 20
-936.316511
 30
0.0
 10
329.189542
 20
-942.785261
 30
0.0
 10
332.541105
 20
-952.300886
 30
0.0
 10
332.541105
 20
-964.863386
 30
0.0
  0
SPLINE
  5
308
100
AcDbEntity
  8
Capa_1
 62
7
100
AcDbSpline
 70
8
 71
3
 72
8
 73
4
 74
0
 40
0
 40
0
 40
0
 40
0
 40
1
 40
1
 40
1
 40
1
 10
332.541105
 20
-964.863386
 30
0.0
 10
332.541105
 20
-977.003986
 30
0.0
 10
329.587980
 20
-987.035236
 30
0.0
 10
323.681730
 20
-994.957136
 30
0.0
  0
SPLINE
  5
309
100
AcDbEntity
  8
Capa_1
 62
7
100
AcDbSpline
 70
8
 71
3
 72
8
 73
4
 74
0
 40
0
 40
0
 40
0
 40
0
 40
1
 40
1
 40
1
 40
1
 10
323.681730
 20
-994.957136
 30
0.0
 10
317.775480
 20
-1002.878986
 30
0.0
 10
308.611417
 20
-1006.839911
 30
0.0
 10
296.189543
 20
-1006.839911
 30
0.0
  0
SPLINE
  5
30a
100
AcDbEntity
  8
Capa_1
 62
7
100
AcDbSpline
 70
8
 71
3
 72
8
 73
4
 74
0
 40
0
 40
0
 40
0
 40
0
 40
1
 40
1
 40
1
 40
1
 10
296.189543
 20
-1006.839911
 30
0.0
 10
285.830168
 20
-1006.839911
 30
0.0
 10
277.603605
 20
-1003.347736
 30
0.0
 10
271.509855
 20
-996.363386
 30
0.0
  0
SPLINE
  5
30b
100
AcDbEntity
  8
Capa_1
 62
7
100
AcDbSpline
 70
8
 71
3
 72
8
 73
4
 74
0
 40
0
 40
0
 40
0
 40
0
 40
1
 40
1
 40
1
 40
1
 10
271.509855
 20
-996.363386
 30
0.0
 10
265.416105
 20
-989.332136
 30
0.0
 10
262.369230
 20
-979.910261
 30
0.0
 10
262.369230
 20
-968.097761
 30
0.0
  0
SPLINE
  5
30c
100
AcDbEntity
  8
Capa_1
 62
7
100
AcDbSpline
 70
8
 71
3
 72
8
 73
4
 74
0
 40
0
 40
0
 40
0
 40
0
 40
1
 40
1
 40
1
 40
1
 10
262.369230
 20
-968.097761
 30
0.0
 10
262.369230
 20
-955.441511
 30
0.0
 10
265.580168
 20
-945.363386
 30
0.0
 10
272.002043
 20
-937.863386
 30
0.0
  0
SPLINE
  5
30d
100
AcDbEntity
  8
Capa_1
 62
7
100
AcDbSpline
 70
8
 71
3
 72
8
 73
4
 74
0
 40
0
 40
0
 40
0
 40
0
 40
1
 40
1
 40
1
 40
1
 10
272.002043
 20
-937.863386
 30
0.0
 10
278.423918
 20
-930.363386
 30
0.0
 10
287.048918
 20
-926.613386
 30
0.0
 10
297.877043
 20
-926.613386
 30
0.0
  0
LWPOLYLINE
  5
30e
100
AcDbEntity
  8
Capa_1
 62
7
100
AcDbPolyline
 90
1
 70
1
 10
297.384855
 20
-995.941511
 30
0.0
  0
LWPOLYLINE
  5
30f
100
AcDbEntity
  8
Capa_1
 62
7
100
AcDbPolyline
 90
1
 70
1
 10
297.877043
 20
-926.613386
 30
0.0
  0
LWPOLYLINE
  5
310
100
AcDbEntity
  8
Capa_1
 62
7
100
AcDbPolyline
 90
1
 70
1
 10
297.455168
 20
-926.964911
 30
0.0
  0
SPLINE
  5
311
100
AcDbEntity
  8
Capa_1
 62
7
100
AcDbSpline
 70
8
 71
3
 72
8
 73
4
 74
0
 40
0
 40
0
 40
0
 40
0
 40
1
 40
1
 40
1
 40
1
 10
451.017668
 20
-927.105536
 30
0.0
 10
456.361418
 20
-927.105536
 30
0.0
 10
461.541105
 20
-928.371161
 30
0.0
 10
466.556730
 20
-930.902411
 30
0.0
  0
SPLINE
  5
312
100
AcDbEntity
  8
Capa_1
 62
7
100
AcDbSpline
 70
8
 71
3
 72
8
 73
4
 74
0
 40
0
 40
0
 40
0
 40
0
 40
1
 40
1
 40
1
 40
1
 10
466.556730
 20
-930.902411
 30
0.0
 10
471.572355
 20
-933.386811
 30
0.0
 10
475.392668
 20
-936.621186
 30
0.0
 10
478.017668
 20
-940.605536
 30
0.0
  0
SPLINE
  5
313
100
AcDbEntity
  8
Capa_1
 62
7
100
AcDbSpline
 70
8
 71
3
 72
8
 73
4
 74
0
 40
0
 40
0
 40
0
 40
0
 40
1
 40
1
 40
1
 40
1
 10
478.017668
 20
-940.605536
 30
0.0
 10
480.548918
 20
-944.402436
 30
0.0
 10
482.236418
 20
-948.832136
 30
0.0
 10
483.080168
 20
-953.894636
 30
0.0
  0
SPLINE
  5
314
100
AcDbEntity
  8
Capa_1
 62
7
100
AcDbSpline
 70
8
 71
3
 72
8
 73
4
 74
0
 40
0
 40
0
 40
0
 40
0
 40
1
 40
1
 40
1
 40
1
 10
483.080168
 20
-953.894636
 30
0.0
 10
483.830168
 20
-957.363386
 30
0.0
 10
484.205168
 20
-962.894636
 30
0.0
 10
484.205168
 20
-970.488386
 30
0.0
  0
LWPOLYLINE
  5
315
100
AcDbEntity
  8
Capa_1
 62
7
100
AcDbPolyline
 90
7
 70
1
 10
353.845793
 20
-928.793036
 30
0.0
 10
373.955168
 20
-990.105536
 30
0.0
 10
394.978605
 20
-928.793036
 30
0.0
 10
408.830168
 20
-928.793036
 30
0.0
 10
380.423918
 20
-1004.097761
 30
0.0
 10
366.923918
 20
-1004.097761
 30
0.0
 10
339.150480
 20
-928.793036
 30
0.0
  0
SPLINE
  5
316
100
AcDbEntity
  8
Capa_1
 62
7
100
AcDbSpline
 70
8
 71
3
 72
8
 73
4
 74
0
 40
0
 40
0
 40
0
 40
0
 40
1
 40
1
 40
1
 40
1
 10
429.009855
 20
-970.488386
 30
0.0
 10
429.244230
 20
-978.128986
 30
0.0
 10
431.048918
 20
-984.269611
 30
0.0
 10
434.423918
 20
-988.910261
 30
0.0
  0
SPLINE
  5
317
100
AcDbEntity
  8
Capa_1
 62
7
100
AcDbSpline
 70
8
 71
3
 72
8
 73
4
 74
0
 40
0
 40
0
 40
0
 40
0
 40
1
 40
1
 40
1
 40
1
 10
434.423918
 20
-988.910261
 30
0.0
 10
437.798918
 20
-993.504011
 30
0.0
 10
443.025480
 20
-995.800886
 30
0.0
 10
450.103605
 20
-995.800886
 30
0.0
  0
SPLINE
  5
318
100
AcDbEntity
  8
Capa_1
 62
7
100
AcDbSpline
 70
8
 71
3
 72
8
 73
4
 74
0
 40
0
 40
0
 40
0
 40
0
 40
1
 40
1
 40
1
 40
1
 10
450.103605
 20
-995.800886
 30
0.0
 10
456.712980
 20
-995.800886
 30
0.0
 10
461.986418
 20
-993.621186
 30
0.0
 10
465.923918
 20
-989.261786
 30
0.0
  0
SPLINE
  5
319
100
AcDbEntity
  8
Capa_1
 62
7
100
AcDbSpline
 70
8
 71
3
 72
8
 73
4
 74
0
 40
0
 40
0
 40
0
 40
0
 40
1
 40
1
 40
1
 40
1
 10
465.923918
 20
-989.261786
 30
0.0
 10
468.173918
 20
-986.730536
 30
0.0
 10
469.767668
 20
-983.800861
 30
0.0
 10
470.705168
 20
-980.472761
 30
0.0
  0
LWPOLYLINE
  5
31a
100
AcDbEntity
  8
Capa_1
 62
7
100
AcDbPolyline
 90
2
 70
0
 10
484.205168
 20
-970.488386
 30
0.0
 10
429.009855
 20
-970.488386
 30
0.0
  0
SPLINE
  5
31b
100
AcDbEntity
  8
Capa_1
 62
7
100
AcDbSpline
 70
8
 71
3
 72
8
 73
4
 74
0
 40
0
 40
0
 40
0
 40
0
 40
1
 40
1
 40
1
 40
1
 10
483.150480
 20
-980.472761
 30
0.0
 10
482.822355
 20
-983.238361
 30
0.0
 10
481.720793
 20
-986.332111
 30
0.0
 10
479.845793
 20
-989.754011
 30
0.0
  0
SPLINE
  5
31c
100
AcDbEntity
  8
Capa_1
 62
7
100
AcDbSpline
 70
8
 71
3
 72
8
 73
4
 74
0
 40
0
 40
0
 40
0
 40
0
 40
1
 40
1
 40
1
 40
1
 10
479.845793
 20
-989.754011
 30
0.0
 10
478.017668
 20
-993.129011
 30
0.0
 10
475.955168
 20
-995.894636
 30
0.0
 10
473.658293
 20
-998.050886
 30
0.0
  0
SPLINE
  5
31d
100
AcDbEntity
  8
Capa_1
 62
7
100
AcDbSpline
 70
8
 71
3
 72
8
 73
4
 74
0
 40
0
 40
0
 40
0
 40
0
 40
1
 40
1
 40
1
 40
1
 10
473.658293
 20
-998.050886
 30
0.0
 10
469.814543
 20
-1001.800886
 30
0.0
 10
465.056730
 20
-1004.332136
 30
0.0
 10
459.384855
 20
-1005.644636
 30
0.0
  0
SPLINE
  5
31e
100
AcDbEntity
  8
Capa_1
 62
7
100
AcDbSpline
 70
8
 71
3
 72
8
 73
4
 74
0
 40
0
 40
0
 40
0
 40
0
 40
1
 40
1
 40
1
 40
1
 10
459.384855
 20
-1005.644636
 30
0.0
 10
456.337980
 20
-1006.394636
 30
0.0
 10
452.892668
 20
-1006.769636
 30
0.0
 10
449.048918
 20
-1006.769636
 30
0.0
  0
SPLINE
  5
31f
100
AcDbEntity
  8
Capa_1
 62
7
100
AcDbSpline
 70
8
 71
3
 72
8
 73
4
 74
0
 40
0
 40
0
 40
0
 40
0
 40
1
 40
1
 40
1
 40
1
 10
449.048918
 20
-1006.769636
 30
0.0
 10
439.673918
 20
-1006.769636
 30
0.0
 10
431.728605
 20
-1003.371186
 30
0.0
 10
425.212980
 20
-996.574286
 30
0.0
  0
SPLINE
  5
320
100
AcDbEntity
  8
Capa_1
 62
7
100
AcDbSpline
 70
8
 71
3
 72
8
 73
4
 74
0
 40
0
 40
0
 40
0
 40
0
 40
1
 40
1
 40
1
 40
1
 10
425.212980
 20
-996.574286
 30
0.0
 10
418.697355
 20
-989.730536
 30
0.0
 10
415.439543
 20
-980.168036
 30
0.0
 10
415.439543
 20
-967.886786
 30
0.0
  0
SPLINE
  5
321
100
AcDbEntity
  8
Capa_1
 62
7
100
AcDbSpline
 70
8
 71
3
 72
8
 73
4
 74
0
 40
0
 40
0
 40
0
 40
0
 40
1
 40
1
 40
1
 40
1
 10
415.439543
 20
-967.886786
 30
0.0
 10
415.439543
 20
-955.793036
 30
0.0
 10
418.720793
 20
-945.972736
 30
0.0
 10
425.283293
 20
-938.425886
 30
0.0
  0
SPLINE
  5
322
100
AcDbEntity
  8
Capa_1
 62
7
100
AcDbSpline
 70
8
 71
3
 72
8
 73
4
 74
0
 40
0
 40
0
 40
0
 40
0
 40
1
 40
1
 40
1
 40
1
 10
425.283293
 20
-938.425886
 30
0.0
 10
431.845793
 20
-930.878986
 30
0.0
 10
440.423918
 20
-927.105536
 30
0.0
 10
451.017668
 20
-927.105536
 30
0.0
  0
LWPOLYLINE
  5
323
100
AcDbEntity
  8
Capa_1
 62
7
100
AcDbPolyline
 90
2
 70
0
 10
470.705168
 20
-980.472761
 30
0.0
 10
483.150480
 20
-980.472761
 30
0.0
  0
SPLINE
  5
324
100
AcDbEntity
  8
Capa_1
 62
7
100
AcDbSpline
 70
8
 71
3
 72
8
 73
4
 74
0
 40
0
 40
0
 40
0
 40
0
 40
1
 40
1
 40
1
 40
1
 10
471.197355
 20
-960.433661
 30
0.0
 10
470.681730
 20
-954.949311
 30
0.0
 10
469.486418
 20
-950.566511
 30
0.0
 10
467.611418
 20
-947.285261
 30
0.0
  0
SPLINE
  5
325
100
AcDbEntity
  8
Capa_1
 62
7
100
AcDbSpline
 70
8
 71
3
 72
8
 73
4
 74
0
 40
0
 40
0
 40
0
 40
0
 40
1
 40
1
 40
1
 40
1
 10
467.611418
 20
-947.285261
 30
0.0
 10
464.142668
 20
-941.191511
 30
0.0
 10
458.353605
 20
-938.144636
 30
0.0
 10
450.244230
 20
-938.144636
 30
0.0
  0
SPLINE
  5
326
100
AcDbEntity
  8
Capa_1
 62
7
100
AcDbSpline
 70
8
 71
3
 72
8
 73
4
 74
0
 40
0
 40
0
 40
0
 40
0
 40
1
 40
1
 40
1
 40
1
 10
450.244230
 20
-938.144636
 30
0.0
 10
444.431730
 20
-938.144636
 30
0.0
 10
439.556730
 20
-940.254011
 30
0.0
 10
435.619230
 20
-944.472761
 30
0.0
  0
SPLINE
  5
327
100
AcDbEntity
  8
Capa_1
 62
7
100
AcDbSpline
 70
8
 71
3
 72
8
 73
4
 74
0
 40
0
 40
0
 40
0
 40
0
 40
1
 40
1
 40
1
 40
1
 10
435.619230
 20
-944.472761
 30
0.0
 10
431.681730
 20
-948.644611
 30
0.0
 10
429.595793
 20
-953.964911
 30
0.0
 10
429.361418
 20
-960.433661
 30
0.0
  0
LWPOLYLINE
  5
328
100
AcDbEntity
  8
Capa_1
 62
7
100
AcDbPolyline
 90
1
 70
1
 10
451.017668
 20
-927.105536
 30
0.0
  0
LWPOLYLINE
  5
329
100
AcDbEntity
  8
Capa_1
 62
7
100
AcDbPolyline
 90
2
 70
0
 10
429.361418
 20
-960.433661
 30
0.0
 10
471.197355
 20
-960.433661
 30
0.0
  0
LWPOLYLINE
  5
32a
100
AcDbEntity
  8
Capa_1
 62
7
100
AcDbPolyline
 90
1
 70
1
 10
449.822355
 20
-926.964911
 30
0.0
  0
SPLINE
  5
32b
100
AcDbEntity
  8
Capa_1
 62
7
100
AcDbSpline
 70
8
 71
3
 72
8
 73
4
 74
0
 40
0
 40
0
 40
0
 40
0
 40
1
 40
1
 40
1
 40
1
 10
551.072355
 20
-937.933661
 30
0.0
 10
553.837980
 20
-934.324311
 30
0.0
 10
557.142668
 20
-931.582136
 30
0.0
 10
560.986418
 20
-929.707136
 30
0.0
  0
SPLINE
  5
32c
100
AcDbEntity
  8
Capa_1
 62
7
100
AcDbSpline
 70
8
 71
3
 72
8
 73
4
 74
0
 40
0
 40
0
 40
0
 40
0
 40
1
 40
1
 40
1
 40
1
 10
560.986418
 20
-929.707136
 30
0.0
 10
564.830168
 20
-927.785236
 30
0.0
 10
569.002043
 20
-926.824286
 30
0.0
 10
573.502043
 20
-926.824286
 30
0.0
  0
SPLINE
  5
32d
100
AcDbEntity
  8
Capa_1
 62
7
100
AcDbSpline
 70
8
 71
3
 72
8
 73
4
 74
0
 40
0
 40
0
 40
0
 40
0
 40
1
 40
1
 40
1
 40
1
 10
573.502043
 20
-926.824286
 30
0.0
 10
582.877043
 20
-926.824286
 30
0.0
 10
590.470793
 20
-930.058661
 30
0.0
 10
596.283293
 20
-936.527411
 30
0.0
  0
SPLINE
  5
32e
100
AcDbEntity
  8
Capa_1
 62
7
100
AcDbSpline
 70
8
 71
3
 72
8
 73
4
 74
0
 40
0
 40
0
 40
0
 40
0
 40
1
 40
1
 40
1
 40
1
 10
596.283293
 20
-936.527411
 30
0.0
 10
602.142668
 20
-942.949311
 30
0.0
 10
605.072355
 20
-952.441511
 30
0.0
 10
605.072355
 20
-965.004011
 30
0.0
  0
SPLINE
  5
32f
100
AcDbEntity
  8
Capa_1
 62
7
100
AcDbSpline
 70
8
 71
3
 72
8
 73
4
 74
0
 40
0
 40
0
 40
0
 40
0
 40
1
 40
1
 40
1
 40
1
 10
605.072355
 20
-965.004011
 30
0.0
 10
605.072355
 20
-976.910261
 30
0.0
 10
602.189543
 20
-986.800886
 30
0.0
 10
596.423918
 20
-994.675886
 30
0.0
  0
SPLINE
  5
330
100
AcDbEntity
  8
Capa_1
 62
7
100
AcDbSpline
 70
8
 71
3
 72
8
 73
4
 74
0
 40
0
 40
0
 40
0
 40
0
 40
1
 40
1
 40
1
 40
1
 10
596.423918
 20
-994.675886
 30
0.0
 10
590.658293
 20
-1002.550886
 30
0.0
 10
582.666105
 20
-1006.488386
 30
0.0
 10
572.447355
 20
-1006.488386
 30
0.0
  0
SPLINE
  5
331
100
AcDbEntity
  8
Capa_1
 62
7
100
AcDbSpline
 70
8
 71
3
 72
8
 73
4
 74
0
 40
0
 40
0
 40
0
 40
0
 40
1
 40
1
 40
1
 40
1
 10
572.447355
 20
-1006.488386
 30
0.0
 10
566.728605
 20
-1006.488386
 30
0.0
 10
561.900480
 20
-1005.105561
 30
0.0
 10
557.962980
 20
-1002.339911
 30
0.0
  0
SPLINE
  5
332
100
AcDbEntity
  8
Capa_1
 62
7
100
AcDbSpline
 70
8
 71
3
 72
8
 73
4
 74
0
 40
0
 40
0
 40
0
 40
0
 40
1
 40
1
 40
1
 40
1
 10
557.962980
 20
-1002.339911
 30
0.0
 10
555.619230
 20
-1000.699311
 30
0.0
 10
553.111418
 20
-998.074311
 30
0.0
 10
550.439543
 20
-994.464911
 30
0.0
  0
LWPOLYLINE
  5
333
100
AcDbEntity
  8
Capa_1
 62
7
100
AcDbPolyline
 90
3
 70
0
 10
538.767668
 20
-900.457136
 30
0.0
 10
551.072355
 20
-900.457136
 30
0.0
 10
551.072355
 20
-937.933661
 30
0.0
  0
SPLINE
  5
334
100
AcDbEntity
  8
Capa_1
 62
7
100
AcDbSpline
 70
8
 71
3
 72
8
 73
4
 74
0
 40
0
 40
0
 40
0
 40
0
 40
1
 40
1
 40
1
 40
1
 10
571.673918
 20
-995.308661
 30
0.0
 10
578.517668
 20
-995.308661
 30
0.0
 10
583.627043
 20
-992.589911
 30
0.0
 10
587.002043
 20
-987.152411
 30
0.0
  0
SPLINE
  5
335
100
AcDbEntity
  8
Capa_1
 62
7
100
AcDbSpline
 70
8
 71
3
 72
8
 73
4
 74
0
 40
0
 40
0
 40
0
 40
0
 40
1
 40
1
 40
1
 40
1
 10
587.002043
 20
-987.152411
 30
0.0
 10
590.423918
 20
-981.714911
 30
0.0
 10
592.134855
 20
-974.543036
 30
0.0
 10
592.134855
 20
-965.636786
 30
0.0
  0
SPLINE
  5
336
100
AcDbEntity
  8
Capa_1
 62
7
100
AcDbSpline
 70
8
 71
3
 72
8
 73
4
 74
0
 40
0
 40
0
 40
0
 40
0
 40
1
 40
1
 40
1
 40
1
 10
592.134855
 20
-965.636786
 30
0.0
 10
592.134855
 20
-957.714936
 30
0.0
 10
590.423918
 20
-951.152436
 30
0.0
 10
587.002043
 20
-945.949286
 30
0.0
  0
SPLINE
  5
337
100
AcDbEntity
  8
Capa_1
 62
7
100
AcDbSpline
 70
8
 71
3
 72
8
 73
4
 74
0
 40
0
 40
0
 40
0
 40
0
 40
1
 40
1
 40
1
 40
1
 10
587.002043
 20
-945.949286
 30
0.0
 10
583.627043
 20
-940.746186
 30
0.0
 10
578.634855
 20
-938.144636
 30
0.0
 10
572.025480
 20
-938.144636
 30
0.0
  0
SPLINE
  5
338
100
AcDbEntity
  8
Capa_1
 62
7
100
AcDbSpline
 70
8
 71
3
 72
8
 73
4
 74
0
 40
0
 40
0
 40
0
 40
0
 40
1
 40
1
 40
1
 40
1
 10
572.025480
 20
-938.144636
 30
0.0
 10
566.259855
 20
-938.144636
 30
0.0
 10
561.197355
 20
-940.277436
 30
0.0
 10
556.837980
 20
-944.543036
 30
0.0
  0
SPLINE
  5
339
100
AcDbEntity
  8
Capa_1
 62
7
100
AcDbSpline
 70
8
 71
3
 72
8
 73
4
 74
0
 40
0
 40
0
 40
0
 40
0
 40
1
 40
1
 40
1
 40
1
 10
556.837980
 20
-944.543036
 30
0.0
 10
552.525480
 20
-948.808686
 30
0.0
 10
550.369230
 20
-955.839936
 30
0.0
 10
550.369230
 20
-965.636786
 30
0.0
  0
SPLINE
  5
33a
100
AcDbEntity
  8
Capa_1
 62
7
100
AcDbSpline
 70
8
 71
3
 72
8
 73
4
 74
0
 40
0
 40
0
 40
0
 40
0
 40
1
 40
1
 40
1
 40
1
 10
550.369230
 20
-965.636786
 30
0.0
 10
550.369230
 20
-972.714936
 30
0.0
 10
551.259855
 20
-978.457136
 30
0.0
 10
553.041105
 20
-982.863386
 30
0.0
  0
SPLINE
  5
33b
100
AcDbEntity
  8
Capa_1
 62
7
100
AcDbSpline
 70
8
 71
3
 72
8
 73
4
 74
0
 40
0
 40
0
 40
0
 40
0
 40
1
 40
1
 40
1
 40
1
 10
553.041105
 20
-982.863386
 30
0.0
 10
556.369230
 20
-991.160236
 30
0.0
 10
562.580168
 20
-995.308661
 30
0.0
 10
571.673918
 20
-995.308661
 30
0.0
  0
LWPOLYLINE
  5
33c
100
AcDbEntity
  8
Capa_1
 62
7
100
AcDbPolyline
 90
4
 70
0
 10
550.439543
 20
-994.464911
 30
0.0
 10
550.439543
 20
-1004.097761
 30
0.0
 10
538.767668
 20
-1004.097761
 30
0.0
 10
538.767668
 20
-900.457136
 30
0.0
  0
SPLINE
  5
33d
100
AcDbEntity
  8
Capa_1
 62
7
100
AcDbSpline
 70
8
 71
3
 72
8
 73
4
 74
0
 40
0
 40
0
 40
0
 40
0
 40
1
 40
1
 40
1
 40
1
 10
629.611418
 20
-984.058661
 30
0.0
 10
629.611418
 20
-987.714911
 30
0.0
 10
630.947355
 20
-990.597736
 30
0.0
 10
633.619230
 20
-992.707136
 30
0.0
  0
SPLINE
  5
33e
100
AcDbEntity
  8
Capa_1
 62
7
100
AcDbSpline
 70
8
 71
3
 72
8
 73
4
 74
0
 40
0
 40
0
 40
0
 40
0
 40
1
 40
1
 40
1
 40
1
 10
633.619230
 20
-992.707136
 30
0.0
 10
636.291105
 20
-994.816486
 30
0.0
 10
639.455168
 20
-995.871161
 30
0.0
 10
643.111418
 20
-995.871161
 30
0.0
  0
SPLINE
  5
33f
100
AcDbEntity
  8
Capa_1
 62
7
100
AcDbSpline
 70
8
 71
3
 72
8
 73
4
 74
0
 40
0
 40
0
 40
0
 40
0
 40
1
 40
1
 40
1
 40
1
 10
643.111418
 20
-995.871161
 30
0.0
 10
647.564543
 20
-995.871161
 30
0.0
 10
651.877043
 20
-994.839911
 30
0.0
 10
656.048918
 20
-992.777411
 30
0.0
  0
SPLINE
  5
340
100
AcDbEntity
  8
Capa_1
 62
7
100
AcDbSpline
 70
8
 71
3
 72
8
 73
4
 74
0
 40
0
 40
0
 40
0
 40
0
 40
1
 40
1
 40
1
 40
1
 10
656.048918
 20
-992.777411
 30
0.0
 10
663.080168
 20
-989.355561
 30
0.0
 10
666.595793
 20
-983.754011
 30
0.0
 10
666.595793
 20
-975.972761
 30
0.0
  0
LWPOLYLINE
  5
341
100
AcDbEntity
  8
Capa_1
 62
7
100
AcDbPolyline
 90
1
 70
1
 10
571.673918
 20
-995.308661
 30
0.0
  0
SPLINE
  5
342
100
AcDbEntity
  8
Capa_1
 62
7
100
AcDbSpline
 70
8
 71
3
 72
8
 73
4
 74
0
 40
0
 40
0
 40
0
 40
0
 40
1
 40
1
 40
1
 40
1
 10
666.595793
 20
-965.777411
 30
0.0
 10
665.048918
 20
-966.761811
 30
0.0
 10
663.056730
 20
-967.582136
 30
0.0
 10
660.619230
 20
-968.238386
 30
0.0
  0
SPLINE
  5
343
100
AcDbEntity
  8
Capa_1
 62
7
100
AcDbSpline
 70
8
 71
3
 72
8
 73
4
 74
0
 40
0
 40
0
 40
0
 40
0
 40
1
 40
1
 40
1
 40
1
 10
660.619230
 20
-968.238386
 30
0.0
 10
658.181730
 20
-968.894636
 30
0.0
 10
655.791105
 20
-969.363386
 30
0.0
 10
653.447355
 20
-969.644636
 30
0.0
  0
LWPOLYLINE
  5
344
100
AcDbEntity
  8
Capa_1
 62
7
100
AcDbPolyline
 90
2
 70
0
 10
666.595793
 20
-975.972761
 30
0.0
 10
666.595793
 20
-965.777411
 30
0.0
  0
SPLINE
  5
345
100
AcDbEntity
  8
Capa_1
 62
7
100
AcDbSpline
 70
8
 71
3
 72
8
 73
4
 74
0
 40
0
 40
0
 40
0
 40
0
 40
1
 40
1
 40
1
 40
1
 10
645.783293
 20
-970.629011
 30
0.0
 10
641.189543
 20
-971.238361
 30
0.0
 10
637.744230
 20
-972.199286
 30
0.0
 10
635.447355
 20
-973.511786
 30
0.0
  0
SPLINE
  5
346
100
AcDbEntity
  8
Capa_1
 62
7
100
AcDbSpline
 70
8
 71
3
 72
8
 73
4
 74
0
 40
0
 40
0
 40
0
 40
0
 40
1
 40
1
 40
1
 40
1
 10
635.447355
 20
-973.511786
 30
0.0
 10
631.556730
 20
-975.714936
 30
0.0
 10
629.611418
 20
-979.230561
 30
0.0
 10
629.611418
 20
-984.058661
 30
0.0
  0
LWPOLYLINE
  5
347
100
AcDbEntity
  8
Capa_1
 62
7
100
AcDbPolyline
 90
2
 70
0
 10
653.447355
 20
-969.644636
 30
0.0
 10
645.783293
 20
-970.629011
 30
0.0
  0
SPLINE
  5
348
100
AcDbEntity
  8
Capa_1
 62
7
100
AcDbSpline
 70
8
 71
3
 72
8
 73
4
 74
0
 40
0
 40
0
 40
0
 40
0
 40
1
 40
1
 40
1
 40
1
 10
660.267668
 20
-958.464911
 30
0.0
 10
663.173918
 20
-958.089911
 30
0.0
 10
665.119230
 20
-956.871161
 30
0.0
 10
666.103605
 20
-954.808661
 30
0.0
  0
SPLINE
  5
349
100
AcDbEntity
  8
Capa_1
 62
7
100
AcDbSpline
 70
8
 71
3
 72
8
 73
4
 74
0
 40
0
 40
0
 40
0
 40
0
 40
1
 40
1
 40
1
 40
1
 10
666.103605
 20
-954.808661
 30
0.0
 10
666.666105
 20
-953.683661
 30
0.0
 10
666.947355
 20
-952.066486
 30
0.0
 10
666.947355
 20
-949.957136
 30
0.0
  0
SPLINE
  5
34a
100
AcDbEntity
  8
Capa_1
 62
7
100
AcDbSpline
 70
8
 71
3
 72
8
 73
4
 74
0
 40
0
 40
0
 40
0
 40
0
 40
1
 40
1
 40
1
 40
1
 10
666.947355
 20
-949.957136
 30
0.0
 10
666.947355
 20
-945.644636
 30
0.0
 10
665.400480
 20
-942.527436
 30
0.0
 10
662.306730
 20
-940.605536
 30
0.0
  0
SPLINE
  5
34b
100
AcDbEntity
  8
Capa_1
 62
7
100
AcDbSpline
 70
8
 71
3
 72
8
 73
4
 74
0
 40
0
 40
0
 40
0
 40
0
 40
1
 40
1
 40
1
 40
1
 10
662.306730
 20
-940.605536
 30
0.0
 10
659.259855
 20
-938.636786
 30
0.0
 10
654.877043
 20
-937.652411
 30
0.0
 10
649.158293
 20
-937.652411
 30
0.0
  0
SPLINE
  5
34c
100
AcDbEntity
  8
Capa_1
 62
7
100
AcDbSpline
 70
8
 71
3
 72
8
 73
4
 74
0
 40
0
 40
0
 40
0
 40
0
 40
1
 40
1
 40
1
 40
1
 10
649.158293
 20
-937.652411
 30
0.0
 10
642.548918
 20
-937.652411
 30
0.0
 10
637.861418
 20
-939.433661
 30
0.0
 10
635.095793
 20
-942.996161
 30
0.0
  0
SPLINE
  5
34d
100
AcDbEntity
  8
Capa_1
 62
7
100
AcDbSpline
 70
8
 71
3
 72
8
 73
4
 74
0
 40
0
 40
0
 40
0
 40
0
 40
1
 40
1
 40
1
 40
1
 10
635.095793
 20
-942.996161
 30
0.0
 10
633.548918
 20
-944.964911
 30
0.0
 10
632.541105
 20
-947.894611
 30
0.0
 10
632.072355
 20
-951.785261
 30
0.0
  0
LWPOLYLINE
  5
34e
100
AcDbEntity
  8
Capa_1
 62
7
100
AcDbPolyline
 90
1
 70
1
 10
629.611418
 20
-984.058661
 30
0.0
  0
SPLINE
  5
34f
100
AcDbEntity
  8
Capa_1
 62
7
100
AcDbSpline
 70
8
 71
3
 72
8
 73
4
 74
0
 40
0
 40
0
 40
0
 40
0
 40
1
 40
1
 40
1
 40
1
 10
620.259855
 20
-951.785261
 30
0.0
 10
620.494230
 20
-942.504011
 30
0.0
 10
623.494230
 20
-936.058686
 30
0.0
 10
629.259855
 20
-932.449286
 30
0.0
  0
SPLINE
  5
350
100
AcDbEntity
  8
Capa_1
 62
7
100
AcDbSpline
 70
8
 71
3
 72
8
 73
4
 74
0
 40
0
 40
0
 40
0
 40
0
 40
1
 40
1
 40
1
 40
1
 10
629.259855
 20
-932.449286
 30
0.0
 10
635.072355
 20
-928.793036
 30
0.0
 10
641.798918
 20
-926.964911
 30
0.0
 10
649.439543
 20
-926.964911
 30
0.0
  0
SPLINE
  5
351
100
AcDbEntity
  8
Capa_1
 62
7
100
AcDbSpline
 70
8
 71
3
 72
8
 73
4
 74
0
 40
0
 40
0
 40
0
 40
0
 40
1
 40
1
 40
1
 40
1
 10
649.439543
 20
-926.964911
 30
0.0
 10
658.298918
 20
-926.964911
 30
0.0
 10
665.494230
 20
-928.652411
 30
0.0
 10
671.025480
 20
-932.027411
 30
0.0
  0
SPLINE
  5
352
100
AcDbEntity
  8
Capa_1
 62
7
100
AcDbSpline
 70
8
 71
3
 72
8
 73
4
 74
0
 40
0
 40
0
 40
0
 40
0
 40
1
 40
1
 40
1
 40
1
 10
671.025480
 20
-932.027411
 30
0.0
 10
676.509855
 20
-935.402411
 30
0.0
 10
679.252043
 20
-940.652411
 30
0.0
 10
679.252043
 20
-947.777411
 30
0.0
  0
LWPOLYLINE
  5
353
100
AcDbEntity
  8
Capa_1
 62
7
100
AcDbPolyline
 90
2
 70
0
 10
632.072355
 20
-951.785261
 30
0.0
 10
620.259855
 20
-951.785261
 30
0.0
  0
SPLINE
  5
354
100
AcDbEntity
  8
Capa_1
 62
7
100
AcDbSpline
 70
8
 71
3
 72
8
 73
4
 74
0
 40
0
 40
0
 40
0
 40
0
 40
1
 40
1
 40
1
 40
1
 10
679.252043
 20
-991.160261
 30
0.0
 10
679.252043
 20
-992.472761
 30
0.0
 10
679.509855
 20
-993.527436
 30
0.0
 10
680.025480
 20
-994.324286
 30
0.0
  0
SPLINE
  5
355
100
AcDbEntity
  8
Capa_1
 62
7
100
AcDbSpline
 70
8
 71
3
 72
8
 73
4
 74
0
 40
0
 40
0
 40
0
 40
0
 40
1
 40
1
 40
1
 40
1
 10
680.025480
 20
-994.324286
 30
0.0
 10
680.587980
 20
-995.121186
 30
0.0
 10
681.736418
 20
-995.519636
 30
0.0
 10
683.470793
 20
-995.519636
 30
0.0
  0
SPLINE
  5
356
100
AcDbEntity
  8
Capa_1
 62
7
100
AcDbSpline
 70
8
 71
3
 72
8
 73
4
 74
0
 40
0
 40
0
 40
0
 40
0
 40
1
 40
1
 40
1
 40
1
 10
683.470793
 20
-995.519636
 30
0.0
 10
684.033293
 20
-995.519636
 30
0.0
 10
684.666105
 20
-995.496136
 30
0.0
 10
685.369230
 20
-995.449136
 30
0.0
  0
SPLINE
  5
357
100
AcDbEntity
  8
Capa_1
 62
7
100
AcDbSpline
 70
8
 71
3
 72
8
 73
4
 74
0
 40
0
 40
0
 40
0
 40
0
 40
1
 40
1
 40
1
 40
1
 10
685.369230
 20
-995.449136
 30
0.0
 10
686.072355
 20
-995.355386
 30
0.0
 10
686.822355
 20
-995.238211
 30
0.0
 10
687.619230
 20
-995.097611
 30
0.0
  0
LWPOLYLINE
  5
358
100
AcDbEntity
  8
Capa_1
 62
7
100
AcDbPolyline
 90
2
 70
0
 10
679.252043
 20
-947.777411
 30
0.0
 10
679.252043
 20
-991.160261
 30
0.0
  0
SPLINE
  5
359
100
AcDbEntity
  8
Capa_1
 62
7
100
AcDbSpline
 70
8
 71
3
 72
8
 73
4
 74
0
 40
0
 40
0
 40
0
 40
0
 40
1
 40
1
 40
1
 40
1
 10
687.619230
 20
-1004.449136
 30
0.0
 10
685.650480
 20
-1005.011636
 30
0.0
 10
684.150480
 20
-1005.363211
 30
0.0
 10
683.119230
 20
-1005.503861
 30
0.0
  0
SPLINE
  5
35a
100
AcDbEntity
  8
Capa_1
 62
7
100
AcDbSpline
 70
8
 71
3
 72
8
 73
4
 74
0
 40
0
 40
0
 40
0
 40
0
 40
1
 40
1
 40
1
 40
1
 10
683.119230
 20
-1005.503861
 30
0.0
 10
682.087980
 20
-1005.644461
 30
0.0
 10
680.681730
 20
-1005.714761
 30
0.0
 10
678.900480
 20
-1005.714761
 30
0.0
  0
SPLINE
  5
35b
100
AcDbEntity
  8
Capa_1
 62
7
100
AcDbSpline
 70
8
 71
3
 72
8
 73
4
 74
0
 40
0
 40
0
 40
0
 40
0
 40
1
 40
1
 40
1
 40
1
 10
678.900480
 20
-1005.714761
 30
0.0
 10
674.541105
 20
-1005.714761
 30
0.0
 10
671.377043
 20
-1004.167886
 30
0.0
 10
669.408293
 20
-1001.074136
 30
0.0
  0
SPLINE
  5
35c
100
AcDbEntity
  8
Capa_1
 62
7
100
AcDbSpline
 70
8
 71
3
 72
8
 73
4
 74
0
 40
0
 40
0
 40
0
 40
0
 40
1
 40
1
 40
1
 40
1
 10
669.408293
 20
-1001.074136
 30
0.0
 10
668.377043
 20
-999.433536
 30
0.0
 10
667.650480
 20
-997.113236
 30
0.0
 10
667.228605
 20
-994.113236
 30
0.0
  0
SPLINE
  5
35d
100
AcDbEntity
  8
Capa_1
 62
7
100
AcDbSpline
 70
8
 71
3
 72
8
 73
4
 74
0
 40
0
 40
0
 40
0
 40
0
 40
1
 40
1
 40
1
 40
1
 10
667.228605
 20
-994.113236
 30
0.0
 10
664.650480
 20
-997.488236
 30
0.0
 10
660.947355
 20
-1000.417911
 30
0.0
 10
656.119230
 20
-1002.902261
 30
0.0
  0
SPLINE
  5
35e
100
AcDbEntity
  8
Capa_1
 62
7
100
AcDbSpline
 70
8
 71
3
 72
8
 73
4
 74
0
 40
0
 40
0
 40
0
 40
0
 40
1
 40
1
 40
1
 40
1
 10
656.119230
 20
-1002.902261
 30
0.0
 10
651.291105
 20
-1005.386661
 30
0.0
 10
645.970793
 20
-1006.628861
 30
0.0
 10
640.158293
 20
-1006.628861
 30
0.0
  0
SPLINE
  5
35f
100
AcDbEntity
  8
Capa_1
 62
7
100
AcDbSpline
 70
8
 71
3
 72
8
 73
4
 74
0
 40
0
 40
0
 40
0
 40
0
 40
1
 40
1
 40
1
 40
1
 10
640.158293
 20
-1006.628861
 30
0.0
 10
633.173918
 20
-1006.628861
 30
0.0
 10
627.455168
 20
-1004.519486
 30
0.0
 10
623.002043
 20
-1000.300736
 30
0.0
  0
SPLINE
  5
360
100
AcDbEntity
  8
Capa_1
 62
7
100
AcDbSpline
 70
8
 71
3
 72
8
 73
4
 74
0
 40
0
 40
0
 40
0
 40
0
 40
1
 40
1
 40
1
 40
1
 10
623.002043
 20
-1000.300736
 30
0.0
 10
618.595793
 20
-996.035086
 30
0.0
 10
616.392668
 20
-990.714761
 30
0.0
 10
616.392668
 20
-984.339761
 30
0.0
  0
SPLINE
  5
361
100
AcDbEntity
  8
Capa_1
 62
7
100
AcDbSpline
 70
8
 71
3
 72
8
 73
4
 74
0
 40
0
 40
0
 40
0
 40
0
 40
1
 40
1
 40
1
 40
1
 10
616.392668
 20
-984.339761
 30
0.0
 10
616.392668
 20
-977.355411
 30
0.0
 10
618.572355
 20
-971.941361
 30
0.0
 10
622.931730
 20
-968.097611
 30
0.0
  0
SPLINE
  5
362
100
AcDbEntity
  8
Capa_1
 62
7
100
AcDbSpline
 70
8
 71
3
 72
8
 73
4
 74
0
 40
0
 40
0
 40
0
 40
0
 40
1
 40
1
 40
1
 40
1
 10
622.931730
 20
-968.097611
 30
0.0
 10
627.291105
 20
-964.253861
 30
0.0
 10
633.009855
 20
-961.886661
 30
0.0
 10
640.087980
 20
-960.996011
 30
0.0
  0
LWPOLYLINE
  5
363
100
AcDbEntity
  8
Capa_1
 62
7
100
AcDbPolyline
 90
2
 70
0
 10
687.619230
 20
-995.097611
 30
0.0
 10
687.619230
 20
-1004.449136
 30
0.0
  0
LWPOLYLINE
  5
364
100
AcDbEntity
  8
Capa_1
 62
7
100
AcDbPolyline
 90
2
 70
0
 10
640.087980
 20
-960.996011
 30
0.0
 10
660.267668
 20
-958.464911
 30
0.0
  0
SPLINE
  5
365
100
AcDbEntity
  8
Capa_1
 62
7
100
AcDbSpline
 70
8
 71
3
 72
8
 73
4
 74
0
 40
0
 40
0
 40
0
 40
0
 40
1
 40
1
 40
1
 40
1
 10
729.103605
 20
-926.613386
 30
0.0
 10
737.587980
 20
-926.613386
 30
0.0
 10
744.478605
 20
-928.675886
 30
0.0
 10
749.775480
 20
-932.800886
 30
0.0
  0
SPLINE
  5
366
100
AcDbEntity
  8
Capa_1
 62
7
100
AcDbSpline
 70
8
 71
3
 72
8
 73
4
 74
0
 40
0
 40
0
 40
0
 40
0
 40
1
 40
1
 40
1
 40
1
 10
749.775480
 20
-932.800886
 30
0.0
 10
755.119210
 20
-936.925886
 30
0.0
 10
758.330150
 20
-944.027436
 30
0.0
 10
759.408300
 20
-954.105536
 30
0.0
  0
LWPOLYLINE
  5
367
100
AcDbEntity
  8
Capa_1
 62
7
100
AcDbPolyline
 90
1
 70
1
 10
649.791105
 20
-926.964911
 30
0.0
  0
SPLINE
  5
368
100
AcDbEntity
  8
Capa_1
 62
7
100
AcDbSpline
 70
8
 71
3
 72
8
 73
4
 74
0
 40
0
 40
0
 40
0
 40
0
 40
1
 40
1
 40
1
 40
1
 10
747.103605
 20
-954.105536
 30
0.0
 10
746.353605
 20
-949.464936
 30
0.0
 10
744.642668
 20
-945.621186
 30
0.0
 10
741.970793
 20
-942.574286
 30
0.0
  0
SPLINE
  5
369
100
AcDbEntity
  8
Capa_1
 62
7
100
AcDbSpline
 70
8
 71
3
 72
8
 73
4
 74
0
 40
0
 40
0
 40
0
 40
0
 40
1
 40
1
 40
1
 40
1
 10
741.970793
 20
-942.574286
 30
0.0
 10
739.298918
 20
-939.480536
 30
0.0
 10
735.009855
 20
-937.933661
 30
0.0
 10
729.103605
 20
-937.933661
 30
0.0
  0
SPLINE
  5
36a
100
AcDbEntity
  8
Capa_1
 62
7
100
AcDbSpline
 70
8
 71
3
 72
8
 73
4
 74
0
 40
0
 40
0
 40
0
 40
0
 40
1
 40
1
 40
1
 40
1
 10
729.103605
 20
-937.933661
 30
0.0
 10
721.041105
 20
-937.933661
 30
0.0
 10
715.275480
 20
-941.871161
 30
0.0
 10
711.806730
 20
-949.746161
 30
0.0
  0
SPLINE
  5
36b
100
AcDbEntity
  8
Capa_1
 62
7
100
AcDbSpline
 70
8
 71
3
 72
8
 73
4
 74
0
 40
0
 40
0
 40
0
 40
0
 40
1
 40
1
 40
1
 40
1
 10
711.806730
 20
-949.746161
 30
0.0
 10
709.556730
 20
-954.855561
 30
0.0
 10
708.431730
 20
-961.160261
 30
0.0
 10
708.431730
 20
-968.660261
 30
0.0
  0
SPLINE
  5
36c
100
AcDbEntity
  8
Capa_1
 62
7
100
AcDbSpline
 70
8
 71
3
 72
8
 73
4
 74
0
 40
0
 40
0
 40
0
 40
0
 40
1
 40
1
 40
1
 40
1
 10
708.431730
 20
-968.660261
 30
0.0
 10
708.431730
 20
-976.207111
 30
0.0
 10
710.025480
 20
-982.558661
 30
0.0
 10
713.212980
 20
-987.714911
 30
0.0
  0
SPLINE
  5
36d
100
AcDbEntity
  8
Capa_1
 62
7
100
AcDbSpline
 70
8
 71
3
 72
8
 73
4
 74
0
 40
0
 40
0
 40
0
 40
0
 40
1
 40
1
 40
1
 40
1
 10
713.212980
 20
-987.714911
 30
0.0
 10
716.400480
 20
-992.871161
 30
0.0
 10
721.416105
 20
-995.449286
 30
0.0
 10
728.259855
 20
-995.449286
 30
0.0
  0
SPLINE
  5
36e
100
AcDbEntity
  8
Capa_1
 62
7
100
AcDbSpline
 70
8
 71
3
 72
8
 73
4
 74
0
 40
0
 40
0
 40
0
 40
0
 40
1
 40
1
 40
1
 40
1
 10
728.259855
 20
-995.449286
 30
0.0
 10
733.509855
 20
-995.449286
 30
0.0
 10
737.658293
 20
-993.855536
 30
0.0
 10
740.705168
 20
-990.668036
 30
0.0
  0
SPLINE
  5
36f
100
AcDbEntity
  8
Capa_1
 62
7
100
AcDbSpline
 70
8
 71
3
 72
8
 73
4
 74
0
 40
0
 40
0
 40
0
 40
0
 40
1
 40
1
 40
1
 40
1
 10
740.705168
 20
-990.668036
 30
0.0
 10
743.798918
 20
-987.433686
 30
0.0
 10
745.931730
 20
-983.027436
 30
0.0
 10
747.103605
 20
-977.449286
 30
0.0
  0
LWPOLYLINE
  5
370
100
AcDbEntity
  8
Capa_1
 62
7
100
AcDbPolyline
 90
2
 70
0
 10
759.408300
 20
-954.105536
 30
0.0
 10
747.103605
 20
-954.105536
 30
0.0
  0
SPLINE
  5
371
100
AcDbEntity
  8
Capa_1
 62
7
100
AcDbSpline
 70
8
 71
3
 72
8
 73
4
 74
0
 40
0
 40
0
 40
0
 40
0
 40
1
 40
1
 40
1
 40
1
 10
759.408300
 20
-977.449286
 30
0.0
 10
758.002050
 20
-987.433686
 30
0.0
 10
754.486423
 20
-994.746186
 30
0.0
 10
748.861418
 20
-999.386786
 30
0.0
  0
SPLINE
  5
372
100
AcDbEntity
  8
Capa_1
 62
7
100
AcDbSpline
 70
8
 71
3
 72
8
 73
4
 74
0
 40
0
 40
0
 40
0
 40
0
 40
1
 40
1
 40
1
 40
1
 10
748.861418
 20
-999.386786
 30
0.0
 10
743.236418
 20
-1003.980536
 30
0.0
 10
736.041105
 20
-1006.277411
 30
0.0
 10
727.275480
 20
-1006.277411
 30
0.0
  0
SPLINE
  5
373
100
AcDbEntity
  8
Capa_1
 62
7
100
AcDbSpline
 70
8
 71
3
 72
8
 73
4
 74
0
 40
0
 40
0
 40
0
 40
0
 40
1
 40
1
 40
1
 40
1
 10
727.275480
 20
-1006.277411
 30
0.0
 10
717.431730
 20
-1006.277411
 30
0.0
 10
709.580168
 20
-1002.691486
 30
0.0
 10
703.720793
 20
-995.519636
 30
0.0
  0
SPLINE
  5
374
100
AcDbEntity
  8
Capa_1
 62
7
100
AcDbSpline
 70
8
 71
3
 72
8
 73
4
 74
0
 40
0
 40
0
 40
0
 40
0
 40
1
 40
1
 40
1
 40
1
 10
703.720793
 20
-995.519636
 30
0.0
 10
697.861418
 20
-988.300886
 30
0.0
 10
694.931730
 20
-979.300886
 30
0.0
 10
694.931730
 20
-968.519636
 30
0.0
  0
SPLINE
  5
375
100
AcDbEntity
  8
Capa_1
 62
7
100
AcDbSpline
 70
8
 71
3
 72
8
 73
4
 74
0
 40
0
 40
0
 40
0
 40
0
 40
1
 40
1
 40
1
 40
1
 10
694.931730
 20
-968.519636
 30
0.0
 10
694.931730
 20
-955.300886
 30
0.0
 10
698.142668
 20
-945.011811
 30
0.0
 10
704.564543
 20
-937.652411
 30
0.0
  0
SPLINE
  5
376
100
AcDbEntity
  8
Capa_1
 62
7
100
AcDbSpline
 70
8
 71
3
 72
8
 73
4
 74
0
 40
0
 40
0
 40
0
 40
0
 40
1
 40
1
 40
1
 40
1
 10
704.564543
 20
-937.652411
 30
0.0
 10
710.986418
 20
-930.293061
 30
0.0
 10
719.166105
 20
-926.613386
 30
0.0
 10
729.103605
 20
-926.613386
 30
0.0
  0
LWPOLYLINE
  5
377
100
AcDbEntity
  8
Capa_1
 62
7
100
AcDbPolyline
 90
2
 70
0
 10
747.103605
 20
-977.449286
 30
0.0
 10
759.408300
 20
-977.449286
 30
0.0
  0
LWPOLYLINE
  5
378
100
AcDbEntity
  8
Capa_1
 62
7
100
AcDbPolyline
 90
1
 70
1
 10
729.103605
 20
-926.613386
 30
0.0
  0
LWPOLYLINE
  5
379
100
AcDbEntity
  8
Capa_1
 62
7
100
AcDbPolyline
 90
1
 70
1
 10
727.134855
 20
-926.964911
 30
0.0
  0
LWPOLYLINE
  5
37a
100
AcDbEntity
  8
Capa_1
 62
7
100
AcDbPolyline
 90
12
 70
1
 10
771.783300
 20
-900.808661
 30
0.0
 10
783.947325
 20
-900.808661
 30
0.0
 10
783.947325
 20
-960.785261
 30
0.0
 10
816.431700
 20
-928.793036
 30
0.0
 10
832.603575
 20
-928.793036
 30
0.0
 10
803.775450
 20
-956.988386
 30
0.0
 10
834.220800
 20
-1004.097761
 30
0.0
 10
818.048925
 20
-1004.097761
 30
0.0
 10
794.564550
 20
-966.129011
 30
0.0
 10
783.947325
 20
-975.832136
 30
0.0
 10
783.947325
 20
-1004.097761
 30
0.0
 10
771.783300
 20
-1004.097761
 30
0.0
  0
SPLINE
  5
37b
100
AcDbEntity
  8
Capa_1
 62
7
100
AcDbSpline
 70
8
 71
3
 72
8
 73
4
 74
0
 40
0
 40
0
 40
0
 40
0
 40
1
 40
1
 40
1
 40
1
 10
957.830175
 20
-984.058661
 30
0.0
 10
957.830175
 20
-987.714911
 30
0.0
 10
959.166100
 20
-990.597736
 30
0.0
 10
961.837950
 20
-992.707136
 30
0.0
  0
SPLINE
  5
37c
100
AcDbEntity
  8
Capa_1
 62
7
100
AcDbSpline
 70
8
 71
3
 72
8
 73
4
 74
0
 40
0
 40
0
 40
0
 40
0
 40
1
 40
1
 40
1
 40
1
 10
961.837950
 20
-992.707136
 30
0.0
 10
964.509850
 20
-994.816486
 30
0.0
 10
967.673925
 20
-995.871161
 30
0.0
 10
971.330175
 20
-995.871161
 30
0.0
  0
SPLINE
  5
37d
100
AcDbEntity
  8
Capa_1
 62
7
100
AcDbSpline
 70
8
 71
3
 72
8
 73
4
 74
0
 40
0
 40
0
 40
0
 40
0
 40
1
 40
1
 40
1
 40
1
 10
971.330175
 20
-995.871161
 30
0.0
 10
975.783275
 20
-995.871161
 30
0.0
 10
980.095775
 20
-994.839911
 30
0.0
 10
984.267675
 20
-992.777411
 30
0.0
  0
SPLINE
  5
37e
100
AcDbEntity
  8
Capa_1
 62
7
100
AcDbSpline
 70
8
 71
3
 72
8
 73
4
 74
0
 40
0
 40
0
 40
0
 40
0
 40
1
 40
1
 40
1
 40
1
 10
984.267675
 20
-992.777411
 30
0.0
 10
991.298925
 20
-989.355561
 30
0.0
 10
994.814550
 20
-983.754011
 30
0.0
 10
994.814550
 20
-975.972761
 30
0.0
  0
LWPOLYLINE
  5
37f
100
AcDbEntity
  8
Capa_1
 62
7
100
AcDbPolyline
 90
13
 70
1
 10
849.900450
 20
-928.793036
 30
0.0
 10
864.384825
 20
-988.136786
 30
0.0
 10
879.080175
 20
-928.793036
 30
0.0
 10
893.283300
 20
-928.793036
 30
0.0
 10
908.048925
 20
-987.785261
 30
0.0
 10
923.447325
 20
-928.793036
 30
0.0
 10
936.103575
 20
-928.793036
 30
0.0
 10
914.236425
 20
-1004.097761
 30
0.0
 10
901.087950
 20
-1004.097761
 30
0.0
 10
885.759825
 20
-945.808661
 30
0.0
 10
870.923925
 20
-1004.097761
 30
0.0
 10
857.775450
 20
-1004.097761
 30
0.0
 10
836.048925
 20
-928.793036
 30
0.0
  0
SPLINE
  5
380
100
AcDbEntity
  8
Capa_1
 62
7
100
AcDbSpline
 70
8
 71
3
 72
8
 73
4
 74
0
 40
0
 40
0
 40
0
 40
0
 40
1
 40
1
 40
1
 40
1
 10
994.814550
 20
-965.777411
 30
0.0
 10
993.267650
 20
-966.761811
 30
0.0
 10
991.275450
 20
-967.582136
 30
0.0
 10
988.837950
 20
-968.238386
 30
0.0
  0
SPLINE
  5
381
100
AcDbEntity
  8
Capa_1
 62
7
100
AcDbSpline
 70
8
 71
3
 72
8
 73
4
 74
0
 40
0
 40
0
 40
0
 40
0
 40
1
 40
1
 40
1
 40
1
 10
988.837950
 20
-968.238386
 30
0.0
 10
986.400450
 20
-968.894636
 30
0.0
 10
984.009825
 20
-969.363386
 30
0.0
 10
981.666075
 20
-969.644636
 30
0.0
  0
LWPOLYLINE
  5
382
100
AcDbEntity
  8
Capa_1
 62
7
100
AcDbPolyline
 90
2
 70
0
 10
994.814550
 20
-975.972761
 30
0.0
 10
994.814550
 20
-965.777411
 30
0.0
  0
SPLINE
  5
383
100
AcDbEntity
  8
Capa_1
 62
7
100
AcDbSpline
 70
8
 71
3
 72
8
 73
4
 74
0
 40
0
 40
0
 40
0
 40
0
 40
1
 40
1
 40
1
 40
1
 10
974.002050
 20
-970.629011
 30
0.0
 10
969.408300
 20
-971.238361
 30
0.0
 10
965.962975
 20
-972.199286
 30
0.0
 10
963.666075
 20
-973.511786
 30
0.0
  0
SPLINE
  5
384
100
AcDbEntity
  8
Capa_1
 62
7
100
AcDbSpline
 70
8
 71
3
 72
8
 73
4
 74
0
 40
0
 40
0
 40
0
 40
0
 40
1
 40
1
 40
1
 40
1
 10
963.666075
 20
-973.511786
 30
0.0
 10
959.775475
 20
-975.714936
 30
0.0
 10
957.830175
 20
-979.230561
 30
0.0
 10
957.830175
 20
-984.058661
 30
0.0
  0
LWPOLYLINE
  5
385
100
AcDbEntity
  8
Capa_1
 62
7
100
AcDbPolyline
 90
2
 70
0
 10
981.666075
 20
-969.644636
 30
0.0
 10
974.002050
 20
-970.629011
 30
0.0
  0
SPLINE
  5
386
100
AcDbEntity
  8
Capa_1
 62
7
100
AcDbSpline
 70
8
 71
3
 72
8
 73
4
 74
0
 40
0
 40
0
 40
0
 40
0
 40
1
 40
1
 40
1
 40
1
 10
988.486425
 20
-958.464911
 30
0.0
 10
991.392675
 20
-958.089911
 30
0.0
 10
993.337975
 20
-956.871161
 30
0.0
 10
994.322325
 20
-954.808661
 30
0.0
  0
SPLINE
  5
387
100
AcDbEntity
  8
Capa_1
 62
7
100
AcDbSpline
 70
8
 71
3
 72
8
 73
4
 74
0
 40
0
 40
0
 40
0
 40
0
 40
1
 40
1
 40
1
 40
1
 10
994.322325
 20
-954.808661
 30
0.0
 10
994.884825
 20
-953.683661
 30
0.0
 10
995.166075
 20
-952.066486
 30
0.0
 10
995.166075
 20
-949.957136
 30
0.0
  0
SPLINE
  5
388
100
AcDbEntity
  8
Capa_1
 62
7
100
AcDbSpline
 70
8
 71
3
 72
8
 73
4
 74
0
 40
0
 40
0
 40
0
 40
0
 40
1
 40
1
 40
1
 40
1
 10
995.166075
 20
-949.957136
 30
0.0
 10
995.166075
 20
-945.644636
 30
0.0
 10
993.619200
 20
-942.527436
 30
0.0
 10
990.525450
 20
-940.605536
 30
0.0
  0
SPLINE
  5
389
100
AcDbEntity
  8
Capa_1
 62
7
100
AcDbSpline
 70
8
 71
3
 72
8
 73
4
 74
0
 40
0
 40
0
 40
0
 40
0
 40
1
 40
1
 40
1
 40
1
 10
990.525450
 20
-940.605536
 30
0.0
 10
987.478600
 20
-938.636786
 30
0.0
 10
983.095800
 20
-937.652411
 30
0.0
 10
977.377050
 20
-937.652411
 30
0.0
  0
SPLINE
  5
38a
100
AcDbEntity
  8
Capa_1
 62
7
100
AcDbSpline
 70
8
 71
3
 72
8
 73
4
 74
0
 40
0
 40
0
 40
0
 40
0
 40
1
 40
1
 40
1
 40
1
 10
977.377050
 20
-937.652411
 30
0.0
 10
970.767650
 20
-937.652411
 30
0.0
 10
966.080150
 20
-939.433661
 30
0.0
 10
963.314550
 20
-942.996161
 30
0.0
  0
SPLINE
  5
38b
100
AcDbEntity
  8
Capa_1
 62
7
100
AcDbSpline
 70
8
 71
3
 72
8
 73
4
 74
0
 40
0
 40
0
 40
0
 40
0
 40
1
 40
1
 40
1
 40
1
 10
963.314550
 20
-942.996161
 30
0.0
 10
961.767650
 20
-944.964911
 30
0.0
 10
960.759825
 20
-947.894611
 30
0.0
 10
960.291075
 20
-951.785261
 30
0.0
  0
LWPOLYLINE
  5
38c
100
AcDbEntity
  8
Capa_1
 62
7
100
AcDbPolyline
 90
1
 70
1
 10
957.830175
 20
-984.058661
 30
0.0
  0
SPLINE
  5
38d
100
AcDbEntity
  8
Capa_1
 62
7
100
AcDbSpline
 70
8
 71
3
 72
8
 73
4
 74
0
 40
0
 40
0
 40
0
 40
0
 40
1
 40
1
 40
1
 40
1
 10
948.478575
 20
-951.785261
 30
0.0
 10
948.712975
 20
-942.504011
 30
0.0
 10
951.712975
 20
-936.058686
 30
0.0
 10
957.478575
 20
-932.449286
 30
0.0
  0
SPLINE
  5
38e
100
AcDbEntity
  8
Capa_1
 62
7
100
AcDbSpline
 70
8
 71
3
 72
8
 73
4
 74
0
 40
0
 40
0
 40
0
 40
0
 40
1
 40
1
 40
1
 40
1
 10
957.478575
 20
-932.449286
 30
0.0
 10
963.291075
 20
-928.793036
 30
0.0
 10
970.017650
 20
-926.964911
 30
0.0
 10
977.658300
 20
-926.964911
 30
0.0
  0
SPLINE
  5
38f
100
AcDbEntity
  8
Capa_1
 62
7
100
AcDbSpline
 70
8
 71
3
 72
8
 73
4
 74
0
 40
0
 40
0
 40
0
 40
0
 40
1
 40
1
 40
1
 40
1
 10
977.658300
 20
-926.964911
 30
0.0
 10
986.517650
 20
-926.964911
 30
0.0
 10
993.712950
 20
-928.652411
 30
0.0
 10
999.244200
 20
-932.027411
 30
0.0
  0
SPLINE
  5
390
100
AcDbEntity
  8
Capa_1
 62
7
100
AcDbSpline
 70
8
 71
3
 72
8
 73
4
 74
0
 40
0
 40
0
 40
0
 40
0
 40
1
 40
1
 40
1
 40
1
 10
999.244200
 20
-932.027411
 30
0.0
 10
1004.728600
 20
-935.402411
 30
0.0
 10
1007.470800
 20
-940.652411
 30
0.0
 10
1007.470800
 20
-947.777411
 30
0.0
  0
LWPOLYLINE
  5
391
100
AcDbEntity
  8
Capa_1
 62
7
100
AcDbPolyline
 90
2
 70
0
 10
960.291075
 20
-951.785261
 30
0.0
 10
948.478575
 20
-951.785261
 30
0.0
  0
SPLINE
  5
392
100
AcDbEntity
  8
Capa_1
 62
7
100
AcDbSpline
 70
8
 71
3
 72
8
 73
4
 74
0
 40
0
 40
0
 40
0
 40
0
 40
1
 40
1
 40
1
 40
1
 10
1007.470800
 20
-991.160261
 30
0.0
 10
1007.470800
 20
-992.472761
 30
0.0
 10
1007.728600
 20
-993.527436
 30
0.0
 10
1008.244200
 20
-994.324286
 30
0.0
  0
SPLINE
  5
393
100
AcDbEntity
  8
Capa_1
 62
7
100
AcDbSpline
 70
8
 71
3
 72
8
 73
4
 74
0
 40
0
 40
0
 40
0
 40
0
 40
1
 40
1
 40
1
 40
1
 10
1008.244200
 20
-994.324286
 30
0.0
 10
1008.806700
 20
-995.121186
 30
0.0
 10
1009.955150
 20
-995.519636
 30
0.0
 10
1011.689550
 20
-995.519636
 30
0.0
  0
SPLINE
  5
394
100
AcDbEntity
  8
Capa_1
 62
7
100
AcDbSpline
 70
8
 71
3
 72
8
 73
4
 74
0
 40
0
 40
0
 40
0
 40
0
 40
1
 40
1
 40
1
 40
1
 10
1011.689550
 20
-995.519636
 30
0.0
 10
1012.252050
 20
-995.519636
 30
0.0
 10
1012.884850
 20
-995.496136
 30
0.0
 10
1013.587950
 20
-995.449136
 30
0.0
  0
SPLINE
  5
395
100
AcDbEntity
  8
Capa_1
 62
7
100
AcDbSpline
 70
8
 71
3
 72
8
 73
4
 74
0
 40
0
 40
0
 40
0
 40
0
 40
1
 40
1
 40
1
 40
1
 10
1013.587950
 20
-995.449136
 30
0.0
 10
1014.291100
 20
-995.355386
 30
0.0
 10
1015.041100
 20
-995.238211
 30
0.0
 10
1015.837950
 20
-995.097611
 30
0.0
  0
LWPOLYLINE
  5
396
100
AcDbEntity
  8
Capa_1
 62
7
100
AcDbPolyline
 90
2
 70
0
 10
1007.470800
 20
-947.777411
 30
0.0
 10
1007.470800
 20
-991.160261
 30
0.0
  0
SPLINE
  5
397
100
AcDbEntity
  8
Capa_1
 62
7
100
AcDbSpline
 70
8
 71
3
 72
8
 73
4
 74
0
 40
0
 40
0
 40
0
 40
0
 40
1
 40
1
 40
1
 40
1
 10
1015.837950
 20
-1004.449136
 30
0.0
 10
1013.869200
 20
-1005.011636
 30
0.0
 10
1012.369200
 20
-1005.363211
 30
0.0
 10
1011.337950
 20
-1005.503861
 30
0.0
  0
SPLINE
  5
398
100
AcDbEntity
  8
Capa_1
 62
7
100
AcDbSpline
 70
8
 71
3
 72
8
 73
4
 74
0
 40
0
 40
0
 40
0
 40
0
 40
1
 40
1
 40
1
 40
1
 10
1011.337950
 20
-1005.503861
 30
0.0
 10
1010.306700
 20
-1005.644461
 30
0.0
 10
1008.900450
 20
-1005.714761
 30
0.0
 10
1007.119200
 20
-1005.714761
 30
0.0
  0
SPLINE
  5
399
100
AcDbEntity
  8
Capa_1
 62
7
100
AcDbSpline
 70
8
 71
3
 72
8
 73
4
 74
0
 40
0
 40
0
 40
0
 40
0
 40
1
 40
1
 40
1
 40
1
 10
1007.119200
 20
-1005.714761
 30
0.0
 10
1002.759850
 20
-1005.714761
 30
0.0
 10
999.595800
 20
-1004.167886
 30
0.0
 10
997.627050
 20
-1001.074136
 30
0.0
  0
SPLINE
  5
39a
100
AcDbEntity
  8
Capa_1
 62
7
100
AcDbSpline
 70
8
 71
3
 72
8
 73
4
 74
0
 40
0
 40
0
 40
0
 40
0
 40
1
 40
1
 40
1
 40
1
 10
997.627050
 20
-1001.074136
 30
0.0
 10
996.595800
 20
-999.433536
 30
0.0
 10
995.869225
 20
-997.113236
 30
0.0
 10
995.447325
 20
-994.113236
 30
0.0
  0
SPLINE
  5
39b
100
AcDbEntity
  8
Capa_1
 62
7
100
AcDbSpline
 70
8
 71
3
 72
8
 73
4
 74
0
 40
0
 40
0
 40
0
 40
0
 40
1
 40
1
 40
1
 40
1
 10
995.447325
 20
-994.113236
 30
0.0
 10
992.869225
 20
-997.488236
 30
0.0
 10
989.166100
 20
-1000.417911
 30
0.0
 10
984.337950
 20
-1002.902261
 30
0.0
  0
SPLINE
  5
39c
100
AcDbEntity
  8
Capa_1
 62
7
100
AcDbSpline
 70
8
 71
3
 72
8
 73
4
 74
0
 40
0
 40
0
 40
0
 40
0
 40
1
 40
1
 40
1
 40
1
 10
984.337950
 20
-1002.902261
 30
0.0
 10
979.509850
 20
-1005.386661
 30
0.0
 10
974.189550
 20
-1006.628861
 30
0.0
 10
968.377050
 20
-1006.628861
 30
0.0
  0
SPLINE
  5
39d
100
AcDbEntity
  8
Capa_1
 62
7
100
AcDbSpline
 70
8
 71
3
 72
8
 73
4
 74
0
 40
0
 40
0
 40
0
 40
0
 40
1
 40
1
 40
1
 40
1
 10
968.377050
 20
-1006.628861
 30
0.0
 10
961.392650
 20
-1006.628861
 30
0.0
 10
955.673900
 20
-1004.519486
 30
0.0
 10
951.220800
 20
-1000.300736
 30
0.0
  0
SPLINE
  5
39e
100
AcDbEntity
  8
Capa_1
 62
7
100
AcDbSpline
 70
8
 71
3
 72
8
 73
4
 74
0
 40
0
 40
0
 40
0
 40
0
 40
1
 40
1
 40
1
 40
1
 10
951.220800
 20
-1000.300736
 30
0.0
 10
946.814550
 20
-996.035086
 30
0.0
 10
944.611425
 20
-990.714761
 30
0.0
 10
944.611425
 20
-984.339761
 30
0.0
  0
SPLINE
  5
39f
100
AcDbEntity
  8
Capa_1
 62
7
100
AcDbSpline
 70
8
 71
3
 72
8
 73
4
 74
0
 40
0
 40
0
 40
0
 40
0
 40
1
 40
1
 40
1
 40
1
 10
944.611425
 20
-984.339761
 30
0.0
 10
944.611425
 20
-977.355411
 30
0.0
 10
946.791100
 20
-971.941361
 30
0.0
 10
951.150450
 20
-968.097611
 30
0.0
  0
SPLINE
  5
3a0
100
AcDbEntity
  8
Capa_1
 62
7
100
AcDbSpline
 70
8
 71
3
 72
8
 73
4
 74
0
 40
0
 40
0
 40
0
 40
0
 40
1
 40
1
 40
1
 40
1
 10
951.150450
 20
-968.097611
 30
0.0
 10
955.509850
 20
-964.253861
 30
0.0
 10
961.228600
 20
-961.886661
 30
0.0
 10
968.306700
 20
-960.996011
 30
0.0
  0
LWPOLYLINE
  5
3a1
100
AcDbEntity
  8
Capa_1
 62
7
100
AcDbPolyline
 90
2
 70
0
 10
1015.837950
 20
-995.097611
 30
0.0
 10
1015.837950
 20
-1004.449136
 30
0.0
  0
LWPOLYLINE
  5
3a2
100
AcDbEntity
  8
Capa_1
 62
7
100
AcDbPolyline
 90
2
 70
0
 10
968.306700
 20
-960.996011
 30
0.0
 10
988.486425
 20
-958.464911
 30
0.0
  0
LWPOLYLINE
  5
3a3
100
AcDbEntity
  8
Capa_1
 62
7
100
AcDbPolyline
 90
1
 70
1
 10
978.009825
 20
-926.964911
 30
0.0
  0
SPLINE
  5
3a4
100
AcDbEntity
  8
Capa_1
 62
7
100
AcDbSpline
 70
8
 71
3
 72
8
 73
4
 74
0
 40
0
 40
0
 40
0
 40
0
 40
1
 40
1
 40
1
 40
1
 10
1040.658300
 20
-941.800886
 30
0.0
 10
1041.642650
 20
-939.269636
 30
0.0
 10
1044.056700
 20
-936.199311
 30
0.0
 10
1047.900450
 20
-932.589911
 30
0.0
  0
SPLINE
  5
3a5
100
AcDbEntity
  8
Capa_1
 62
7
100
AcDbSpline
 70
8
 71
3
 72
8
 73
4
 74
0
 40
0
 40
0
 40
0
 40
0
 40
1
 40
1
 40
1
 40
1
 10
1047.900450
 20
-932.589911
 30
0.0
 10
1051.744200
 20
-928.933661
 30
0.0
 10
1056.173900
 20
-927.105536
 30
0.0
 10
1061.189550
 20
-927.105536
 30
0.0
  0
SPLINE
  5
3a6
100
AcDbEntity
  8
Capa_1
 62
7
100
AcDbSpline
 70
8
 71
3
 72
8
 73
4
 74
0
 40
0
 40
0
 40
0
 40
0
 40
1
 40
1
 40
1
 40
1
 10
1061.189550
 20
-927.105536
 30
0.0
 10
1061.423900
 20
-927.105536
 30
0.0
 10
1061.822325
 20
-927.129036
 30
0.0
 10
1062.384825
 20
-927.176036
 30
0.0
  0
SPLINE
  5
3a7
100
AcDbEntity
  8
Capa_1
 62
7
100
AcDbSpline
 70
8
 71
3
 72
8
 73
4
 74
0
 40
0
 40
0
 40
0
 40
0
 40
1
 40
1
 40
1
 40
1
 10
1062.384825
 20
-927.176036
 30
0.0
 10
1062.947325
 20
-927.223036
 30
0.0
 10
1063.908275
 20
-927.316786
 30
0.0
 10
1065.267675
 20
-927.457286
 30
0.0
  0
LWPOLYLINE
  5
3a8
100
AcDbEntity
  8
Capa_1
 62
7
100
AcDbPolyline
 90
3
 70
0
 10
1028.634825
 20
-928.793036
 30
0.0
 10
1040.658300
 20
-928.793036
 30
0.0
 10
1040.658300
 20
-941.800886
 30
0.0
  0
SPLINE
  5
3a9
100
AcDbEntity
  8
Capa_1
 62
7
100
AcDbSpline
 70
8
 71
3
 72
8
 73
4
 74
0
 40
0
 40
0
 40
0
 40
0
 40
1
 40
1
 40
1
 40
1
 10
1065.267675
 20
-940.816661
 30
0.0
 10
1064.517675
 20
-940.676011
 30
0.0
 10
1063.814550
 20
-940.582261
 30
0.0
 10
1063.158300
 20
-940.535411
 30
0.0
  0
SPLINE
  5
3aa
100
AcDbEntity
  8
Capa_1
 62
7
100
AcDbSpline
 70
8
 71
3
 72
8
 73
4
 74
0
 40
0
 40
0
 40
0
 40
0
 40
1
 40
1
 40
1
 40
1
 10
1063.158300
 20
-940.535411
 30
0.0
 10
1062.548900
 20
-940.488411
 30
0.0
 10
1061.869200
 20
-940.464911
 30
0.0
 10
1061.119200
 20
-940.464911
 30
0.0
  0
SPLINE
  5
3ab
100
AcDbEntity
  8
Capa_1
 62
7
100
AcDbSpline
 70
8
 71
3
 72
8
 73
4
 74
0
 40
0
 40
0
 40
0
 40
0
 40
1
 40
1
 40
1
 40
1
 10
1061.119200
 20
-940.464911
 30
0.0
 10
1054.744200
 20
-940.464911
 30
0.0
 10
1049.845775
 20
-942.527411
 30
0.0
 10
1046.423925
 20
-946.652411
 30
0.0
  0
SPLINE
  5
3ac
100
AcDbEntity
  8
Capa_1
 62
7
100
AcDbSpline
 70
8
 71
3
 72
8
 73
4
 74
0
 40
0
 40
0
 40
0
 40
0
 40
1
 40
1
 40
1
 40
1
 10
1046.423925
 20
-946.652411
 30
0.0
 10
1043.002025
 20
-950.730561
 30
0.0
 10
1041.291075
 20
-955.441511
 30
0.0
 10
1041.291075
 20
-960.785261
 30
0.0
  0
LWPOLYLINE
  5
3ad
100
AcDbEntity
  8
Capa_1
 62
7
100
AcDbPolyline
 90
2
 70
0
 10
1065.267675
 20
-927.457286
 30
0.0
 10
1065.267675
 20
-940.816661
 30
0.0
  0
SPLINE
  5
3ae
100
AcDbEntity
  8
Capa_1
 62
7
100
AcDbSpline
 70
8
 71
3
 72
8
 73
4
 74
0
 40
0
 40
0
 40
0
 40
0
 40
1
 40
1
 40
1
 40
1
 10
1084.392675
 20
-967.324286
 30
0.0
 10
1084.392675
 20
-975.386786
 30
0.0
 10
1086.103600
 20
-982.136786
 30
0.0
 10
1089.525450
 20
-987.574286
 30
0.0
  0
SPLINE
  5
3af
100
AcDbEntity
  8
Capa_1
 62
7
100
AcDbSpline
 70
8
 71
3
 72
8
 73
4
 74
0
 40
0
 40
0
 40
0
 40
0
 40
1
 40
1
 40
1
 40
1
 10
1089.525450
 20
-987.574286
 30
0.0
 10
1092.947350
 20
-993.011786
 30
0.0
 10
1098.431725
 20
-995.730536
 30
0.0
 10
1105.978575
 20
-995.730536
 30
0.0
  0
SPLINE
  5
3b0
100
AcDbEntity
  8
Capa_1
 62
7
100
AcDbSpline
 70
8
 71
3
 72
8
 73
4
 74
0
 40
0
 40
0
 40
0
 40
0
 40
1
 40
1
 40
1
 40
1
 10
1105.978575
 20
-995.730536
 30
0.0
 10
1111.837975
 20
-995.730536
 30
0.0
 10
1116.642675
 20
-993.222736
 30
0.0
 10
1120.392675
 20
-988.207136
 30
0.0
  0
SPLINE
  5
3b1
100
AcDbEntity
  8
Capa_1
 62
7
100
AcDbSpline
 70
8
 71
3
 72
8
 73
4
 74
0
 40
0
 40
0
 40
0
 40
0
 40
1
 40
1
 40
1
 40
1
 10
1120.392675
 20
-988.207136
 30
0.0
 10
1124.189525
 20
-983.144636
 30
0.0
 10
1126.087950
 20
-975.902436
 30
0.0
 10
1126.087950
 20
-966.480536
 30
0.0
  0
SPLINE
  5
3b2
100
AcDbEntity
  8
Capa_1
 62
7
100
AcDbSpline
 70
8
 71
3
 72
8
 73
4
 74
0
 40
0
 40
0
 40
0
 40
0
 40
1
 40
1
 40
1
 40
1
 10
1126.087950
 20
-966.480536
 30
0.0
 10
1126.087950
 20
-956.964936
 30
0.0
 10
1124.142650
 20
-949.933686
 30
0.0
 10
1120.252050
 20
-945.386786
 30
0.0
  0
SPLINE
  5
3b3
100
AcDbEntity
  8
Capa_1
 62
7
100
AcDbSpline
 70
8
 71
3
 72
8
 73
4
 74
0
 40
0
 40
0
 40
0
 40
0
 40
1
 40
1
 40
1
 40
1
 10
1120.252050
 20
-945.386786
 30
0.0
 10
1116.361400
 20
-940.793036
 30
0.0
 10
1111.556700
 20
-938.496161
 30
0.0
 10
1105.837950
 20
-938.496161
 30
0.0
  0
SPLINE
  5
3b4
100
AcDbEntity
  8
Capa_1
 62
7
100
AcDbSpline
 70
8
 71
3
 72
8
 73
4
 74
0
 40
0
 40
0
 40
0
 40
0
 40
1
 40
1
 40
1
 40
1
 10
1105.837950
 20
-938.496161
 30
0.0
 10
1099.462950
 20
-938.496161
 30
0.0
 10
1094.283275
 20
-940.933661
 30
0.0
 10
1090.298925
 20
-945.808661
 30
0.0
  0
SPLINE
  5
3b5
100
AcDbEntity
  8
Capa_1
 62
7
100
AcDbSpline
 70
8
 71
3
 72
8
 73
4
 74
0
 40
0
 40
0
 40
0
 40
0
 40
1
 40
1
 40
1
 40
1
 10
1090.298925
 20
-945.808661
 30
0.0
 10
1086.361425
 20
-950.683661
 30
0.0
 10
1084.392675
 20
-957.855536
 30
0.0
 10
1084.392675
 20
-967.324286
 30
0.0
  0
LWPOLYLINE
  5
3b6
100
AcDbEntity
  8
Capa_1
 62
7
100
AcDbPolyline
 90
4
 70
0
 10
1041.291075
 20
-960.785261
 30
0.0
 10
1041.291075
 20
-1004.097761
 30
0.0
 10
1028.634825
 20
-1004.097761
 30
0.0
 10
1028.634825
 20
-928.793036
 30
0.0
  0
SPLINE
  5
3b7
100
AcDbEntity
  8
Capa_1
 62
7
100
AcDbSpline
 70
8
 71
3
 72
8
 73
4
 74
0
 40
0
 40
0
 40
0
 40
0
 40
1
 40
1
 40
1
 40
1
 10
1103.447325
 20
-927.457136
 30
0.0
 10
1109.212975
 20
-927.457136
 30
0.0
 10
1114.041100
 20
-928.675886
 30
0.0
 10
1117.931700
 20
-931.113386
 30
0.0
  0
SPLINE
  5
3b8
100
AcDbEntity
  8
Capa_1
 62
7
100
AcDbSpline
 70
8
 71
3
 72
8
 73
4
 74
0
 40
0
 40
0
 40
0
 40
0
 40
1
 40
1
 40
1
 40
1
 10
1117.931700
 20
-931.113386
 30
0.0
 10
1120.181700
 20
-932.519636
 30
0.0
 10
1122.736400
 20
-934.980561
 30
0.0
 10
1125.595800
 20
-938.496161
 30
0.0
  0
LWPOLYLINE
  5
3b9
100
AcDbEntity
  8
Capa_1
 62
7
100
AcDbPolyline
 90
1
 70
1
 10
1084.392675
 20
-967.324286
 30
0.0
  0
SPLINE
  5
3ba
100
AcDbEntity
  8
Capa_1
 62
7
100
AcDbSpline
 70
8
 71
3
 72
8
 73
4
 74
0
 40
0
 40
0
 40
0
 40
0
 40
1
 40
1
 40
1
 40
1
 10
1126.369200
 20
-993.621161
 30
0.0
 10
1123.416100
 20
-998.261811
 30
0.0
 10
1119.923925
 20
-1001.613386
 30
0.0
 10
1115.892675
 20
-1003.675886
 30
0.0
  0
SPLINE
  5
3bb
100
AcDbEntity
  8
Capa_1
 62
7
100
AcDbSpline
 70
8
 71
3
 72
8
 73
4
 74
0
 40
0
 40
0
 40
0
 40
0
 40
1
 40
1
 40
1
 40
1
 10
1115.892675
 20
-1003.675886
 30
0.0
 10
1111.861425
 20
-1005.738386
 30
0.0
 10
1107.244225
 20
-1006.769636
 30
0.0
 10
1102.041075
 20
-1006.769636
 30
0.0
  0
SPLINE
  5
3bc
100
AcDbEntity
  8
Capa_1
 62
7
100
AcDbSpline
 70
8
 71
3
 72
8
 73
4
 74
0
 40
0
 40
0
 40
0
 40
0
 40
1
 40
1
 40
1
 40
1
 10
1102.041075
 20
-1006.769636
 30
0.0
 10
1093.650475
 20
-1006.769636
 30
0.0
 10
1086.384850
 20
-1003.254011
 30
0.0
 10
1080.244200
 20
-996.222761
 30
0.0
  0
SPLINE
  5
3bd
100
AcDbEntity
  8
Capa_1
 62
7
100
AcDbSpline
 70
8
 71
3
 72
8
 73
4
 74
0
 40
0
 40
0
 40
0
 40
0
 40
1
 40
1
 40
1
 40
1
 10
1080.244200
 20
-996.222761
 30
0.0
 10
1074.103600
 20
-989.144611
 30
0.0
 10
1071.033300
 20
-979.746161
 30
0.0
 10
1071.033300
 20
-968.027411
 30
0.0
  0
SPLINE
  5
3be
100
AcDbEntity
  8
Capa_1
 62
7
100
AcDbSpline
 70
8
 71
3
 72
8
 73
4
 74
0
 40
0
 40
0
 40
0
 40
0
 40
1
 40
1
 40
1
 40
1
 10
1071.033300
 20
-968.027411
 30
0.0
 10
1071.033300
 20
-957.058661
 30
0.0
 10
1073.822350
 20
-947.566486
 30
0.0
 10
1079.400450
 20
-939.550886
 30
0.0
  0
SPLINE
  5
3bf
100
AcDbEntity
  8
Capa_1
 62
7
100
AcDbSpline
 70
8
 71
3
 72
8
 73
4
 74
0
 40
0
 40
0
 40
0
 40
0
 40
1
 40
1
 40
1
 40
1
 10
1079.400450
 20
-939.550886
 30
0.0
 10
1085.025450
 20
-931.488386
 30
0.0
 10
1093.041075
 20
-927.457136
 30
0.0
 10
1103.447325
 20
-927.457136
 30
0.0
  0
LWPOLYLINE
  5
3c0
100
AcDbEntity
  8
Capa_1
 62
7
100
AcDbPolyline
 90
6
 70
0
 10
1125.595800
 20
-938.496161
 30
0.0
 10
1125.595800
 20
-900.457136
 30
0.0
 10
1137.759825
 20
-900.457136
 30
0.0
 10
1137.759825
 20
-1004.097761
 30
0.0
 10
1126.369200
 20
-1004.097761
 30
0.0
 10
1126.369200
 20
-993.621161
 30
0.0
  0
LWPOLYLINE
  5
3c1
100
AcDbEntity
  8
Capa_1
 62
7
100
AcDbPolyline
 90
1
 70
1
 10
1103.447325
 20
-927.457136
 30
0.0
  0
ENDSEC
  0
SECTION
  2
OBJECTS
  0
DICTIONARY
  5
C
330
0
100
AcDbDictionary
  3
ACAD_GROUP
350
D
  3
ACAD_MLINESTYLE
350
17
  0
DICTIONARY
  5
D
330
C
100
AcDbDictionary
  0
DICTIONARY
  5
1A
330
C
100
AcDbDictionary
  0
DICTIONARY
  5
17
330
C
100
AcDbDictionary
  3
STANDARD
350
18
  0
DICTIONARY
  5
19
330
C
100
AcDbDictionary
  0
ENDSEC
  0
EOF
